G04 #@! TF.GenerationSoftware,KiCad,Pcbnew,5.1.5-1.fc31*
G04 #@! TF.CreationDate,2019-12-29T19:08:06+00:00*
G04 #@! TF.ProjectId,electric-FIAT,656c6563-7472-4696-932d-464941542e6b,1.0.0*
G04 #@! TF.SameCoordinates,Original*
G04 #@! TF.FileFunction,Legend,Top*
G04 #@! TF.FilePolarity,Positive*
%FSLAX46Y46*%
G04 Gerber Fmt 4.6, Leading zero omitted, Abs format (unit mm)*
G04 Created by KiCad (PCBNEW 5.1.5-1.fc31) date 2019-12-29 19:08:06*
%MOMM*%
%LPD*%
G04 APERTURE LIST*
%ADD10C,0.120000*%
%ADD11C,0.100000*%
%ADD12C,0.150000*%
G04 APERTURE END LIST*
D10*
X124268578Y-155150000D02*
X123751422Y-155150000D01*
X124268578Y-156570000D02*
X123751422Y-156570000D01*
X98530000Y-88757221D02*
X98530000Y-89082779D01*
X99550000Y-88757221D02*
X99550000Y-89082779D01*
X93630000Y-99577221D02*
X93630000Y-99902779D01*
X92610000Y-99577221D02*
X92610000Y-99902779D01*
X71600000Y-102702779D02*
X71600000Y-102377221D01*
X70580000Y-102702779D02*
X70580000Y-102377221D01*
X89062779Y-98670000D02*
X88737221Y-98670000D01*
X89062779Y-99690000D02*
X88737221Y-99690000D01*
X96440000Y-89082779D02*
X96440000Y-88757221D01*
X95420000Y-89082779D02*
X95420000Y-88757221D01*
X70040000Y-102712779D02*
X70040000Y-102387221D01*
X69020000Y-102712779D02*
X69020000Y-102387221D01*
X88192779Y-95680000D02*
X87867221Y-95680000D01*
X88192779Y-96700000D02*
X87867221Y-96700000D01*
X98020000Y-89082779D02*
X98020000Y-88757221D01*
X97000000Y-89082779D02*
X97000000Y-88757221D01*
X101710000Y-90100000D02*
X101710000Y-91500000D01*
X104030000Y-91500000D02*
X104030000Y-89600000D01*
X85875000Y-64195000D02*
X85875000Y-66075000D01*
X83965000Y-64195000D02*
X83965000Y-66075000D01*
X82055000Y-64195000D02*
X82055000Y-66075000D01*
X81545000Y-64195000D02*
X81545000Y-66075000D01*
X83455000Y-64195000D02*
X83455000Y-66075000D01*
X85365000Y-64195000D02*
X85365000Y-66075000D01*
X88830000Y-64195000D02*
X88830000Y-59795000D01*
X78590000Y-64195000D02*
X78590000Y-59795000D01*
X88830000Y-64195000D02*
X78590000Y-64195000D01*
X80830000Y-50955000D02*
X86590000Y-50955000D01*
X80830000Y-50955000D02*
X80830000Y-48875000D01*
X86590000Y-50955000D02*
X86590000Y-48875000D01*
X78590000Y-59795000D02*
X76590000Y-59795000D01*
X88830000Y-59795000D02*
X90830000Y-59795000D01*
X76590000Y-59795000D02*
X76590000Y-48875000D01*
X90830000Y-59795000D02*
X90830000Y-48875000D01*
X91547936Y-166635000D02*
X92752064Y-166635000D01*
X91547936Y-164815000D02*
X92752064Y-164815000D01*
X73990000Y-124600000D02*
X73990000Y-127050000D01*
X77210000Y-126400000D02*
X77210000Y-124600000D01*
X86140000Y-132550000D02*
X86140000Y-135000000D01*
X89360000Y-134350000D02*
X89360000Y-132550000D01*
X87363922Y-131210000D02*
X87881078Y-131210000D01*
X87363922Y-129790000D02*
X87881078Y-129790000D01*
X74800000Y-79891078D02*
X74800000Y-79373922D01*
X73380000Y-79891078D02*
X73380000Y-79373922D01*
X85470000Y-68575000D02*
X88010000Y-68575000D01*
X85470000Y-68575000D02*
X85470000Y-71115000D01*
X85720000Y-68825000D02*
X95070000Y-68825000D01*
X85720000Y-89685000D02*
X85720000Y-68825000D01*
X95070000Y-89685000D02*
X85720000Y-89685000D01*
X95070000Y-68825000D02*
X95070000Y-89685000D01*
X134525000Y-79700000D02*
X134525000Y-77700000D01*
X135775000Y-79700000D02*
X134525000Y-79700000D01*
X141525000Y-71290000D02*
X141525000Y-72040000D01*
X137225000Y-71290000D02*
X141525000Y-71290000D01*
X137225000Y-72040000D02*
X137225000Y-71290000D01*
X136875000Y-72040000D02*
X137225000Y-72040000D01*
X136875000Y-71540000D02*
X136875000Y-72040000D01*
X135875000Y-71290000D02*
X136875000Y-71540000D01*
X135875000Y-74290000D02*
X135875000Y-71290000D01*
X136875000Y-74040000D02*
X135875000Y-74290000D01*
X136875000Y-73540000D02*
X136875000Y-74040000D01*
X137225000Y-73540000D02*
X136875000Y-73540000D01*
X137225000Y-74290000D02*
X137225000Y-73540000D01*
X141525000Y-74290000D02*
X137225000Y-74290000D01*
X141525000Y-73540000D02*
X141525000Y-74290000D01*
X141525000Y-75100000D02*
X141525000Y-75850000D01*
X137225000Y-75100000D02*
X141525000Y-75100000D01*
X137225000Y-75850000D02*
X137225000Y-75100000D01*
X136875000Y-75850000D02*
X137225000Y-75850000D01*
X136875000Y-75350000D02*
X136875000Y-75850000D01*
X135875000Y-75100000D02*
X136875000Y-75350000D01*
X135875000Y-78100000D02*
X135875000Y-75100000D01*
X136875000Y-77850000D02*
X135875000Y-78100000D01*
X136875000Y-77350000D02*
X136875000Y-77850000D01*
X137225000Y-77350000D02*
X136875000Y-77350000D01*
X137225000Y-78100000D02*
X137225000Y-77350000D01*
X141525000Y-78100000D02*
X137225000Y-78100000D01*
X141525000Y-77350000D02*
X141525000Y-78100000D01*
X134915000Y-70080000D02*
X134915000Y-79310000D01*
X142385000Y-70080000D02*
X134915000Y-70080000D01*
X142385000Y-79310000D02*
X142385000Y-70080000D01*
X134915000Y-79310000D02*
X142385000Y-79310000D01*
X141524845Y-72040353D02*
G75*
G03X141525000Y-73540000I1700155J-749647D01*
G01*
X141524845Y-75850353D02*
G75*
G03X141525000Y-77350000I1700155J-749647D01*
G01*
X97285000Y-69633578D02*
X97285000Y-69116422D01*
X95865000Y-69633578D02*
X95865000Y-69116422D01*
X98675000Y-71085000D02*
X101125000Y-71085000D01*
X100475000Y-67865000D02*
X98675000Y-67865000D01*
X104225000Y-66825000D02*
X106925000Y-66825000D01*
X104225000Y-67475000D02*
X104225000Y-66825000D01*
X97175000Y-67475000D02*
X104225000Y-67475000D01*
X97175000Y-66725000D02*
X97175000Y-67475000D01*
X97175000Y-61275000D02*
X97175000Y-62025000D01*
X104225000Y-61275000D02*
X97175000Y-61275000D01*
X104225000Y-61975000D02*
X104225000Y-61275000D01*
X107785000Y-59633578D02*
X107785000Y-59116422D01*
X106365000Y-59633578D02*
X106365000Y-59116422D01*
X95785000Y-59116422D02*
X95785000Y-59633578D01*
X94365000Y-59116422D02*
X94365000Y-59633578D01*
X96365000Y-59116422D02*
X96365000Y-59633578D01*
X97785000Y-59116422D02*
X97785000Y-59633578D01*
X98365000Y-59116422D02*
X98365000Y-59633578D01*
X99785000Y-59116422D02*
X99785000Y-59633578D01*
X100365000Y-59116422D02*
X100365000Y-59633578D01*
X101785000Y-59116422D02*
X101785000Y-59633578D01*
X102365000Y-59116422D02*
X102365000Y-59633578D01*
X103785000Y-59116422D02*
X103785000Y-59633578D01*
X105785000Y-59633578D02*
X105785000Y-59116422D01*
X104365000Y-59633578D02*
X104365000Y-59116422D01*
X93785000Y-64133578D02*
X93785000Y-63616422D01*
X92365000Y-64133578D02*
X92365000Y-63616422D01*
X123380000Y-107575000D02*
X121500000Y-107575000D01*
X123380000Y-105665000D02*
X121500000Y-105665000D01*
X123380000Y-103755000D02*
X121500000Y-103755000D01*
X123380000Y-103245000D02*
X121500000Y-103245000D01*
X123380000Y-105155000D02*
X121500000Y-105155000D01*
X123380000Y-107065000D02*
X121500000Y-107065000D01*
X123380000Y-110530000D02*
X127780000Y-110530000D01*
X123380000Y-100290000D02*
X127780000Y-100290000D01*
X123380000Y-110530000D02*
X123380000Y-100290000D01*
X136620000Y-102530000D02*
X136620000Y-108290000D01*
X136620000Y-102530000D02*
X138700000Y-102530000D01*
X136620000Y-108290000D02*
X138700000Y-108290000D01*
X127780000Y-100290000D02*
X127780000Y-98290000D01*
X127780000Y-110530000D02*
X127780000Y-112530000D01*
X127780000Y-98290000D02*
X138700000Y-98290000D01*
X127780000Y-112530000D02*
X138700000Y-112530000D01*
X95533578Y-109865000D02*
X95016422Y-109865000D01*
X95533578Y-111285000D02*
X95016422Y-111285000D01*
X122825000Y-81295000D02*
X120125000Y-81295000D01*
X122825000Y-80645000D02*
X122825000Y-81295000D01*
X129875000Y-80645000D02*
X122825000Y-80645000D01*
X129875000Y-81395000D02*
X129875000Y-80645000D01*
X129875000Y-86845000D02*
X129875000Y-86095000D01*
X122825000Y-86845000D02*
X129875000Y-86845000D01*
X122825000Y-86145000D02*
X122825000Y-86845000D01*
X64010000Y-107148578D02*
X64010000Y-106631422D01*
X62590000Y-107148578D02*
X62590000Y-106631422D01*
X71950000Y-97621422D02*
X71950000Y-98138578D01*
X73370000Y-97621422D02*
X73370000Y-98138578D01*
X91508578Y-129060000D02*
X90991422Y-129060000D01*
X91508578Y-130480000D02*
X90991422Y-130480000D01*
X73430000Y-124658578D02*
X73430000Y-124141422D01*
X72010000Y-124658578D02*
X72010000Y-124141422D01*
X83928578Y-125740000D02*
X83411422Y-125740000D01*
X83928578Y-127160000D02*
X83411422Y-127160000D01*
X62780000Y-80101422D02*
X62780000Y-80618578D01*
X64200000Y-80101422D02*
X64200000Y-80618578D01*
X62305000Y-110670000D02*
X64990000Y-110670000D01*
X62305000Y-108750000D02*
X62305000Y-110670000D01*
X64990000Y-108750000D02*
X62305000Y-108750000D01*
X64190000Y-72718578D02*
X64190000Y-72201422D01*
X62770000Y-72718578D02*
X62770000Y-72201422D01*
X94200000Y-109335000D02*
X96650000Y-109335000D01*
X96000000Y-106115000D02*
X94200000Y-106115000D01*
X92000000Y-105815000D02*
X90600000Y-105815000D01*
X90600000Y-108135000D02*
X92500000Y-108135000D01*
X123658578Y-27140000D02*
X123141422Y-27140000D01*
X123658578Y-28560000D02*
X123141422Y-28560000D01*
X94175000Y-117060000D02*
X96625000Y-117060000D01*
X95975000Y-113840000D02*
X94175000Y-113840000D01*
X131235000Y-89003578D02*
X131235000Y-88486422D01*
X129815000Y-89003578D02*
X129815000Y-88486422D01*
X123658578Y-34940000D02*
X123141422Y-34940000D01*
X123658578Y-36360000D02*
X123141422Y-36360000D01*
X114910000Y-31475000D02*
X114910000Y-29025000D01*
X111690000Y-29675000D02*
X111690000Y-31475000D01*
X91041422Y-105235000D02*
X91558578Y-105235000D01*
X91041422Y-103815000D02*
X91558578Y-103815000D01*
X91166422Y-112385000D02*
X91683578Y-112385000D01*
X91166422Y-110965000D02*
X91683578Y-110965000D01*
X95571078Y-117565000D02*
X95053922Y-117565000D01*
X95571078Y-118985000D02*
X95053922Y-118985000D01*
X118090000Y-81673922D02*
X118090000Y-82191078D01*
X119510000Y-81673922D02*
X119510000Y-82191078D01*
X113390000Y-24941422D02*
X113390000Y-25458578D01*
X114810000Y-24941422D02*
X114810000Y-25458578D01*
X116766422Y-38360000D02*
X117283578Y-38360000D01*
X116766422Y-36940000D02*
X117283578Y-36940000D01*
X111185000Y-30883578D02*
X111185000Y-30366422D01*
X109765000Y-30883578D02*
X109765000Y-30366422D01*
X68285000Y-120141422D02*
X68285000Y-120658578D01*
X66865000Y-120141422D02*
X66865000Y-120658578D01*
X68310000Y-116233578D02*
X68310000Y-115716422D01*
X66890000Y-116233578D02*
X66890000Y-115716422D01*
X92100000Y-112965000D02*
X90700000Y-112965000D01*
X90700000Y-115285000D02*
X92600000Y-115285000D01*
X123658578Y-29090000D02*
X123141422Y-29090000D01*
X123658578Y-30510000D02*
X123141422Y-30510000D01*
X89815000Y-132550000D02*
X89815000Y-135000000D01*
X93035000Y-134350000D02*
X93035000Y-132550000D01*
X129260000Y-89003578D02*
X129260000Y-88486422D01*
X127840000Y-89003578D02*
X127840000Y-88486422D01*
X127310000Y-89003578D02*
X127310000Y-88486422D01*
X125890000Y-89003578D02*
X125890000Y-88486422D01*
X125360000Y-89003578D02*
X125360000Y-88486422D01*
X123940000Y-89003578D02*
X123940000Y-88486422D01*
X123410000Y-89003578D02*
X123410000Y-88486422D01*
X121990000Y-89003578D02*
X121990000Y-88486422D01*
X128441422Y-79255000D02*
X128958578Y-79255000D01*
X128441422Y-77835000D02*
X128958578Y-77835000D01*
X123658578Y-31040000D02*
X123141422Y-31040000D01*
X123658578Y-32460000D02*
X123141422Y-32460000D01*
X123658578Y-32990000D02*
X123141422Y-32990000D01*
X123658578Y-34410000D02*
X123141422Y-34410000D01*
X120783578Y-36940000D02*
X120266422Y-36940000D01*
X120783578Y-38360000D02*
X120266422Y-38360000D01*
X77665000Y-124600000D02*
X77665000Y-127050000D01*
X80885000Y-126400000D02*
X80885000Y-124600000D01*
X117908578Y-145815000D02*
X117391422Y-145815000D01*
X117908578Y-147235000D02*
X117391422Y-147235000D01*
X123380000Y-169575000D02*
X121500000Y-169575000D01*
X123380000Y-167665000D02*
X121500000Y-167665000D01*
X123380000Y-165755000D02*
X121500000Y-165755000D01*
X123380000Y-165245000D02*
X121500000Y-165245000D01*
X123380000Y-167155000D02*
X121500000Y-167155000D01*
X123380000Y-169065000D02*
X121500000Y-169065000D01*
X123380000Y-172530000D02*
X127780000Y-172530000D01*
X123380000Y-162290000D02*
X127780000Y-162290000D01*
X123380000Y-172530000D02*
X123380000Y-162290000D01*
X136620000Y-164530000D02*
X136620000Y-170290000D01*
X136620000Y-164530000D02*
X138700000Y-164530000D01*
X136620000Y-170290000D02*
X138700000Y-170290000D01*
X127780000Y-162290000D02*
X127780000Y-160290000D01*
X127780000Y-172530000D02*
X127780000Y-174530000D01*
X127780000Y-160290000D02*
X138700000Y-160290000D01*
X127780000Y-174530000D02*
X138700000Y-174530000D01*
X128483578Y-153015000D02*
X127966422Y-153015000D01*
X128483578Y-154435000D02*
X127966422Y-154435000D01*
X128483578Y-145140000D02*
X127966422Y-145140000D01*
X128483578Y-146560000D02*
X127966422Y-146560000D01*
X75345000Y-69440000D02*
X77885000Y-69440000D01*
X75345000Y-69440000D02*
X75345000Y-71980000D01*
X75595000Y-69690000D02*
X84945000Y-69690000D01*
X75595000Y-103250000D02*
X75595000Y-69690000D01*
X84945000Y-103250000D02*
X75595000Y-103250000D01*
X84945000Y-69690000D02*
X84945000Y-103250000D01*
X118450000Y-147740000D02*
X116000000Y-147740000D01*
X116650000Y-150960000D02*
X118450000Y-150960000D01*
X72275000Y-121450000D02*
X76275000Y-121450000D01*
X72275000Y-118150000D02*
X72275000Y-121450000D01*
X68900000Y-118850000D02*
X68900000Y-117500000D01*
X70650000Y-118850000D02*
X70650000Y-117500000D01*
X115950000Y-33625000D02*
X115950000Y-36325000D01*
X115300000Y-33625000D02*
X115950000Y-33625000D01*
X115300000Y-26575000D02*
X115300000Y-33625000D01*
X116050000Y-26575000D02*
X115300000Y-26575000D01*
X121500000Y-26575000D02*
X120750000Y-26575000D01*
X121500000Y-33625000D02*
X121500000Y-26575000D01*
X120800000Y-33625000D02*
X121500000Y-33625000D01*
X128483578Y-147090000D02*
X127966422Y-147090000D01*
X128483578Y-148510000D02*
X127966422Y-148510000D01*
X127966422Y-144585000D02*
X128483578Y-144585000D01*
X127966422Y-143165000D02*
X128483578Y-143165000D01*
X128471078Y-151040000D02*
X127953922Y-151040000D01*
X128471078Y-152460000D02*
X127953922Y-152460000D01*
X128483578Y-149065000D02*
X127966422Y-149065000D01*
X128483578Y-150485000D02*
X127966422Y-150485000D01*
X125695000Y-144627500D02*
X125695000Y-141927500D01*
X126345000Y-144627500D02*
X125695000Y-144627500D01*
X126345000Y-151677500D02*
X126345000Y-144627500D01*
X125595000Y-151677500D02*
X126345000Y-151677500D01*
X120145000Y-151677500D02*
X120895000Y-151677500D01*
X120145000Y-144627500D02*
X120145000Y-151677500D01*
X120845000Y-144627500D02*
X120145000Y-144627500D01*
X127966422Y-142610000D02*
X128483578Y-142610000D01*
X127966422Y-141190000D02*
X128483578Y-141190000D01*
X99348578Y-133100000D02*
X98831422Y-133100000D01*
X99348578Y-134520000D02*
X98831422Y-134520000D01*
X76420000Y-68260000D02*
X74420000Y-68260000D01*
X76420000Y-67010000D02*
X76420000Y-68260000D01*
X64200000Y-61260000D02*
X64950000Y-61260000D01*
X64200000Y-65560000D02*
X64200000Y-61260000D01*
X64950000Y-65560000D02*
X64200000Y-65560000D01*
X64950000Y-65910000D02*
X64950000Y-65560000D01*
X64450000Y-65910000D02*
X64950000Y-65910000D01*
X64200000Y-66910000D02*
X64450000Y-65910000D01*
X67200000Y-66910000D02*
X64200000Y-66910000D01*
X66950000Y-65910000D02*
X67200000Y-66910000D01*
X66450000Y-65910000D02*
X66950000Y-65910000D01*
X66450000Y-65560000D02*
X66450000Y-65910000D01*
X67200000Y-65560000D02*
X66450000Y-65560000D01*
X67200000Y-61260000D02*
X67200000Y-65560000D01*
X66450000Y-61260000D02*
X67200000Y-61260000D01*
X68010000Y-61260000D02*
X68760000Y-61260000D01*
X68010000Y-65560000D02*
X68010000Y-61260000D01*
X68760000Y-65560000D02*
X68010000Y-65560000D01*
X68760000Y-65910000D02*
X68760000Y-65560000D01*
X68260000Y-65910000D02*
X68760000Y-65910000D01*
X68010000Y-66910000D02*
X68260000Y-65910000D01*
X71010000Y-66910000D02*
X68010000Y-66910000D01*
X70760000Y-65910000D02*
X71010000Y-66910000D01*
X70260000Y-65910000D02*
X70760000Y-65910000D01*
X70260000Y-65560000D02*
X70260000Y-65910000D01*
X71010000Y-65560000D02*
X70260000Y-65560000D01*
X71010000Y-61260000D02*
X71010000Y-65560000D01*
X70260000Y-61260000D02*
X71010000Y-61260000D01*
X71820000Y-61260000D02*
X72570000Y-61260000D01*
X71820000Y-65560000D02*
X71820000Y-61260000D01*
X72570000Y-65560000D02*
X71820000Y-65560000D01*
X72570000Y-65910000D02*
X72570000Y-65560000D01*
X72070000Y-65910000D02*
X72570000Y-65910000D01*
X71820000Y-66910000D02*
X72070000Y-65910000D01*
X74820000Y-66910000D02*
X71820000Y-66910000D01*
X74570000Y-65910000D02*
X74820000Y-66910000D01*
X74070000Y-65910000D02*
X74570000Y-65910000D01*
X74070000Y-65560000D02*
X74070000Y-65910000D01*
X74820000Y-65560000D02*
X74070000Y-65560000D01*
X74820000Y-61260000D02*
X74820000Y-65560000D01*
X74070000Y-61260000D02*
X74820000Y-61260000D01*
X62990000Y-67870000D02*
X76030000Y-67870000D01*
X62990000Y-60400000D02*
X62990000Y-67870000D01*
X76030000Y-60400000D02*
X62990000Y-60400000D01*
X76030000Y-67870000D02*
X76030000Y-60400000D01*
X64950353Y-61260155D02*
G75*
G03X66450000Y-61260000I749647J1700155D01*
G01*
X68760353Y-61260155D02*
G75*
G03X70260000Y-61260000I749647J1700155D01*
G01*
X72570353Y-61260155D02*
G75*
G03X74070000Y-61260000I749647J1700155D01*
G01*
X64650000Y-82150000D02*
X64650000Y-80150000D01*
X65900000Y-82150000D02*
X64650000Y-82150000D01*
X71650000Y-69930000D02*
X71650000Y-70680000D01*
X67350000Y-69930000D02*
X71650000Y-69930000D01*
X67350000Y-70680000D02*
X67350000Y-69930000D01*
X67000000Y-70680000D02*
X67350000Y-70680000D01*
X67000000Y-70180000D02*
X67000000Y-70680000D01*
X66000000Y-69930000D02*
X67000000Y-70180000D01*
X66000000Y-72930000D02*
X66000000Y-69930000D01*
X67000000Y-72680000D02*
X66000000Y-72930000D01*
X67000000Y-72180000D02*
X67000000Y-72680000D01*
X67350000Y-72180000D02*
X67000000Y-72180000D01*
X67350000Y-72930000D02*
X67350000Y-72180000D01*
X71650000Y-72930000D02*
X67350000Y-72930000D01*
X71650000Y-72180000D02*
X71650000Y-72930000D01*
X71650000Y-73740000D02*
X71650000Y-74490000D01*
X67350000Y-73740000D02*
X71650000Y-73740000D01*
X67350000Y-74490000D02*
X67350000Y-73740000D01*
X67000000Y-74490000D02*
X67350000Y-74490000D01*
X67000000Y-73990000D02*
X67000000Y-74490000D01*
X66000000Y-73740000D02*
X67000000Y-73990000D01*
X66000000Y-76740000D02*
X66000000Y-73740000D01*
X67000000Y-76490000D02*
X66000000Y-76740000D01*
X67000000Y-75990000D02*
X67000000Y-76490000D01*
X67350000Y-75990000D02*
X67000000Y-75990000D01*
X67350000Y-76740000D02*
X67350000Y-75990000D01*
X71650000Y-76740000D02*
X67350000Y-76740000D01*
X71650000Y-75990000D02*
X71650000Y-76740000D01*
X71650000Y-77550000D02*
X71650000Y-78300000D01*
X67350000Y-77550000D02*
X71650000Y-77550000D01*
X67350000Y-78300000D02*
X67350000Y-77550000D01*
X67000000Y-78300000D02*
X67350000Y-78300000D01*
X67000000Y-77800000D02*
X67000000Y-78300000D01*
X66000000Y-77550000D02*
X67000000Y-77800000D01*
X66000000Y-80550000D02*
X66000000Y-77550000D01*
X67000000Y-80300000D02*
X66000000Y-80550000D01*
X67000000Y-79800000D02*
X67000000Y-80300000D01*
X67350000Y-79800000D02*
X67000000Y-79800000D01*
X67350000Y-80550000D02*
X67350000Y-79800000D01*
X71650000Y-80550000D02*
X67350000Y-80550000D01*
X71650000Y-79800000D02*
X71650000Y-80550000D01*
X65040000Y-68720000D02*
X65040000Y-81760000D01*
X72510000Y-68720000D02*
X65040000Y-68720000D01*
X72510000Y-81760000D02*
X72510000Y-68720000D01*
X65040000Y-81760000D02*
X72510000Y-81760000D01*
X71649845Y-70680353D02*
G75*
G03X71650000Y-72180000I1700155J-749647D01*
G01*
X71649845Y-74490353D02*
G75*
G03X71650000Y-75990000I1700155J-749647D01*
G01*
X71649845Y-78300353D02*
G75*
G03X71650000Y-79800000I1700155J-749647D01*
G01*
X93970000Y-124420000D02*
X95970000Y-124420000D01*
X93970000Y-125670000D02*
X93970000Y-124420000D01*
X102380000Y-131420000D02*
X101630000Y-131420000D01*
X102380000Y-127120000D02*
X102380000Y-131420000D01*
X101630000Y-127120000D02*
X102380000Y-127120000D01*
X101630000Y-126770000D02*
X101630000Y-127120000D01*
X102130000Y-126770000D02*
X101630000Y-126770000D01*
X102380000Y-125770000D02*
X102130000Y-126770000D01*
X99380000Y-125770000D02*
X102380000Y-125770000D01*
X99630000Y-126770000D02*
X99380000Y-125770000D01*
X100130000Y-126770000D02*
X99630000Y-126770000D01*
X100130000Y-127120000D02*
X100130000Y-126770000D01*
X99380000Y-127120000D02*
X100130000Y-127120000D01*
X99380000Y-131420000D02*
X99380000Y-127120000D01*
X100130000Y-131420000D02*
X99380000Y-131420000D01*
X98570000Y-131420000D02*
X97820000Y-131420000D01*
X98570000Y-127120000D02*
X98570000Y-131420000D01*
X97820000Y-127120000D02*
X98570000Y-127120000D01*
X97820000Y-126770000D02*
X97820000Y-127120000D01*
X98320000Y-126770000D02*
X97820000Y-126770000D01*
X98570000Y-125770000D02*
X98320000Y-126770000D01*
X95570000Y-125770000D02*
X98570000Y-125770000D01*
X95820000Y-126770000D02*
X95570000Y-125770000D01*
X96320000Y-126770000D02*
X95820000Y-126770000D01*
X96320000Y-127120000D02*
X96320000Y-126770000D01*
X95570000Y-127120000D02*
X96320000Y-127120000D01*
X95570000Y-131420000D02*
X95570000Y-127120000D01*
X96320000Y-131420000D02*
X95570000Y-131420000D01*
X103590000Y-124810000D02*
X94360000Y-124810000D01*
X103590000Y-132280000D02*
X103590000Y-124810000D01*
X94360000Y-132280000D02*
X103590000Y-132280000D01*
X94360000Y-124810000D02*
X94360000Y-132280000D01*
X101629647Y-131419845D02*
G75*
G03X100130000Y-131420000I-749647J-1700155D01*
G01*
X97819647Y-131419845D02*
G75*
G03X96320000Y-131420000I-749647J-1700155D01*
G01*
X89810000Y-123380000D02*
X86360000Y-123380000D01*
X89810000Y-123380000D02*
X91760000Y-123380000D01*
X89810000Y-128500000D02*
X87860000Y-128500000D01*
X89810000Y-128500000D02*
X91760000Y-128500000D01*
X88305000Y-177360000D02*
X89555000Y-177360000D01*
X88305000Y-176110000D02*
X88305000Y-177360000D01*
X88605000Y-167640000D02*
X88605000Y-177060000D01*
X110675000Y-167640000D02*
X88605000Y-167640000D01*
X110675000Y-177060000D02*
X110675000Y-167640000D01*
X88605000Y-177060000D02*
X110675000Y-177060000D01*
X74610000Y-127500000D02*
X76610000Y-127500000D01*
X74610000Y-128750000D02*
X74610000Y-127500000D01*
X84230000Y-134500000D02*
X83480000Y-134500000D01*
X84230000Y-130200000D02*
X84230000Y-134500000D01*
X83480000Y-130200000D02*
X84230000Y-130200000D01*
X83480000Y-129850000D02*
X83480000Y-130200000D01*
X83980000Y-129850000D02*
X83480000Y-129850000D01*
X84230000Y-128850000D02*
X83980000Y-129850000D01*
X81230000Y-128850000D02*
X84230000Y-128850000D01*
X81480000Y-129850000D02*
X81230000Y-128850000D01*
X81980000Y-129850000D02*
X81480000Y-129850000D01*
X81980000Y-130200000D02*
X81980000Y-129850000D01*
X81230000Y-130200000D02*
X81980000Y-130200000D01*
X81230000Y-134500000D02*
X81230000Y-130200000D01*
X81980000Y-134500000D02*
X81230000Y-134500000D01*
X79150000Y-134500000D02*
X78400000Y-134500000D01*
X79150000Y-130200000D02*
X79150000Y-134500000D01*
X78400000Y-130200000D02*
X79150000Y-130200000D01*
X78400000Y-129850000D02*
X78400000Y-130200000D01*
X78900000Y-129850000D02*
X78400000Y-129850000D01*
X79150000Y-128850000D02*
X78900000Y-129850000D01*
X76150000Y-128850000D02*
X79150000Y-128850000D01*
X76400000Y-129850000D02*
X76150000Y-128850000D01*
X76900000Y-129850000D02*
X76400000Y-129850000D01*
X76900000Y-130200000D02*
X76900000Y-129850000D01*
X76150000Y-130200000D02*
X76900000Y-130200000D01*
X76150000Y-134500000D02*
X76150000Y-130200000D01*
X76900000Y-134500000D02*
X76150000Y-134500000D01*
X85380000Y-127890000D02*
X75000000Y-127890000D01*
X85380000Y-135360000D02*
X85380000Y-127890000D01*
X75000000Y-135360000D02*
X85380000Y-135360000D01*
X75000000Y-127890000D02*
X75000000Y-135360000D01*
X83479647Y-134499845D02*
G75*
G03X81980000Y-134500000I-749647J-1700155D01*
G01*
X78399647Y-134499845D02*
G75*
G03X76900000Y-134500000I-749647J-1700155D01*
G01*
X114075000Y-178320354D02*
X113075000Y-178320354D01*
X113575000Y-177820354D02*
X113575000Y-178820354D01*
X111299000Y-188381000D02*
X110101000Y-188381000D01*
X111562000Y-188341000D02*
X109838000Y-188341000D01*
X111762000Y-188301000D02*
X109638000Y-188301000D01*
X111930000Y-188261000D02*
X109470000Y-188261000D01*
X112078000Y-188221000D02*
X109322000Y-188221000D01*
X112210000Y-188181000D02*
X109190000Y-188181000D01*
X112330000Y-188141000D02*
X109070000Y-188141000D01*
X112442000Y-188101000D02*
X108958000Y-188101000D01*
X112546000Y-188061000D02*
X108854000Y-188061000D01*
X112644000Y-188021000D02*
X108756000Y-188021000D01*
X112737000Y-187981000D02*
X108663000Y-187981000D01*
X112825000Y-187941000D02*
X108575000Y-187941000D01*
X112909000Y-187901000D02*
X108491000Y-187901000D01*
X112989000Y-187861000D02*
X108411000Y-187861000D01*
X113065000Y-187821000D02*
X108335000Y-187821000D01*
X113139000Y-187781000D02*
X108261000Y-187781000D01*
X113210000Y-187741000D02*
X108190000Y-187741000D01*
X113279000Y-187701000D02*
X108121000Y-187701000D01*
X113345000Y-187661000D02*
X108055000Y-187661000D01*
X113409000Y-187621000D02*
X107991000Y-187621000D01*
X113470000Y-187581000D02*
X107930000Y-187581000D01*
X113530000Y-187541000D02*
X107870000Y-187541000D01*
X113589000Y-187501000D02*
X107811000Y-187501000D01*
X113645000Y-187461000D02*
X107755000Y-187461000D01*
X113700000Y-187421000D02*
X107700000Y-187421000D01*
X113754000Y-187381000D02*
X107646000Y-187381000D01*
X113806000Y-187341000D02*
X107594000Y-187341000D01*
X113856000Y-187301000D02*
X107544000Y-187301000D01*
X113906000Y-187261000D02*
X107494000Y-187261000D01*
X113954000Y-187221000D02*
X107446000Y-187221000D01*
X114001000Y-187181000D02*
X107399000Y-187181000D01*
X114047000Y-187141000D02*
X107353000Y-187141000D01*
X114092000Y-187101000D02*
X107308000Y-187101000D01*
X114136000Y-187061000D02*
X107264000Y-187061000D01*
X109459000Y-187021000D02*
X107222000Y-187021000D01*
X114178000Y-187021000D02*
X111941000Y-187021000D01*
X109459000Y-186981000D02*
X107180000Y-186981000D01*
X114220000Y-186981000D02*
X111941000Y-186981000D01*
X109459000Y-186941000D02*
X107139000Y-186941000D01*
X114261000Y-186941000D02*
X111941000Y-186941000D01*
X109459000Y-186901000D02*
X107099000Y-186901000D01*
X114301000Y-186901000D02*
X111941000Y-186901000D01*
X109459000Y-186861000D02*
X107060000Y-186861000D01*
X114340000Y-186861000D02*
X111941000Y-186861000D01*
X109459000Y-186821000D02*
X107021000Y-186821000D01*
X114379000Y-186821000D02*
X111941000Y-186821000D01*
X109459000Y-186781000D02*
X106984000Y-186781000D01*
X114416000Y-186781000D02*
X111941000Y-186781000D01*
X109459000Y-186741000D02*
X106947000Y-186741000D01*
X114453000Y-186741000D02*
X111941000Y-186741000D01*
X109459000Y-186701000D02*
X106911000Y-186701000D01*
X114489000Y-186701000D02*
X111941000Y-186701000D01*
X109459000Y-186661000D02*
X106876000Y-186661000D01*
X114524000Y-186661000D02*
X111941000Y-186661000D01*
X109459000Y-186621000D02*
X106842000Y-186621000D01*
X114558000Y-186621000D02*
X111941000Y-186621000D01*
X109459000Y-186581000D02*
X106808000Y-186581000D01*
X114592000Y-186581000D02*
X111941000Y-186581000D01*
X109459000Y-186541000D02*
X106775000Y-186541000D01*
X114625000Y-186541000D02*
X111941000Y-186541000D01*
X109459000Y-186501000D02*
X106743000Y-186501000D01*
X114657000Y-186501000D02*
X111941000Y-186501000D01*
X109459000Y-186461000D02*
X106711000Y-186461000D01*
X114689000Y-186461000D02*
X111941000Y-186461000D01*
X109459000Y-186421000D02*
X106680000Y-186421000D01*
X114720000Y-186421000D02*
X111941000Y-186421000D01*
X109459000Y-186381000D02*
X106650000Y-186381000D01*
X114750000Y-186381000D02*
X111941000Y-186381000D01*
X109459000Y-186341000D02*
X106620000Y-186341000D01*
X114780000Y-186341000D02*
X111941000Y-186341000D01*
X109459000Y-186301000D02*
X106590000Y-186301000D01*
X114810000Y-186301000D02*
X111941000Y-186301000D01*
X109459000Y-186261000D02*
X106562000Y-186261000D01*
X114838000Y-186261000D02*
X111941000Y-186261000D01*
X109459000Y-186221000D02*
X106534000Y-186221000D01*
X114866000Y-186221000D02*
X111941000Y-186221000D01*
X109459000Y-186181000D02*
X106506000Y-186181000D01*
X114894000Y-186181000D02*
X111941000Y-186181000D01*
X109459000Y-186141000D02*
X106479000Y-186141000D01*
X114921000Y-186141000D02*
X111941000Y-186141000D01*
X109459000Y-186101000D02*
X106453000Y-186101000D01*
X114947000Y-186101000D02*
X111941000Y-186101000D01*
X109459000Y-186061000D02*
X106427000Y-186061000D01*
X114973000Y-186061000D02*
X111941000Y-186061000D01*
X109459000Y-186021000D02*
X106402000Y-186021000D01*
X114998000Y-186021000D02*
X111941000Y-186021000D01*
X109459000Y-185981000D02*
X106377000Y-185981000D01*
X115023000Y-185981000D02*
X111941000Y-185981000D01*
X109459000Y-185941000D02*
X106353000Y-185941000D01*
X115047000Y-185941000D02*
X111941000Y-185941000D01*
X109459000Y-185901000D02*
X106329000Y-185901000D01*
X115071000Y-185901000D02*
X111941000Y-185901000D01*
X109459000Y-185861000D02*
X106305000Y-185861000D01*
X115095000Y-185861000D02*
X111941000Y-185861000D01*
X109459000Y-185821000D02*
X106283000Y-185821000D01*
X115117000Y-185821000D02*
X111941000Y-185821000D01*
X109459000Y-185781000D02*
X106260000Y-185781000D01*
X115140000Y-185781000D02*
X111941000Y-185781000D01*
X109459000Y-185741000D02*
X106238000Y-185741000D01*
X115162000Y-185741000D02*
X111941000Y-185741000D01*
X109459000Y-185701000D02*
X106217000Y-185701000D01*
X115183000Y-185701000D02*
X111941000Y-185701000D01*
X109459000Y-185661000D02*
X106196000Y-185661000D01*
X115204000Y-185661000D02*
X111941000Y-185661000D01*
X109459000Y-185621000D02*
X106175000Y-185621000D01*
X115225000Y-185621000D02*
X111941000Y-185621000D01*
X109459000Y-185581000D02*
X106155000Y-185581000D01*
X115245000Y-185581000D02*
X111941000Y-185581000D01*
X109459000Y-185541000D02*
X106136000Y-185541000D01*
X115264000Y-185541000D02*
X111941000Y-185541000D01*
X109459000Y-185501000D02*
X106116000Y-185501000D01*
X115284000Y-185501000D02*
X111941000Y-185501000D01*
X109459000Y-185461000D02*
X106097000Y-185461000D01*
X115303000Y-185461000D02*
X111941000Y-185461000D01*
X109459000Y-185421000D02*
X106079000Y-185421000D01*
X115321000Y-185421000D02*
X111941000Y-185421000D01*
X109459000Y-185381000D02*
X106061000Y-185381000D01*
X115339000Y-185381000D02*
X111941000Y-185381000D01*
X109459000Y-185341000D02*
X106043000Y-185341000D01*
X115357000Y-185341000D02*
X111941000Y-185341000D01*
X109459000Y-185301000D02*
X106026000Y-185301000D01*
X115374000Y-185301000D02*
X111941000Y-185301000D01*
X109459000Y-185261000D02*
X106010000Y-185261000D01*
X115390000Y-185261000D02*
X111941000Y-185261000D01*
X109459000Y-185221000D02*
X105993000Y-185221000D01*
X115407000Y-185221000D02*
X111941000Y-185221000D01*
X109459000Y-185181000D02*
X105977000Y-185181000D01*
X115423000Y-185181000D02*
X111941000Y-185181000D01*
X109459000Y-185141000D02*
X105962000Y-185141000D01*
X115438000Y-185141000D02*
X111941000Y-185141000D01*
X109459000Y-185101000D02*
X105946000Y-185101000D01*
X115454000Y-185101000D02*
X111941000Y-185101000D01*
X109459000Y-185061000D02*
X105932000Y-185061000D01*
X115468000Y-185061000D02*
X111941000Y-185061000D01*
X109459000Y-185021000D02*
X105917000Y-185021000D01*
X115483000Y-185021000D02*
X111941000Y-185021000D01*
X109459000Y-184981000D02*
X105903000Y-184981000D01*
X115497000Y-184981000D02*
X111941000Y-184981000D01*
X109459000Y-184941000D02*
X105889000Y-184941000D01*
X115511000Y-184941000D02*
X111941000Y-184941000D01*
X109459000Y-184901000D02*
X105876000Y-184901000D01*
X115524000Y-184901000D02*
X111941000Y-184901000D01*
X109459000Y-184861000D02*
X105863000Y-184861000D01*
X115537000Y-184861000D02*
X111941000Y-184861000D01*
X109459000Y-184821000D02*
X105850000Y-184821000D01*
X115550000Y-184821000D02*
X111941000Y-184821000D01*
X109459000Y-184781000D02*
X105838000Y-184781000D01*
X115562000Y-184781000D02*
X111941000Y-184781000D01*
X109459000Y-184741000D02*
X105826000Y-184741000D01*
X115574000Y-184741000D02*
X111941000Y-184741000D01*
X109459000Y-184701000D02*
X105815000Y-184701000D01*
X115585000Y-184701000D02*
X111941000Y-184701000D01*
X109459000Y-184661000D02*
X105803000Y-184661000D01*
X115597000Y-184661000D02*
X111941000Y-184661000D01*
X109459000Y-184621000D02*
X105793000Y-184621000D01*
X115607000Y-184621000D02*
X111941000Y-184621000D01*
X109459000Y-184581000D02*
X105782000Y-184581000D01*
X115618000Y-184581000D02*
X111941000Y-184581000D01*
X115628000Y-184541000D02*
X105772000Y-184541000D01*
X115638000Y-184501000D02*
X105762000Y-184501000D01*
X115647000Y-184461000D02*
X105753000Y-184461000D01*
X115656000Y-184421000D02*
X105744000Y-184421000D01*
X115665000Y-184381000D02*
X105735000Y-184381000D01*
X115674000Y-184341000D02*
X105726000Y-184341000D01*
X115682000Y-184301000D02*
X105718000Y-184301000D01*
X115690000Y-184261000D02*
X105710000Y-184261000D01*
X115697000Y-184221000D02*
X105703000Y-184221000D01*
X115704000Y-184181000D02*
X105696000Y-184181000D01*
X115711000Y-184141000D02*
X105689000Y-184141000D01*
X115718000Y-184101000D02*
X105682000Y-184101000D01*
X115724000Y-184061000D02*
X105676000Y-184061000D01*
X115730000Y-184021000D02*
X105670000Y-184021000D01*
X115735000Y-183980000D02*
X105665000Y-183980000D01*
X115740000Y-183940000D02*
X105660000Y-183940000D01*
X115745000Y-183900000D02*
X105655000Y-183900000D01*
X115750000Y-183860000D02*
X105650000Y-183860000D01*
X115754000Y-183820000D02*
X105646000Y-183820000D01*
X115758000Y-183780000D02*
X105642000Y-183780000D01*
X115762000Y-183740000D02*
X105638000Y-183740000D01*
X115765000Y-183700000D02*
X105635000Y-183700000D01*
X115768000Y-183660000D02*
X105632000Y-183660000D01*
X115770000Y-183620000D02*
X105630000Y-183620000D01*
X115773000Y-183580000D02*
X105627000Y-183580000D01*
X115775000Y-183540000D02*
X105625000Y-183540000D01*
X115777000Y-183500000D02*
X105623000Y-183500000D01*
X115778000Y-183460000D02*
X105622000Y-183460000D01*
X115779000Y-183420000D02*
X105621000Y-183420000D01*
X115780000Y-183380000D02*
X105620000Y-183380000D01*
X115780000Y-183340000D02*
X105620000Y-183340000D01*
X115780000Y-183300000D02*
X105620000Y-183300000D01*
X115820000Y-183300000D02*
G75*
G03X115820000Y-183300000I-5120000J0D01*
G01*
X85933578Y-185915000D02*
X85416422Y-185915000D01*
X85933578Y-187335000D02*
X85416422Y-187335000D01*
X73729646Y-133975000D02*
X73729646Y-132975000D01*
X74229646Y-133475000D02*
X73229646Y-133475000D01*
X63669000Y-131199000D02*
X63669000Y-130001000D01*
X63709000Y-131462000D02*
X63709000Y-129738000D01*
X63749000Y-131662000D02*
X63749000Y-129538000D01*
X63789000Y-131830000D02*
X63789000Y-129370000D01*
X63829000Y-131978000D02*
X63829000Y-129222000D01*
X63869000Y-132110000D02*
X63869000Y-129090000D01*
X63909000Y-132230000D02*
X63909000Y-128970000D01*
X63949000Y-132342000D02*
X63949000Y-128858000D01*
X63989000Y-132446000D02*
X63989000Y-128754000D01*
X64029000Y-132544000D02*
X64029000Y-128656000D01*
X64069000Y-132637000D02*
X64069000Y-128563000D01*
X64109000Y-132725000D02*
X64109000Y-128475000D01*
X64149000Y-132809000D02*
X64149000Y-128391000D01*
X64189000Y-132889000D02*
X64189000Y-128311000D01*
X64229000Y-132965000D02*
X64229000Y-128235000D01*
X64269000Y-133039000D02*
X64269000Y-128161000D01*
X64309000Y-133110000D02*
X64309000Y-128090000D01*
X64349000Y-133179000D02*
X64349000Y-128021000D01*
X64389000Y-133245000D02*
X64389000Y-127955000D01*
X64429000Y-133309000D02*
X64429000Y-127891000D01*
X64469000Y-133370000D02*
X64469000Y-127830000D01*
X64509000Y-133430000D02*
X64509000Y-127770000D01*
X64549000Y-133489000D02*
X64549000Y-127711000D01*
X64589000Y-133545000D02*
X64589000Y-127655000D01*
X64629000Y-133600000D02*
X64629000Y-127600000D01*
X64669000Y-133654000D02*
X64669000Y-127546000D01*
X64709000Y-133706000D02*
X64709000Y-127494000D01*
X64749000Y-133756000D02*
X64749000Y-127444000D01*
X64789000Y-133806000D02*
X64789000Y-127394000D01*
X64829000Y-133854000D02*
X64829000Y-127346000D01*
X64869000Y-133901000D02*
X64869000Y-127299000D01*
X64909000Y-133947000D02*
X64909000Y-127253000D01*
X64949000Y-133992000D02*
X64949000Y-127208000D01*
X64989000Y-134036000D02*
X64989000Y-127164000D01*
X65029000Y-129359000D02*
X65029000Y-127122000D01*
X65029000Y-134078000D02*
X65029000Y-131841000D01*
X65069000Y-129359000D02*
X65069000Y-127080000D01*
X65069000Y-134120000D02*
X65069000Y-131841000D01*
X65109000Y-129359000D02*
X65109000Y-127039000D01*
X65109000Y-134161000D02*
X65109000Y-131841000D01*
X65149000Y-129359000D02*
X65149000Y-126999000D01*
X65149000Y-134201000D02*
X65149000Y-131841000D01*
X65189000Y-129359000D02*
X65189000Y-126960000D01*
X65189000Y-134240000D02*
X65189000Y-131841000D01*
X65229000Y-129359000D02*
X65229000Y-126921000D01*
X65229000Y-134279000D02*
X65229000Y-131841000D01*
X65269000Y-129359000D02*
X65269000Y-126884000D01*
X65269000Y-134316000D02*
X65269000Y-131841000D01*
X65309000Y-129359000D02*
X65309000Y-126847000D01*
X65309000Y-134353000D02*
X65309000Y-131841000D01*
X65349000Y-129359000D02*
X65349000Y-126811000D01*
X65349000Y-134389000D02*
X65349000Y-131841000D01*
X65389000Y-129359000D02*
X65389000Y-126776000D01*
X65389000Y-134424000D02*
X65389000Y-131841000D01*
X65429000Y-129359000D02*
X65429000Y-126742000D01*
X65429000Y-134458000D02*
X65429000Y-131841000D01*
X65469000Y-129359000D02*
X65469000Y-126708000D01*
X65469000Y-134492000D02*
X65469000Y-131841000D01*
X65509000Y-129359000D02*
X65509000Y-126675000D01*
X65509000Y-134525000D02*
X65509000Y-131841000D01*
X65549000Y-129359000D02*
X65549000Y-126643000D01*
X65549000Y-134557000D02*
X65549000Y-131841000D01*
X65589000Y-129359000D02*
X65589000Y-126611000D01*
X65589000Y-134589000D02*
X65589000Y-131841000D01*
X65629000Y-129359000D02*
X65629000Y-126580000D01*
X65629000Y-134620000D02*
X65629000Y-131841000D01*
X65669000Y-129359000D02*
X65669000Y-126550000D01*
X65669000Y-134650000D02*
X65669000Y-131841000D01*
X65709000Y-129359000D02*
X65709000Y-126520000D01*
X65709000Y-134680000D02*
X65709000Y-131841000D01*
X65749000Y-129359000D02*
X65749000Y-126490000D01*
X65749000Y-134710000D02*
X65749000Y-131841000D01*
X65789000Y-129359000D02*
X65789000Y-126462000D01*
X65789000Y-134738000D02*
X65789000Y-131841000D01*
X65829000Y-129359000D02*
X65829000Y-126434000D01*
X65829000Y-134766000D02*
X65829000Y-131841000D01*
X65869000Y-129359000D02*
X65869000Y-126406000D01*
X65869000Y-134794000D02*
X65869000Y-131841000D01*
X65909000Y-129359000D02*
X65909000Y-126379000D01*
X65909000Y-134821000D02*
X65909000Y-131841000D01*
X65949000Y-129359000D02*
X65949000Y-126353000D01*
X65949000Y-134847000D02*
X65949000Y-131841000D01*
X65989000Y-129359000D02*
X65989000Y-126327000D01*
X65989000Y-134873000D02*
X65989000Y-131841000D01*
X66029000Y-129359000D02*
X66029000Y-126302000D01*
X66029000Y-134898000D02*
X66029000Y-131841000D01*
X66069000Y-129359000D02*
X66069000Y-126277000D01*
X66069000Y-134923000D02*
X66069000Y-131841000D01*
X66109000Y-129359000D02*
X66109000Y-126253000D01*
X66109000Y-134947000D02*
X66109000Y-131841000D01*
X66149000Y-129359000D02*
X66149000Y-126229000D01*
X66149000Y-134971000D02*
X66149000Y-131841000D01*
X66189000Y-129359000D02*
X66189000Y-126205000D01*
X66189000Y-134995000D02*
X66189000Y-131841000D01*
X66229000Y-129359000D02*
X66229000Y-126183000D01*
X66229000Y-135017000D02*
X66229000Y-131841000D01*
X66269000Y-129359000D02*
X66269000Y-126160000D01*
X66269000Y-135040000D02*
X66269000Y-131841000D01*
X66309000Y-129359000D02*
X66309000Y-126138000D01*
X66309000Y-135062000D02*
X66309000Y-131841000D01*
X66349000Y-129359000D02*
X66349000Y-126117000D01*
X66349000Y-135083000D02*
X66349000Y-131841000D01*
X66389000Y-129359000D02*
X66389000Y-126096000D01*
X66389000Y-135104000D02*
X66389000Y-131841000D01*
X66429000Y-129359000D02*
X66429000Y-126075000D01*
X66429000Y-135125000D02*
X66429000Y-131841000D01*
X66469000Y-129359000D02*
X66469000Y-126055000D01*
X66469000Y-135145000D02*
X66469000Y-131841000D01*
X66509000Y-129359000D02*
X66509000Y-126036000D01*
X66509000Y-135164000D02*
X66509000Y-131841000D01*
X66549000Y-129359000D02*
X66549000Y-126016000D01*
X66549000Y-135184000D02*
X66549000Y-131841000D01*
X66589000Y-129359000D02*
X66589000Y-125997000D01*
X66589000Y-135203000D02*
X66589000Y-131841000D01*
X66629000Y-129359000D02*
X66629000Y-125979000D01*
X66629000Y-135221000D02*
X66629000Y-131841000D01*
X66669000Y-129359000D02*
X66669000Y-125961000D01*
X66669000Y-135239000D02*
X66669000Y-131841000D01*
X66709000Y-129359000D02*
X66709000Y-125943000D01*
X66709000Y-135257000D02*
X66709000Y-131841000D01*
X66749000Y-129359000D02*
X66749000Y-125926000D01*
X66749000Y-135274000D02*
X66749000Y-131841000D01*
X66789000Y-129359000D02*
X66789000Y-125910000D01*
X66789000Y-135290000D02*
X66789000Y-131841000D01*
X66829000Y-129359000D02*
X66829000Y-125893000D01*
X66829000Y-135307000D02*
X66829000Y-131841000D01*
X66869000Y-129359000D02*
X66869000Y-125877000D01*
X66869000Y-135323000D02*
X66869000Y-131841000D01*
X66909000Y-129359000D02*
X66909000Y-125862000D01*
X66909000Y-135338000D02*
X66909000Y-131841000D01*
X66949000Y-129359000D02*
X66949000Y-125846000D01*
X66949000Y-135354000D02*
X66949000Y-131841000D01*
X66989000Y-129359000D02*
X66989000Y-125832000D01*
X66989000Y-135368000D02*
X66989000Y-131841000D01*
X67029000Y-129359000D02*
X67029000Y-125817000D01*
X67029000Y-135383000D02*
X67029000Y-131841000D01*
X67069000Y-129359000D02*
X67069000Y-125803000D01*
X67069000Y-135397000D02*
X67069000Y-131841000D01*
X67109000Y-129359000D02*
X67109000Y-125789000D01*
X67109000Y-135411000D02*
X67109000Y-131841000D01*
X67149000Y-129359000D02*
X67149000Y-125776000D01*
X67149000Y-135424000D02*
X67149000Y-131841000D01*
X67189000Y-129359000D02*
X67189000Y-125763000D01*
X67189000Y-135437000D02*
X67189000Y-131841000D01*
X67229000Y-129359000D02*
X67229000Y-125750000D01*
X67229000Y-135450000D02*
X67229000Y-131841000D01*
X67269000Y-129359000D02*
X67269000Y-125738000D01*
X67269000Y-135462000D02*
X67269000Y-131841000D01*
X67309000Y-129359000D02*
X67309000Y-125726000D01*
X67309000Y-135474000D02*
X67309000Y-131841000D01*
X67349000Y-129359000D02*
X67349000Y-125715000D01*
X67349000Y-135485000D02*
X67349000Y-131841000D01*
X67389000Y-129359000D02*
X67389000Y-125703000D01*
X67389000Y-135497000D02*
X67389000Y-131841000D01*
X67429000Y-129359000D02*
X67429000Y-125693000D01*
X67429000Y-135507000D02*
X67429000Y-131841000D01*
X67469000Y-129359000D02*
X67469000Y-125682000D01*
X67469000Y-135518000D02*
X67469000Y-131841000D01*
X67509000Y-135528000D02*
X67509000Y-125672000D01*
X67549000Y-135538000D02*
X67549000Y-125662000D01*
X67589000Y-135547000D02*
X67589000Y-125653000D01*
X67629000Y-135556000D02*
X67629000Y-125644000D01*
X67669000Y-135565000D02*
X67669000Y-125635000D01*
X67709000Y-135574000D02*
X67709000Y-125626000D01*
X67749000Y-135582000D02*
X67749000Y-125618000D01*
X67789000Y-135590000D02*
X67789000Y-125610000D01*
X67829000Y-135597000D02*
X67829000Y-125603000D01*
X67869000Y-135604000D02*
X67869000Y-125596000D01*
X67909000Y-135611000D02*
X67909000Y-125589000D01*
X67949000Y-135618000D02*
X67949000Y-125582000D01*
X67989000Y-135624000D02*
X67989000Y-125576000D01*
X68029000Y-135630000D02*
X68029000Y-125570000D01*
X68070000Y-135635000D02*
X68070000Y-125565000D01*
X68110000Y-135640000D02*
X68110000Y-125560000D01*
X68150000Y-135645000D02*
X68150000Y-125555000D01*
X68190000Y-135650000D02*
X68190000Y-125550000D01*
X68230000Y-135654000D02*
X68230000Y-125546000D01*
X68270000Y-135658000D02*
X68270000Y-125542000D01*
X68310000Y-135662000D02*
X68310000Y-125538000D01*
X68350000Y-135665000D02*
X68350000Y-125535000D01*
X68390000Y-135668000D02*
X68390000Y-125532000D01*
X68430000Y-135670000D02*
X68430000Y-125530000D01*
X68470000Y-135673000D02*
X68470000Y-125527000D01*
X68510000Y-135675000D02*
X68510000Y-125525000D01*
X68550000Y-135677000D02*
X68550000Y-125523000D01*
X68590000Y-135678000D02*
X68590000Y-125522000D01*
X68630000Y-135679000D02*
X68630000Y-125521000D01*
X68670000Y-135680000D02*
X68670000Y-125520000D01*
X68710000Y-135680000D02*
X68710000Y-125520000D01*
X68750000Y-135680000D02*
X68750000Y-125520000D01*
X73870000Y-130600000D02*
G75*
G03X73870000Y-130600000I-5120000J0D01*
G01*
X77665000Y-167480000D02*
X77665000Y-168730000D01*
X78915000Y-167480000D02*
X77665000Y-167480000D01*
X85625000Y-167725000D02*
X77905000Y-167725000D01*
X85625000Y-184925000D02*
X85625000Y-167725000D01*
X77905000Y-184925000D02*
X85625000Y-184925000D01*
X77905000Y-167725000D02*
X77905000Y-184925000D01*
X71090000Y-115910000D02*
X71090000Y-117250000D01*
X70140000Y-115910000D02*
X71090000Y-115910000D01*
X70140000Y-114960000D02*
X70140000Y-115910000D01*
X70140000Y-105690000D02*
X71090000Y-105690000D01*
X70140000Y-106640000D02*
X70140000Y-105690000D01*
X80360000Y-115910000D02*
X79410000Y-115910000D01*
X80360000Y-114960000D02*
X80360000Y-115910000D01*
X80360000Y-105690000D02*
X79410000Y-105690000D01*
X80360000Y-106640000D02*
X80360000Y-105690000D01*
X73660000Y-95500000D02*
X73660000Y-95610000D01*
X72500000Y-82740000D02*
X73660000Y-82740000D01*
X73660000Y-82740000D02*
X73660000Y-94000000D01*
X73660000Y-95610000D02*
X71850000Y-95610000D01*
X69250000Y-82740000D02*
X63650000Y-82740000D01*
X69950000Y-95610000D02*
X63650000Y-95610000D01*
X121050000Y-139855000D02*
X119720000Y-139855000D01*
X119720000Y-139855000D02*
X119720000Y-138525000D01*
X119720000Y-137255000D02*
X119720000Y-114335000D01*
X122380000Y-114335000D02*
X119720000Y-114335000D01*
X122380000Y-137255000D02*
X122380000Y-114335000D01*
X122380000Y-137255000D02*
X119720000Y-137255000D01*
X76679646Y-171425000D02*
X76679646Y-170425000D01*
X77179646Y-170925000D02*
X76179646Y-170925000D01*
X66619000Y-168649000D02*
X66619000Y-167451000D01*
X66659000Y-168912000D02*
X66659000Y-167188000D01*
X66699000Y-169112000D02*
X66699000Y-166988000D01*
X66739000Y-169280000D02*
X66739000Y-166820000D01*
X66779000Y-169428000D02*
X66779000Y-166672000D01*
X66819000Y-169560000D02*
X66819000Y-166540000D01*
X66859000Y-169680000D02*
X66859000Y-166420000D01*
X66899000Y-169792000D02*
X66899000Y-166308000D01*
X66939000Y-169896000D02*
X66939000Y-166204000D01*
X66979000Y-169994000D02*
X66979000Y-166106000D01*
X67019000Y-170087000D02*
X67019000Y-166013000D01*
X67059000Y-170175000D02*
X67059000Y-165925000D01*
X67099000Y-170259000D02*
X67099000Y-165841000D01*
X67139000Y-170339000D02*
X67139000Y-165761000D01*
X67179000Y-170415000D02*
X67179000Y-165685000D01*
X67219000Y-170489000D02*
X67219000Y-165611000D01*
X67259000Y-170560000D02*
X67259000Y-165540000D01*
X67299000Y-170629000D02*
X67299000Y-165471000D01*
X67339000Y-170695000D02*
X67339000Y-165405000D01*
X67379000Y-170759000D02*
X67379000Y-165341000D01*
X67419000Y-170820000D02*
X67419000Y-165280000D01*
X67459000Y-170880000D02*
X67459000Y-165220000D01*
X67499000Y-170939000D02*
X67499000Y-165161000D01*
X67539000Y-170995000D02*
X67539000Y-165105000D01*
X67579000Y-171050000D02*
X67579000Y-165050000D01*
X67619000Y-171104000D02*
X67619000Y-164996000D01*
X67659000Y-171156000D02*
X67659000Y-164944000D01*
X67699000Y-171206000D02*
X67699000Y-164894000D01*
X67739000Y-171256000D02*
X67739000Y-164844000D01*
X67779000Y-171304000D02*
X67779000Y-164796000D01*
X67819000Y-171351000D02*
X67819000Y-164749000D01*
X67859000Y-171397000D02*
X67859000Y-164703000D01*
X67899000Y-171442000D02*
X67899000Y-164658000D01*
X67939000Y-171486000D02*
X67939000Y-164614000D01*
X67979000Y-166809000D02*
X67979000Y-164572000D01*
X67979000Y-171528000D02*
X67979000Y-169291000D01*
X68019000Y-166809000D02*
X68019000Y-164530000D01*
X68019000Y-171570000D02*
X68019000Y-169291000D01*
X68059000Y-166809000D02*
X68059000Y-164489000D01*
X68059000Y-171611000D02*
X68059000Y-169291000D01*
X68099000Y-166809000D02*
X68099000Y-164449000D01*
X68099000Y-171651000D02*
X68099000Y-169291000D01*
X68139000Y-166809000D02*
X68139000Y-164410000D01*
X68139000Y-171690000D02*
X68139000Y-169291000D01*
X68179000Y-166809000D02*
X68179000Y-164371000D01*
X68179000Y-171729000D02*
X68179000Y-169291000D01*
X68219000Y-166809000D02*
X68219000Y-164334000D01*
X68219000Y-171766000D02*
X68219000Y-169291000D01*
X68259000Y-166809000D02*
X68259000Y-164297000D01*
X68259000Y-171803000D02*
X68259000Y-169291000D01*
X68299000Y-166809000D02*
X68299000Y-164261000D01*
X68299000Y-171839000D02*
X68299000Y-169291000D01*
X68339000Y-166809000D02*
X68339000Y-164226000D01*
X68339000Y-171874000D02*
X68339000Y-169291000D01*
X68379000Y-166809000D02*
X68379000Y-164192000D01*
X68379000Y-171908000D02*
X68379000Y-169291000D01*
X68419000Y-166809000D02*
X68419000Y-164158000D01*
X68419000Y-171942000D02*
X68419000Y-169291000D01*
X68459000Y-166809000D02*
X68459000Y-164125000D01*
X68459000Y-171975000D02*
X68459000Y-169291000D01*
X68499000Y-166809000D02*
X68499000Y-164093000D01*
X68499000Y-172007000D02*
X68499000Y-169291000D01*
X68539000Y-166809000D02*
X68539000Y-164061000D01*
X68539000Y-172039000D02*
X68539000Y-169291000D01*
X68579000Y-166809000D02*
X68579000Y-164030000D01*
X68579000Y-172070000D02*
X68579000Y-169291000D01*
X68619000Y-166809000D02*
X68619000Y-164000000D01*
X68619000Y-172100000D02*
X68619000Y-169291000D01*
X68659000Y-166809000D02*
X68659000Y-163970000D01*
X68659000Y-172130000D02*
X68659000Y-169291000D01*
X68699000Y-166809000D02*
X68699000Y-163940000D01*
X68699000Y-172160000D02*
X68699000Y-169291000D01*
X68739000Y-166809000D02*
X68739000Y-163912000D01*
X68739000Y-172188000D02*
X68739000Y-169291000D01*
X68779000Y-166809000D02*
X68779000Y-163884000D01*
X68779000Y-172216000D02*
X68779000Y-169291000D01*
X68819000Y-166809000D02*
X68819000Y-163856000D01*
X68819000Y-172244000D02*
X68819000Y-169291000D01*
X68859000Y-166809000D02*
X68859000Y-163829000D01*
X68859000Y-172271000D02*
X68859000Y-169291000D01*
X68899000Y-166809000D02*
X68899000Y-163803000D01*
X68899000Y-172297000D02*
X68899000Y-169291000D01*
X68939000Y-166809000D02*
X68939000Y-163777000D01*
X68939000Y-172323000D02*
X68939000Y-169291000D01*
X68979000Y-166809000D02*
X68979000Y-163752000D01*
X68979000Y-172348000D02*
X68979000Y-169291000D01*
X69019000Y-166809000D02*
X69019000Y-163727000D01*
X69019000Y-172373000D02*
X69019000Y-169291000D01*
X69059000Y-166809000D02*
X69059000Y-163703000D01*
X69059000Y-172397000D02*
X69059000Y-169291000D01*
X69099000Y-166809000D02*
X69099000Y-163679000D01*
X69099000Y-172421000D02*
X69099000Y-169291000D01*
X69139000Y-166809000D02*
X69139000Y-163655000D01*
X69139000Y-172445000D02*
X69139000Y-169291000D01*
X69179000Y-166809000D02*
X69179000Y-163633000D01*
X69179000Y-172467000D02*
X69179000Y-169291000D01*
X69219000Y-166809000D02*
X69219000Y-163610000D01*
X69219000Y-172490000D02*
X69219000Y-169291000D01*
X69259000Y-166809000D02*
X69259000Y-163588000D01*
X69259000Y-172512000D02*
X69259000Y-169291000D01*
X69299000Y-166809000D02*
X69299000Y-163567000D01*
X69299000Y-172533000D02*
X69299000Y-169291000D01*
X69339000Y-166809000D02*
X69339000Y-163546000D01*
X69339000Y-172554000D02*
X69339000Y-169291000D01*
X69379000Y-166809000D02*
X69379000Y-163525000D01*
X69379000Y-172575000D02*
X69379000Y-169291000D01*
X69419000Y-166809000D02*
X69419000Y-163505000D01*
X69419000Y-172595000D02*
X69419000Y-169291000D01*
X69459000Y-166809000D02*
X69459000Y-163486000D01*
X69459000Y-172614000D02*
X69459000Y-169291000D01*
X69499000Y-166809000D02*
X69499000Y-163466000D01*
X69499000Y-172634000D02*
X69499000Y-169291000D01*
X69539000Y-166809000D02*
X69539000Y-163447000D01*
X69539000Y-172653000D02*
X69539000Y-169291000D01*
X69579000Y-166809000D02*
X69579000Y-163429000D01*
X69579000Y-172671000D02*
X69579000Y-169291000D01*
X69619000Y-166809000D02*
X69619000Y-163411000D01*
X69619000Y-172689000D02*
X69619000Y-169291000D01*
X69659000Y-166809000D02*
X69659000Y-163393000D01*
X69659000Y-172707000D02*
X69659000Y-169291000D01*
X69699000Y-166809000D02*
X69699000Y-163376000D01*
X69699000Y-172724000D02*
X69699000Y-169291000D01*
X69739000Y-166809000D02*
X69739000Y-163360000D01*
X69739000Y-172740000D02*
X69739000Y-169291000D01*
X69779000Y-166809000D02*
X69779000Y-163343000D01*
X69779000Y-172757000D02*
X69779000Y-169291000D01*
X69819000Y-166809000D02*
X69819000Y-163327000D01*
X69819000Y-172773000D02*
X69819000Y-169291000D01*
X69859000Y-166809000D02*
X69859000Y-163312000D01*
X69859000Y-172788000D02*
X69859000Y-169291000D01*
X69899000Y-166809000D02*
X69899000Y-163296000D01*
X69899000Y-172804000D02*
X69899000Y-169291000D01*
X69939000Y-166809000D02*
X69939000Y-163282000D01*
X69939000Y-172818000D02*
X69939000Y-169291000D01*
X69979000Y-166809000D02*
X69979000Y-163267000D01*
X69979000Y-172833000D02*
X69979000Y-169291000D01*
X70019000Y-166809000D02*
X70019000Y-163253000D01*
X70019000Y-172847000D02*
X70019000Y-169291000D01*
X70059000Y-166809000D02*
X70059000Y-163239000D01*
X70059000Y-172861000D02*
X70059000Y-169291000D01*
X70099000Y-166809000D02*
X70099000Y-163226000D01*
X70099000Y-172874000D02*
X70099000Y-169291000D01*
X70139000Y-166809000D02*
X70139000Y-163213000D01*
X70139000Y-172887000D02*
X70139000Y-169291000D01*
X70179000Y-166809000D02*
X70179000Y-163200000D01*
X70179000Y-172900000D02*
X70179000Y-169291000D01*
X70219000Y-166809000D02*
X70219000Y-163188000D01*
X70219000Y-172912000D02*
X70219000Y-169291000D01*
X70259000Y-166809000D02*
X70259000Y-163176000D01*
X70259000Y-172924000D02*
X70259000Y-169291000D01*
X70299000Y-166809000D02*
X70299000Y-163165000D01*
X70299000Y-172935000D02*
X70299000Y-169291000D01*
X70339000Y-166809000D02*
X70339000Y-163153000D01*
X70339000Y-172947000D02*
X70339000Y-169291000D01*
X70379000Y-166809000D02*
X70379000Y-163143000D01*
X70379000Y-172957000D02*
X70379000Y-169291000D01*
X70419000Y-166809000D02*
X70419000Y-163132000D01*
X70419000Y-172968000D02*
X70419000Y-169291000D01*
X70459000Y-172978000D02*
X70459000Y-163122000D01*
X70499000Y-172988000D02*
X70499000Y-163112000D01*
X70539000Y-172997000D02*
X70539000Y-163103000D01*
X70579000Y-173006000D02*
X70579000Y-163094000D01*
X70619000Y-173015000D02*
X70619000Y-163085000D01*
X70659000Y-173024000D02*
X70659000Y-163076000D01*
X70699000Y-173032000D02*
X70699000Y-163068000D01*
X70739000Y-173040000D02*
X70739000Y-163060000D01*
X70779000Y-173047000D02*
X70779000Y-163053000D01*
X70819000Y-173054000D02*
X70819000Y-163046000D01*
X70859000Y-173061000D02*
X70859000Y-163039000D01*
X70899000Y-173068000D02*
X70899000Y-163032000D01*
X70939000Y-173074000D02*
X70939000Y-163026000D01*
X70979000Y-173080000D02*
X70979000Y-163020000D01*
X71020000Y-173085000D02*
X71020000Y-163015000D01*
X71060000Y-173090000D02*
X71060000Y-163010000D01*
X71100000Y-173095000D02*
X71100000Y-163005000D01*
X71140000Y-173100000D02*
X71140000Y-163000000D01*
X71180000Y-173104000D02*
X71180000Y-162996000D01*
X71220000Y-173108000D02*
X71220000Y-162992000D01*
X71260000Y-173112000D02*
X71260000Y-162988000D01*
X71300000Y-173115000D02*
X71300000Y-162985000D01*
X71340000Y-173118000D02*
X71340000Y-162982000D01*
X71380000Y-173120000D02*
X71380000Y-162980000D01*
X71420000Y-173123000D02*
X71420000Y-162977000D01*
X71460000Y-173125000D02*
X71460000Y-162975000D01*
X71500000Y-173127000D02*
X71500000Y-162973000D01*
X71540000Y-173128000D02*
X71540000Y-162972000D01*
X71580000Y-173129000D02*
X71580000Y-162971000D01*
X71620000Y-173130000D02*
X71620000Y-162970000D01*
X71660000Y-173130000D02*
X71660000Y-162970000D01*
X71700000Y-173130000D02*
X71700000Y-162970000D01*
X76820000Y-168050000D02*
G75*
G03X76820000Y-168050000I-5120000J0D01*
G01*
X97100000Y-123525000D02*
X97100000Y-121525000D01*
X98350000Y-123525000D02*
X97100000Y-123525000D01*
X104100000Y-107495000D02*
X104100000Y-108245000D01*
X99800000Y-107495000D02*
X104100000Y-107495000D01*
X99800000Y-108245000D02*
X99800000Y-107495000D01*
X99450000Y-108245000D02*
X99800000Y-108245000D01*
X99450000Y-107745000D02*
X99450000Y-108245000D01*
X98450000Y-107495000D02*
X99450000Y-107745000D01*
X98450000Y-110495000D02*
X98450000Y-107495000D01*
X99450000Y-110245000D02*
X98450000Y-110495000D01*
X99450000Y-109745000D02*
X99450000Y-110245000D01*
X99800000Y-109745000D02*
X99450000Y-109745000D01*
X99800000Y-110495000D02*
X99800000Y-109745000D01*
X104100000Y-110495000D02*
X99800000Y-110495000D01*
X104100000Y-109745000D02*
X104100000Y-110495000D01*
X104100000Y-111305000D02*
X104100000Y-112055000D01*
X99800000Y-111305000D02*
X104100000Y-111305000D01*
X99800000Y-112055000D02*
X99800000Y-111305000D01*
X99450000Y-112055000D02*
X99800000Y-112055000D01*
X99450000Y-111555000D02*
X99450000Y-112055000D01*
X98450000Y-111305000D02*
X99450000Y-111555000D01*
X98450000Y-114305000D02*
X98450000Y-111305000D01*
X99450000Y-114055000D02*
X98450000Y-114305000D01*
X99450000Y-113555000D02*
X99450000Y-114055000D01*
X99800000Y-113555000D02*
X99450000Y-113555000D01*
X99800000Y-114305000D02*
X99800000Y-113555000D01*
X104100000Y-114305000D02*
X99800000Y-114305000D01*
X104100000Y-113555000D02*
X104100000Y-114305000D01*
X104100000Y-115115000D02*
X104100000Y-115865000D01*
X99800000Y-115115000D02*
X104100000Y-115115000D01*
X99800000Y-115865000D02*
X99800000Y-115115000D01*
X99450000Y-115865000D02*
X99800000Y-115865000D01*
X99450000Y-115365000D02*
X99450000Y-115865000D01*
X98450000Y-115115000D02*
X99450000Y-115365000D01*
X98450000Y-118115000D02*
X98450000Y-115115000D01*
X99450000Y-117865000D02*
X98450000Y-118115000D01*
X99450000Y-117365000D02*
X99450000Y-117865000D01*
X99800000Y-117365000D02*
X99450000Y-117365000D01*
X99800000Y-118115000D02*
X99800000Y-117365000D01*
X104100000Y-118115000D02*
X99800000Y-118115000D01*
X104100000Y-117365000D02*
X104100000Y-118115000D01*
X104100000Y-118925000D02*
X104100000Y-119675000D01*
X99800000Y-118925000D02*
X104100000Y-118925000D01*
X99800000Y-119675000D02*
X99800000Y-118925000D01*
X99450000Y-119675000D02*
X99800000Y-119675000D01*
X99450000Y-119175000D02*
X99450000Y-119675000D01*
X98450000Y-118925000D02*
X99450000Y-119175000D01*
X98450000Y-121925000D02*
X98450000Y-118925000D01*
X99450000Y-121675000D02*
X98450000Y-121925000D01*
X99450000Y-121175000D02*
X99450000Y-121675000D01*
X99800000Y-121175000D02*
X99450000Y-121175000D01*
X99800000Y-121925000D02*
X99800000Y-121175000D01*
X104100000Y-121925000D02*
X99800000Y-121925000D01*
X104100000Y-121175000D02*
X104100000Y-121925000D01*
X97490000Y-106285000D02*
X97490000Y-123135000D01*
X104960000Y-106285000D02*
X97490000Y-106285000D01*
X104960000Y-123135000D02*
X104960000Y-106285000D01*
X97490000Y-123135000D02*
X104960000Y-123135000D01*
X104099845Y-108245353D02*
G75*
G03X104100000Y-109745000I1700155J-749647D01*
G01*
X104099845Y-112055353D02*
G75*
G03X104100000Y-113555000I1700155J-749647D01*
G01*
X104099845Y-115865353D02*
G75*
G03X104100000Y-117365000I1700155J-749647D01*
G01*
X104099845Y-119675353D02*
G75*
G03X104100000Y-121175000I1700155J-749647D01*
G01*
X90195000Y-180940000D02*
X89055000Y-180940000D01*
X90195000Y-185060000D02*
X89055000Y-185060000D01*
X93260000Y-178150000D02*
X95260000Y-178150000D01*
X93260000Y-179400000D02*
X93260000Y-178150000D01*
X102880000Y-185150000D02*
X102130000Y-185150000D01*
X102880000Y-180850000D02*
X102880000Y-185150000D01*
X102130000Y-180850000D02*
X102880000Y-180850000D01*
X102130000Y-180500000D02*
X102130000Y-180850000D01*
X102630000Y-180500000D02*
X102130000Y-180500000D01*
X102880000Y-179500000D02*
X102630000Y-180500000D01*
X99880000Y-179500000D02*
X102880000Y-179500000D01*
X100130000Y-180500000D02*
X99880000Y-179500000D01*
X100630000Y-180500000D02*
X100130000Y-180500000D01*
X100630000Y-180850000D02*
X100630000Y-180500000D01*
X99880000Y-180850000D02*
X100630000Y-180850000D01*
X99880000Y-185150000D02*
X99880000Y-180850000D01*
X100630000Y-185150000D02*
X99880000Y-185150000D01*
X97800000Y-185150000D02*
X97050000Y-185150000D01*
X97800000Y-180850000D02*
X97800000Y-185150000D01*
X97050000Y-180850000D02*
X97800000Y-180850000D01*
X97050000Y-180500000D02*
X97050000Y-180850000D01*
X97550000Y-180500000D02*
X97050000Y-180500000D01*
X97800000Y-179500000D02*
X97550000Y-180500000D01*
X94800000Y-179500000D02*
X97800000Y-179500000D01*
X95050000Y-180500000D02*
X94800000Y-179500000D01*
X95550000Y-180500000D02*
X95050000Y-180500000D01*
X95550000Y-180850000D02*
X95550000Y-180500000D01*
X94800000Y-180850000D02*
X95550000Y-180850000D01*
X94800000Y-185150000D02*
X94800000Y-180850000D01*
X95550000Y-185150000D02*
X94800000Y-185150000D01*
X104030000Y-178540000D02*
X93650000Y-178540000D01*
X104030000Y-186010000D02*
X104030000Y-178540000D01*
X93650000Y-186010000D02*
X104030000Y-186010000D01*
X93650000Y-178540000D02*
X93650000Y-186010000D01*
X102129647Y-185149845D02*
G75*
G03X100630000Y-185150000I-749647J-1700155D01*
G01*
X97049647Y-185149845D02*
G75*
G03X95550000Y-185150000I-749647J-1700155D01*
G01*
X123280000Y-45675000D02*
X121400000Y-45675000D01*
X123280000Y-43765000D02*
X121400000Y-43765000D01*
X123280000Y-41855000D02*
X121400000Y-41855000D01*
X123280000Y-41345000D02*
X121400000Y-41345000D01*
X123280000Y-43255000D02*
X121400000Y-43255000D01*
X123280000Y-45165000D02*
X121400000Y-45165000D01*
X123280000Y-48630000D02*
X127680000Y-48630000D01*
X123280000Y-38390000D02*
X127680000Y-38390000D01*
X123280000Y-48630000D02*
X123280000Y-38390000D01*
X136520000Y-40630000D02*
X136520000Y-46390000D01*
X136520000Y-40630000D02*
X138600000Y-40630000D01*
X136520000Y-46390000D02*
X138600000Y-46390000D01*
X127680000Y-38390000D02*
X127680000Y-36390000D01*
X127680000Y-48630000D02*
X127680000Y-50630000D01*
X127680000Y-36390000D02*
X138600000Y-36390000D01*
X127680000Y-50630000D02*
X138600000Y-50630000D01*
D11*
X90050000Y-90975000D02*
X90600000Y-90975000D01*
X90050000Y-90975000D02*
X90050000Y-91475000D01*
X90350000Y-91225000D02*
G75*
G03X90350000Y-91225000I-50000J0D01*
G01*
X90050000Y-97675000D02*
X90550000Y-97675000D01*
X90050000Y-97675000D02*
X90050000Y-97175000D01*
X100750000Y-97675000D02*
X100250000Y-97675000D01*
X100750000Y-97675000D02*
X100750000Y-97175000D01*
X100750000Y-90975000D02*
X100750000Y-91475000D01*
X100750000Y-90975000D02*
X100250000Y-90975000D01*
D10*
X109110000Y-98805000D02*
X107650000Y-98805000D01*
X109110000Y-95645000D02*
X106950000Y-95645000D01*
X109110000Y-95645000D02*
X109110000Y-96575000D01*
X109110000Y-98805000D02*
X109110000Y-97875000D01*
X109060000Y-102555000D02*
X107600000Y-102555000D01*
X109060000Y-99395000D02*
X106900000Y-99395000D01*
X109060000Y-99395000D02*
X109060000Y-100325000D01*
X109060000Y-102555000D02*
X109060000Y-101625000D01*
X118340000Y-92945000D02*
X119800000Y-92945000D01*
X118340000Y-96105000D02*
X120500000Y-96105000D01*
X118340000Y-96105000D02*
X118340000Y-95175000D01*
X118340000Y-92945000D02*
X118340000Y-93875000D01*
X118315000Y-96595000D02*
X119775000Y-96595000D01*
X118315000Y-99755000D02*
X120475000Y-99755000D01*
X118315000Y-99755000D02*
X118315000Y-98825000D01*
X118315000Y-96595000D02*
X118315000Y-97525000D01*
X109160000Y-90455000D02*
X107700000Y-90455000D01*
X109160000Y-87295000D02*
X107000000Y-87295000D01*
X109160000Y-87295000D02*
X109160000Y-88225000D01*
X109160000Y-90455000D02*
X109160000Y-89525000D01*
X109160000Y-94205000D02*
X107700000Y-94205000D01*
X109160000Y-91045000D02*
X107000000Y-91045000D01*
X109160000Y-91045000D02*
X109160000Y-91975000D01*
X109160000Y-94205000D02*
X109160000Y-93275000D01*
X80420000Y-65871422D02*
X80420000Y-66388578D01*
X79000000Y-65871422D02*
X79000000Y-66388578D01*
X86930000Y-65808922D02*
X86930000Y-66326078D01*
X88350000Y-65808922D02*
X88350000Y-66326078D01*
D12*
X123357142Y-157937142D02*
X123309523Y-157984761D01*
X123166666Y-158032380D01*
X123071428Y-158032380D01*
X122928571Y-157984761D01*
X122833333Y-157889523D01*
X122785714Y-157794285D01*
X122738095Y-157603809D01*
X122738095Y-157460952D01*
X122785714Y-157270476D01*
X122833333Y-157175238D01*
X122928571Y-157080000D01*
X123071428Y-157032380D01*
X123166666Y-157032380D01*
X123309523Y-157080000D01*
X123357142Y-157127619D01*
X124261904Y-157032380D02*
X123785714Y-157032380D01*
X123738095Y-157508571D01*
X123785714Y-157460952D01*
X123880952Y-157413333D01*
X124119047Y-157413333D01*
X124214285Y-157460952D01*
X124261904Y-157508571D01*
X124309523Y-157603809D01*
X124309523Y-157841904D01*
X124261904Y-157937142D01*
X124214285Y-157984761D01*
X124119047Y-158032380D01*
X123880952Y-158032380D01*
X123785714Y-157984761D01*
X123738095Y-157937142D01*
X125166666Y-157365714D02*
X125166666Y-158032380D01*
X124928571Y-156984761D02*
X124690476Y-157699047D01*
X125309523Y-157699047D01*
X99542380Y-86662857D02*
X99066190Y-86996190D01*
X99542380Y-87234285D02*
X98542380Y-87234285D01*
X98542380Y-86853333D01*
X98590000Y-86758095D01*
X98637619Y-86710476D01*
X98732857Y-86662857D01*
X98875714Y-86662857D01*
X98970952Y-86710476D01*
X99018571Y-86758095D01*
X99066190Y-86853333D01*
X99066190Y-87234285D01*
X98875714Y-85805714D02*
X99542380Y-85805714D01*
X98494761Y-86043809D02*
X99209047Y-86281904D01*
X99209047Y-85662857D01*
X98970952Y-85139047D02*
X98923333Y-85234285D01*
X98875714Y-85281904D01*
X98780476Y-85329523D01*
X98732857Y-85329523D01*
X98637619Y-85281904D01*
X98590000Y-85234285D01*
X98542380Y-85139047D01*
X98542380Y-84948571D01*
X98590000Y-84853333D01*
X98637619Y-84805714D01*
X98732857Y-84758095D01*
X98780476Y-84758095D01*
X98875714Y-84805714D01*
X98923333Y-84853333D01*
X98970952Y-84948571D01*
X98970952Y-85139047D01*
X99018571Y-85234285D01*
X99066190Y-85281904D01*
X99161428Y-85329523D01*
X99351904Y-85329523D01*
X99447142Y-85281904D01*
X99494761Y-85234285D01*
X99542380Y-85139047D01*
X99542380Y-84948571D01*
X99494761Y-84853333D01*
X99447142Y-84805714D01*
X99351904Y-84758095D01*
X99161428Y-84758095D01*
X99066190Y-84805714D01*
X99018571Y-84853333D01*
X98970952Y-84948571D01*
X94707142Y-101637142D02*
X94659523Y-101684761D01*
X94516666Y-101732380D01*
X94421428Y-101732380D01*
X94278571Y-101684761D01*
X94183333Y-101589523D01*
X94135714Y-101494285D01*
X94088095Y-101303809D01*
X94088095Y-101160952D01*
X94135714Y-100970476D01*
X94183333Y-100875238D01*
X94278571Y-100780000D01*
X94421428Y-100732380D01*
X94516666Y-100732380D01*
X94659523Y-100780000D01*
X94707142Y-100827619D01*
X95040476Y-100732380D02*
X95659523Y-100732380D01*
X95326190Y-101113333D01*
X95469047Y-101113333D01*
X95564285Y-101160952D01*
X95611904Y-101208571D01*
X95659523Y-101303809D01*
X95659523Y-101541904D01*
X95611904Y-101637142D01*
X95564285Y-101684761D01*
X95469047Y-101732380D01*
X95183333Y-101732380D01*
X95088095Y-101684761D01*
X95040476Y-101637142D01*
X96611904Y-101732380D02*
X96040476Y-101732380D01*
X96326190Y-101732380D02*
X96326190Y-100732380D01*
X96230952Y-100875238D01*
X96135714Y-100970476D01*
X96040476Y-101018095D01*
X72867142Y-102197142D02*
X72819523Y-102244761D01*
X72676666Y-102292380D01*
X72581428Y-102292380D01*
X72438571Y-102244761D01*
X72343333Y-102149523D01*
X72295714Y-102054285D01*
X72248095Y-101863809D01*
X72248095Y-101720952D01*
X72295714Y-101530476D01*
X72343333Y-101435238D01*
X72438571Y-101340000D01*
X72581428Y-101292380D01*
X72676666Y-101292380D01*
X72819523Y-101340000D01*
X72867142Y-101387619D01*
X73248095Y-101387619D02*
X73295714Y-101340000D01*
X73390952Y-101292380D01*
X73629047Y-101292380D01*
X73724285Y-101340000D01*
X73771904Y-101387619D01*
X73819523Y-101482857D01*
X73819523Y-101578095D01*
X73771904Y-101720952D01*
X73200476Y-102292380D01*
X73819523Y-102292380D01*
X74724285Y-101292380D02*
X74248095Y-101292380D01*
X74200476Y-101768571D01*
X74248095Y-101720952D01*
X74343333Y-101673333D01*
X74581428Y-101673333D01*
X74676666Y-101720952D01*
X74724285Y-101768571D01*
X74771904Y-101863809D01*
X74771904Y-102101904D01*
X74724285Y-102197142D01*
X74676666Y-102244761D01*
X74581428Y-102292380D01*
X74343333Y-102292380D01*
X74248095Y-102244761D01*
X74200476Y-102197142D01*
X87107142Y-101157142D02*
X87059523Y-101204761D01*
X86916666Y-101252380D01*
X86821428Y-101252380D01*
X86678571Y-101204761D01*
X86583333Y-101109523D01*
X86535714Y-101014285D01*
X86488095Y-100823809D01*
X86488095Y-100680952D01*
X86535714Y-100490476D01*
X86583333Y-100395238D01*
X86678571Y-100300000D01*
X86821428Y-100252380D01*
X86916666Y-100252380D01*
X87059523Y-100300000D01*
X87107142Y-100347619D01*
X87488095Y-100347619D02*
X87535714Y-100300000D01*
X87630952Y-100252380D01*
X87869047Y-100252380D01*
X87964285Y-100300000D01*
X88011904Y-100347619D01*
X88059523Y-100442857D01*
X88059523Y-100538095D01*
X88011904Y-100680952D01*
X87440476Y-101252380D01*
X88059523Y-101252380D01*
X88440476Y-100347619D02*
X88488095Y-100300000D01*
X88583333Y-100252380D01*
X88821428Y-100252380D01*
X88916666Y-100300000D01*
X88964285Y-100347619D01*
X89011904Y-100442857D01*
X89011904Y-100538095D01*
X88964285Y-100680952D01*
X88392857Y-101252380D01*
X89011904Y-101252380D01*
X96307142Y-86572857D02*
X96354761Y-86620476D01*
X96402380Y-86763333D01*
X96402380Y-86858571D01*
X96354761Y-87001428D01*
X96259523Y-87096666D01*
X96164285Y-87144285D01*
X95973809Y-87191904D01*
X95830952Y-87191904D01*
X95640476Y-87144285D01*
X95545238Y-87096666D01*
X95450000Y-87001428D01*
X95402380Y-86858571D01*
X95402380Y-86763333D01*
X95450000Y-86620476D01*
X95497619Y-86572857D01*
X95497619Y-86191904D02*
X95450000Y-86144285D01*
X95402380Y-86049047D01*
X95402380Y-85810952D01*
X95450000Y-85715714D01*
X95497619Y-85668095D01*
X95592857Y-85620476D01*
X95688095Y-85620476D01*
X95830952Y-85668095D01*
X96402380Y-86239523D01*
X96402380Y-85620476D01*
X96402380Y-84668095D02*
X96402380Y-85239523D01*
X96402380Y-84953809D02*
X95402380Y-84953809D01*
X95545238Y-85049047D01*
X95640476Y-85144285D01*
X95688095Y-85239523D01*
X67423333Y-102257142D02*
X67375714Y-102304761D01*
X67232857Y-102352380D01*
X67137619Y-102352380D01*
X66994761Y-102304761D01*
X66899523Y-102209523D01*
X66851904Y-102114285D01*
X66804285Y-101923809D01*
X66804285Y-101780952D01*
X66851904Y-101590476D01*
X66899523Y-101495238D01*
X66994761Y-101400000D01*
X67137619Y-101352380D01*
X67232857Y-101352380D01*
X67375714Y-101400000D01*
X67423333Y-101447619D01*
X67756666Y-101352380D02*
X68423333Y-101352380D01*
X67994761Y-102352380D01*
X86023333Y-98677142D02*
X85975714Y-98724761D01*
X85832857Y-98772380D01*
X85737619Y-98772380D01*
X85594761Y-98724761D01*
X85499523Y-98629523D01*
X85451904Y-98534285D01*
X85404285Y-98343809D01*
X85404285Y-98200952D01*
X85451904Y-98010476D01*
X85499523Y-97915238D01*
X85594761Y-97820000D01*
X85737619Y-97772380D01*
X85832857Y-97772380D01*
X85975714Y-97820000D01*
X86023333Y-97867619D01*
X86880476Y-98105714D02*
X86880476Y-98772380D01*
X86642380Y-97724761D02*
X86404285Y-98439047D01*
X87023333Y-98439047D01*
X97927142Y-86576666D02*
X97974761Y-86624285D01*
X98022380Y-86767142D01*
X98022380Y-86862380D01*
X97974761Y-87005238D01*
X97879523Y-87100476D01*
X97784285Y-87148095D01*
X97593809Y-87195714D01*
X97450952Y-87195714D01*
X97260476Y-87148095D01*
X97165238Y-87100476D01*
X97070000Y-87005238D01*
X97022380Y-86862380D01*
X97022380Y-86767142D01*
X97070000Y-86624285D01*
X97117619Y-86576666D01*
X98022380Y-85624285D02*
X98022380Y-86195714D01*
X98022380Y-85910000D02*
X97022380Y-85910000D01*
X97165238Y-86005238D01*
X97260476Y-86100476D01*
X97308095Y-86195714D01*
X101671904Y-87442380D02*
X101671904Y-88251904D01*
X101719523Y-88347142D01*
X101767142Y-88394761D01*
X101862380Y-88442380D01*
X102052857Y-88442380D01*
X102148095Y-88394761D01*
X102195714Y-88347142D01*
X102243333Y-88251904D01*
X102243333Y-87442380D01*
X102671904Y-87537619D02*
X102719523Y-87490000D01*
X102814761Y-87442380D01*
X103052857Y-87442380D01*
X103148095Y-87490000D01*
X103195714Y-87537619D01*
X103243333Y-87632857D01*
X103243333Y-87728095D01*
X103195714Y-87870952D01*
X102624285Y-88442380D01*
X103243333Y-88442380D01*
X103862380Y-87442380D02*
X103957619Y-87442380D01*
X104052857Y-87490000D01*
X104100476Y-87537619D01*
X104148095Y-87632857D01*
X104195714Y-87823333D01*
X104195714Y-88061428D01*
X104148095Y-88251904D01*
X104100476Y-88347142D01*
X104052857Y-88394761D01*
X103957619Y-88442380D01*
X103862380Y-88442380D01*
X103767142Y-88394761D01*
X103719523Y-88347142D01*
X103671904Y-88251904D01*
X103624285Y-88061428D01*
X103624285Y-87823333D01*
X103671904Y-87632857D01*
X103719523Y-87537619D01*
X103767142Y-87490000D01*
X103862380Y-87442380D01*
X91498095Y-51902380D02*
X91498095Y-52711904D01*
X91545714Y-52807142D01*
X91593333Y-52854761D01*
X91688571Y-52902380D01*
X91879047Y-52902380D01*
X91974285Y-52854761D01*
X92021904Y-52807142D01*
X92069523Y-52711904D01*
X92069523Y-51902380D01*
X92688571Y-52330952D02*
X92593333Y-52283333D01*
X92545714Y-52235714D01*
X92498095Y-52140476D01*
X92498095Y-52092857D01*
X92545714Y-51997619D01*
X92593333Y-51950000D01*
X92688571Y-51902380D01*
X92879047Y-51902380D01*
X92974285Y-51950000D01*
X93021904Y-51997619D01*
X93069523Y-52092857D01*
X93069523Y-52140476D01*
X93021904Y-52235714D01*
X92974285Y-52283333D01*
X92879047Y-52330952D01*
X92688571Y-52330952D01*
X92593333Y-52378571D01*
X92545714Y-52426190D01*
X92498095Y-52521428D01*
X92498095Y-52711904D01*
X92545714Y-52807142D01*
X92593333Y-52854761D01*
X92688571Y-52902380D01*
X92879047Y-52902380D01*
X92974285Y-52854761D01*
X93021904Y-52807142D01*
X93069523Y-52711904D01*
X93069523Y-52521428D01*
X93021904Y-52426190D01*
X92974285Y-52378571D01*
X92879047Y-52330952D01*
X91487142Y-164117142D02*
X91439523Y-164164761D01*
X91296666Y-164212380D01*
X91201428Y-164212380D01*
X91058571Y-164164761D01*
X90963333Y-164069523D01*
X90915714Y-163974285D01*
X90868095Y-163783809D01*
X90868095Y-163640952D01*
X90915714Y-163450476D01*
X90963333Y-163355238D01*
X91058571Y-163260000D01*
X91201428Y-163212380D01*
X91296666Y-163212380D01*
X91439523Y-163260000D01*
X91487142Y-163307619D01*
X92058571Y-163640952D02*
X91963333Y-163593333D01*
X91915714Y-163545714D01*
X91868095Y-163450476D01*
X91868095Y-163402857D01*
X91915714Y-163307619D01*
X91963333Y-163260000D01*
X92058571Y-163212380D01*
X92249047Y-163212380D01*
X92344285Y-163260000D01*
X92391904Y-163307619D01*
X92439523Y-163402857D01*
X92439523Y-163450476D01*
X92391904Y-163545714D01*
X92344285Y-163593333D01*
X92249047Y-163640952D01*
X92058571Y-163640952D01*
X91963333Y-163688571D01*
X91915714Y-163736190D01*
X91868095Y-163831428D01*
X91868095Y-164021904D01*
X91915714Y-164117142D01*
X91963333Y-164164761D01*
X92058571Y-164212380D01*
X92249047Y-164212380D01*
X92344285Y-164164761D01*
X92391904Y-164117142D01*
X92439523Y-164021904D01*
X92439523Y-163831428D01*
X92391904Y-163736190D01*
X92344285Y-163688571D01*
X92249047Y-163640952D01*
X93058571Y-163212380D02*
X93153809Y-163212380D01*
X93249047Y-163260000D01*
X93296666Y-163307619D01*
X93344285Y-163402857D01*
X93391904Y-163593333D01*
X93391904Y-163831428D01*
X93344285Y-164021904D01*
X93296666Y-164117142D01*
X93249047Y-164164761D01*
X93153809Y-164212380D01*
X93058571Y-164212380D01*
X92963333Y-164164761D01*
X92915714Y-164117142D01*
X92868095Y-164021904D01*
X92820476Y-163831428D01*
X92820476Y-163593333D01*
X92868095Y-163402857D01*
X92915714Y-163307619D01*
X92963333Y-163260000D01*
X93058571Y-163212380D01*
X74341904Y-122482380D02*
X74341904Y-123291904D01*
X74389523Y-123387142D01*
X74437142Y-123434761D01*
X74532380Y-123482380D01*
X74722857Y-123482380D01*
X74818095Y-123434761D01*
X74865714Y-123387142D01*
X74913333Y-123291904D01*
X74913333Y-122482380D01*
X75341904Y-122577619D02*
X75389523Y-122530000D01*
X75484761Y-122482380D01*
X75722857Y-122482380D01*
X75818095Y-122530000D01*
X75865714Y-122577619D01*
X75913333Y-122672857D01*
X75913333Y-122768095D01*
X75865714Y-122910952D01*
X75294285Y-123482380D01*
X75913333Y-123482380D01*
X76246666Y-122482380D02*
X76913333Y-122482380D01*
X76484761Y-123482380D01*
X86621904Y-135732380D02*
X86621904Y-136541904D01*
X86669523Y-136637142D01*
X86717142Y-136684761D01*
X86812380Y-136732380D01*
X87002857Y-136732380D01*
X87098095Y-136684761D01*
X87145714Y-136637142D01*
X87193333Y-136541904D01*
X87193333Y-135732380D01*
X87621904Y-135827619D02*
X87669523Y-135780000D01*
X87764761Y-135732380D01*
X88002857Y-135732380D01*
X88098095Y-135780000D01*
X88145714Y-135827619D01*
X88193333Y-135922857D01*
X88193333Y-136018095D01*
X88145714Y-136160952D01*
X87574285Y-136732380D01*
X88193333Y-136732380D01*
X88574285Y-135827619D02*
X88621904Y-135780000D01*
X88717142Y-135732380D01*
X88955238Y-135732380D01*
X89050476Y-135780000D01*
X89098095Y-135827619D01*
X89145714Y-135922857D01*
X89145714Y-136018095D01*
X89098095Y-136160952D01*
X88526666Y-136732380D01*
X89145714Y-136732380D01*
X86977142Y-129277142D02*
X86929523Y-129324761D01*
X86786666Y-129372380D01*
X86691428Y-129372380D01*
X86548571Y-129324761D01*
X86453333Y-129229523D01*
X86405714Y-129134285D01*
X86358095Y-128943809D01*
X86358095Y-128800952D01*
X86405714Y-128610476D01*
X86453333Y-128515238D01*
X86548571Y-128420000D01*
X86691428Y-128372380D01*
X86786666Y-128372380D01*
X86929523Y-128420000D01*
X86977142Y-128467619D01*
X87310476Y-128372380D02*
X87977142Y-128372380D01*
X87548571Y-129372380D01*
X88548571Y-128372380D02*
X88643809Y-128372380D01*
X88739047Y-128420000D01*
X88786666Y-128467619D01*
X88834285Y-128562857D01*
X88881904Y-128753333D01*
X88881904Y-128991428D01*
X88834285Y-129181904D01*
X88786666Y-129277142D01*
X88739047Y-129324761D01*
X88643809Y-129372380D01*
X88548571Y-129372380D01*
X88453333Y-129324761D01*
X88405714Y-129277142D01*
X88358095Y-129181904D01*
X88310476Y-128991428D01*
X88310476Y-128753333D01*
X88358095Y-128562857D01*
X88405714Y-128467619D01*
X88453333Y-128420000D01*
X88548571Y-128372380D01*
X73417142Y-77292380D02*
X73083809Y-76816190D01*
X72845714Y-77292380D02*
X72845714Y-76292380D01*
X73226666Y-76292380D01*
X73321904Y-76340000D01*
X73369523Y-76387619D01*
X73417142Y-76482857D01*
X73417142Y-76625714D01*
X73369523Y-76720952D01*
X73321904Y-76768571D01*
X73226666Y-76816190D01*
X72845714Y-76816190D01*
X73750476Y-76292380D02*
X74369523Y-76292380D01*
X74036190Y-76673333D01*
X74179047Y-76673333D01*
X74274285Y-76720952D01*
X74321904Y-76768571D01*
X74369523Y-76863809D01*
X74369523Y-77101904D01*
X74321904Y-77197142D01*
X74274285Y-77244761D01*
X74179047Y-77292380D01*
X73893333Y-77292380D01*
X73798095Y-77244761D01*
X73750476Y-77197142D01*
X75321904Y-77292380D02*
X74750476Y-77292380D01*
X75036190Y-77292380D02*
X75036190Y-76292380D01*
X74940952Y-76435238D01*
X74845714Y-76530476D01*
X74750476Y-76578095D01*
X95966666Y-78822380D02*
X95966666Y-79536666D01*
X95919047Y-79679523D01*
X95823809Y-79774761D01*
X95680952Y-79822380D01*
X95585714Y-79822380D01*
X96871428Y-79155714D02*
X96871428Y-79822380D01*
X96633333Y-78774761D02*
X96395238Y-79489047D01*
X97014285Y-79489047D01*
X143396666Y-74112380D02*
X143396666Y-74826666D01*
X143349047Y-74969523D01*
X143253809Y-75064761D01*
X143110952Y-75112380D01*
X143015714Y-75112380D01*
X143777619Y-74112380D02*
X144396666Y-74112380D01*
X144063333Y-74493333D01*
X144206190Y-74493333D01*
X144301428Y-74540952D01*
X144349047Y-74588571D01*
X144396666Y-74683809D01*
X144396666Y-74921904D01*
X144349047Y-75017142D01*
X144301428Y-75064761D01*
X144206190Y-75112380D01*
X143920476Y-75112380D01*
X143825238Y-75064761D01*
X143777619Y-75017142D01*
X73616666Y-29677380D02*
X73616666Y-30391666D01*
X73569047Y-30534523D01*
X73473809Y-30629761D01*
X73330952Y-30677380D01*
X73235714Y-30677380D01*
X74521428Y-29677380D02*
X74330952Y-29677380D01*
X74235714Y-29725000D01*
X74188095Y-29772619D01*
X74092857Y-29915476D01*
X74045238Y-30105952D01*
X74045238Y-30486904D01*
X74092857Y-30582142D01*
X74140476Y-30629761D01*
X74235714Y-30677380D01*
X74426190Y-30677380D01*
X74521428Y-30629761D01*
X74569047Y-30582142D01*
X74616666Y-30486904D01*
X74616666Y-30248809D01*
X74569047Y-30153571D01*
X74521428Y-30105952D01*
X74426190Y-30058333D01*
X74235714Y-30058333D01*
X74140476Y-30105952D01*
X74092857Y-30153571D01*
X74045238Y-30248809D01*
X159338095Y-74702380D02*
X159338095Y-73702380D01*
X159338095Y-74178571D02*
X159909523Y-74178571D01*
X159909523Y-74702380D02*
X159909523Y-73702380D01*
X160814285Y-74035714D02*
X160814285Y-74702380D01*
X160576190Y-73654761D02*
X160338095Y-74369047D01*
X160957142Y-74369047D01*
X154238095Y-130552380D02*
X154238095Y-129552380D01*
X154238095Y-130028571D02*
X154809523Y-130028571D01*
X154809523Y-130552380D02*
X154809523Y-129552380D01*
X155190476Y-129552380D02*
X155809523Y-129552380D01*
X155476190Y-129933333D01*
X155619047Y-129933333D01*
X155714285Y-129980952D01*
X155761904Y-130028571D01*
X155809523Y-130123809D01*
X155809523Y-130361904D01*
X155761904Y-130457142D01*
X155714285Y-130504761D01*
X155619047Y-130552380D01*
X155333333Y-130552380D01*
X155238095Y-130504761D01*
X155190476Y-130457142D01*
X69238095Y-186702380D02*
X69238095Y-185702380D01*
X69238095Y-186178571D02*
X69809523Y-186178571D01*
X69809523Y-186702380D02*
X69809523Y-185702380D01*
X70238095Y-185797619D02*
X70285714Y-185750000D01*
X70380952Y-185702380D01*
X70619047Y-185702380D01*
X70714285Y-185750000D01*
X70761904Y-185797619D01*
X70809523Y-185892857D01*
X70809523Y-185988095D01*
X70761904Y-186130952D01*
X70190476Y-186702380D01*
X70809523Y-186702380D01*
X63768095Y-54842380D02*
X63768095Y-53842380D01*
X63768095Y-54318571D02*
X64339523Y-54318571D01*
X64339523Y-54842380D02*
X64339523Y-53842380D01*
X65339523Y-54842380D02*
X64768095Y-54842380D01*
X65053809Y-54842380D02*
X65053809Y-53842380D01*
X64958571Y-53985238D01*
X64863333Y-54080476D01*
X64768095Y-54128095D01*
X96097142Y-72567142D02*
X96049523Y-72614761D01*
X95906666Y-72662380D01*
X95811428Y-72662380D01*
X95668571Y-72614761D01*
X95573333Y-72519523D01*
X95525714Y-72424285D01*
X95478095Y-72233809D01*
X95478095Y-72090952D01*
X95525714Y-71900476D01*
X95573333Y-71805238D01*
X95668571Y-71710000D01*
X95811428Y-71662380D01*
X95906666Y-71662380D01*
X96049523Y-71710000D01*
X96097142Y-71757619D01*
X96478095Y-71757619D02*
X96525714Y-71710000D01*
X96620952Y-71662380D01*
X96859047Y-71662380D01*
X96954285Y-71710000D01*
X97001904Y-71757619D01*
X97049523Y-71852857D01*
X97049523Y-71948095D01*
X97001904Y-72090952D01*
X96430476Y-72662380D01*
X97049523Y-72662380D01*
X97668571Y-71662380D02*
X97763809Y-71662380D01*
X97859047Y-71710000D01*
X97906666Y-71757619D01*
X97954285Y-71852857D01*
X98001904Y-72043333D01*
X98001904Y-72281428D01*
X97954285Y-72471904D01*
X97906666Y-72567142D01*
X97859047Y-72614761D01*
X97763809Y-72662380D01*
X97668571Y-72662380D01*
X97573333Y-72614761D01*
X97525714Y-72567142D01*
X97478095Y-72471904D01*
X97430476Y-72281428D01*
X97430476Y-72043333D01*
X97478095Y-71852857D01*
X97525714Y-71757619D01*
X97573333Y-71710000D01*
X97668571Y-71662380D01*
X100168095Y-71752380D02*
X100168095Y-72561904D01*
X100215714Y-72657142D01*
X100263333Y-72704761D01*
X100358571Y-72752380D01*
X100549047Y-72752380D01*
X100644285Y-72704761D01*
X100691904Y-72657142D01*
X100739523Y-72561904D01*
X100739523Y-71752380D01*
X101120476Y-71752380D02*
X101739523Y-71752380D01*
X101406190Y-72133333D01*
X101549047Y-72133333D01*
X101644285Y-72180952D01*
X101691904Y-72228571D01*
X101739523Y-72323809D01*
X101739523Y-72561904D01*
X101691904Y-72657142D01*
X101644285Y-72704761D01*
X101549047Y-72752380D01*
X101263333Y-72752380D01*
X101168095Y-72704761D01*
X101120476Y-72657142D01*
X102728095Y-67952380D02*
X102728095Y-68761904D01*
X102775714Y-68857142D01*
X102823333Y-68904761D01*
X102918571Y-68952380D01*
X103109047Y-68952380D01*
X103204285Y-68904761D01*
X103251904Y-68857142D01*
X103299523Y-68761904D01*
X103299523Y-67952380D01*
X103728095Y-68047619D02*
X103775714Y-68000000D01*
X103870952Y-67952380D01*
X104109047Y-67952380D01*
X104204285Y-68000000D01*
X104251904Y-68047619D01*
X104299523Y-68142857D01*
X104299523Y-68238095D01*
X104251904Y-68380952D01*
X103680476Y-68952380D01*
X104299523Y-68952380D01*
X107527380Y-56717857D02*
X107051190Y-57051190D01*
X107527380Y-57289285D02*
X106527380Y-57289285D01*
X106527380Y-56908333D01*
X106575000Y-56813095D01*
X106622619Y-56765476D01*
X106717857Y-56717857D01*
X106860714Y-56717857D01*
X106955952Y-56765476D01*
X107003571Y-56813095D01*
X107051190Y-56908333D01*
X107051190Y-57289285D01*
X107527380Y-55765476D02*
X107527380Y-56336904D01*
X107527380Y-56051190D02*
X106527380Y-56051190D01*
X106670238Y-56146428D01*
X106765476Y-56241666D01*
X106813095Y-56336904D01*
X106527380Y-54860714D02*
X106527380Y-55336904D01*
X107003571Y-55384523D01*
X106955952Y-55336904D01*
X106908333Y-55241666D01*
X106908333Y-55003571D01*
X106955952Y-54908333D01*
X107003571Y-54860714D01*
X107098809Y-54813095D01*
X107336904Y-54813095D01*
X107432142Y-54860714D01*
X107479761Y-54908333D01*
X107527380Y-55003571D01*
X107527380Y-55241666D01*
X107479761Y-55336904D01*
X107432142Y-55384523D01*
X95527380Y-56817857D02*
X95051190Y-57151190D01*
X95527380Y-57389285D02*
X94527380Y-57389285D01*
X94527380Y-57008333D01*
X94575000Y-56913095D01*
X94622619Y-56865476D01*
X94717857Y-56817857D01*
X94860714Y-56817857D01*
X94955952Y-56865476D01*
X95003571Y-56913095D01*
X95051190Y-57008333D01*
X95051190Y-57389285D01*
X95527380Y-55865476D02*
X95527380Y-56436904D01*
X95527380Y-56151190D02*
X94527380Y-56151190D01*
X94670238Y-56246428D01*
X94765476Y-56341666D01*
X94813095Y-56436904D01*
X95527380Y-54913095D02*
X95527380Y-55484523D01*
X95527380Y-55198809D02*
X94527380Y-55198809D01*
X94670238Y-55294047D01*
X94765476Y-55389285D01*
X94813095Y-55484523D01*
X97527380Y-56741666D02*
X97051190Y-57075000D01*
X97527380Y-57313095D02*
X96527380Y-57313095D01*
X96527380Y-56932142D01*
X96575000Y-56836904D01*
X96622619Y-56789285D01*
X96717857Y-56741666D01*
X96860714Y-56741666D01*
X96955952Y-56789285D01*
X97003571Y-56836904D01*
X97051190Y-56932142D01*
X97051190Y-57313095D01*
X96955952Y-56170238D02*
X96908333Y-56265476D01*
X96860714Y-56313095D01*
X96765476Y-56360714D01*
X96717857Y-56360714D01*
X96622619Y-56313095D01*
X96575000Y-56265476D01*
X96527380Y-56170238D01*
X96527380Y-55979761D01*
X96575000Y-55884523D01*
X96622619Y-55836904D01*
X96717857Y-55789285D01*
X96765476Y-55789285D01*
X96860714Y-55836904D01*
X96908333Y-55884523D01*
X96955952Y-55979761D01*
X96955952Y-56170238D01*
X97003571Y-56265476D01*
X97051190Y-56313095D01*
X97146428Y-56360714D01*
X97336904Y-56360714D01*
X97432142Y-56313095D01*
X97479761Y-56265476D01*
X97527380Y-56170238D01*
X97527380Y-55979761D01*
X97479761Y-55884523D01*
X97432142Y-55836904D01*
X97336904Y-55789285D01*
X97146428Y-55789285D01*
X97051190Y-55836904D01*
X97003571Y-55884523D01*
X96955952Y-55979761D01*
X99527380Y-56741666D02*
X99051190Y-57075000D01*
X99527380Y-57313095D02*
X98527380Y-57313095D01*
X98527380Y-56932142D01*
X98575000Y-56836904D01*
X98622619Y-56789285D01*
X98717857Y-56741666D01*
X98860714Y-56741666D01*
X98955952Y-56789285D01*
X99003571Y-56836904D01*
X99051190Y-56932142D01*
X99051190Y-57313095D01*
X98527380Y-56408333D02*
X98527380Y-55741666D01*
X99527380Y-56170238D01*
X101527380Y-56741666D02*
X101051190Y-57075000D01*
X101527380Y-57313095D02*
X100527380Y-57313095D01*
X100527380Y-56932142D01*
X100575000Y-56836904D01*
X100622619Y-56789285D01*
X100717857Y-56741666D01*
X100860714Y-56741666D01*
X100955952Y-56789285D01*
X101003571Y-56836904D01*
X101051190Y-56932142D01*
X101051190Y-57313095D01*
X100860714Y-55884523D02*
X101527380Y-55884523D01*
X100479761Y-56122619D02*
X101194047Y-56360714D01*
X101194047Y-55741666D01*
X103527380Y-56741666D02*
X103051190Y-57075000D01*
X103527380Y-57313095D02*
X102527380Y-57313095D01*
X102527380Y-56932142D01*
X102575000Y-56836904D01*
X102622619Y-56789285D01*
X102717857Y-56741666D01*
X102860714Y-56741666D01*
X102955952Y-56789285D01*
X103003571Y-56836904D01*
X103051190Y-56932142D01*
X103051190Y-57313095D01*
X102527380Y-56408333D02*
X102527380Y-55789285D01*
X102908333Y-56122619D01*
X102908333Y-55979761D01*
X102955952Y-55884523D01*
X103003571Y-55836904D01*
X103098809Y-55789285D01*
X103336904Y-55789285D01*
X103432142Y-55836904D01*
X103479761Y-55884523D01*
X103527380Y-55979761D01*
X103527380Y-56265476D01*
X103479761Y-56360714D01*
X103432142Y-56408333D01*
X105432142Y-56717857D02*
X105479761Y-56765476D01*
X105527380Y-56908333D01*
X105527380Y-57003571D01*
X105479761Y-57146428D01*
X105384523Y-57241666D01*
X105289285Y-57289285D01*
X105098809Y-57336904D01*
X104955952Y-57336904D01*
X104765476Y-57289285D01*
X104670238Y-57241666D01*
X104575000Y-57146428D01*
X104527380Y-57003571D01*
X104527380Y-56908333D01*
X104575000Y-56765476D01*
X104622619Y-56717857D01*
X104527380Y-56384523D02*
X104527380Y-55765476D01*
X104908333Y-56098809D01*
X104908333Y-55955952D01*
X104955952Y-55860714D01*
X105003571Y-55813095D01*
X105098809Y-55765476D01*
X105336904Y-55765476D01*
X105432142Y-55813095D01*
X105479761Y-55860714D01*
X105527380Y-55955952D01*
X105527380Y-56241666D01*
X105479761Y-56336904D01*
X105432142Y-56384523D01*
X104622619Y-55384523D02*
X104575000Y-55336904D01*
X104527380Y-55241666D01*
X104527380Y-55003571D01*
X104575000Y-54908333D01*
X104622619Y-54860714D01*
X104717857Y-54813095D01*
X104813095Y-54813095D01*
X104955952Y-54860714D01*
X105527380Y-55432142D01*
X105527380Y-54813095D01*
X91437142Y-61627142D02*
X91389523Y-61674761D01*
X91246666Y-61722380D01*
X91151428Y-61722380D01*
X91008571Y-61674761D01*
X90913333Y-61579523D01*
X90865714Y-61484285D01*
X90818095Y-61293809D01*
X90818095Y-61150952D01*
X90865714Y-60960476D01*
X90913333Y-60865238D01*
X91008571Y-60770000D01*
X91151428Y-60722380D01*
X91246666Y-60722380D01*
X91389523Y-60770000D01*
X91437142Y-60817619D01*
X92389523Y-61722380D02*
X91818095Y-61722380D01*
X92103809Y-61722380D02*
X92103809Y-60722380D01*
X92008571Y-60865238D01*
X91913333Y-60960476D01*
X91818095Y-61008095D01*
X92865714Y-61722380D02*
X93056190Y-61722380D01*
X93151428Y-61674761D01*
X93199047Y-61627142D01*
X93294285Y-61484285D01*
X93341904Y-61293809D01*
X93341904Y-60912857D01*
X93294285Y-60817619D01*
X93246666Y-60770000D01*
X93151428Y-60722380D01*
X92960952Y-60722380D01*
X92865714Y-60770000D01*
X92818095Y-60817619D01*
X92770476Y-60912857D01*
X92770476Y-61150952D01*
X92818095Y-61246190D01*
X92865714Y-61293809D01*
X92960952Y-61341428D01*
X93151428Y-61341428D01*
X93246666Y-61293809D01*
X93294285Y-61246190D01*
X93341904Y-61150952D01*
X124161904Y-98412380D02*
X124161904Y-99221904D01*
X124209523Y-99317142D01*
X124257142Y-99364761D01*
X124352380Y-99412380D01*
X124542857Y-99412380D01*
X124638095Y-99364761D01*
X124685714Y-99317142D01*
X124733333Y-99221904D01*
X124733333Y-98412380D01*
X125733333Y-99412380D02*
X125161904Y-99412380D01*
X125447619Y-99412380D02*
X125447619Y-98412380D01*
X125352380Y-98555238D01*
X125257142Y-98650476D01*
X125161904Y-98698095D01*
X126590476Y-98745714D02*
X126590476Y-99412380D01*
X126352380Y-98364761D02*
X126114285Y-99079047D01*
X126733333Y-99079047D01*
X94632142Y-112677380D02*
X94298809Y-112201190D01*
X94060714Y-112677380D02*
X94060714Y-111677380D01*
X94441666Y-111677380D01*
X94536904Y-111725000D01*
X94584523Y-111772619D01*
X94632142Y-111867857D01*
X94632142Y-112010714D01*
X94584523Y-112105952D01*
X94536904Y-112153571D01*
X94441666Y-112201190D01*
X94060714Y-112201190D01*
X94965476Y-111677380D02*
X95632142Y-111677380D01*
X95203571Y-112677380D01*
X96441666Y-112010714D02*
X96441666Y-112677380D01*
X96203571Y-111629761D02*
X95965476Y-112344047D01*
X96584523Y-112344047D01*
X124108095Y-79072380D02*
X124108095Y-79881904D01*
X124155714Y-79977142D01*
X124203333Y-80024761D01*
X124298571Y-80072380D01*
X124489047Y-80072380D01*
X124584285Y-80024761D01*
X124631904Y-79977142D01*
X124679523Y-79881904D01*
X124679523Y-79072380D01*
X125203333Y-80072380D02*
X125393809Y-80072380D01*
X125489047Y-80024761D01*
X125536666Y-79977142D01*
X125631904Y-79834285D01*
X125679523Y-79643809D01*
X125679523Y-79262857D01*
X125631904Y-79167619D01*
X125584285Y-79120000D01*
X125489047Y-79072380D01*
X125298571Y-79072380D01*
X125203333Y-79120000D01*
X125155714Y-79167619D01*
X125108095Y-79262857D01*
X125108095Y-79500952D01*
X125155714Y-79596190D01*
X125203333Y-79643809D01*
X125298571Y-79691428D01*
X125489047Y-79691428D01*
X125584285Y-79643809D01*
X125631904Y-79596190D01*
X125679523Y-79500952D01*
X65217142Y-106132380D02*
X64883809Y-105656190D01*
X64645714Y-106132380D02*
X64645714Y-105132380D01*
X65026666Y-105132380D01*
X65121904Y-105180000D01*
X65169523Y-105227619D01*
X65217142Y-105322857D01*
X65217142Y-105465714D01*
X65169523Y-105560952D01*
X65121904Y-105608571D01*
X65026666Y-105656190D01*
X64645714Y-105656190D01*
X66169523Y-106132380D02*
X65598095Y-106132380D01*
X65883809Y-106132380D02*
X65883809Y-105132380D01*
X65788571Y-105275238D01*
X65693333Y-105370476D01*
X65598095Y-105418095D01*
X66645714Y-106132380D02*
X66836190Y-106132380D01*
X66931428Y-106084761D01*
X66979047Y-106037142D01*
X67074285Y-105894285D01*
X67121904Y-105703809D01*
X67121904Y-105322857D01*
X67074285Y-105227619D01*
X67026666Y-105180000D01*
X66931428Y-105132380D01*
X66740952Y-105132380D01*
X66645714Y-105180000D01*
X66598095Y-105227619D01*
X66550476Y-105322857D01*
X66550476Y-105560952D01*
X66598095Y-105656190D01*
X66645714Y-105703809D01*
X66740952Y-105751428D01*
X66931428Y-105751428D01*
X67026666Y-105703809D01*
X67074285Y-105656190D01*
X67121904Y-105560952D01*
X69347142Y-98697142D02*
X69299523Y-98744761D01*
X69156666Y-98792380D01*
X69061428Y-98792380D01*
X68918571Y-98744761D01*
X68823333Y-98649523D01*
X68775714Y-98554285D01*
X68728095Y-98363809D01*
X68728095Y-98220952D01*
X68775714Y-98030476D01*
X68823333Y-97935238D01*
X68918571Y-97840000D01*
X69061428Y-97792380D01*
X69156666Y-97792380D01*
X69299523Y-97840000D01*
X69347142Y-97887619D01*
X69680476Y-97792380D02*
X70299523Y-97792380D01*
X69966190Y-98173333D01*
X70109047Y-98173333D01*
X70204285Y-98220952D01*
X70251904Y-98268571D01*
X70299523Y-98363809D01*
X70299523Y-98601904D01*
X70251904Y-98697142D01*
X70204285Y-98744761D01*
X70109047Y-98792380D01*
X69823333Y-98792380D01*
X69728095Y-98744761D01*
X69680476Y-98697142D01*
X71204285Y-97792380D02*
X70728095Y-97792380D01*
X70680476Y-98268571D01*
X70728095Y-98220952D01*
X70823333Y-98173333D01*
X71061428Y-98173333D01*
X71156666Y-98220952D01*
X71204285Y-98268571D01*
X71251904Y-98363809D01*
X71251904Y-98601904D01*
X71204285Y-98697142D01*
X71156666Y-98744761D01*
X71061428Y-98792380D01*
X70823333Y-98792380D01*
X70728095Y-98744761D01*
X70680476Y-98697142D01*
X91987142Y-131517142D02*
X91939523Y-131564761D01*
X91796666Y-131612380D01*
X91701428Y-131612380D01*
X91558571Y-131564761D01*
X91463333Y-131469523D01*
X91415714Y-131374285D01*
X91368095Y-131183809D01*
X91368095Y-131040952D01*
X91415714Y-130850476D01*
X91463333Y-130755238D01*
X91558571Y-130660000D01*
X91701428Y-130612380D01*
X91796666Y-130612380D01*
X91939523Y-130660000D01*
X91987142Y-130707619D01*
X92939523Y-131612380D02*
X92368095Y-131612380D01*
X92653809Y-131612380D02*
X92653809Y-130612380D01*
X92558571Y-130755238D01*
X92463333Y-130850476D01*
X92368095Y-130898095D01*
X93796666Y-130612380D02*
X93606190Y-130612380D01*
X93510952Y-130660000D01*
X93463333Y-130707619D01*
X93368095Y-130850476D01*
X93320476Y-131040952D01*
X93320476Y-131421904D01*
X93368095Y-131517142D01*
X93415714Y-131564761D01*
X93510952Y-131612380D01*
X93701428Y-131612380D01*
X93796666Y-131564761D01*
X93844285Y-131517142D01*
X93891904Y-131421904D01*
X93891904Y-131183809D01*
X93844285Y-131088571D01*
X93796666Y-131040952D01*
X93701428Y-130993333D01*
X93510952Y-130993333D01*
X93415714Y-131040952D01*
X93368095Y-131088571D01*
X93320476Y-131183809D01*
X69477142Y-124677142D02*
X69429523Y-124724761D01*
X69286666Y-124772380D01*
X69191428Y-124772380D01*
X69048571Y-124724761D01*
X68953333Y-124629523D01*
X68905714Y-124534285D01*
X68858095Y-124343809D01*
X68858095Y-124200952D01*
X68905714Y-124010476D01*
X68953333Y-123915238D01*
X69048571Y-123820000D01*
X69191428Y-123772380D01*
X69286666Y-123772380D01*
X69429523Y-123820000D01*
X69477142Y-123867619D01*
X70334285Y-123772380D02*
X70143809Y-123772380D01*
X70048571Y-123820000D01*
X70000952Y-123867619D01*
X69905714Y-124010476D01*
X69858095Y-124200952D01*
X69858095Y-124581904D01*
X69905714Y-124677142D01*
X69953333Y-124724761D01*
X70048571Y-124772380D01*
X70239047Y-124772380D01*
X70334285Y-124724761D01*
X70381904Y-124677142D01*
X70429523Y-124581904D01*
X70429523Y-124343809D01*
X70381904Y-124248571D01*
X70334285Y-124200952D01*
X70239047Y-124153333D01*
X70048571Y-124153333D01*
X69953333Y-124200952D01*
X69905714Y-124248571D01*
X69858095Y-124343809D01*
X70762857Y-123772380D02*
X71429523Y-123772380D01*
X71000952Y-124772380D01*
X82827142Y-124967142D02*
X82779523Y-125014761D01*
X82636666Y-125062380D01*
X82541428Y-125062380D01*
X82398571Y-125014761D01*
X82303333Y-124919523D01*
X82255714Y-124824285D01*
X82208095Y-124633809D01*
X82208095Y-124490952D01*
X82255714Y-124300476D01*
X82303333Y-124205238D01*
X82398571Y-124110000D01*
X82541428Y-124062380D01*
X82636666Y-124062380D01*
X82779523Y-124110000D01*
X82827142Y-124157619D01*
X83779523Y-125062380D02*
X83208095Y-125062380D01*
X83493809Y-125062380D02*
X83493809Y-124062380D01*
X83398571Y-124205238D01*
X83303333Y-124300476D01*
X83208095Y-124348095D01*
X84684285Y-124062380D02*
X84208095Y-124062380D01*
X84160476Y-124538571D01*
X84208095Y-124490952D01*
X84303333Y-124443333D01*
X84541428Y-124443333D01*
X84636666Y-124490952D01*
X84684285Y-124538571D01*
X84731904Y-124633809D01*
X84731904Y-124871904D01*
X84684285Y-124967142D01*
X84636666Y-125014761D01*
X84541428Y-125062380D01*
X84303333Y-125062380D01*
X84208095Y-125014761D01*
X84160476Y-124967142D01*
X62677142Y-78227142D02*
X62629523Y-78274761D01*
X62486666Y-78322380D01*
X62391428Y-78322380D01*
X62248571Y-78274761D01*
X62153333Y-78179523D01*
X62105714Y-78084285D01*
X62058095Y-77893809D01*
X62058095Y-77750952D01*
X62105714Y-77560476D01*
X62153333Y-77465238D01*
X62248571Y-77370000D01*
X62391428Y-77322380D01*
X62486666Y-77322380D01*
X62629523Y-77370000D01*
X62677142Y-77417619D01*
X63010476Y-77322380D02*
X63629523Y-77322380D01*
X63296190Y-77703333D01*
X63439047Y-77703333D01*
X63534285Y-77750952D01*
X63581904Y-77798571D01*
X63629523Y-77893809D01*
X63629523Y-78131904D01*
X63581904Y-78227142D01*
X63534285Y-78274761D01*
X63439047Y-78322380D01*
X63153333Y-78322380D01*
X63058095Y-78274761D01*
X63010476Y-78227142D01*
X64486666Y-77655714D02*
X64486666Y-78322380D01*
X64248571Y-77274761D02*
X64010476Y-77989047D01*
X64629523Y-77989047D01*
X63001904Y-112002380D02*
X63001904Y-111002380D01*
X63240000Y-111002380D01*
X63382857Y-111050000D01*
X63478095Y-111145238D01*
X63525714Y-111240476D01*
X63573333Y-111430952D01*
X63573333Y-111573809D01*
X63525714Y-111764285D01*
X63478095Y-111859523D01*
X63382857Y-111954761D01*
X63240000Y-112002380D01*
X63001904Y-112002380D01*
X64525714Y-112002380D02*
X63954285Y-112002380D01*
X64240000Y-112002380D02*
X64240000Y-111002380D01*
X64144761Y-111145238D01*
X64049523Y-111240476D01*
X63954285Y-111288095D01*
X62737142Y-70262380D02*
X62403809Y-69786190D01*
X62165714Y-70262380D02*
X62165714Y-69262380D01*
X62546666Y-69262380D01*
X62641904Y-69310000D01*
X62689523Y-69357619D01*
X62737142Y-69452857D01*
X62737142Y-69595714D01*
X62689523Y-69690952D01*
X62641904Y-69738571D01*
X62546666Y-69786190D01*
X62165714Y-69786190D01*
X63213333Y-70262380D02*
X63403809Y-70262380D01*
X63499047Y-70214761D01*
X63546666Y-70167142D01*
X63641904Y-70024285D01*
X63689523Y-69833809D01*
X63689523Y-69452857D01*
X63641904Y-69357619D01*
X63594285Y-69310000D01*
X63499047Y-69262380D01*
X63308571Y-69262380D01*
X63213333Y-69310000D01*
X63165714Y-69357619D01*
X63118095Y-69452857D01*
X63118095Y-69690952D01*
X63165714Y-69786190D01*
X63213333Y-69833809D01*
X63308571Y-69881428D01*
X63499047Y-69881428D01*
X63594285Y-69833809D01*
X63641904Y-69786190D01*
X63689523Y-69690952D01*
X64070476Y-69357619D02*
X64118095Y-69310000D01*
X64213333Y-69262380D01*
X64451428Y-69262380D01*
X64546666Y-69310000D01*
X64594285Y-69357619D01*
X64641904Y-69452857D01*
X64641904Y-69548095D01*
X64594285Y-69690952D01*
X64022857Y-70262380D01*
X64641904Y-70262380D01*
X93371904Y-104182380D02*
X93371904Y-104991904D01*
X93419523Y-105087142D01*
X93467142Y-105134761D01*
X93562380Y-105182380D01*
X93752857Y-105182380D01*
X93848095Y-105134761D01*
X93895714Y-105087142D01*
X93943333Y-104991904D01*
X93943333Y-104182380D01*
X94943333Y-105182380D02*
X94371904Y-105182380D01*
X94657619Y-105182380D02*
X94657619Y-104182380D01*
X94562380Y-104325238D01*
X94467142Y-104420476D01*
X94371904Y-104468095D01*
X95276666Y-104182380D02*
X95943333Y-104182380D01*
X95514761Y-105182380D01*
X86601904Y-106452380D02*
X86601904Y-107261904D01*
X86649523Y-107357142D01*
X86697142Y-107404761D01*
X86792380Y-107452380D01*
X86982857Y-107452380D01*
X87078095Y-107404761D01*
X87125714Y-107357142D01*
X87173333Y-107261904D01*
X87173333Y-106452380D01*
X88173333Y-107452380D02*
X87601904Y-107452380D01*
X87887619Y-107452380D02*
X87887619Y-106452380D01*
X87792380Y-106595238D01*
X87697142Y-106690476D01*
X87601904Y-106738095D01*
X88744761Y-106880952D02*
X88649523Y-106833333D01*
X88601904Y-106785714D01*
X88554285Y-106690476D01*
X88554285Y-106642857D01*
X88601904Y-106547619D01*
X88649523Y-106500000D01*
X88744761Y-106452380D01*
X88935238Y-106452380D01*
X89030476Y-106500000D01*
X89078095Y-106547619D01*
X89125714Y-106642857D01*
X89125714Y-106690476D01*
X89078095Y-106785714D01*
X89030476Y-106833333D01*
X88935238Y-106880952D01*
X88744761Y-106880952D01*
X88649523Y-106928571D01*
X88601904Y-106976190D01*
X88554285Y-107071428D01*
X88554285Y-107261904D01*
X88601904Y-107357142D01*
X88649523Y-107404761D01*
X88744761Y-107452380D01*
X88935238Y-107452380D01*
X89030476Y-107404761D01*
X89078095Y-107357142D01*
X89125714Y-107261904D01*
X89125714Y-107071428D01*
X89078095Y-106976190D01*
X89030476Y-106928571D01*
X88935238Y-106880952D01*
X126017142Y-28422380D02*
X125683809Y-27946190D01*
X125445714Y-28422380D02*
X125445714Y-27422380D01*
X125826666Y-27422380D01*
X125921904Y-27470000D01*
X125969523Y-27517619D01*
X126017142Y-27612857D01*
X126017142Y-27755714D01*
X125969523Y-27850952D01*
X125921904Y-27898571D01*
X125826666Y-27946190D01*
X125445714Y-27946190D01*
X126398095Y-27517619D02*
X126445714Y-27470000D01*
X126540952Y-27422380D01*
X126779047Y-27422380D01*
X126874285Y-27470000D01*
X126921904Y-27517619D01*
X126969523Y-27612857D01*
X126969523Y-27708095D01*
X126921904Y-27850952D01*
X126350476Y-28422380D01*
X126969523Y-28422380D01*
X127445714Y-28422380D02*
X127636190Y-28422380D01*
X127731428Y-28374761D01*
X127779047Y-28327142D01*
X127874285Y-28184285D01*
X127921904Y-27993809D01*
X127921904Y-27612857D01*
X127874285Y-27517619D01*
X127826666Y-27470000D01*
X127731428Y-27422380D01*
X127540952Y-27422380D01*
X127445714Y-27470000D01*
X127398095Y-27517619D01*
X127350476Y-27612857D01*
X127350476Y-27850952D01*
X127398095Y-27946190D01*
X127445714Y-27993809D01*
X127540952Y-28041428D01*
X127731428Y-28041428D01*
X127826666Y-27993809D01*
X127874285Y-27946190D01*
X127921904Y-27850952D01*
X90881904Y-117492380D02*
X90881904Y-118301904D01*
X90929523Y-118397142D01*
X90977142Y-118444761D01*
X91072380Y-118492380D01*
X91262857Y-118492380D01*
X91358095Y-118444761D01*
X91405714Y-118397142D01*
X91453333Y-118301904D01*
X91453333Y-117492380D01*
X92453333Y-118492380D02*
X91881904Y-118492380D01*
X92167619Y-118492380D02*
X92167619Y-117492380D01*
X92072380Y-117635238D01*
X91977142Y-117730476D01*
X91881904Y-117778095D01*
X92834285Y-117587619D02*
X92881904Y-117540000D01*
X92977142Y-117492380D01*
X93215238Y-117492380D01*
X93310476Y-117540000D01*
X93358095Y-117587619D01*
X93405714Y-117682857D01*
X93405714Y-117778095D01*
X93358095Y-117920952D01*
X92786666Y-118492380D01*
X93405714Y-118492380D01*
X131032380Y-92552857D02*
X130556190Y-92886190D01*
X131032380Y-93124285D02*
X130032380Y-93124285D01*
X130032380Y-92743333D01*
X130080000Y-92648095D01*
X130127619Y-92600476D01*
X130222857Y-92552857D01*
X130365714Y-92552857D01*
X130460952Y-92600476D01*
X130508571Y-92648095D01*
X130556190Y-92743333D01*
X130556190Y-93124285D01*
X130365714Y-91695714D02*
X131032380Y-91695714D01*
X129984761Y-91933809D02*
X130699047Y-92171904D01*
X130699047Y-91552857D01*
X130032380Y-90695714D02*
X130032380Y-91171904D01*
X130508571Y-91219523D01*
X130460952Y-91171904D01*
X130413333Y-91076666D01*
X130413333Y-90838571D01*
X130460952Y-90743333D01*
X130508571Y-90695714D01*
X130603809Y-90648095D01*
X130841904Y-90648095D01*
X130937142Y-90695714D01*
X130984761Y-90743333D01*
X131032380Y-90838571D01*
X131032380Y-91076666D01*
X130984761Y-91171904D01*
X130937142Y-91219523D01*
X125917142Y-36012380D02*
X125583809Y-35536190D01*
X125345714Y-36012380D02*
X125345714Y-35012380D01*
X125726666Y-35012380D01*
X125821904Y-35060000D01*
X125869523Y-35107619D01*
X125917142Y-35202857D01*
X125917142Y-35345714D01*
X125869523Y-35440952D01*
X125821904Y-35488571D01*
X125726666Y-35536190D01*
X125345714Y-35536190D01*
X126298095Y-35107619D02*
X126345714Y-35060000D01*
X126440952Y-35012380D01*
X126679047Y-35012380D01*
X126774285Y-35060000D01*
X126821904Y-35107619D01*
X126869523Y-35202857D01*
X126869523Y-35298095D01*
X126821904Y-35440952D01*
X126250476Y-36012380D01*
X126869523Y-36012380D01*
X127821904Y-36012380D02*
X127250476Y-36012380D01*
X127536190Y-36012380D02*
X127536190Y-35012380D01*
X127440952Y-35155238D01*
X127345714Y-35250476D01*
X127250476Y-35298095D01*
X111768095Y-27302380D02*
X111768095Y-28111904D01*
X111815714Y-28207142D01*
X111863333Y-28254761D01*
X111958571Y-28302380D01*
X112149047Y-28302380D01*
X112244285Y-28254761D01*
X112291904Y-28207142D01*
X112339523Y-28111904D01*
X112339523Y-27302380D01*
X113291904Y-27302380D02*
X112815714Y-27302380D01*
X112768095Y-27778571D01*
X112815714Y-27730952D01*
X112910952Y-27683333D01*
X113149047Y-27683333D01*
X113244285Y-27730952D01*
X113291904Y-27778571D01*
X113339523Y-27873809D01*
X113339523Y-28111904D01*
X113291904Y-28207142D01*
X113244285Y-28254761D01*
X113149047Y-28302380D01*
X112910952Y-28302380D01*
X112815714Y-28254761D01*
X112768095Y-28207142D01*
X90657142Y-103232142D02*
X90609523Y-103279761D01*
X90466666Y-103327380D01*
X90371428Y-103327380D01*
X90228571Y-103279761D01*
X90133333Y-103184523D01*
X90085714Y-103089285D01*
X90038095Y-102898809D01*
X90038095Y-102755952D01*
X90085714Y-102565476D01*
X90133333Y-102470238D01*
X90228571Y-102375000D01*
X90371428Y-102327380D01*
X90466666Y-102327380D01*
X90609523Y-102375000D01*
X90657142Y-102422619D01*
X91514285Y-102327380D02*
X91323809Y-102327380D01*
X91228571Y-102375000D01*
X91180952Y-102422619D01*
X91085714Y-102565476D01*
X91038095Y-102755952D01*
X91038095Y-103136904D01*
X91085714Y-103232142D01*
X91133333Y-103279761D01*
X91228571Y-103327380D01*
X91419047Y-103327380D01*
X91514285Y-103279761D01*
X91561904Y-103232142D01*
X91609523Y-103136904D01*
X91609523Y-102898809D01*
X91561904Y-102803571D01*
X91514285Y-102755952D01*
X91419047Y-102708333D01*
X91228571Y-102708333D01*
X91133333Y-102755952D01*
X91085714Y-102803571D01*
X91038095Y-102898809D01*
X91942857Y-102327380D02*
X92561904Y-102327380D01*
X92228571Y-102708333D01*
X92371428Y-102708333D01*
X92466666Y-102755952D01*
X92514285Y-102803571D01*
X92561904Y-102898809D01*
X92561904Y-103136904D01*
X92514285Y-103232142D01*
X92466666Y-103279761D01*
X92371428Y-103327380D01*
X92085714Y-103327380D01*
X91990476Y-103279761D01*
X91942857Y-103232142D01*
X90427142Y-110337142D02*
X90379523Y-110384761D01*
X90236666Y-110432380D01*
X90141428Y-110432380D01*
X89998571Y-110384761D01*
X89903333Y-110289523D01*
X89855714Y-110194285D01*
X89808095Y-110003809D01*
X89808095Y-109860952D01*
X89855714Y-109670476D01*
X89903333Y-109575238D01*
X89998571Y-109480000D01*
X90141428Y-109432380D01*
X90236666Y-109432380D01*
X90379523Y-109480000D01*
X90427142Y-109527619D01*
X91331904Y-109432380D02*
X90855714Y-109432380D01*
X90808095Y-109908571D01*
X90855714Y-109860952D01*
X90950952Y-109813333D01*
X91189047Y-109813333D01*
X91284285Y-109860952D01*
X91331904Y-109908571D01*
X91379523Y-110003809D01*
X91379523Y-110241904D01*
X91331904Y-110337142D01*
X91284285Y-110384761D01*
X91189047Y-110432380D01*
X90950952Y-110432380D01*
X90855714Y-110384761D01*
X90808095Y-110337142D01*
X91712857Y-109432380D02*
X92379523Y-109432380D01*
X91950952Y-110432380D01*
X94597142Y-120507142D02*
X94549523Y-120554761D01*
X94406666Y-120602380D01*
X94311428Y-120602380D01*
X94168571Y-120554761D01*
X94073333Y-120459523D01*
X94025714Y-120364285D01*
X93978095Y-120173809D01*
X93978095Y-120030952D01*
X94025714Y-119840476D01*
X94073333Y-119745238D01*
X94168571Y-119650000D01*
X94311428Y-119602380D01*
X94406666Y-119602380D01*
X94549523Y-119650000D01*
X94597142Y-119697619D01*
X95501904Y-119602380D02*
X95025714Y-119602380D01*
X94978095Y-120078571D01*
X95025714Y-120030952D01*
X95120952Y-119983333D01*
X95359047Y-119983333D01*
X95454285Y-120030952D01*
X95501904Y-120078571D01*
X95549523Y-120173809D01*
X95549523Y-120411904D01*
X95501904Y-120507142D01*
X95454285Y-120554761D01*
X95359047Y-120602380D01*
X95120952Y-120602380D01*
X95025714Y-120554761D01*
X94978095Y-120507142D01*
X96406666Y-119602380D02*
X96216190Y-119602380D01*
X96120952Y-119650000D01*
X96073333Y-119697619D01*
X95978095Y-119840476D01*
X95930476Y-120030952D01*
X95930476Y-120411904D01*
X95978095Y-120507142D01*
X96025714Y-120554761D01*
X96120952Y-120602380D01*
X96311428Y-120602380D01*
X96406666Y-120554761D01*
X96454285Y-120507142D01*
X96501904Y-120411904D01*
X96501904Y-120173809D01*
X96454285Y-120078571D01*
X96406666Y-120030952D01*
X96311428Y-119983333D01*
X96120952Y-119983333D01*
X96025714Y-120030952D01*
X95978095Y-120078571D01*
X95930476Y-120173809D01*
X118087142Y-79707142D02*
X118039523Y-79754761D01*
X117896666Y-79802380D01*
X117801428Y-79802380D01*
X117658571Y-79754761D01*
X117563333Y-79659523D01*
X117515714Y-79564285D01*
X117468095Y-79373809D01*
X117468095Y-79230952D01*
X117515714Y-79040476D01*
X117563333Y-78945238D01*
X117658571Y-78850000D01*
X117801428Y-78802380D01*
X117896666Y-78802380D01*
X118039523Y-78850000D01*
X118087142Y-78897619D01*
X118944285Y-79135714D02*
X118944285Y-79802380D01*
X118706190Y-78754761D02*
X118468095Y-79469047D01*
X119087142Y-79469047D01*
X119372857Y-78802380D02*
X119991904Y-78802380D01*
X119658571Y-79183333D01*
X119801428Y-79183333D01*
X119896666Y-79230952D01*
X119944285Y-79278571D01*
X119991904Y-79373809D01*
X119991904Y-79611904D01*
X119944285Y-79707142D01*
X119896666Y-79754761D01*
X119801428Y-79802380D01*
X119515714Y-79802380D01*
X119420476Y-79754761D01*
X119372857Y-79707142D01*
X110617142Y-25477142D02*
X110569523Y-25524761D01*
X110426666Y-25572380D01*
X110331428Y-25572380D01*
X110188571Y-25524761D01*
X110093333Y-25429523D01*
X110045714Y-25334285D01*
X109998095Y-25143809D01*
X109998095Y-25000952D01*
X110045714Y-24810476D01*
X110093333Y-24715238D01*
X110188571Y-24620000D01*
X110331428Y-24572380D01*
X110426666Y-24572380D01*
X110569523Y-24620000D01*
X110617142Y-24667619D01*
X110950476Y-24572380D02*
X111569523Y-24572380D01*
X111236190Y-24953333D01*
X111379047Y-24953333D01*
X111474285Y-25000952D01*
X111521904Y-25048571D01*
X111569523Y-25143809D01*
X111569523Y-25381904D01*
X111521904Y-25477142D01*
X111474285Y-25524761D01*
X111379047Y-25572380D01*
X111093333Y-25572380D01*
X110998095Y-25524761D01*
X110950476Y-25477142D01*
X112140952Y-25000952D02*
X112045714Y-24953333D01*
X111998095Y-24905714D01*
X111950476Y-24810476D01*
X111950476Y-24762857D01*
X111998095Y-24667619D01*
X112045714Y-24620000D01*
X112140952Y-24572380D01*
X112331428Y-24572380D01*
X112426666Y-24620000D01*
X112474285Y-24667619D01*
X112521904Y-24762857D01*
X112521904Y-24810476D01*
X112474285Y-24905714D01*
X112426666Y-24953333D01*
X112331428Y-25000952D01*
X112140952Y-25000952D01*
X112045714Y-25048571D01*
X111998095Y-25096190D01*
X111950476Y-25191428D01*
X111950476Y-25381904D01*
X111998095Y-25477142D01*
X112045714Y-25524761D01*
X112140952Y-25572380D01*
X112331428Y-25572380D01*
X112426666Y-25524761D01*
X112474285Y-25477142D01*
X112521904Y-25381904D01*
X112521904Y-25191428D01*
X112474285Y-25096190D01*
X112426666Y-25048571D01*
X112331428Y-25000952D01*
X112947142Y-37967142D02*
X112899523Y-38014761D01*
X112756666Y-38062380D01*
X112661428Y-38062380D01*
X112518571Y-38014761D01*
X112423333Y-37919523D01*
X112375714Y-37824285D01*
X112328095Y-37633809D01*
X112328095Y-37490952D01*
X112375714Y-37300476D01*
X112423333Y-37205238D01*
X112518571Y-37110000D01*
X112661428Y-37062380D01*
X112756666Y-37062380D01*
X112899523Y-37110000D01*
X112947142Y-37157619D01*
X113280476Y-37062380D02*
X113899523Y-37062380D01*
X113566190Y-37443333D01*
X113709047Y-37443333D01*
X113804285Y-37490952D01*
X113851904Y-37538571D01*
X113899523Y-37633809D01*
X113899523Y-37871904D01*
X113851904Y-37967142D01*
X113804285Y-38014761D01*
X113709047Y-38062380D01*
X113423333Y-38062380D01*
X113328095Y-38014761D01*
X113280476Y-37967142D01*
X114232857Y-37062380D02*
X114899523Y-37062380D01*
X114470952Y-38062380D01*
X109207142Y-33617142D02*
X109159523Y-33664761D01*
X109016666Y-33712380D01*
X108921428Y-33712380D01*
X108778571Y-33664761D01*
X108683333Y-33569523D01*
X108635714Y-33474285D01*
X108588095Y-33283809D01*
X108588095Y-33140952D01*
X108635714Y-32950476D01*
X108683333Y-32855238D01*
X108778571Y-32760000D01*
X108921428Y-32712380D01*
X109016666Y-32712380D01*
X109159523Y-32760000D01*
X109207142Y-32807619D01*
X109540476Y-32712380D02*
X110159523Y-32712380D01*
X109826190Y-33093333D01*
X109969047Y-33093333D01*
X110064285Y-33140952D01*
X110111904Y-33188571D01*
X110159523Y-33283809D01*
X110159523Y-33521904D01*
X110111904Y-33617142D01*
X110064285Y-33664761D01*
X109969047Y-33712380D01*
X109683333Y-33712380D01*
X109588095Y-33664761D01*
X109540476Y-33617142D01*
X111016666Y-32712380D02*
X110826190Y-32712380D01*
X110730952Y-32760000D01*
X110683333Y-32807619D01*
X110588095Y-32950476D01*
X110540476Y-33140952D01*
X110540476Y-33521904D01*
X110588095Y-33617142D01*
X110635714Y-33664761D01*
X110730952Y-33712380D01*
X110921428Y-33712380D01*
X111016666Y-33664761D01*
X111064285Y-33617142D01*
X111111904Y-33521904D01*
X111111904Y-33283809D01*
X111064285Y-33188571D01*
X111016666Y-33140952D01*
X110921428Y-33093333D01*
X110730952Y-33093333D01*
X110635714Y-33140952D01*
X110588095Y-33188571D01*
X110540476Y-33283809D01*
X64297142Y-121137142D02*
X64249523Y-121184761D01*
X64106666Y-121232380D01*
X64011428Y-121232380D01*
X63868571Y-121184761D01*
X63773333Y-121089523D01*
X63725714Y-120994285D01*
X63678095Y-120803809D01*
X63678095Y-120660952D01*
X63725714Y-120470476D01*
X63773333Y-120375238D01*
X63868571Y-120280000D01*
X64011428Y-120232380D01*
X64106666Y-120232380D01*
X64249523Y-120280000D01*
X64297142Y-120327619D01*
X65249523Y-121232380D02*
X64678095Y-121232380D01*
X64963809Y-121232380D02*
X64963809Y-120232380D01*
X64868571Y-120375238D01*
X64773333Y-120470476D01*
X64678095Y-120518095D01*
X65630476Y-120327619D02*
X65678095Y-120280000D01*
X65773333Y-120232380D01*
X66011428Y-120232380D01*
X66106666Y-120280000D01*
X66154285Y-120327619D01*
X66201904Y-120422857D01*
X66201904Y-120518095D01*
X66154285Y-120660952D01*
X65582857Y-121232380D01*
X66201904Y-121232380D01*
X64467142Y-116227142D02*
X64419523Y-116274761D01*
X64276666Y-116322380D01*
X64181428Y-116322380D01*
X64038571Y-116274761D01*
X63943333Y-116179523D01*
X63895714Y-116084285D01*
X63848095Y-115893809D01*
X63848095Y-115750952D01*
X63895714Y-115560476D01*
X63943333Y-115465238D01*
X64038571Y-115370000D01*
X64181428Y-115322380D01*
X64276666Y-115322380D01*
X64419523Y-115370000D01*
X64467142Y-115417619D01*
X65419523Y-116322380D02*
X64848095Y-116322380D01*
X65133809Y-116322380D02*
X65133809Y-115322380D01*
X65038571Y-115465238D01*
X64943333Y-115560476D01*
X64848095Y-115608095D01*
X66371904Y-116322380D02*
X65800476Y-116322380D01*
X66086190Y-116322380D02*
X66086190Y-115322380D01*
X65990952Y-115465238D01*
X65895714Y-115560476D01*
X65800476Y-115608095D01*
X90161904Y-115577380D02*
X90161904Y-116386904D01*
X90209523Y-116482142D01*
X90257142Y-116529761D01*
X90352380Y-116577380D01*
X90542857Y-116577380D01*
X90638095Y-116529761D01*
X90685714Y-116482142D01*
X90733333Y-116386904D01*
X90733333Y-115577380D01*
X91733333Y-116577380D02*
X91161904Y-116577380D01*
X91447619Y-116577380D02*
X91447619Y-115577380D01*
X91352380Y-115720238D01*
X91257142Y-115815476D01*
X91161904Y-115863095D01*
X92066666Y-115577380D02*
X92685714Y-115577380D01*
X92352380Y-115958333D01*
X92495238Y-115958333D01*
X92590476Y-116005952D01*
X92638095Y-116053571D01*
X92685714Y-116148809D01*
X92685714Y-116386904D01*
X92638095Y-116482142D01*
X92590476Y-116529761D01*
X92495238Y-116577380D01*
X92209523Y-116577380D01*
X92114285Y-116529761D01*
X92066666Y-116482142D01*
X125917142Y-30352380D02*
X125583809Y-29876190D01*
X125345714Y-30352380D02*
X125345714Y-29352380D01*
X125726666Y-29352380D01*
X125821904Y-29400000D01*
X125869523Y-29447619D01*
X125917142Y-29542857D01*
X125917142Y-29685714D01*
X125869523Y-29780952D01*
X125821904Y-29828571D01*
X125726666Y-29876190D01*
X125345714Y-29876190D01*
X126298095Y-29447619D02*
X126345714Y-29400000D01*
X126440952Y-29352380D01*
X126679047Y-29352380D01*
X126774285Y-29400000D01*
X126821904Y-29447619D01*
X126869523Y-29542857D01*
X126869523Y-29638095D01*
X126821904Y-29780952D01*
X126250476Y-30352380D01*
X126869523Y-30352380D01*
X127726666Y-29352380D02*
X127536190Y-29352380D01*
X127440952Y-29400000D01*
X127393333Y-29447619D01*
X127298095Y-29590476D01*
X127250476Y-29780952D01*
X127250476Y-30161904D01*
X127298095Y-30257142D01*
X127345714Y-30304761D01*
X127440952Y-30352380D01*
X127631428Y-30352380D01*
X127726666Y-30304761D01*
X127774285Y-30257142D01*
X127821904Y-30161904D01*
X127821904Y-29923809D01*
X127774285Y-29828571D01*
X127726666Y-29780952D01*
X127631428Y-29733333D01*
X127440952Y-29733333D01*
X127345714Y-29780952D01*
X127298095Y-29828571D01*
X127250476Y-29923809D01*
X93451904Y-133752380D02*
X93451904Y-134561904D01*
X93499523Y-134657142D01*
X93547142Y-134704761D01*
X93642380Y-134752380D01*
X93832857Y-134752380D01*
X93928095Y-134704761D01*
X93975714Y-134657142D01*
X94023333Y-134561904D01*
X94023333Y-133752380D01*
X94451904Y-133847619D02*
X94499523Y-133800000D01*
X94594761Y-133752380D01*
X94832857Y-133752380D01*
X94928095Y-133800000D01*
X94975714Y-133847619D01*
X95023333Y-133942857D01*
X95023333Y-134038095D01*
X94975714Y-134180952D01*
X94404285Y-134752380D01*
X95023333Y-134752380D01*
X95975714Y-134752380D02*
X95404285Y-134752380D01*
X95690000Y-134752380D02*
X95690000Y-133752380D01*
X95594761Y-133895238D01*
X95499523Y-133990476D01*
X95404285Y-134038095D01*
X129002380Y-92502857D02*
X128526190Y-92836190D01*
X129002380Y-93074285D02*
X128002380Y-93074285D01*
X128002380Y-92693333D01*
X128050000Y-92598095D01*
X128097619Y-92550476D01*
X128192857Y-92502857D01*
X128335714Y-92502857D01*
X128430952Y-92550476D01*
X128478571Y-92598095D01*
X128526190Y-92693333D01*
X128526190Y-93074285D01*
X128335714Y-91645714D02*
X129002380Y-91645714D01*
X127954761Y-91883809D02*
X128669047Y-92121904D01*
X128669047Y-91502857D01*
X128097619Y-91169523D02*
X128050000Y-91121904D01*
X128002380Y-91026666D01*
X128002380Y-90788571D01*
X128050000Y-90693333D01*
X128097619Y-90645714D01*
X128192857Y-90598095D01*
X128288095Y-90598095D01*
X128430952Y-90645714D01*
X129002380Y-91217142D01*
X129002380Y-90598095D01*
X126982380Y-92492857D02*
X126506190Y-92826190D01*
X126982380Y-93064285D02*
X125982380Y-93064285D01*
X125982380Y-92683333D01*
X126030000Y-92588095D01*
X126077619Y-92540476D01*
X126172857Y-92492857D01*
X126315714Y-92492857D01*
X126410952Y-92540476D01*
X126458571Y-92588095D01*
X126506190Y-92683333D01*
X126506190Y-93064285D01*
X126315714Y-91635714D02*
X126982380Y-91635714D01*
X125934761Y-91873809D02*
X126649047Y-92111904D01*
X126649047Y-91492857D01*
X126982380Y-90588095D02*
X126982380Y-91159523D01*
X126982380Y-90873809D02*
X125982380Y-90873809D01*
X126125238Y-90969047D01*
X126220476Y-91064285D01*
X126268095Y-91159523D01*
X125212380Y-92612857D02*
X124736190Y-92946190D01*
X125212380Y-93184285D02*
X124212380Y-93184285D01*
X124212380Y-92803333D01*
X124260000Y-92708095D01*
X124307619Y-92660476D01*
X124402857Y-92612857D01*
X124545714Y-92612857D01*
X124640952Y-92660476D01*
X124688571Y-92708095D01*
X124736190Y-92803333D01*
X124736190Y-93184285D01*
X124212380Y-92279523D02*
X124212380Y-91660476D01*
X124593333Y-91993809D01*
X124593333Y-91850952D01*
X124640952Y-91755714D01*
X124688571Y-91708095D01*
X124783809Y-91660476D01*
X125021904Y-91660476D01*
X125117142Y-91708095D01*
X125164761Y-91755714D01*
X125212380Y-91850952D01*
X125212380Y-92136666D01*
X125164761Y-92231904D01*
X125117142Y-92279523D01*
X124640952Y-91089047D02*
X124593333Y-91184285D01*
X124545714Y-91231904D01*
X124450476Y-91279523D01*
X124402857Y-91279523D01*
X124307619Y-91231904D01*
X124260000Y-91184285D01*
X124212380Y-91089047D01*
X124212380Y-90898571D01*
X124260000Y-90803333D01*
X124307619Y-90755714D01*
X124402857Y-90708095D01*
X124450476Y-90708095D01*
X124545714Y-90755714D01*
X124593333Y-90803333D01*
X124640952Y-90898571D01*
X124640952Y-91089047D01*
X124688571Y-91184285D01*
X124736190Y-91231904D01*
X124831428Y-91279523D01*
X125021904Y-91279523D01*
X125117142Y-91231904D01*
X125164761Y-91184285D01*
X125212380Y-91089047D01*
X125212380Y-90898571D01*
X125164761Y-90803333D01*
X125117142Y-90755714D01*
X125021904Y-90708095D01*
X124831428Y-90708095D01*
X124736190Y-90755714D01*
X124688571Y-90803333D01*
X124640952Y-90898571D01*
X123322380Y-92592857D02*
X122846190Y-92926190D01*
X123322380Y-93164285D02*
X122322380Y-93164285D01*
X122322380Y-92783333D01*
X122370000Y-92688095D01*
X122417619Y-92640476D01*
X122512857Y-92592857D01*
X122655714Y-92592857D01*
X122750952Y-92640476D01*
X122798571Y-92688095D01*
X122846190Y-92783333D01*
X122846190Y-93164285D01*
X122322380Y-92259523D02*
X122322380Y-91640476D01*
X122703333Y-91973809D01*
X122703333Y-91830952D01*
X122750952Y-91735714D01*
X122798571Y-91688095D01*
X122893809Y-91640476D01*
X123131904Y-91640476D01*
X123227142Y-91688095D01*
X123274761Y-91735714D01*
X123322380Y-91830952D01*
X123322380Y-92116666D01*
X123274761Y-92211904D01*
X123227142Y-92259523D01*
X122322380Y-91307142D02*
X122322380Y-90640476D01*
X123322380Y-91069047D01*
X128097142Y-77252380D02*
X127763809Y-76776190D01*
X127525714Y-77252380D02*
X127525714Y-76252380D01*
X127906666Y-76252380D01*
X128001904Y-76300000D01*
X128049523Y-76347619D01*
X128097142Y-76442857D01*
X128097142Y-76585714D01*
X128049523Y-76680952D01*
X128001904Y-76728571D01*
X127906666Y-76776190D01*
X127525714Y-76776190D01*
X128430476Y-76252380D02*
X129049523Y-76252380D01*
X128716190Y-76633333D01*
X128859047Y-76633333D01*
X128954285Y-76680952D01*
X129001904Y-76728571D01*
X129049523Y-76823809D01*
X129049523Y-77061904D01*
X129001904Y-77157142D01*
X128954285Y-77204761D01*
X128859047Y-77252380D01*
X128573333Y-77252380D01*
X128478095Y-77204761D01*
X128430476Y-77157142D01*
X129906666Y-76252380D02*
X129716190Y-76252380D01*
X129620952Y-76300000D01*
X129573333Y-76347619D01*
X129478095Y-76490476D01*
X129430476Y-76680952D01*
X129430476Y-77061904D01*
X129478095Y-77157142D01*
X129525714Y-77204761D01*
X129620952Y-77252380D01*
X129811428Y-77252380D01*
X129906666Y-77204761D01*
X129954285Y-77157142D01*
X130001904Y-77061904D01*
X130001904Y-76823809D01*
X129954285Y-76728571D01*
X129906666Y-76680952D01*
X129811428Y-76633333D01*
X129620952Y-76633333D01*
X129525714Y-76680952D01*
X129478095Y-76728571D01*
X129430476Y-76823809D01*
X125867142Y-32322380D02*
X125533809Y-31846190D01*
X125295714Y-32322380D02*
X125295714Y-31322380D01*
X125676666Y-31322380D01*
X125771904Y-31370000D01*
X125819523Y-31417619D01*
X125867142Y-31512857D01*
X125867142Y-31655714D01*
X125819523Y-31750952D01*
X125771904Y-31798571D01*
X125676666Y-31846190D01*
X125295714Y-31846190D01*
X126248095Y-31417619D02*
X126295714Y-31370000D01*
X126390952Y-31322380D01*
X126629047Y-31322380D01*
X126724285Y-31370000D01*
X126771904Y-31417619D01*
X126819523Y-31512857D01*
X126819523Y-31608095D01*
X126771904Y-31750952D01*
X126200476Y-32322380D01*
X126819523Y-32322380D01*
X127724285Y-31322380D02*
X127248095Y-31322380D01*
X127200476Y-31798571D01*
X127248095Y-31750952D01*
X127343333Y-31703333D01*
X127581428Y-31703333D01*
X127676666Y-31750952D01*
X127724285Y-31798571D01*
X127771904Y-31893809D01*
X127771904Y-32131904D01*
X127724285Y-32227142D01*
X127676666Y-32274761D01*
X127581428Y-32322380D01*
X127343333Y-32322380D01*
X127248095Y-32274761D01*
X127200476Y-32227142D01*
X125897142Y-34192380D02*
X125563809Y-33716190D01*
X125325714Y-34192380D02*
X125325714Y-33192380D01*
X125706666Y-33192380D01*
X125801904Y-33240000D01*
X125849523Y-33287619D01*
X125897142Y-33382857D01*
X125897142Y-33525714D01*
X125849523Y-33620952D01*
X125801904Y-33668571D01*
X125706666Y-33716190D01*
X125325714Y-33716190D01*
X126278095Y-33287619D02*
X126325714Y-33240000D01*
X126420952Y-33192380D01*
X126659047Y-33192380D01*
X126754285Y-33240000D01*
X126801904Y-33287619D01*
X126849523Y-33382857D01*
X126849523Y-33478095D01*
X126801904Y-33620952D01*
X126230476Y-34192380D01*
X126849523Y-34192380D01*
X127230476Y-33287619D02*
X127278095Y-33240000D01*
X127373333Y-33192380D01*
X127611428Y-33192380D01*
X127706666Y-33240000D01*
X127754285Y-33287619D01*
X127801904Y-33382857D01*
X127801904Y-33478095D01*
X127754285Y-33620952D01*
X127182857Y-34192380D01*
X127801904Y-34192380D01*
X120177142Y-39882380D02*
X119843809Y-39406190D01*
X119605714Y-39882380D02*
X119605714Y-38882380D01*
X119986666Y-38882380D01*
X120081904Y-38930000D01*
X120129523Y-38977619D01*
X120177142Y-39072857D01*
X120177142Y-39215714D01*
X120129523Y-39310952D01*
X120081904Y-39358571D01*
X119986666Y-39406190D01*
X119605714Y-39406190D01*
X120510476Y-38882380D02*
X121129523Y-38882380D01*
X120796190Y-39263333D01*
X120939047Y-39263333D01*
X121034285Y-39310952D01*
X121081904Y-39358571D01*
X121129523Y-39453809D01*
X121129523Y-39691904D01*
X121081904Y-39787142D01*
X121034285Y-39834761D01*
X120939047Y-39882380D01*
X120653333Y-39882380D01*
X120558095Y-39834761D01*
X120510476Y-39787142D01*
X121462857Y-38882380D02*
X122081904Y-38882380D01*
X121748571Y-39263333D01*
X121891428Y-39263333D01*
X121986666Y-39310952D01*
X122034285Y-39358571D01*
X122081904Y-39453809D01*
X122081904Y-39691904D01*
X122034285Y-39787142D01*
X121986666Y-39834761D01*
X121891428Y-39882380D01*
X121605714Y-39882380D01*
X121510476Y-39834761D01*
X121462857Y-39787142D01*
X77981904Y-122512380D02*
X77981904Y-123321904D01*
X78029523Y-123417142D01*
X78077142Y-123464761D01*
X78172380Y-123512380D01*
X78362857Y-123512380D01*
X78458095Y-123464761D01*
X78505714Y-123417142D01*
X78553333Y-123321904D01*
X78553333Y-122512380D01*
X78981904Y-122607619D02*
X79029523Y-122560000D01*
X79124761Y-122512380D01*
X79362857Y-122512380D01*
X79458095Y-122560000D01*
X79505714Y-122607619D01*
X79553333Y-122702857D01*
X79553333Y-122798095D01*
X79505714Y-122940952D01*
X78934285Y-123512380D01*
X79553333Y-123512380D01*
X80410476Y-122512380D02*
X80220000Y-122512380D01*
X80124761Y-122560000D01*
X80077142Y-122607619D01*
X79981904Y-122750476D01*
X79934285Y-122940952D01*
X79934285Y-123321904D01*
X79981904Y-123417142D01*
X80029523Y-123464761D01*
X80124761Y-123512380D01*
X80315238Y-123512380D01*
X80410476Y-123464761D01*
X80458095Y-123417142D01*
X80505714Y-123321904D01*
X80505714Y-123083809D01*
X80458095Y-122988571D01*
X80410476Y-122940952D01*
X80315238Y-122893333D01*
X80124761Y-122893333D01*
X80029523Y-122940952D01*
X79981904Y-122988571D01*
X79934285Y-123083809D01*
X113597142Y-146847142D02*
X113549523Y-146894761D01*
X113406666Y-146942380D01*
X113311428Y-146942380D01*
X113168571Y-146894761D01*
X113073333Y-146799523D01*
X113025714Y-146704285D01*
X112978095Y-146513809D01*
X112978095Y-146370952D01*
X113025714Y-146180476D01*
X113073333Y-146085238D01*
X113168571Y-145990000D01*
X113311428Y-145942380D01*
X113406666Y-145942380D01*
X113549523Y-145990000D01*
X113597142Y-146037619D01*
X114501904Y-145942380D02*
X114025714Y-145942380D01*
X113978095Y-146418571D01*
X114025714Y-146370952D01*
X114120952Y-146323333D01*
X114359047Y-146323333D01*
X114454285Y-146370952D01*
X114501904Y-146418571D01*
X114549523Y-146513809D01*
X114549523Y-146751904D01*
X114501904Y-146847142D01*
X114454285Y-146894761D01*
X114359047Y-146942380D01*
X114120952Y-146942380D01*
X114025714Y-146894761D01*
X113978095Y-146847142D01*
X115454285Y-145942380D02*
X114978095Y-145942380D01*
X114930476Y-146418571D01*
X114978095Y-146370952D01*
X115073333Y-146323333D01*
X115311428Y-146323333D01*
X115406666Y-146370952D01*
X115454285Y-146418571D01*
X115501904Y-146513809D01*
X115501904Y-146751904D01*
X115454285Y-146847142D01*
X115406666Y-146894761D01*
X115311428Y-146942380D01*
X115073333Y-146942380D01*
X114978095Y-146894761D01*
X114930476Y-146847142D01*
X124221904Y-160202380D02*
X124221904Y-161011904D01*
X124269523Y-161107142D01*
X124317142Y-161154761D01*
X124412380Y-161202380D01*
X124602857Y-161202380D01*
X124698095Y-161154761D01*
X124745714Y-161107142D01*
X124793333Y-161011904D01*
X124793333Y-160202380D01*
X125793333Y-161202380D02*
X125221904Y-161202380D01*
X125507619Y-161202380D02*
X125507619Y-160202380D01*
X125412380Y-160345238D01*
X125317142Y-160440476D01*
X125221904Y-160488095D01*
X126269523Y-161202380D02*
X126460000Y-161202380D01*
X126555238Y-161154761D01*
X126602857Y-161107142D01*
X126698095Y-160964285D01*
X126745714Y-160773809D01*
X126745714Y-160392857D01*
X126698095Y-160297619D01*
X126650476Y-160250000D01*
X126555238Y-160202380D01*
X126364761Y-160202380D01*
X126269523Y-160250000D01*
X126221904Y-160297619D01*
X126174285Y-160392857D01*
X126174285Y-160630952D01*
X126221904Y-160726190D01*
X126269523Y-160773809D01*
X126364761Y-160821428D01*
X126555238Y-160821428D01*
X126650476Y-160773809D01*
X126698095Y-160726190D01*
X126745714Y-160630952D01*
X130887142Y-154232380D02*
X130553809Y-153756190D01*
X130315714Y-154232380D02*
X130315714Y-153232380D01*
X130696666Y-153232380D01*
X130791904Y-153280000D01*
X130839523Y-153327619D01*
X130887142Y-153422857D01*
X130887142Y-153565714D01*
X130839523Y-153660952D01*
X130791904Y-153708571D01*
X130696666Y-153756190D01*
X130315714Y-153756190D01*
X131744285Y-153232380D02*
X131553809Y-153232380D01*
X131458571Y-153280000D01*
X131410952Y-153327619D01*
X131315714Y-153470476D01*
X131268095Y-153660952D01*
X131268095Y-154041904D01*
X131315714Y-154137142D01*
X131363333Y-154184761D01*
X131458571Y-154232380D01*
X131649047Y-154232380D01*
X131744285Y-154184761D01*
X131791904Y-154137142D01*
X131839523Y-154041904D01*
X131839523Y-153803809D01*
X131791904Y-153708571D01*
X131744285Y-153660952D01*
X131649047Y-153613333D01*
X131458571Y-153613333D01*
X131363333Y-153660952D01*
X131315714Y-153708571D01*
X131268095Y-153803809D01*
X132220476Y-153327619D02*
X132268095Y-153280000D01*
X132363333Y-153232380D01*
X132601428Y-153232380D01*
X132696666Y-153280000D01*
X132744285Y-153327619D01*
X132791904Y-153422857D01*
X132791904Y-153518095D01*
X132744285Y-153660952D01*
X132172857Y-154232380D01*
X132791904Y-154232380D01*
X130827142Y-146452380D02*
X130493809Y-145976190D01*
X130255714Y-146452380D02*
X130255714Y-145452380D01*
X130636666Y-145452380D01*
X130731904Y-145500000D01*
X130779523Y-145547619D01*
X130827142Y-145642857D01*
X130827142Y-145785714D01*
X130779523Y-145880952D01*
X130731904Y-145928571D01*
X130636666Y-145976190D01*
X130255714Y-145976190D01*
X131731904Y-145452380D02*
X131255714Y-145452380D01*
X131208095Y-145928571D01*
X131255714Y-145880952D01*
X131350952Y-145833333D01*
X131589047Y-145833333D01*
X131684285Y-145880952D01*
X131731904Y-145928571D01*
X131779523Y-146023809D01*
X131779523Y-146261904D01*
X131731904Y-146357142D01*
X131684285Y-146404761D01*
X131589047Y-146452380D01*
X131350952Y-146452380D01*
X131255714Y-146404761D01*
X131208095Y-146357142D01*
X132636666Y-145785714D02*
X132636666Y-146452380D01*
X132398571Y-145404761D02*
X132160476Y-146119047D01*
X132779523Y-146119047D01*
X78866666Y-68172380D02*
X78866666Y-68886666D01*
X78819047Y-69029523D01*
X78723809Y-69124761D01*
X78580952Y-69172380D01*
X78485714Y-69172380D01*
X79295238Y-68267619D02*
X79342857Y-68220000D01*
X79438095Y-68172380D01*
X79676190Y-68172380D01*
X79771428Y-68220000D01*
X79819047Y-68267619D01*
X79866666Y-68362857D01*
X79866666Y-68458095D01*
X79819047Y-68600952D01*
X79247619Y-69172380D01*
X79866666Y-69172380D01*
X114721904Y-151422380D02*
X114721904Y-152231904D01*
X114769523Y-152327142D01*
X114817142Y-152374761D01*
X114912380Y-152422380D01*
X115102857Y-152422380D01*
X115198095Y-152374761D01*
X115245714Y-152327142D01*
X115293333Y-152231904D01*
X115293333Y-151422380D01*
X116293333Y-152422380D02*
X115721904Y-152422380D01*
X116007619Y-152422380D02*
X116007619Y-151422380D01*
X115912380Y-151565238D01*
X115817142Y-151660476D01*
X115721904Y-151708095D01*
X117150476Y-151422380D02*
X116960000Y-151422380D01*
X116864761Y-151470000D01*
X116817142Y-151517619D01*
X116721904Y-151660476D01*
X116674285Y-151850952D01*
X116674285Y-152231904D01*
X116721904Y-152327142D01*
X116769523Y-152374761D01*
X116864761Y-152422380D01*
X117055238Y-152422380D01*
X117150476Y-152374761D01*
X117198095Y-152327142D01*
X117245714Y-152231904D01*
X117245714Y-151993809D01*
X117198095Y-151898571D01*
X117150476Y-151850952D01*
X117055238Y-151803333D01*
X116864761Y-151803333D01*
X116769523Y-151850952D01*
X116721904Y-151898571D01*
X116674285Y-151993809D01*
X76993809Y-120076190D02*
X76993809Y-120552380D01*
X76660476Y-119552380D02*
X76993809Y-120076190D01*
X77327142Y-119552380D01*
X77612857Y-119647619D02*
X77660476Y-119600000D01*
X77755714Y-119552380D01*
X77993809Y-119552380D01*
X78089047Y-119600000D01*
X78136666Y-119647619D01*
X78184285Y-119742857D01*
X78184285Y-119838095D01*
X78136666Y-119980952D01*
X77565238Y-120552380D01*
X78184285Y-120552380D01*
X69373809Y-121134190D02*
X69373809Y-121610380D01*
X69040476Y-120610380D02*
X69373809Y-121134190D01*
X69707142Y-120610380D01*
X70564285Y-121610380D02*
X69992857Y-121610380D01*
X70278571Y-121610380D02*
X70278571Y-120610380D01*
X70183333Y-120753238D01*
X70088095Y-120848476D01*
X69992857Y-120896095D01*
X113808095Y-34152380D02*
X113808095Y-34961904D01*
X113855714Y-35057142D01*
X113903333Y-35104761D01*
X113998571Y-35152380D01*
X114189047Y-35152380D01*
X114284285Y-35104761D01*
X114331904Y-35057142D01*
X114379523Y-34961904D01*
X114379523Y-34152380D01*
X115284285Y-34485714D02*
X115284285Y-35152380D01*
X115046190Y-34104761D02*
X114808095Y-34819047D01*
X115427142Y-34819047D01*
X130837142Y-148332380D02*
X130503809Y-147856190D01*
X130265714Y-148332380D02*
X130265714Y-147332380D01*
X130646666Y-147332380D01*
X130741904Y-147380000D01*
X130789523Y-147427619D01*
X130837142Y-147522857D01*
X130837142Y-147665714D01*
X130789523Y-147760952D01*
X130741904Y-147808571D01*
X130646666Y-147856190D01*
X130265714Y-147856190D01*
X131741904Y-147332380D02*
X131265714Y-147332380D01*
X131218095Y-147808571D01*
X131265714Y-147760952D01*
X131360952Y-147713333D01*
X131599047Y-147713333D01*
X131694285Y-147760952D01*
X131741904Y-147808571D01*
X131789523Y-147903809D01*
X131789523Y-148141904D01*
X131741904Y-148237142D01*
X131694285Y-148284761D01*
X131599047Y-148332380D01*
X131360952Y-148332380D01*
X131265714Y-148284761D01*
X131218095Y-148237142D01*
X132694285Y-147332380D02*
X132218095Y-147332380D01*
X132170476Y-147808571D01*
X132218095Y-147760952D01*
X132313333Y-147713333D01*
X132551428Y-147713333D01*
X132646666Y-147760952D01*
X132694285Y-147808571D01*
X132741904Y-147903809D01*
X132741904Y-148141904D01*
X132694285Y-148237142D01*
X132646666Y-148284761D01*
X132551428Y-148332380D01*
X132313333Y-148332380D01*
X132218095Y-148284761D01*
X132170476Y-148237142D01*
X130917142Y-144542380D02*
X130583809Y-144066190D01*
X130345714Y-144542380D02*
X130345714Y-143542380D01*
X130726666Y-143542380D01*
X130821904Y-143590000D01*
X130869523Y-143637619D01*
X130917142Y-143732857D01*
X130917142Y-143875714D01*
X130869523Y-143970952D01*
X130821904Y-144018571D01*
X130726666Y-144066190D01*
X130345714Y-144066190D01*
X131774285Y-143542380D02*
X131583809Y-143542380D01*
X131488571Y-143590000D01*
X131440952Y-143637619D01*
X131345714Y-143780476D01*
X131298095Y-143970952D01*
X131298095Y-144351904D01*
X131345714Y-144447142D01*
X131393333Y-144494761D01*
X131488571Y-144542380D01*
X131679047Y-144542380D01*
X131774285Y-144494761D01*
X131821904Y-144447142D01*
X131869523Y-144351904D01*
X131869523Y-144113809D01*
X131821904Y-144018571D01*
X131774285Y-143970952D01*
X131679047Y-143923333D01*
X131488571Y-143923333D01*
X131393333Y-143970952D01*
X131345714Y-144018571D01*
X131298095Y-144113809D01*
X132202857Y-143542380D02*
X132869523Y-143542380D01*
X132440952Y-144542380D01*
X130727142Y-152152380D02*
X130393809Y-151676190D01*
X130155714Y-152152380D02*
X130155714Y-151152380D01*
X130536666Y-151152380D01*
X130631904Y-151200000D01*
X130679523Y-151247619D01*
X130727142Y-151342857D01*
X130727142Y-151485714D01*
X130679523Y-151580952D01*
X130631904Y-151628571D01*
X130536666Y-151676190D01*
X130155714Y-151676190D01*
X131631904Y-151152380D02*
X131155714Y-151152380D01*
X131108095Y-151628571D01*
X131155714Y-151580952D01*
X131250952Y-151533333D01*
X131489047Y-151533333D01*
X131584285Y-151580952D01*
X131631904Y-151628571D01*
X131679523Y-151723809D01*
X131679523Y-151961904D01*
X131631904Y-152057142D01*
X131584285Y-152104761D01*
X131489047Y-152152380D01*
X131250952Y-152152380D01*
X131155714Y-152104761D01*
X131108095Y-152057142D01*
X132155714Y-152152380D02*
X132346190Y-152152380D01*
X132441428Y-152104761D01*
X132489047Y-152057142D01*
X132584285Y-151914285D01*
X132631904Y-151723809D01*
X132631904Y-151342857D01*
X132584285Y-151247619D01*
X132536666Y-151200000D01*
X132441428Y-151152380D01*
X132250952Y-151152380D01*
X132155714Y-151200000D01*
X132108095Y-151247619D01*
X132060476Y-151342857D01*
X132060476Y-151580952D01*
X132108095Y-151676190D01*
X132155714Y-151723809D01*
X132250952Y-151771428D01*
X132441428Y-151771428D01*
X132536666Y-151723809D01*
X132584285Y-151676190D01*
X132631904Y-151580952D01*
X130797142Y-150342380D02*
X130463809Y-149866190D01*
X130225714Y-150342380D02*
X130225714Y-149342380D01*
X130606666Y-149342380D01*
X130701904Y-149390000D01*
X130749523Y-149437619D01*
X130797142Y-149532857D01*
X130797142Y-149675714D01*
X130749523Y-149770952D01*
X130701904Y-149818571D01*
X130606666Y-149866190D01*
X130225714Y-149866190D01*
X131701904Y-149342380D02*
X131225714Y-149342380D01*
X131178095Y-149818571D01*
X131225714Y-149770952D01*
X131320952Y-149723333D01*
X131559047Y-149723333D01*
X131654285Y-149770952D01*
X131701904Y-149818571D01*
X131749523Y-149913809D01*
X131749523Y-150151904D01*
X131701904Y-150247142D01*
X131654285Y-150294761D01*
X131559047Y-150342380D01*
X131320952Y-150342380D01*
X131225714Y-150294761D01*
X131178095Y-150247142D01*
X132320952Y-149770952D02*
X132225714Y-149723333D01*
X132178095Y-149675714D01*
X132130476Y-149580476D01*
X132130476Y-149532857D01*
X132178095Y-149437619D01*
X132225714Y-149390000D01*
X132320952Y-149342380D01*
X132511428Y-149342380D01*
X132606666Y-149390000D01*
X132654285Y-149437619D01*
X132701904Y-149532857D01*
X132701904Y-149580476D01*
X132654285Y-149675714D01*
X132606666Y-149723333D01*
X132511428Y-149770952D01*
X132320952Y-149770952D01*
X132225714Y-149818571D01*
X132178095Y-149866190D01*
X132130476Y-149961428D01*
X132130476Y-150151904D01*
X132178095Y-150247142D01*
X132225714Y-150294761D01*
X132320952Y-150342380D01*
X132511428Y-150342380D01*
X132606666Y-150294761D01*
X132654285Y-150247142D01*
X132701904Y-150151904D01*
X132701904Y-149961428D01*
X132654285Y-149866190D01*
X132606666Y-149818571D01*
X132511428Y-149770952D01*
X117081904Y-142882380D02*
X117081904Y-143691904D01*
X117129523Y-143787142D01*
X117177142Y-143834761D01*
X117272380Y-143882380D01*
X117462857Y-143882380D01*
X117558095Y-143834761D01*
X117605714Y-143787142D01*
X117653333Y-143691904D01*
X117653333Y-142882380D01*
X118653333Y-143882380D02*
X118081904Y-143882380D01*
X118367619Y-143882380D02*
X118367619Y-142882380D01*
X118272380Y-143025238D01*
X118177142Y-143120476D01*
X118081904Y-143168095D01*
X119558095Y-142882380D02*
X119081904Y-142882380D01*
X119034285Y-143358571D01*
X119081904Y-143310952D01*
X119177142Y-143263333D01*
X119415238Y-143263333D01*
X119510476Y-143310952D01*
X119558095Y-143358571D01*
X119605714Y-143453809D01*
X119605714Y-143691904D01*
X119558095Y-143787142D01*
X119510476Y-143834761D01*
X119415238Y-143882380D01*
X119177142Y-143882380D01*
X119081904Y-143834761D01*
X119034285Y-143787142D01*
X130887142Y-142267142D02*
X130839523Y-142314761D01*
X130696666Y-142362380D01*
X130601428Y-142362380D01*
X130458571Y-142314761D01*
X130363333Y-142219523D01*
X130315714Y-142124285D01*
X130268095Y-141933809D01*
X130268095Y-141790952D01*
X130315714Y-141600476D01*
X130363333Y-141505238D01*
X130458571Y-141410000D01*
X130601428Y-141362380D01*
X130696666Y-141362380D01*
X130839523Y-141410000D01*
X130887142Y-141457619D01*
X131791904Y-141362380D02*
X131315714Y-141362380D01*
X131268095Y-141838571D01*
X131315714Y-141790952D01*
X131410952Y-141743333D01*
X131649047Y-141743333D01*
X131744285Y-141790952D01*
X131791904Y-141838571D01*
X131839523Y-141933809D01*
X131839523Y-142171904D01*
X131791904Y-142267142D01*
X131744285Y-142314761D01*
X131649047Y-142362380D01*
X131410952Y-142362380D01*
X131315714Y-142314761D01*
X131268095Y-142267142D01*
X132172857Y-141362380D02*
X132791904Y-141362380D01*
X132458571Y-141743333D01*
X132601428Y-141743333D01*
X132696666Y-141790952D01*
X132744285Y-141838571D01*
X132791904Y-141933809D01*
X132791904Y-142171904D01*
X132744285Y-142267142D01*
X132696666Y-142314761D01*
X132601428Y-142362380D01*
X132315714Y-142362380D01*
X132220476Y-142314761D01*
X132172857Y-142267142D01*
X98447142Y-135912380D02*
X98113809Y-135436190D01*
X97875714Y-135912380D02*
X97875714Y-134912380D01*
X98256666Y-134912380D01*
X98351904Y-134960000D01*
X98399523Y-135007619D01*
X98447142Y-135102857D01*
X98447142Y-135245714D01*
X98399523Y-135340952D01*
X98351904Y-135388571D01*
X98256666Y-135436190D01*
X97875714Y-135436190D01*
X99399523Y-135912380D02*
X98828095Y-135912380D01*
X99113809Y-135912380D02*
X99113809Y-134912380D01*
X99018571Y-135055238D01*
X98923333Y-135150476D01*
X98828095Y-135198095D01*
X99780476Y-135007619D02*
X99828095Y-134960000D01*
X99923333Y-134912380D01*
X100161428Y-134912380D01*
X100256666Y-134960000D01*
X100304285Y-135007619D01*
X100351904Y-135102857D01*
X100351904Y-135198095D01*
X100304285Y-135340952D01*
X99732857Y-135912380D01*
X100351904Y-135912380D01*
X68670476Y-58712380D02*
X68670476Y-59426666D01*
X68622857Y-59569523D01*
X68527619Y-59664761D01*
X68384761Y-59712380D01*
X68289523Y-59712380D01*
X69670476Y-59712380D02*
X69099047Y-59712380D01*
X69384761Y-59712380D02*
X69384761Y-58712380D01*
X69289523Y-58855238D01*
X69194285Y-58950476D01*
X69099047Y-58998095D01*
X70575238Y-58712380D02*
X70099047Y-58712380D01*
X70051428Y-59188571D01*
X70099047Y-59140952D01*
X70194285Y-59093333D01*
X70432380Y-59093333D01*
X70527619Y-59140952D01*
X70575238Y-59188571D01*
X70622857Y-59283809D01*
X70622857Y-59521904D01*
X70575238Y-59617142D01*
X70527619Y-59664761D01*
X70432380Y-59712380D01*
X70194285Y-59712380D01*
X70099047Y-59664761D01*
X70051428Y-59617142D01*
X62460476Y-75052380D02*
X62460476Y-75766666D01*
X62412857Y-75909523D01*
X62317619Y-76004761D01*
X62174761Y-76052380D01*
X62079523Y-76052380D01*
X63460476Y-76052380D02*
X62889047Y-76052380D01*
X63174761Y-76052380D02*
X63174761Y-75052380D01*
X63079523Y-75195238D01*
X62984285Y-75290476D01*
X62889047Y-75338095D01*
X63793809Y-75052380D02*
X64412857Y-75052380D01*
X64079523Y-75433333D01*
X64222380Y-75433333D01*
X64317619Y-75480952D01*
X64365238Y-75528571D01*
X64412857Y-75623809D01*
X64412857Y-75861904D01*
X64365238Y-75957142D01*
X64317619Y-76004761D01*
X64222380Y-76052380D01*
X63936666Y-76052380D01*
X63841428Y-76004761D01*
X63793809Y-75957142D01*
X104496666Y-128392380D02*
X104496666Y-129106666D01*
X104449047Y-129249523D01*
X104353809Y-129344761D01*
X104210952Y-129392380D01*
X104115714Y-129392380D01*
X105496666Y-129392380D02*
X104925238Y-129392380D01*
X105210952Y-129392380D02*
X105210952Y-128392380D01*
X105115714Y-128535238D01*
X105020476Y-128630476D01*
X104925238Y-128678095D01*
X89048095Y-121992380D02*
X89048095Y-122801904D01*
X89095714Y-122897142D01*
X89143333Y-122944761D01*
X89238571Y-122992380D01*
X89429047Y-122992380D01*
X89524285Y-122944761D01*
X89571904Y-122897142D01*
X89619523Y-122801904D01*
X89619523Y-121992380D01*
X90619523Y-122992380D02*
X90048095Y-122992380D01*
X90333809Y-122992380D02*
X90333809Y-121992380D01*
X90238571Y-122135238D01*
X90143333Y-122230476D01*
X90048095Y-122278095D01*
X88736904Y-177927380D02*
X88736904Y-178736904D01*
X88784523Y-178832142D01*
X88832142Y-178879761D01*
X88927380Y-178927380D01*
X89117857Y-178927380D01*
X89213095Y-178879761D01*
X89260714Y-178832142D01*
X89308333Y-178736904D01*
X89308333Y-177927380D01*
X89736904Y-178022619D02*
X89784523Y-177975000D01*
X89879761Y-177927380D01*
X90117857Y-177927380D01*
X90213095Y-177975000D01*
X90260714Y-178022619D01*
X90308333Y-178117857D01*
X90308333Y-178213095D01*
X90260714Y-178355952D01*
X89689285Y-178927380D01*
X90308333Y-178927380D01*
X91165476Y-178260714D02*
X91165476Y-178927380D01*
X90927380Y-177879761D02*
X90689285Y-178594047D01*
X91308333Y-178594047D01*
X79004285Y-135762380D02*
X79575714Y-135762380D01*
X79290000Y-136762380D02*
X79290000Y-135762380D01*
X79909047Y-136762380D02*
X79909047Y-135762380D01*
X79909047Y-136238571D02*
X80480476Y-136238571D01*
X80480476Y-136762380D02*
X80480476Y-135762380D01*
X81480476Y-136762380D02*
X80909047Y-136762380D01*
X81194761Y-136762380D02*
X81194761Y-135762380D01*
X81099523Y-135905238D01*
X81004285Y-136000476D01*
X80909047Y-136048095D01*
X116087142Y-187457142D02*
X116039523Y-187504761D01*
X115896666Y-187552380D01*
X115801428Y-187552380D01*
X115658571Y-187504761D01*
X115563333Y-187409523D01*
X115515714Y-187314285D01*
X115468095Y-187123809D01*
X115468095Y-186980952D01*
X115515714Y-186790476D01*
X115563333Y-186695238D01*
X115658571Y-186600000D01*
X115801428Y-186552380D01*
X115896666Y-186552380D01*
X116039523Y-186600000D01*
X116087142Y-186647619D01*
X116420476Y-186552380D02*
X117087142Y-186552380D01*
X116658571Y-187552380D01*
X117372857Y-186552380D02*
X117991904Y-186552380D01*
X117658571Y-186933333D01*
X117801428Y-186933333D01*
X117896666Y-186980952D01*
X117944285Y-187028571D01*
X117991904Y-187123809D01*
X117991904Y-187361904D01*
X117944285Y-187457142D01*
X117896666Y-187504761D01*
X117801428Y-187552380D01*
X117515714Y-187552380D01*
X117420476Y-187504761D01*
X117372857Y-187457142D01*
X85037142Y-188877142D02*
X84989523Y-188924761D01*
X84846666Y-188972380D01*
X84751428Y-188972380D01*
X84608571Y-188924761D01*
X84513333Y-188829523D01*
X84465714Y-188734285D01*
X84418095Y-188543809D01*
X84418095Y-188400952D01*
X84465714Y-188210476D01*
X84513333Y-188115238D01*
X84608571Y-188020000D01*
X84751428Y-187972380D01*
X84846666Y-187972380D01*
X84989523Y-188020000D01*
X85037142Y-188067619D01*
X85370476Y-187972380D02*
X86037142Y-187972380D01*
X85608571Y-188972380D01*
X86322857Y-187972380D02*
X86989523Y-187972380D01*
X86560952Y-188972380D01*
X68107142Y-137207142D02*
X68059523Y-137254761D01*
X67916666Y-137302380D01*
X67821428Y-137302380D01*
X67678571Y-137254761D01*
X67583333Y-137159523D01*
X67535714Y-137064285D01*
X67488095Y-136873809D01*
X67488095Y-136730952D01*
X67535714Y-136540476D01*
X67583333Y-136445238D01*
X67678571Y-136350000D01*
X67821428Y-136302380D01*
X67916666Y-136302380D01*
X68059523Y-136350000D01*
X68107142Y-136397619D01*
X68440476Y-136302380D02*
X69107142Y-136302380D01*
X68678571Y-137302380D01*
X69964285Y-136302380D02*
X69488095Y-136302380D01*
X69440476Y-136778571D01*
X69488095Y-136730952D01*
X69583333Y-136683333D01*
X69821428Y-136683333D01*
X69916666Y-136730952D01*
X69964285Y-136778571D01*
X70011904Y-136873809D01*
X70011904Y-137111904D01*
X69964285Y-137207142D01*
X69916666Y-137254761D01*
X69821428Y-137302380D01*
X69583333Y-137302380D01*
X69488095Y-137254761D01*
X69440476Y-137207142D01*
X79211904Y-185422380D02*
X79211904Y-186231904D01*
X79259523Y-186327142D01*
X79307142Y-186374761D01*
X79402380Y-186422380D01*
X79592857Y-186422380D01*
X79688095Y-186374761D01*
X79735714Y-186327142D01*
X79783333Y-186231904D01*
X79783333Y-185422380D01*
X80211904Y-185517619D02*
X80259523Y-185470000D01*
X80354761Y-185422380D01*
X80592857Y-185422380D01*
X80688095Y-185470000D01*
X80735714Y-185517619D01*
X80783333Y-185612857D01*
X80783333Y-185708095D01*
X80735714Y-185850952D01*
X80164285Y-186422380D01*
X80783333Y-186422380D01*
X81116666Y-185422380D02*
X81735714Y-185422380D01*
X81402380Y-185803333D01*
X81545238Y-185803333D01*
X81640476Y-185850952D01*
X81688095Y-185898571D01*
X81735714Y-185993809D01*
X81735714Y-186231904D01*
X81688095Y-186327142D01*
X81640476Y-186374761D01*
X81545238Y-186422380D01*
X81259523Y-186422380D01*
X81164285Y-186374761D01*
X81116666Y-186327142D01*
X66718095Y-110832380D02*
X66718095Y-111641904D01*
X66765714Y-111737142D01*
X66813333Y-111784761D01*
X66908571Y-111832380D01*
X67099047Y-111832380D01*
X67194285Y-111784761D01*
X67241904Y-111737142D01*
X67289523Y-111641904D01*
X67289523Y-110832380D01*
X68194285Y-110832380D02*
X68003809Y-110832380D01*
X67908571Y-110880000D01*
X67860952Y-110927619D01*
X67765714Y-111070476D01*
X67718095Y-111260952D01*
X67718095Y-111641904D01*
X67765714Y-111737142D01*
X67813333Y-111784761D01*
X67908571Y-111832380D01*
X68099047Y-111832380D01*
X68194285Y-111784761D01*
X68241904Y-111737142D01*
X68289523Y-111641904D01*
X68289523Y-111403809D01*
X68241904Y-111308571D01*
X68194285Y-111260952D01*
X68099047Y-111213333D01*
X67908571Y-111213333D01*
X67813333Y-111260952D01*
X67765714Y-111308571D01*
X67718095Y-111403809D01*
X66736666Y-96052380D02*
X66736666Y-96766666D01*
X66689047Y-96909523D01*
X66593809Y-97004761D01*
X66450952Y-97052380D01*
X66355714Y-97052380D01*
X67689047Y-96052380D02*
X67212857Y-96052380D01*
X67165238Y-96528571D01*
X67212857Y-96480952D01*
X67308095Y-96433333D01*
X67546190Y-96433333D01*
X67641428Y-96480952D01*
X67689047Y-96528571D01*
X67736666Y-96623809D01*
X67736666Y-96861904D01*
X67689047Y-96957142D01*
X67641428Y-97004761D01*
X67546190Y-97052380D01*
X67308095Y-97052380D01*
X67212857Y-97004761D01*
X67165238Y-96957142D01*
X123291666Y-126512380D02*
X123291666Y-127226666D01*
X123244047Y-127369523D01*
X123148809Y-127464761D01*
X123005952Y-127512380D01*
X122910714Y-127512380D01*
X123910714Y-126940952D02*
X123815476Y-126893333D01*
X123767857Y-126845714D01*
X123720238Y-126750476D01*
X123720238Y-126702857D01*
X123767857Y-126607619D01*
X123815476Y-126560000D01*
X123910714Y-126512380D01*
X124101190Y-126512380D01*
X124196428Y-126560000D01*
X124244047Y-126607619D01*
X124291666Y-126702857D01*
X124291666Y-126750476D01*
X124244047Y-126845714D01*
X124196428Y-126893333D01*
X124101190Y-126940952D01*
X123910714Y-126940952D01*
X123815476Y-126988571D01*
X123767857Y-127036190D01*
X123720238Y-127131428D01*
X123720238Y-127321904D01*
X123767857Y-127417142D01*
X123815476Y-127464761D01*
X123910714Y-127512380D01*
X124101190Y-127512380D01*
X124196428Y-127464761D01*
X124244047Y-127417142D01*
X124291666Y-127321904D01*
X124291666Y-127131428D01*
X124244047Y-127036190D01*
X124196428Y-126988571D01*
X124101190Y-126940952D01*
X71057142Y-174657142D02*
X71009523Y-174704761D01*
X70866666Y-174752380D01*
X70771428Y-174752380D01*
X70628571Y-174704761D01*
X70533333Y-174609523D01*
X70485714Y-174514285D01*
X70438095Y-174323809D01*
X70438095Y-174180952D01*
X70485714Y-173990476D01*
X70533333Y-173895238D01*
X70628571Y-173800000D01*
X70771428Y-173752380D01*
X70866666Y-173752380D01*
X71009523Y-173800000D01*
X71057142Y-173847619D01*
X71390476Y-173752380D02*
X72057142Y-173752380D01*
X71628571Y-174752380D01*
X72390476Y-173847619D02*
X72438095Y-173800000D01*
X72533333Y-173752380D01*
X72771428Y-173752380D01*
X72866666Y-173800000D01*
X72914285Y-173847619D01*
X72961904Y-173942857D01*
X72961904Y-174038095D01*
X72914285Y-174180952D01*
X72342857Y-174752380D01*
X72961904Y-174752380D01*
X105780476Y-114142380D02*
X105780476Y-114856666D01*
X105732857Y-114999523D01*
X105637619Y-115094761D01*
X105494761Y-115142380D01*
X105399523Y-115142380D01*
X106780476Y-115142380D02*
X106209047Y-115142380D01*
X106494761Y-115142380D02*
X106494761Y-114142380D01*
X106399523Y-114285238D01*
X106304285Y-114380476D01*
X106209047Y-114428095D01*
X107161428Y-114237619D02*
X107209047Y-114190000D01*
X107304285Y-114142380D01*
X107542380Y-114142380D01*
X107637619Y-114190000D01*
X107685238Y-114237619D01*
X107732857Y-114332857D01*
X107732857Y-114428095D01*
X107685238Y-114570952D01*
X107113809Y-115142380D01*
X107732857Y-115142380D01*
X89458333Y-186452380D02*
X88982142Y-186452380D01*
X88982142Y-185452380D01*
X90315476Y-186452380D02*
X89744047Y-186452380D01*
X90029761Y-186452380D02*
X90029761Y-185452380D01*
X89934523Y-185595238D01*
X89839285Y-185690476D01*
X89744047Y-185738095D01*
X97770476Y-187892380D02*
X97770476Y-188606666D01*
X97722857Y-188749523D01*
X97627619Y-188844761D01*
X97484761Y-188892380D01*
X97389523Y-188892380D01*
X98770476Y-188892380D02*
X98199047Y-188892380D01*
X98484761Y-188892380D02*
X98484761Y-187892380D01*
X98389523Y-188035238D01*
X98294285Y-188130476D01*
X98199047Y-188178095D01*
X99627619Y-188225714D02*
X99627619Y-188892380D01*
X99389523Y-187844761D02*
X99151428Y-188559047D01*
X99770476Y-188559047D01*
X93635714Y-187432380D02*
X93826190Y-187432380D01*
X93921428Y-187384761D01*
X93969047Y-187337142D01*
X94064285Y-187194285D01*
X94111904Y-187003809D01*
X94111904Y-186622857D01*
X94064285Y-186527619D01*
X94016666Y-186480000D01*
X93921428Y-186432380D01*
X93730952Y-186432380D01*
X93635714Y-186480000D01*
X93588095Y-186527619D01*
X93540476Y-186622857D01*
X93540476Y-186860952D01*
X93588095Y-186956190D01*
X93635714Y-187003809D01*
X93730952Y-187051428D01*
X93921428Y-187051428D01*
X94016666Y-187003809D01*
X94064285Y-186956190D01*
X94111904Y-186860952D01*
X94540476Y-187051428D02*
X95302380Y-187051428D01*
X96302380Y-187432380D02*
X95730952Y-187432380D01*
X96016666Y-187432380D02*
X96016666Y-186432380D01*
X95921428Y-186575238D01*
X95826190Y-186670476D01*
X95730952Y-186718095D01*
X96873809Y-186860952D02*
X96778571Y-186813333D01*
X96730952Y-186765714D01*
X96683333Y-186670476D01*
X96683333Y-186622857D01*
X96730952Y-186527619D01*
X96778571Y-186480000D01*
X96873809Y-186432380D01*
X97064285Y-186432380D01*
X97159523Y-186480000D01*
X97207142Y-186527619D01*
X97254761Y-186622857D01*
X97254761Y-186670476D01*
X97207142Y-186765714D01*
X97159523Y-186813333D01*
X97064285Y-186860952D01*
X96873809Y-186860952D01*
X96778571Y-186908571D01*
X96730952Y-186956190D01*
X96683333Y-187051428D01*
X96683333Y-187241904D01*
X96730952Y-187337142D01*
X96778571Y-187384761D01*
X96873809Y-187432380D01*
X97064285Y-187432380D01*
X97159523Y-187384761D01*
X97207142Y-187337142D01*
X97254761Y-187241904D01*
X97254761Y-187051428D01*
X97207142Y-186956190D01*
X97159523Y-186908571D01*
X97064285Y-186860952D01*
X97540476Y-186432380D02*
X97873809Y-187432380D01*
X98207142Y-186432380D01*
X99635714Y-186908571D02*
X99778571Y-186956190D01*
X99826190Y-187003809D01*
X99873809Y-187099047D01*
X99873809Y-187241904D01*
X99826190Y-187337142D01*
X99778571Y-187384761D01*
X99683333Y-187432380D01*
X99302380Y-187432380D01*
X99302380Y-186432380D01*
X99635714Y-186432380D01*
X99730952Y-186480000D01*
X99778571Y-186527619D01*
X99826190Y-186622857D01*
X99826190Y-186718095D01*
X99778571Y-186813333D01*
X99730952Y-186860952D01*
X99635714Y-186908571D01*
X99302380Y-186908571D01*
X100730952Y-187432380D02*
X100730952Y-186908571D01*
X100683333Y-186813333D01*
X100588095Y-186765714D01*
X100397619Y-186765714D01*
X100302380Y-186813333D01*
X100730952Y-187384761D02*
X100635714Y-187432380D01*
X100397619Y-187432380D01*
X100302380Y-187384761D01*
X100254761Y-187289523D01*
X100254761Y-187194285D01*
X100302380Y-187099047D01*
X100397619Y-187051428D01*
X100635714Y-187051428D01*
X100730952Y-187003809D01*
X101064285Y-186765714D02*
X101445238Y-186765714D01*
X101207142Y-186432380D02*
X101207142Y-187289523D01*
X101254761Y-187384761D01*
X101350000Y-187432380D01*
X101445238Y-187432380D01*
X101635714Y-186765714D02*
X102016666Y-186765714D01*
X101778571Y-186432380D02*
X101778571Y-187289523D01*
X101826190Y-187384761D01*
X101921428Y-187432380D01*
X102016666Y-187432380D01*
X102730952Y-187384761D02*
X102635714Y-187432380D01*
X102445238Y-187432380D01*
X102350000Y-187384761D01*
X102302380Y-187289523D01*
X102302380Y-186908571D01*
X102350000Y-186813333D01*
X102445238Y-186765714D01*
X102635714Y-186765714D01*
X102730952Y-186813333D01*
X102778571Y-186908571D01*
X102778571Y-187003809D01*
X102302380Y-187099047D01*
X103207142Y-187432380D02*
X103207142Y-186765714D01*
X103207142Y-186956190D02*
X103254761Y-186860952D01*
X103302380Y-186813333D01*
X103397619Y-186765714D01*
X103492857Y-186765714D01*
X103730952Y-186765714D02*
X103969047Y-187432380D01*
X104207142Y-186765714D02*
X103969047Y-187432380D01*
X103873809Y-187670476D01*
X103826190Y-187718095D01*
X103730952Y-187765714D01*
X156652380Y-33933333D02*
X157366666Y-33933333D01*
X157509523Y-33980952D01*
X157604761Y-34076190D01*
X157652380Y-34219047D01*
X157652380Y-34314285D01*
X156652380Y-33552380D02*
X156652380Y-32885714D01*
X157652380Y-33314285D01*
X156652380Y-158409523D02*
X157366666Y-158409523D01*
X157509523Y-158457142D01*
X157604761Y-158552380D01*
X157652380Y-158695238D01*
X157652380Y-158790476D01*
X157652380Y-157409523D02*
X157652380Y-157980952D01*
X157652380Y-157695238D02*
X156652380Y-157695238D01*
X156795238Y-157790476D01*
X156890476Y-157885714D01*
X156938095Y-157980952D01*
X156652380Y-156790476D02*
X156652380Y-156695238D01*
X156700000Y-156600000D01*
X156747619Y-156552380D01*
X156842857Y-156504761D01*
X157033333Y-156457142D01*
X157271428Y-156457142D01*
X157461904Y-156504761D01*
X157557142Y-156552380D01*
X157604761Y-156600000D01*
X157652380Y-156695238D01*
X157652380Y-156790476D01*
X157604761Y-156885714D01*
X157557142Y-156933333D01*
X157461904Y-156980952D01*
X157271428Y-157028571D01*
X157033333Y-157028571D01*
X156842857Y-156980952D01*
X156747619Y-156933333D01*
X156700000Y-156885714D01*
X156652380Y-156790476D01*
X156652380Y-95933333D02*
X157366666Y-95933333D01*
X157509523Y-95980952D01*
X157604761Y-96076190D01*
X157652380Y-96219047D01*
X157652380Y-96314285D01*
X157652380Y-95409523D02*
X157652380Y-95219047D01*
X157604761Y-95123809D01*
X157557142Y-95076190D01*
X157414285Y-94980952D01*
X157223809Y-94933333D01*
X156842857Y-94933333D01*
X156747619Y-94980952D01*
X156700000Y-95028571D01*
X156652380Y-95123809D01*
X156652380Y-95314285D01*
X156700000Y-95409523D01*
X156747619Y-95457142D01*
X156842857Y-95504761D01*
X157080952Y-95504761D01*
X157176190Y-95457142D01*
X157223809Y-95409523D01*
X157271428Y-95314285D01*
X157271428Y-95123809D01*
X157223809Y-95028571D01*
X157176190Y-94980952D01*
X157080952Y-94933333D01*
X63936904Y-162727380D02*
X63936904Y-163536904D01*
X63984523Y-163632142D01*
X64032142Y-163679761D01*
X64127380Y-163727380D01*
X64317857Y-163727380D01*
X64413095Y-163679761D01*
X64460714Y-163632142D01*
X64508333Y-163536904D01*
X64508333Y-162727380D01*
X64936904Y-162822619D02*
X64984523Y-162775000D01*
X65079761Y-162727380D01*
X65317857Y-162727380D01*
X65413095Y-162775000D01*
X65460714Y-162822619D01*
X65508333Y-162917857D01*
X65508333Y-163013095D01*
X65460714Y-163155952D01*
X64889285Y-163727380D01*
X65508333Y-163727380D01*
X66413095Y-162727380D02*
X65936904Y-162727380D01*
X65889285Y-163203571D01*
X65936904Y-163155952D01*
X66032142Y-163108333D01*
X66270238Y-163108333D01*
X66365476Y-163155952D01*
X66413095Y-163203571D01*
X66460714Y-163298809D01*
X66460714Y-163536904D01*
X66413095Y-163632142D01*
X66365476Y-163679761D01*
X66270238Y-163727380D01*
X66032142Y-163727380D01*
X65936904Y-163679761D01*
X65889285Y-163632142D01*
X123951904Y-49322380D02*
X123951904Y-50131904D01*
X123999523Y-50227142D01*
X124047142Y-50274761D01*
X124142380Y-50322380D01*
X124332857Y-50322380D01*
X124428095Y-50274761D01*
X124475714Y-50227142D01*
X124523333Y-50131904D01*
X124523333Y-49322380D01*
X125523333Y-50322380D02*
X124951904Y-50322380D01*
X125237619Y-50322380D02*
X125237619Y-49322380D01*
X125142380Y-49465238D01*
X125047142Y-49560476D01*
X124951904Y-49608095D01*
X126475714Y-50322380D02*
X125904285Y-50322380D01*
X126190000Y-50322380D02*
X126190000Y-49322380D01*
X126094761Y-49465238D01*
X125999523Y-49560476D01*
X125904285Y-49608095D01*
D11*
X97888095Y-98492380D02*
X97888095Y-99301904D01*
X97935714Y-99397142D01*
X97983333Y-99444761D01*
X98078571Y-99492380D01*
X98269047Y-99492380D01*
X98364285Y-99444761D01*
X98411904Y-99397142D01*
X98459523Y-99301904D01*
X98459523Y-98492380D01*
X98840476Y-98492380D02*
X99507142Y-98492380D01*
X99078571Y-99492380D01*
D12*
X110279761Y-96397619D02*
X110184523Y-96350000D01*
X110089285Y-96254761D01*
X109946428Y-96111904D01*
X109851190Y-96064285D01*
X109755952Y-96064285D01*
X109803571Y-96302380D02*
X109708333Y-96254761D01*
X109613095Y-96159523D01*
X109565476Y-95969047D01*
X109565476Y-95635714D01*
X109613095Y-95445238D01*
X109708333Y-95350000D01*
X109803571Y-95302380D01*
X109994047Y-95302380D01*
X110089285Y-95350000D01*
X110184523Y-95445238D01*
X110232142Y-95635714D01*
X110232142Y-95969047D01*
X110184523Y-96159523D01*
X110089285Y-96254761D01*
X109994047Y-96302380D01*
X109803571Y-96302380D01*
X111089285Y-95302380D02*
X110898809Y-95302380D01*
X110803571Y-95350000D01*
X110755952Y-95397619D01*
X110660714Y-95540476D01*
X110613095Y-95730952D01*
X110613095Y-96111904D01*
X110660714Y-96207142D01*
X110708333Y-96254761D01*
X110803571Y-96302380D01*
X110994047Y-96302380D01*
X111089285Y-96254761D01*
X111136904Y-96207142D01*
X111184523Y-96111904D01*
X111184523Y-95873809D01*
X111136904Y-95778571D01*
X111089285Y-95730952D01*
X110994047Y-95683333D01*
X110803571Y-95683333D01*
X110708333Y-95730952D01*
X110660714Y-95778571D01*
X110613095Y-95873809D01*
X110254761Y-100122619D02*
X110159523Y-100075000D01*
X110064285Y-99979761D01*
X109921428Y-99836904D01*
X109826190Y-99789285D01*
X109730952Y-99789285D01*
X109778571Y-100027380D02*
X109683333Y-99979761D01*
X109588095Y-99884523D01*
X109540476Y-99694047D01*
X109540476Y-99360714D01*
X109588095Y-99170238D01*
X109683333Y-99075000D01*
X109778571Y-99027380D01*
X109969047Y-99027380D01*
X110064285Y-99075000D01*
X110159523Y-99170238D01*
X110207142Y-99360714D01*
X110207142Y-99694047D01*
X110159523Y-99884523D01*
X110064285Y-99979761D01*
X109969047Y-100027380D01*
X109778571Y-100027380D01*
X111111904Y-99027380D02*
X110635714Y-99027380D01*
X110588095Y-99503571D01*
X110635714Y-99455952D01*
X110730952Y-99408333D01*
X110969047Y-99408333D01*
X111064285Y-99455952D01*
X111111904Y-99503571D01*
X111159523Y-99598809D01*
X111159523Y-99836904D01*
X111111904Y-99932142D01*
X111064285Y-99979761D01*
X110969047Y-100027380D01*
X110730952Y-100027380D01*
X110635714Y-99979761D01*
X110588095Y-99932142D01*
X116929761Y-93647619D02*
X116834523Y-93600000D01*
X116739285Y-93504761D01*
X116596428Y-93361904D01*
X116501190Y-93314285D01*
X116405952Y-93314285D01*
X116453571Y-93552380D02*
X116358333Y-93504761D01*
X116263095Y-93409523D01*
X116215476Y-93219047D01*
X116215476Y-92885714D01*
X116263095Y-92695238D01*
X116358333Y-92600000D01*
X116453571Y-92552380D01*
X116644047Y-92552380D01*
X116739285Y-92600000D01*
X116834523Y-92695238D01*
X116882142Y-92885714D01*
X116882142Y-93219047D01*
X116834523Y-93409523D01*
X116739285Y-93504761D01*
X116644047Y-93552380D01*
X116453571Y-93552380D01*
X117739285Y-92885714D02*
X117739285Y-93552380D01*
X117501190Y-92504761D02*
X117263095Y-93219047D01*
X117882142Y-93219047D01*
X116904761Y-97447619D02*
X116809523Y-97400000D01*
X116714285Y-97304761D01*
X116571428Y-97161904D01*
X116476190Y-97114285D01*
X116380952Y-97114285D01*
X116428571Y-97352380D02*
X116333333Y-97304761D01*
X116238095Y-97209523D01*
X116190476Y-97019047D01*
X116190476Y-96685714D01*
X116238095Y-96495238D01*
X116333333Y-96400000D01*
X116428571Y-96352380D01*
X116619047Y-96352380D01*
X116714285Y-96400000D01*
X116809523Y-96495238D01*
X116857142Y-96685714D01*
X116857142Y-97019047D01*
X116809523Y-97209523D01*
X116714285Y-97304761D01*
X116619047Y-97352380D01*
X116428571Y-97352380D01*
X117190476Y-96352380D02*
X117809523Y-96352380D01*
X117476190Y-96733333D01*
X117619047Y-96733333D01*
X117714285Y-96780952D01*
X117761904Y-96828571D01*
X117809523Y-96923809D01*
X117809523Y-97161904D01*
X117761904Y-97257142D01*
X117714285Y-97304761D01*
X117619047Y-97352380D01*
X117333333Y-97352380D01*
X117238095Y-97304761D01*
X117190476Y-97257142D01*
X110254761Y-88172619D02*
X110159523Y-88125000D01*
X110064285Y-88029761D01*
X109921428Y-87886904D01*
X109826190Y-87839285D01*
X109730952Y-87839285D01*
X109778571Y-88077380D02*
X109683333Y-88029761D01*
X109588095Y-87934523D01*
X109540476Y-87744047D01*
X109540476Y-87410714D01*
X109588095Y-87220238D01*
X109683333Y-87125000D01*
X109778571Y-87077380D01*
X109969047Y-87077380D01*
X110064285Y-87125000D01*
X110159523Y-87220238D01*
X110207142Y-87410714D01*
X110207142Y-87744047D01*
X110159523Y-87934523D01*
X110064285Y-88029761D01*
X109969047Y-88077380D01*
X109778571Y-88077380D01*
X110588095Y-87172619D02*
X110635714Y-87125000D01*
X110730952Y-87077380D01*
X110969047Y-87077380D01*
X111064285Y-87125000D01*
X111111904Y-87172619D01*
X111159523Y-87267857D01*
X111159523Y-87363095D01*
X111111904Y-87505952D01*
X110540476Y-88077380D01*
X111159523Y-88077380D01*
X110454761Y-91872619D02*
X110359523Y-91825000D01*
X110264285Y-91729761D01*
X110121428Y-91586904D01*
X110026190Y-91539285D01*
X109930952Y-91539285D01*
X109978571Y-91777380D02*
X109883333Y-91729761D01*
X109788095Y-91634523D01*
X109740476Y-91444047D01*
X109740476Y-91110714D01*
X109788095Y-90920238D01*
X109883333Y-90825000D01*
X109978571Y-90777380D01*
X110169047Y-90777380D01*
X110264285Y-90825000D01*
X110359523Y-90920238D01*
X110407142Y-91110714D01*
X110407142Y-91444047D01*
X110359523Y-91634523D01*
X110264285Y-91729761D01*
X110169047Y-91777380D01*
X109978571Y-91777380D01*
X111359523Y-91777380D02*
X110788095Y-91777380D01*
X111073809Y-91777380D02*
X111073809Y-90777380D01*
X110978571Y-90920238D01*
X110883333Y-91015476D01*
X110788095Y-91063095D01*
X78127142Y-66702857D02*
X78174761Y-66750476D01*
X78222380Y-66893333D01*
X78222380Y-66988571D01*
X78174761Y-67131428D01*
X78079523Y-67226666D01*
X77984285Y-67274285D01*
X77793809Y-67321904D01*
X77650952Y-67321904D01*
X77460476Y-67274285D01*
X77365238Y-67226666D01*
X77270000Y-67131428D01*
X77222380Y-66988571D01*
X77222380Y-66893333D01*
X77270000Y-66750476D01*
X77317619Y-66702857D01*
X77555714Y-65845714D02*
X78222380Y-65845714D01*
X77174761Y-66083809D02*
X77889047Y-66321904D01*
X77889047Y-65702857D01*
X77222380Y-65417142D02*
X77222380Y-64750476D01*
X78222380Y-65179047D01*
X89617142Y-66627142D02*
X89569523Y-66674761D01*
X89426666Y-66722380D01*
X89331428Y-66722380D01*
X89188571Y-66674761D01*
X89093333Y-66579523D01*
X89045714Y-66484285D01*
X88998095Y-66293809D01*
X88998095Y-66150952D01*
X89045714Y-65960476D01*
X89093333Y-65865238D01*
X89188571Y-65770000D01*
X89331428Y-65722380D01*
X89426666Y-65722380D01*
X89569523Y-65770000D01*
X89617142Y-65817619D01*
X90474285Y-66055714D02*
X90474285Y-66722380D01*
X90236190Y-65674761D02*
X89998095Y-66389047D01*
X90617142Y-66389047D01*
X91426666Y-65722380D02*
X91236190Y-65722380D01*
X91140952Y-65770000D01*
X91093333Y-65817619D01*
X90998095Y-65960476D01*
X90950476Y-66150952D01*
X90950476Y-66531904D01*
X90998095Y-66627142D01*
X91045714Y-66674761D01*
X91140952Y-66722380D01*
X91331428Y-66722380D01*
X91426666Y-66674761D01*
X91474285Y-66627142D01*
X91521904Y-66531904D01*
X91521904Y-66293809D01*
X91474285Y-66198571D01*
X91426666Y-66150952D01*
X91331428Y-66103333D01*
X91140952Y-66103333D01*
X91045714Y-66150952D01*
X90998095Y-66198571D01*
X90950476Y-66293809D01*
M02*
