M48
; DRILL file {KiCad 5.1.5-1.fc31} date Sun 29 Dec 2019 07:08:08 PM WET
; FORMAT={-:-/ absolute / inch / decimal}
; #@! TF.CreationDate,2019-12-29T19:08:08+00:00
; #@! TF.GenerationSoftware,Kicad,Pcbnew,5.1.5-1.fc31
; #@! TF.FileFunction,Plated,1,2,PTH
FMAT,2
INCH
T1C0.0118
T2C0.0157
T3C0.0197
T4C0.0300
T5C0.0315
T6C0.0335
T7C0.0358
T8C0.0394
T9C0.0400
T10C0.0472
T11C0.0787
T12C0.1059
T13C0.2087
%
G90
G05
T1
X2.5315Y-4.0438
X2.5315Y-4.1181
X2.5362Y-3.5354
X2.5576Y-4.2205
X2.5581Y-4.0669
X2.5591Y-4.3177
X2.5677Y-3.4063
X2.5689Y-3.2882
X2.5852Y-4.2052
X2.5876Y-4.0935
X2.6134Y-4.6661
X2.684Y-4.4716
X2.6937Y-4.0685
X2.711Y-3.8189
X2.7835Y-4.2146
X2.7894Y-4.3776
X2.7943Y-4.5108
X2.7978Y-3.3764
X2.8047Y-4.4358
X2.8299Y-4.7102
X2.8429Y-4.0531
X2.8563Y-4.1945
X2.8606Y-3.8166
X2.8809Y-4.75
X2.8874Y-3.2224
X2.8878Y-3.376
X2.8898Y-3.278
X2.8898Y-4.1965
X2.9052Y-4.5246
X2.9165Y-2.8768
X2.9295Y-4.4937
X2.9409Y-4.9724
X2.9563Y-4.5335
X2.9675Y-4.6831
X2.9681Y-4.7933
X2.9754Y-4.9498
X2.9811Y-4.252
X2.9823Y-4.2906
X2.9835Y-4.2091
X3.0128Y-4.9134
X3.0236Y-4.3996
X3.0394Y-4.0358
X3.0563Y-2.8394
X3.061Y-4.4071
X3.0709Y-4.0382
X3.0791Y-4.3496
X3.0846Y-4.8967
X3.0846Y-5.0551
X3.0854Y-4.534
X3.0858Y-4.465
X3.1264Y-3.9677
X3.1264Y-4.3654
X3.135Y-4.453
X3.1432Y-4.5815
X3.1634Y-4.9828
X3.1644Y-5.0551
X3.1803Y-2.8539
X3.2008Y-4.189
X3.2264Y-4.6799
X3.2339Y-4.1217
X3.2357Y-4.238
X3.2382Y-4.4272
X3.2866Y-4.4512
X3.2917Y-4.1433
X3.2992Y-3.7103
X3.3043Y-3.5236
X3.329Y-3.7207
X3.3311Y-4.3508
X3.3374Y-4.4559
X3.352Y-3.4433
X3.3691Y-3.7028
X3.3717Y-4.3465
X3.3744Y-5.0209
X3.3768Y-4.8807
X3.3902Y-3.6531
X3.403Y-3.7357
X3.4059Y-4.6043
X3.4132Y-3.8276
X3.4179Y-4.5104
X3.4181Y-3.5957
X3.4213Y-5.2844
X3.4281Y-3.7136
X3.4492Y-2.5154
X3.4547Y-5.2589
X3.4588Y-4.7344
X3.4656Y-3.7293
X3.4764Y-4.5354
X3.4926Y-5.2054
X3.4968Y-3.787
X3.5028Y-4.9138
X3.5067Y-4.9957
X3.5079Y-3.587
X3.5217Y-5.6059
X3.5295Y-4.6303
X3.5343Y-3.9571
X3.564Y-5.2116
X3.5646Y-5.0346
X3.5659Y-5.373
X3.5681Y-4.8819
X3.626Y-4.0598
X3.6447Y-5.375
X3.6457Y-5.2997
X3.6547Y-3.5496
X3.6657Y-3.9563
X3.6661Y-3.8958
X3.6751Y-4.7805
X3.6803Y-2.6165
X3.6878Y-3.4709
X3.6902Y-4.035
X3.7024Y-4.1681
X3.7059Y-4.4583
X3.7161Y-4.8969
X3.7335Y-3.8791
X3.7937Y-4.1248
X3.7976Y-3.9315
X3.8379Y-3.5328
X3.8386Y-4.0626
X3.878Y-4.398
X3.8927Y-3.7785
X3.915Y-4.0488
X3.9319Y-5.5583
X3.9425Y-3.5035
X3.9626Y-4.1016
X3.978Y-4.8787
X3.9937Y-3.6033
X3.998Y-3.6543
X4.0167Y-3.7293
X4.0402Y-3.7083
X4.0504Y-3.5783
X4.0563Y-2.7921
X4.0625Y-3.6861
X4.0713Y-4.0748
X4.1053Y-3.6181
X4.1681Y-4.0748
X4.1969Y-5.2803
X4.2091Y-4.8331
X4.2154Y-4.3909
X4.2156Y-2.3745
X4.2291Y-4.0618
X4.2996Y-4.1748
X4.3028Y-2.2398
X4.3571Y-3.937
X4.3685Y-4.1173
X4.3848Y-4.8969
X4.4764Y-2.4594
X4.4882Y-5.5197
X4.4941Y-0.8976
X4.5886Y-2.3445
X4.6134Y-3.3039
X4.6917Y-3.3217
X4.6949Y-3.4827
X4.7449Y-3.9417
X4.7707Y-3.8282
X4.8327Y-4.3201
X4.8882Y-4.8685
X4.9276Y-5.5583
X4.9661Y-6.135
X5.185Y-3.3719
X5.188Y-3.2222
T2
X2.8189Y-5.5807
X2.8681Y-5.7795
X3.1467Y-7.0177
X3.6682Y-4.3119
X3.6803Y-4.2428
X3.6998Y-4.5837
X3.7165Y-4.6565
X3.7431Y-2.373
X3.7531Y-2.5094
X3.7531Y-2.5594
X3.7874Y-4.2037
X3.7894Y-4.6565
X3.8219Y-2.3745
X3.8957Y-2.6171
X3.9006Y-2.375
X3.903Y-2.7083
X3.9215Y-2.7707
X3.9242Y-2.5477
X3.9793Y-2.373
X4.002Y-2.4734
X4.0404Y-2.6171
X4.0581Y-2.373
X4.0988Y-3.7592
X4.1014Y-3.6806
X4.1014Y-3.72
X4.1368Y-2.373
X4.1722Y-2.5989
X4.1722Y-3.9385
X4.1722Y-4.0118
X4.1732Y-3.4621
X4.1732Y-3.5354
X4.1732Y-3.6097
X4.1732Y-3.6841
X4.1732Y-3.7908
X4.1732Y-3.8642
X4.3031Y-4.0118
X4.3051Y-3.8642
X4.3071Y-3.5364
X4.3071Y-3.6841
X4.3494Y-3.7569
X4.3504Y-1.1683
X4.3504Y-1.2441
X4.3632Y-3.6909
X4.4232Y-1.2915
X4.498Y-1.1604
X4.498Y-1.248
X4.5846Y-5.8425
X4.6083Y-1.1752
X4.6201Y-1.0517
X4.6319Y-1.2707
X4.6486Y-3.9016
X4.6496Y-3.7589
X4.6644Y-5.9701
X4.6688Y-5.7687
X4.6932Y-5.9425
X4.6978Y-1.0512
X4.7077Y-1.4813
X4.7313Y-6.0551
X4.7372Y-5.9144
X4.7549Y-3.5323
X4.7569Y-1.1959
X4.7569Y-1.2736
X4.7687Y-3.685
X4.7687Y-3.7579
X4.782Y-1.4823
X4.8159Y-3.1799
X4.8214Y-1.0965
X4.8214Y-1.1732
X4.8214Y-1.25
X4.8214Y-1.3268
X4.8268Y-6.0571
X4.8307Y-3.4565
X4.877Y-6.0581
X4.8878Y-3.3915
X4.9075Y-3.457
X4.9508Y-1.8661
X4.9557Y-4.3041
X4.9557Y-6.7451
X4.9656Y-3.3925
X4.9843Y-3.4575
X5.0108Y-5.9724
X5.0108Y-6.0531
X5.0113Y-5.6644
X5.0118Y-5.8189
X5.0118Y-5.8976
X5.0305Y-3.177
X5.061Y-3.457
X5.0856Y-5.6644
X5.1043Y-3.177
X5.1083Y-3.2587
X5.1083Y-3.3354
X5.1388Y-3.4565
T3
X5.5098Y-6.3154
X5.5098Y-6.3677
X5.5098Y-6.4205
X5.5098Y-6.4728
X5.5098Y-6.7091
X5.5098Y-6.7614
X5.5098Y-6.8142
X5.5098Y-6.8665
X5.5252Y-6.2681
X5.5252Y-6.5201
X5.5252Y-6.6618
X5.5252Y-6.9138
X5.5657Y-6.2386
X5.5657Y-6.5496
X5.5657Y-6.6323
X5.5657Y-6.9433
X5.6154Y-6.2386
X5.6154Y-6.5496
X5.6154Y-6.6323
X5.6154Y-6.9433
X5.6559Y-6.2681
X5.6559Y-6.5201
X5.6559Y-6.6618
X5.6559Y-6.9138
X5.6713Y-6.3154
X5.6713Y-6.3677
X5.6713Y-6.4205
X5.6713Y-6.4728
X5.6713Y-6.7091
X5.6713Y-6.7614
X5.6713Y-6.8142
X5.6713Y-6.8665
X2.9433Y-1.7695
X2.9433Y-1.8191
X2.9728Y-1.7289
X2.9728Y-1.8596
X3.0201Y-1.7136
X3.0201Y-1.875
X3.0724Y-1.7136
X3.0724Y-1.875
X3.1252Y-1.7136
X3.1252Y-1.875
X3.1776Y-1.7136
X3.1776Y-1.875
X3.2248Y-1.7289
X3.2248Y-1.8596
X3.2543Y-1.7695
X3.2543Y-1.8191
X3.337Y-1.7695
X3.337Y-1.8191
X3.3665Y-1.7289
X3.3665Y-1.8596
X3.4138Y-1.7136
X3.4138Y-1.875
X3.4661Y-1.7136
X3.4661Y-1.875
X3.5189Y-1.7136
X3.5189Y-1.875
X3.5713Y-1.7136
X3.5713Y-1.875
X3.6185Y-1.7289
X3.6185Y-1.8596
X3.648Y-1.7695
X3.648Y-1.8191
X5.5098Y-3.8744
X5.5098Y-3.9268
X5.5098Y-3.9795
X5.5098Y-4.0319
X5.5098Y-4.2681
X5.5098Y-4.3205
X5.5098Y-4.3732
X5.5098Y-4.4256
X5.5252Y-3.8272
X5.5252Y-4.0791
X5.5252Y-4.2209
X5.5252Y-4.4728
X5.5657Y-3.7976
X5.5657Y-4.1087
X5.5657Y-4.1913
X5.5657Y-4.5024
X5.6154Y-3.7976
X5.6154Y-4.1087
X5.6154Y-4.1913
X5.6154Y-4.5024
X5.6559Y-3.8272
X5.6559Y-4.0791
X5.6559Y-4.2209
X5.6559Y-4.4728
X5.6713Y-3.8744
X5.6713Y-3.9268
X5.6713Y-3.9795
X5.6713Y-4.0319
X5.6713Y-4.2681
X5.6713Y-4.3205
X5.6713Y-4.3732
X5.6713Y-4.4256
X5.5059Y-1.4374
X5.5059Y-1.4898
X5.5059Y-1.5425
X5.5059Y-1.5949
X5.5059Y-1.8311
X5.5059Y-1.8835
X5.5059Y-1.9362
X5.5059Y-1.9886
X5.5213Y-1.3902
X5.5213Y-1.6421
X5.5213Y-1.7839
X5.5213Y-2.0358
X5.5618Y-1.3606
X5.5618Y-1.6717
X5.5618Y-1.7543
X5.5618Y-2.0654
X5.6114Y-1.3606
X5.6114Y-1.6717
X5.6114Y-1.7543
X5.6114Y-2.0654
X5.652Y-1.3902
X5.652Y-1.6421
X5.652Y-1.7839
X5.652Y-2.0358
X5.6673Y-1.4374
X5.6673Y-1.4898
X5.6673Y-1.5425
X5.6673Y-1.5949
X5.6673Y-1.8311
X5.6673Y-1.8835
X5.6673Y-1.9362
X5.6673Y-1.9886
T4
X2.6008Y-5.5793
X2.6008Y-5.7793
X2.6008Y-6.1793
X4.4008Y-5.4793
X4.4008Y-5.8793
X4.4008Y-6.2793
T5
X4.748Y-6.5157
X4.748Y-6.5909
X4.748Y-6.6661
X3.2205Y-2.6368
X3.2957Y-2.6368
X3.3709Y-2.6368
X4.748Y-4.0748
X4.748Y-4.15
X4.748Y-4.2252
X4.7441Y-1.6378
X4.7441Y-1.713
X4.7441Y-1.7882
T6
X3.2687Y-6.6919
X3.2687Y-6.7919
X3.2687Y-6.8919
X3.2687Y-7.0919
X3.2687Y-7.1919
X3.5728Y-6.7303
X3.6728Y-6.7303
X3.7728Y-6.7303
X3.9728Y-6.7303
X4.0728Y-6.7303
X4.1728Y-6.7303
X4.2728Y-6.7303
T7
X4.4207Y-3.5482
X4.4207Y-3.6482
X4.4207Y-3.7482
X4.4207Y-3.8482
X4.4207Y-3.9482
X4.4207Y-4.0482
X4.4207Y-4.1482
X4.4207Y-4.2482
X4.4207Y-4.3482
X4.4207Y-4.4482
X4.4207Y-4.5482
X4.4207Y-4.6482
X4.4207Y-4.7482
X4.5207Y-3.5482
X4.5207Y-3.6482
X4.5207Y-3.7482
X4.5207Y-3.8482
X4.5207Y-3.9482
X4.5207Y-4.0482
X4.5207Y-4.1482
X4.5207Y-4.2482
X4.5207Y-4.3482
X4.5207Y-4.4482
X4.5207Y-4.5482
X4.5207Y-4.6482
X4.5207Y-4.7482
T8
X4.3583Y-7.1181
X4.3583Y-7.315
X4.7657Y-4.5537
X4.7657Y-4.6537
X4.7657Y-4.7537
X4.7657Y-4.8537
X4.7657Y-4.9537
X4.7657Y-5.0537
X4.7657Y-5.1537
X4.7657Y-5.2537
X4.7657Y-5.3537
X4.7657Y-5.4537
X2.6083Y-5.1417
X2.8051Y-5.1417
X2.7244Y-6.6161
X2.9213Y-6.6161
T9
X3.1102Y-2.9543
X3.1102Y-3.0543
X3.1102Y-3.1543
X3.1102Y-3.2543
X3.1102Y-3.3543
X3.1102Y-3.4543
X3.1102Y-3.5543
X3.1102Y-3.6543
X3.1102Y-3.7543
X3.1102Y-3.8543
X3.2102Y-2.9543
X3.2102Y-3.0543
X3.2102Y-3.1543
X3.2102Y-3.2543
X3.2102Y-3.3543
X3.2102Y-3.4543
X3.2102Y-3.5543
X3.2102Y-3.6543
X3.2102Y-3.7543
X3.2102Y-3.8543
X3.5089Y-2.9203
X3.5089Y-3.0203
X3.5089Y-3.1203
X3.5089Y-3.2203
X3.5089Y-3.3203
X3.6089Y-2.9203
X3.6089Y-3.0203
X3.6089Y-3.1203
X3.6089Y-3.2203
X3.6089Y-3.3203
T10
X4.0098Y-4.2911
X4.0098Y-4.4411
X4.0098Y-4.5911
X4.0098Y-4.7411
X2.7323Y-2.8122
X2.7323Y-2.9622
X2.7323Y-3.1122
X5.4833Y-2.8657
X5.4833Y-3.0157
X3.7913Y-7.2047
X3.9913Y-7.2047
X3.0571Y-5.2106
X3.2571Y-5.2106
X2.5866Y-2.5004
X2.7366Y-2.5004
X2.8866Y-2.5004
X3.8217Y-5.0854
X3.9717Y-5.0854
T12
X4.4805Y-3.1982
X4.4805Y-5.0982
T13
X2.8465Y-1.2608
X3.752Y-1.2608
X6.1181Y-1.2579
X6.1181Y-2.1634
X6.1181Y-3.6988
X6.1181Y-4.6043
X6.1181Y-6.1398
X6.1181Y-7.0453
T11
G00X5.5906Y-6.3154
M15
G01X5.5906Y-6.4728
M16
G05
G00X5.5906Y-6.7091
M15
G01X5.5906Y-6.8665
M16
G05
G00X3.0201Y-1.7943
M15
G01X3.1776Y-1.7943
M16
G05
G00X3.4138Y-1.7943
M15
G01X3.5713Y-1.7943
M16
G05
G00X5.5906Y-3.8744
M15
G01X5.5906Y-4.0319
M16
G05
G00X5.5906Y-4.2681
M15
G01X5.5906Y-4.4256
M16
G05
G00X5.5866Y-1.4374
M15
G01X5.5866Y-1.5949
M16
G05
G00X5.5866Y-1.8311
M15
G01X5.5866Y-1.9886
M16
G05
T0
M30
