G04 #@! TF.GenerationSoftware,KiCad,Pcbnew,5.1.5-1.fc31*
G04 #@! TF.CreationDate,2019-12-29T19:08:06+00:00*
G04 #@! TF.ProjectId,electric-FIAT,656c6563-7472-4696-932d-464941542e6b,1.0.0*
G04 #@! TF.SameCoordinates,Original*
G04 #@! TF.FileFunction,Legend,Bot*
G04 #@! TF.FilePolarity,Positive*
%FSLAX46Y46*%
G04 Gerber Fmt 4.6, Leading zero omitted, Abs format (unit mm)*
G04 Created by KiCad (PCBNEW 5.1.5-1.fc31) date 2019-12-29 19:08:06*
%MOMM*%
%LPD*%
G04 APERTURE LIST*
%ADD10C,0.120000*%
%ADD11C,0.150000*%
G04 APERTURE END LIST*
D10*
X93130000Y-89105279D02*
X93130000Y-88779721D01*
X94150000Y-89105279D02*
X94150000Y-88779721D01*
X93650000Y-99579721D02*
X93650000Y-99905279D01*
X92630000Y-99579721D02*
X92630000Y-99905279D01*
X76310000Y-114412779D02*
X76310000Y-114087221D01*
X77330000Y-114412779D02*
X77330000Y-114087221D01*
X77870000Y-114412779D02*
X77870000Y-114087221D01*
X78890000Y-114412779D02*
X78890000Y-114087221D01*
X80592779Y-108560000D02*
X80267221Y-108560000D01*
X80592779Y-107540000D02*
X80267221Y-107540000D01*
X101225279Y-96660000D02*
X100899721Y-96660000D01*
X101225279Y-95640000D02*
X100899721Y-95640000D01*
X90070000Y-89092779D02*
X90070000Y-88767221D01*
X91090000Y-89092779D02*
X91090000Y-88767221D01*
X70750000Y-113632779D02*
X70750000Y-113307221D01*
X71770000Y-113632779D02*
X71770000Y-113307221D01*
X80612779Y-107030000D02*
X80287221Y-107030000D01*
X80612779Y-106010000D02*
X80287221Y-106010000D01*
X78682779Y-112460000D02*
X78357221Y-112460000D01*
X78682779Y-111440000D02*
X78357221Y-111440000D01*
X101060000Y-90082779D02*
X101060000Y-89757221D01*
X102080000Y-90082779D02*
X102080000Y-89757221D01*
X102620000Y-91972779D02*
X102620000Y-91647221D01*
X103640000Y-91972779D02*
X103640000Y-91647221D01*
X88530000Y-89102779D02*
X88530000Y-88777221D01*
X89550000Y-89102779D02*
X89550000Y-88777221D01*
X91600000Y-89102779D02*
X91600000Y-88777221D01*
X92620000Y-89102779D02*
X92620000Y-88777221D01*
X75378922Y-126090000D02*
X75896078Y-126090000D01*
X75378922Y-127510000D02*
X75896078Y-127510000D01*
X75808578Y-125310000D02*
X75291422Y-125310000D01*
X75808578Y-123890000D02*
X75291422Y-123890000D01*
X87491422Y-133915000D02*
X88008578Y-133915000D01*
X87491422Y-135335000D02*
X88008578Y-135335000D01*
X88033578Y-132885000D02*
X87516422Y-132885000D01*
X88033578Y-131465000D02*
X87516422Y-131465000D01*
X91151422Y-131800000D02*
X91668578Y-131800000D01*
X91151422Y-133220000D02*
X91668578Y-133220000D01*
X123333578Y-108035000D02*
X122816422Y-108035000D01*
X123333578Y-106615000D02*
X122816422Y-106615000D01*
X123085000Y-104166422D02*
X123085000Y-104683578D01*
X121665000Y-104166422D02*
X121665000Y-104683578D01*
X124716422Y-108615000D02*
X125233578Y-108615000D01*
X124716422Y-110035000D02*
X125233578Y-110035000D01*
X106710000Y-92366422D02*
X106710000Y-92883578D01*
X105290000Y-92366422D02*
X105290000Y-92883578D01*
X69222936Y-145890000D02*
X70427064Y-145890000D01*
X69222936Y-147710000D02*
X70427064Y-147710000D01*
X78990000Y-181927064D02*
X78990000Y-180722936D01*
X80810000Y-181927064D02*
X80810000Y-180722936D01*
X99161422Y-92540000D02*
X99678578Y-92540000D01*
X99161422Y-93960000D02*
X99678578Y-93960000D01*
X98285000Y-69216422D02*
X98285000Y-69733578D01*
X96865000Y-69216422D02*
X96865000Y-69733578D01*
X102385000Y-64033578D02*
X102385000Y-63516422D01*
X100965000Y-64033578D02*
X100965000Y-63516422D01*
X98385000Y-63516422D02*
X98385000Y-64033578D01*
X96965000Y-63516422D02*
X96965000Y-64033578D01*
X98965000Y-64033578D02*
X98965000Y-63516422D01*
X100385000Y-64033578D02*
X100385000Y-63516422D01*
X104365000Y-59633578D02*
X104365000Y-59116422D01*
X105785000Y-59633578D02*
X105785000Y-59116422D01*
X95785000Y-59116422D02*
X95785000Y-59633578D01*
X94365000Y-59116422D02*
X94365000Y-59633578D01*
X97785000Y-59116422D02*
X97785000Y-59633578D01*
X96365000Y-59116422D02*
X96365000Y-59633578D01*
X99785000Y-59116422D02*
X99785000Y-59633578D01*
X98365000Y-59116422D02*
X98365000Y-59633578D01*
X101785000Y-59116422D02*
X101785000Y-59633578D01*
X100365000Y-59116422D02*
X100365000Y-59633578D01*
X103785000Y-59116422D02*
X103785000Y-59633578D01*
X102365000Y-59116422D02*
X102365000Y-59633578D01*
X101416422Y-65765000D02*
X101933578Y-65765000D01*
X101416422Y-67185000D02*
X101933578Y-67185000D01*
X105265000Y-65333578D02*
X105265000Y-64816422D01*
X106685000Y-65333578D02*
X106685000Y-64816422D01*
X100285000Y-69216422D02*
X100285000Y-69733578D01*
X98865000Y-69216422D02*
X98865000Y-69733578D01*
X106710000Y-96966422D02*
X106710000Y-97483578D01*
X105290000Y-96966422D02*
X105290000Y-97483578D01*
X123658578Y-30510000D02*
X123141422Y-30510000D01*
X123658578Y-29090000D02*
X123141422Y-29090000D01*
X108685000Y-96966422D02*
X108685000Y-97483578D01*
X107265000Y-96966422D02*
X107265000Y-97483578D01*
X78966422Y-123865000D02*
X79483578Y-123865000D01*
X78966422Y-125285000D02*
X79483578Y-125285000D01*
X120465000Y-98433578D02*
X120465000Y-97916422D01*
X121885000Y-98433578D02*
X121885000Y-97916422D01*
X123658578Y-32460000D02*
X123141422Y-32460000D01*
X123658578Y-31040000D02*
X123141422Y-31040000D01*
X120415000Y-94783578D02*
X120415000Y-94266422D01*
X121835000Y-94783578D02*
X121835000Y-94266422D01*
X108685000Y-88628922D02*
X108685000Y-89146078D01*
X107265000Y-88628922D02*
X107265000Y-89146078D01*
X113558578Y-32435000D02*
X113041422Y-32435000D01*
X113558578Y-31015000D02*
X113041422Y-31015000D01*
X106710000Y-88616422D02*
X106710000Y-89133578D01*
X105290000Y-88616422D02*
X105290000Y-89133578D01*
X119860000Y-94266422D02*
X119860000Y-94783578D01*
X118440000Y-94266422D02*
X118440000Y-94783578D01*
X95571078Y-118985000D02*
X95053922Y-118985000D01*
X95571078Y-117565000D02*
X95053922Y-117565000D01*
X98910000Y-117141422D02*
X98910000Y-117658578D01*
X97490000Y-117141422D02*
X97490000Y-117658578D01*
X79085000Y-127241422D02*
X79085000Y-127758578D01*
X77665000Y-127241422D02*
X77665000Y-127758578D01*
X108685000Y-92366422D02*
X108685000Y-92883578D01*
X107265000Y-92366422D02*
X107265000Y-92883578D01*
X116640000Y-27908578D02*
X116640000Y-27391422D01*
X118060000Y-27908578D02*
X118060000Y-27391422D01*
X129083578Y-85455000D02*
X128566422Y-85455000D01*
X129083578Y-84035000D02*
X128566422Y-84035000D01*
X123410000Y-88473922D02*
X123410000Y-88991078D01*
X121990000Y-88473922D02*
X121990000Y-88991078D01*
X128553922Y-82060000D02*
X129071078Y-82060000D01*
X128553922Y-83480000D02*
X129071078Y-83480000D01*
X129815000Y-88991078D02*
X129815000Y-88473922D01*
X131235000Y-88991078D02*
X131235000Y-88473922D01*
X127840000Y-89003578D02*
X127840000Y-88486422D01*
X129260000Y-89003578D02*
X129260000Y-88486422D01*
X109765000Y-30883578D02*
X109765000Y-30366422D01*
X111185000Y-30883578D02*
X111185000Y-30366422D01*
X72591422Y-115290000D02*
X73108578Y-115290000D01*
X72591422Y-116710000D02*
X73108578Y-116710000D01*
X119591422Y-29615000D02*
X120108578Y-29615000D01*
X119591422Y-31035000D02*
X120108578Y-31035000D01*
X98835000Y-107316422D02*
X98835000Y-107833578D01*
X97415000Y-107316422D02*
X97415000Y-107833578D01*
X126835000Y-84936422D02*
X126835000Y-85453578D01*
X125415000Y-84936422D02*
X125415000Y-85453578D01*
X121460000Y-88486422D02*
X121460000Y-89003578D01*
X120040000Y-88486422D02*
X120040000Y-89003578D01*
X132410000Y-83361422D02*
X132410000Y-83878578D01*
X130990000Y-83361422D02*
X130990000Y-83878578D01*
X128428922Y-79985000D02*
X128946078Y-79985000D01*
X128428922Y-81405000D02*
X128946078Y-81405000D01*
X120783578Y-38360000D02*
X120266422Y-38360000D01*
X120783578Y-36940000D02*
X120266422Y-36940000D01*
X76090000Y-119571422D02*
X76090000Y-120088578D01*
X74670000Y-119571422D02*
X74670000Y-120088578D01*
X72490000Y-120071078D02*
X72490000Y-119553922D01*
X73910000Y-120071078D02*
X73910000Y-119553922D01*
X123658578Y-28560000D02*
X123141422Y-28560000D01*
X123658578Y-27140000D02*
X123141422Y-27140000D01*
X93310000Y-135291422D02*
X93310000Y-135808578D01*
X91890000Y-135291422D02*
X91890000Y-135808578D01*
X95016422Y-111285000D02*
X95533578Y-111285000D01*
X95016422Y-109865000D02*
X95533578Y-109865000D01*
X119860000Y-97916422D02*
X119860000Y-98433578D01*
X118440000Y-97916422D02*
X118440000Y-98433578D01*
X108660000Y-100716422D02*
X108660000Y-101233578D01*
X107240000Y-100716422D02*
X107240000Y-101233578D01*
X121590000Y-81978578D02*
X121590000Y-81461422D01*
X123010000Y-81978578D02*
X123010000Y-81461422D01*
X124860000Y-84948922D02*
X124860000Y-85466078D01*
X123440000Y-84948922D02*
X123440000Y-85466078D01*
X123515000Y-82395000D02*
X123515000Y-79945000D01*
X126735000Y-80595000D02*
X126735000Y-82395000D01*
X125890000Y-89016078D02*
X125890000Y-88498922D01*
X127310000Y-89016078D02*
X127310000Y-88498922D01*
X123925000Y-89016078D02*
X123925000Y-88498922D01*
X125345000Y-89016078D02*
X125345000Y-88498922D01*
X123658578Y-34410000D02*
X123141422Y-34410000D01*
X123658578Y-32990000D02*
X123141422Y-32990000D01*
X119591422Y-31590000D02*
X120108578Y-31590000D01*
X119591422Y-33010000D02*
X120108578Y-33010000D01*
X120035000Y-27378922D02*
X120035000Y-27896078D01*
X118615000Y-27378922D02*
X118615000Y-27896078D01*
X91335000Y-135303922D02*
X91335000Y-135821078D01*
X89915000Y-135303922D02*
X89915000Y-135821078D01*
X81060000Y-127241422D02*
X81060000Y-127758578D01*
X79640000Y-127241422D02*
X79640000Y-127758578D01*
X73290000Y-76438578D02*
X73290000Y-75921422D01*
X74710000Y-76438578D02*
X74710000Y-75921422D01*
X93865000Y-135808578D02*
X93865000Y-135291422D01*
X95285000Y-135808578D02*
X95285000Y-135291422D01*
X76718578Y-64220000D02*
X76201422Y-64220000D01*
X76718578Y-62800000D02*
X76201422Y-62800000D01*
X106685000Y-100716422D02*
X106685000Y-101233578D01*
X105265000Y-100716422D02*
X105265000Y-101233578D01*
X121508578Y-150910000D02*
X120991422Y-150910000D01*
X121508578Y-149490000D02*
X120991422Y-149490000D01*
X115835000Y-150933578D02*
X115835000Y-150416422D01*
X114415000Y-150933578D02*
X114415000Y-150416422D01*
X128483578Y-154435000D02*
X127966422Y-154435000D01*
X128483578Y-153015000D02*
X127966422Y-153015000D01*
X128483578Y-152460000D02*
X127966422Y-152460000D01*
X128483578Y-151040000D02*
X127966422Y-151040000D01*
X124910000Y-152641422D02*
X124910000Y-153158578D01*
X123490000Y-152641422D02*
X123490000Y-153158578D01*
X122910000Y-153158578D02*
X122910000Y-152641422D01*
X121490000Y-153158578D02*
X121490000Y-152641422D01*
X128483578Y-148510000D02*
X127966422Y-148510000D01*
X128483578Y-147090000D02*
X127966422Y-147090000D01*
X128471078Y-150485000D02*
X127953922Y-150485000D01*
X128471078Y-149065000D02*
X127953922Y-149065000D01*
X120935000Y-152628922D02*
X120935000Y-153146078D01*
X119515000Y-152628922D02*
X119515000Y-153146078D01*
X127966422Y-143165000D02*
X128483578Y-143165000D01*
X127966422Y-144585000D02*
X128483578Y-144585000D01*
X116390000Y-150933578D02*
X116390000Y-150416422D01*
X117810000Y-150933578D02*
X117810000Y-150416422D01*
X68966422Y-141040000D02*
X69483578Y-141040000D01*
X68966422Y-142460000D02*
X69483578Y-142460000D01*
X67003922Y-143415000D02*
X67521078Y-143415000D01*
X67003922Y-144835000D02*
X67521078Y-144835000D01*
X107703922Y-138490000D02*
X108221078Y-138490000D01*
X107703922Y-139910000D02*
X108221078Y-139910000D01*
X86335000Y-64291422D02*
X86335000Y-64808578D01*
X84915000Y-64291422D02*
X84915000Y-64808578D01*
X124641422Y-170590000D02*
X125158578Y-170590000D01*
X124641422Y-172010000D02*
X125158578Y-172010000D01*
X123258578Y-168590000D02*
X122741422Y-168590000D01*
X123258578Y-170010000D02*
X122741422Y-170010000D01*
X122910000Y-42241422D02*
X122910000Y-42758578D01*
X121490000Y-42241422D02*
X121490000Y-42758578D01*
X123158578Y-46110000D02*
X122641422Y-46110000D01*
X123158578Y-44690000D02*
X122641422Y-44690000D01*
X118889000Y-90379000D02*
X118889000Y-89871000D01*
X118381000Y-90125000D02*
X118889000Y-90379000D01*
X118889000Y-89871000D02*
X118381000Y-90125000D01*
X109115000Y-78385000D02*
X109115000Y-132345000D01*
X109115000Y-78385000D02*
X117995000Y-78385000D01*
X117995000Y-132345000D02*
X109115000Y-132345000D01*
X117995000Y-132345000D02*
X117995000Y-78385000D01*
X123010000Y-166141422D02*
X123010000Y-166658578D01*
X121590000Y-166141422D02*
X121590000Y-166658578D01*
X124541422Y-46690000D02*
X125058578Y-46690000D01*
X124541422Y-48110000D02*
X125058578Y-48110000D01*
D11*
X94083142Y-91305142D02*
X94130761Y-91257523D01*
X94178380Y-91114666D01*
X94178380Y-91019428D01*
X94130761Y-90876571D01*
X94035523Y-90781333D01*
X93940285Y-90733714D01*
X93749809Y-90686095D01*
X93606952Y-90686095D01*
X93416476Y-90733714D01*
X93321238Y-90781333D01*
X93226000Y-90876571D01*
X93178380Y-91019428D01*
X93178380Y-91114666D01*
X93226000Y-91257523D01*
X93273619Y-91305142D01*
X94178380Y-92257523D02*
X94178380Y-91686095D01*
X94178380Y-91971809D02*
X93178380Y-91971809D01*
X93321238Y-91876571D01*
X93416476Y-91781333D01*
X93464095Y-91686095D01*
X93178380Y-92590857D02*
X93178380Y-93209904D01*
X93559333Y-92876571D01*
X93559333Y-93019428D01*
X93606952Y-93114666D01*
X93654571Y-93162285D01*
X93749809Y-93209904D01*
X93987904Y-93209904D01*
X94083142Y-93162285D01*
X94130761Y-93114666D01*
X94178380Y-93019428D01*
X94178380Y-92733714D01*
X94130761Y-92638476D01*
X94083142Y-92590857D01*
X92067142Y-99099642D02*
X92114761Y-99052023D01*
X92162380Y-98909166D01*
X92162380Y-98813928D01*
X92114761Y-98671071D01*
X92019523Y-98575833D01*
X91924285Y-98528214D01*
X91733809Y-98480595D01*
X91590952Y-98480595D01*
X91400476Y-98528214D01*
X91305238Y-98575833D01*
X91210000Y-98671071D01*
X91162380Y-98813928D01*
X91162380Y-98909166D01*
X91210000Y-99052023D01*
X91257619Y-99099642D01*
X91162380Y-99432976D02*
X91162380Y-100052023D01*
X91543333Y-99718690D01*
X91543333Y-99861547D01*
X91590952Y-99956785D01*
X91638571Y-100004404D01*
X91733809Y-100052023D01*
X91971904Y-100052023D01*
X92067142Y-100004404D01*
X92114761Y-99956785D01*
X92162380Y-99861547D01*
X92162380Y-99575833D01*
X92114761Y-99480595D01*
X92067142Y-99432976D01*
X91162380Y-100671071D02*
X91162380Y-100766309D01*
X91210000Y-100861547D01*
X91257619Y-100909166D01*
X91352857Y-100956785D01*
X91543333Y-101004404D01*
X91781428Y-101004404D01*
X91971904Y-100956785D01*
X92067142Y-100909166D01*
X92114761Y-100861547D01*
X92162380Y-100766309D01*
X92162380Y-100671071D01*
X92114761Y-100575833D01*
X92067142Y-100528214D01*
X91971904Y-100480595D01*
X91781428Y-100432976D01*
X91543333Y-100432976D01*
X91352857Y-100480595D01*
X91257619Y-100528214D01*
X91210000Y-100575833D01*
X91162380Y-100671071D01*
X75064857Y-113387142D02*
X75112476Y-113434761D01*
X75255333Y-113482380D01*
X75350571Y-113482380D01*
X75493428Y-113434761D01*
X75588666Y-113339523D01*
X75636285Y-113244285D01*
X75683904Y-113053809D01*
X75683904Y-112910952D01*
X75636285Y-112720476D01*
X75588666Y-112625238D01*
X75493428Y-112530000D01*
X75350571Y-112482380D01*
X75255333Y-112482380D01*
X75112476Y-112530000D01*
X75064857Y-112577619D01*
X74683904Y-112577619D02*
X74636285Y-112530000D01*
X74541047Y-112482380D01*
X74302952Y-112482380D01*
X74207714Y-112530000D01*
X74160095Y-112577619D01*
X74112476Y-112672857D01*
X74112476Y-112768095D01*
X74160095Y-112910952D01*
X74731523Y-113482380D01*
X74112476Y-113482380D01*
X73779142Y-112482380D02*
X73112476Y-112482380D01*
X73541047Y-113482380D01*
X81414857Y-114607142D02*
X81462476Y-114654761D01*
X81605333Y-114702380D01*
X81700571Y-114702380D01*
X81843428Y-114654761D01*
X81938666Y-114559523D01*
X81986285Y-114464285D01*
X82033904Y-114273809D01*
X82033904Y-114130952D01*
X81986285Y-113940476D01*
X81938666Y-113845238D01*
X81843428Y-113750000D01*
X81700571Y-113702380D01*
X81605333Y-113702380D01*
X81462476Y-113750000D01*
X81414857Y-113797619D01*
X81033904Y-113797619D02*
X80986285Y-113750000D01*
X80891047Y-113702380D01*
X80652952Y-113702380D01*
X80557714Y-113750000D01*
X80510095Y-113797619D01*
X80462476Y-113892857D01*
X80462476Y-113988095D01*
X80510095Y-114130952D01*
X81081523Y-114702380D01*
X80462476Y-114702380D01*
X79605333Y-113702380D02*
X79795809Y-113702380D01*
X79891047Y-113750000D01*
X79938666Y-113797619D01*
X80033904Y-113940476D01*
X80081523Y-114130952D01*
X80081523Y-114511904D01*
X80033904Y-114607142D01*
X79986285Y-114654761D01*
X79891047Y-114702380D01*
X79700571Y-114702380D01*
X79605333Y-114654761D01*
X79557714Y-114607142D01*
X79510095Y-114511904D01*
X79510095Y-114273809D01*
X79557714Y-114178571D01*
X79605333Y-114130952D01*
X79700571Y-114083333D01*
X79891047Y-114083333D01*
X79986285Y-114130952D01*
X80033904Y-114178571D01*
X80081523Y-114273809D01*
X81072857Y-109831142D02*
X81120476Y-109878761D01*
X81263333Y-109926380D01*
X81358571Y-109926380D01*
X81501428Y-109878761D01*
X81596666Y-109783523D01*
X81644285Y-109688285D01*
X81691904Y-109497809D01*
X81691904Y-109354952D01*
X81644285Y-109164476D01*
X81596666Y-109069238D01*
X81501428Y-108974000D01*
X81358571Y-108926380D01*
X81263333Y-108926380D01*
X81120476Y-108974000D01*
X81072857Y-109021619D01*
X80691904Y-109021619D02*
X80644285Y-108974000D01*
X80549047Y-108926380D01*
X80310952Y-108926380D01*
X80215714Y-108974000D01*
X80168095Y-109021619D01*
X80120476Y-109116857D01*
X80120476Y-109212095D01*
X80168095Y-109354952D01*
X80739523Y-109926380D01*
X80120476Y-109926380D01*
X79263333Y-109259714D02*
X79263333Y-109926380D01*
X79501428Y-108878761D02*
X79739523Y-109593047D01*
X79120476Y-109593047D01*
X101705357Y-98147142D02*
X101752976Y-98194761D01*
X101895833Y-98242380D01*
X101991071Y-98242380D01*
X102133928Y-98194761D01*
X102229166Y-98099523D01*
X102276785Y-98004285D01*
X102324404Y-97813809D01*
X102324404Y-97670952D01*
X102276785Y-97480476D01*
X102229166Y-97385238D01*
X102133928Y-97290000D01*
X101991071Y-97242380D01*
X101895833Y-97242380D01*
X101752976Y-97290000D01*
X101705357Y-97337619D01*
X101324404Y-97337619D02*
X101276785Y-97290000D01*
X101181547Y-97242380D01*
X100943452Y-97242380D01*
X100848214Y-97290000D01*
X100800595Y-97337619D01*
X100752976Y-97432857D01*
X100752976Y-97528095D01*
X100800595Y-97670952D01*
X101372023Y-98242380D01*
X100752976Y-98242380D01*
X100419642Y-97242380D02*
X99800595Y-97242380D01*
X100133928Y-97623333D01*
X99991071Y-97623333D01*
X99895833Y-97670952D01*
X99848214Y-97718571D01*
X99800595Y-97813809D01*
X99800595Y-98051904D01*
X99848214Y-98147142D01*
X99895833Y-98194761D01*
X99991071Y-98242380D01*
X100276785Y-98242380D01*
X100372023Y-98194761D01*
X100419642Y-98147142D01*
X91035142Y-91305142D02*
X91082761Y-91257523D01*
X91130380Y-91114666D01*
X91130380Y-91019428D01*
X91082761Y-90876571D01*
X90987523Y-90781333D01*
X90892285Y-90733714D01*
X90701809Y-90686095D01*
X90558952Y-90686095D01*
X90368476Y-90733714D01*
X90273238Y-90781333D01*
X90178000Y-90876571D01*
X90130380Y-91019428D01*
X90130380Y-91114666D01*
X90178000Y-91257523D01*
X90225619Y-91305142D01*
X91130380Y-92257523D02*
X91130380Y-91686095D01*
X91130380Y-91971809D02*
X90130380Y-91971809D01*
X90273238Y-91876571D01*
X90368476Y-91781333D01*
X90416095Y-91686095D01*
X90463714Y-93114666D02*
X91130380Y-93114666D01*
X90082761Y-92876571D02*
X90797047Y-92638476D01*
X90797047Y-93257523D01*
X69476857Y-112625142D02*
X69524476Y-112672761D01*
X69667333Y-112720380D01*
X69762571Y-112720380D01*
X69905428Y-112672761D01*
X70000666Y-112577523D01*
X70048285Y-112482285D01*
X70095904Y-112291809D01*
X70095904Y-112148952D01*
X70048285Y-111958476D01*
X70000666Y-111863238D01*
X69905428Y-111768000D01*
X69762571Y-111720380D01*
X69667333Y-111720380D01*
X69524476Y-111768000D01*
X69476857Y-111815619D01*
X68524476Y-112720380D02*
X69095904Y-112720380D01*
X68810190Y-112720380D02*
X68810190Y-111720380D01*
X68905428Y-111863238D01*
X69000666Y-111958476D01*
X69095904Y-112006095D01*
X67905428Y-111720380D02*
X67810190Y-111720380D01*
X67714952Y-111768000D01*
X67667333Y-111815619D01*
X67619714Y-111910857D01*
X67572095Y-112101333D01*
X67572095Y-112339428D01*
X67619714Y-112529904D01*
X67667333Y-112625142D01*
X67714952Y-112672761D01*
X67810190Y-112720380D01*
X67905428Y-112720380D01*
X68000666Y-112672761D01*
X68048285Y-112625142D01*
X68095904Y-112529904D01*
X68143523Y-112339428D01*
X68143523Y-112101333D01*
X68095904Y-111910857D01*
X68048285Y-111815619D01*
X68000666Y-111768000D01*
X67905428Y-111720380D01*
X83224666Y-106783142D02*
X83272285Y-106830761D01*
X83415142Y-106878380D01*
X83510380Y-106878380D01*
X83653238Y-106830761D01*
X83748476Y-106735523D01*
X83796095Y-106640285D01*
X83843714Y-106449809D01*
X83843714Y-106306952D01*
X83796095Y-106116476D01*
X83748476Y-106021238D01*
X83653238Y-105926000D01*
X83510380Y-105878380D01*
X83415142Y-105878380D01*
X83272285Y-105926000D01*
X83224666Y-105973619D01*
X82748476Y-106878380D02*
X82558000Y-106878380D01*
X82462761Y-106830761D01*
X82415142Y-106783142D01*
X82319904Y-106640285D01*
X82272285Y-106449809D01*
X82272285Y-106068857D01*
X82319904Y-105973619D01*
X82367523Y-105926000D01*
X82462761Y-105878380D01*
X82653238Y-105878380D01*
X82748476Y-105926000D01*
X82796095Y-105973619D01*
X82843714Y-106068857D01*
X82843714Y-106306952D01*
X82796095Y-106402190D01*
X82748476Y-106449809D01*
X82653238Y-106497428D01*
X82462761Y-106497428D01*
X82367523Y-106449809D01*
X82319904Y-106402190D01*
X82272285Y-106306952D01*
X81192666Y-111863142D02*
X81240285Y-111910761D01*
X81383142Y-111958380D01*
X81478380Y-111958380D01*
X81621238Y-111910761D01*
X81716476Y-111815523D01*
X81764095Y-111720285D01*
X81811714Y-111529809D01*
X81811714Y-111386952D01*
X81764095Y-111196476D01*
X81716476Y-111101238D01*
X81621238Y-111006000D01*
X81478380Y-110958380D01*
X81383142Y-110958380D01*
X81240285Y-111006000D01*
X81192666Y-111053619D01*
X80621238Y-111386952D02*
X80716476Y-111339333D01*
X80764095Y-111291714D01*
X80811714Y-111196476D01*
X80811714Y-111148857D01*
X80764095Y-111053619D01*
X80716476Y-111006000D01*
X80621238Y-110958380D01*
X80430761Y-110958380D01*
X80335523Y-111006000D01*
X80287904Y-111053619D01*
X80240285Y-111148857D01*
X80240285Y-111196476D01*
X80287904Y-111291714D01*
X80335523Y-111339333D01*
X80430761Y-111386952D01*
X80621238Y-111386952D01*
X80716476Y-111434571D01*
X80764095Y-111482190D01*
X80811714Y-111577428D01*
X80811714Y-111767904D01*
X80764095Y-111863142D01*
X80716476Y-111910761D01*
X80621238Y-111958380D01*
X80430761Y-111958380D01*
X80335523Y-111910761D01*
X80287904Y-111863142D01*
X80240285Y-111767904D01*
X80240285Y-111577428D01*
X80287904Y-111482190D01*
X80335523Y-111434571D01*
X80430761Y-111386952D01*
X101937142Y-87183333D02*
X101984761Y-87135714D01*
X102032380Y-86992857D01*
X102032380Y-86897619D01*
X101984761Y-86754761D01*
X101889523Y-86659523D01*
X101794285Y-86611904D01*
X101603809Y-86564285D01*
X101460952Y-86564285D01*
X101270476Y-86611904D01*
X101175238Y-86659523D01*
X101080000Y-86754761D01*
X101032380Y-86897619D01*
X101032380Y-86992857D01*
X101080000Y-87135714D01*
X101127619Y-87183333D01*
X101032380Y-88040476D02*
X101032380Y-87850000D01*
X101080000Y-87754761D01*
X101127619Y-87707142D01*
X101270476Y-87611904D01*
X101460952Y-87564285D01*
X101841904Y-87564285D01*
X101937142Y-87611904D01*
X101984761Y-87659523D01*
X102032380Y-87754761D01*
X102032380Y-87945238D01*
X101984761Y-88040476D01*
X101937142Y-88088095D01*
X101841904Y-88135714D01*
X101603809Y-88135714D01*
X101508571Y-88088095D01*
X101460952Y-88040476D01*
X101413333Y-87945238D01*
X101413333Y-87754761D01*
X101460952Y-87659523D01*
X101508571Y-87611904D01*
X101603809Y-87564285D01*
X103587142Y-89063333D02*
X103634761Y-89015714D01*
X103682380Y-88872857D01*
X103682380Y-88777619D01*
X103634761Y-88634761D01*
X103539523Y-88539523D01*
X103444285Y-88491904D01*
X103253809Y-88444285D01*
X103110952Y-88444285D01*
X102920476Y-88491904D01*
X102825238Y-88539523D01*
X102730000Y-88634761D01*
X102682380Y-88777619D01*
X102682380Y-88872857D01*
X102730000Y-89015714D01*
X102777619Y-89063333D01*
X102682380Y-89968095D02*
X102682380Y-89491904D01*
X103158571Y-89444285D01*
X103110952Y-89491904D01*
X103063333Y-89587142D01*
X103063333Y-89825238D01*
X103110952Y-89920476D01*
X103158571Y-89968095D01*
X103253809Y-90015714D01*
X103491904Y-90015714D01*
X103587142Y-89968095D01*
X103634761Y-89920476D01*
X103682380Y-89825238D01*
X103682380Y-89587142D01*
X103634761Y-89491904D01*
X103587142Y-89444285D01*
X87987142Y-88733333D02*
X88034761Y-88685714D01*
X88082380Y-88542857D01*
X88082380Y-88447619D01*
X88034761Y-88304761D01*
X87939523Y-88209523D01*
X87844285Y-88161904D01*
X87653809Y-88114285D01*
X87510952Y-88114285D01*
X87320476Y-88161904D01*
X87225238Y-88209523D01*
X87130000Y-88304761D01*
X87082380Y-88447619D01*
X87082380Y-88542857D01*
X87130000Y-88685714D01*
X87177619Y-88733333D01*
X87082380Y-89066666D02*
X87082380Y-89685714D01*
X87463333Y-89352380D01*
X87463333Y-89495238D01*
X87510952Y-89590476D01*
X87558571Y-89638095D01*
X87653809Y-89685714D01*
X87891904Y-89685714D01*
X87987142Y-89638095D01*
X88034761Y-89590476D01*
X88082380Y-89495238D01*
X88082380Y-89209523D01*
X88034761Y-89114285D01*
X87987142Y-89066666D01*
X92559142Y-91273333D02*
X92606761Y-91225714D01*
X92654380Y-91082857D01*
X92654380Y-90987619D01*
X92606761Y-90844761D01*
X92511523Y-90749523D01*
X92416285Y-90701904D01*
X92225809Y-90654285D01*
X92082952Y-90654285D01*
X91892476Y-90701904D01*
X91797238Y-90749523D01*
X91702000Y-90844761D01*
X91654380Y-90987619D01*
X91654380Y-91082857D01*
X91702000Y-91225714D01*
X91749619Y-91273333D01*
X91749619Y-91654285D02*
X91702000Y-91701904D01*
X91654380Y-91797142D01*
X91654380Y-92035238D01*
X91702000Y-92130476D01*
X91749619Y-92178095D01*
X91844857Y-92225714D01*
X91940095Y-92225714D01*
X92082952Y-92178095D01*
X92654380Y-91606666D01*
X92654380Y-92225714D01*
X73032857Y-127198380D02*
X73366190Y-126722190D01*
X73604285Y-127198380D02*
X73604285Y-126198380D01*
X73223333Y-126198380D01*
X73128095Y-126246000D01*
X73080476Y-126293619D01*
X73032857Y-126388857D01*
X73032857Y-126531714D01*
X73080476Y-126626952D01*
X73128095Y-126674571D01*
X73223333Y-126722190D01*
X73604285Y-126722190D01*
X72556666Y-127198380D02*
X72366190Y-127198380D01*
X72270952Y-127150761D01*
X72223333Y-127103142D01*
X72128095Y-126960285D01*
X72080476Y-126769809D01*
X72080476Y-126388857D01*
X72128095Y-126293619D01*
X72175714Y-126246000D01*
X72270952Y-126198380D01*
X72461428Y-126198380D01*
X72556666Y-126246000D01*
X72604285Y-126293619D01*
X72651904Y-126388857D01*
X72651904Y-126626952D01*
X72604285Y-126722190D01*
X72556666Y-126769809D01*
X72461428Y-126817428D01*
X72270952Y-126817428D01*
X72175714Y-126769809D01*
X72128095Y-126722190D01*
X72080476Y-126626952D01*
X71223333Y-126531714D02*
X71223333Y-127198380D01*
X71461428Y-126150761D02*
X71699523Y-126865047D01*
X71080476Y-126865047D01*
X73032857Y-125166380D02*
X73366190Y-124690190D01*
X73604285Y-125166380D02*
X73604285Y-124166380D01*
X73223333Y-124166380D01*
X73128095Y-124214000D01*
X73080476Y-124261619D01*
X73032857Y-124356857D01*
X73032857Y-124499714D01*
X73080476Y-124594952D01*
X73128095Y-124642571D01*
X73223333Y-124690190D01*
X73604285Y-124690190D01*
X72556666Y-125166380D02*
X72366190Y-125166380D01*
X72270952Y-125118761D01*
X72223333Y-125071142D01*
X72128095Y-124928285D01*
X72080476Y-124737809D01*
X72080476Y-124356857D01*
X72128095Y-124261619D01*
X72175714Y-124214000D01*
X72270952Y-124166380D01*
X72461428Y-124166380D01*
X72556666Y-124214000D01*
X72604285Y-124261619D01*
X72651904Y-124356857D01*
X72651904Y-124594952D01*
X72604285Y-124690190D01*
X72556666Y-124737809D01*
X72461428Y-124785428D01*
X72270952Y-124785428D01*
X72175714Y-124737809D01*
X72128095Y-124690190D01*
X72080476Y-124594952D01*
X71747142Y-124166380D02*
X71128095Y-124166380D01*
X71461428Y-124547333D01*
X71318571Y-124547333D01*
X71223333Y-124594952D01*
X71175714Y-124642571D01*
X71128095Y-124737809D01*
X71128095Y-124975904D01*
X71175714Y-125071142D01*
X71223333Y-125118761D01*
X71318571Y-125166380D01*
X71604285Y-125166380D01*
X71699523Y-125118761D01*
X71747142Y-125071142D01*
X88392857Y-136727380D02*
X88726190Y-136251190D01*
X88964285Y-136727380D02*
X88964285Y-135727380D01*
X88583333Y-135727380D01*
X88488095Y-135775000D01*
X88440476Y-135822619D01*
X88392857Y-135917857D01*
X88392857Y-136060714D01*
X88440476Y-136155952D01*
X88488095Y-136203571D01*
X88583333Y-136251190D01*
X88964285Y-136251190D01*
X87821428Y-136155952D02*
X87916666Y-136108333D01*
X87964285Y-136060714D01*
X88011904Y-135965476D01*
X88011904Y-135917857D01*
X87964285Y-135822619D01*
X87916666Y-135775000D01*
X87821428Y-135727380D01*
X87630952Y-135727380D01*
X87535714Y-135775000D01*
X87488095Y-135822619D01*
X87440476Y-135917857D01*
X87440476Y-135965476D01*
X87488095Y-136060714D01*
X87535714Y-136108333D01*
X87630952Y-136155952D01*
X87821428Y-136155952D01*
X87916666Y-136203571D01*
X87964285Y-136251190D01*
X88011904Y-136346428D01*
X88011904Y-136536904D01*
X87964285Y-136632142D01*
X87916666Y-136679761D01*
X87821428Y-136727380D01*
X87630952Y-136727380D01*
X87535714Y-136679761D01*
X87488095Y-136632142D01*
X87440476Y-136536904D01*
X87440476Y-136346428D01*
X87488095Y-136251190D01*
X87535714Y-136203571D01*
X87630952Y-136155952D01*
X86869047Y-136155952D02*
X86964285Y-136108333D01*
X87011904Y-136060714D01*
X87059523Y-135965476D01*
X87059523Y-135917857D01*
X87011904Y-135822619D01*
X86964285Y-135775000D01*
X86869047Y-135727380D01*
X86678571Y-135727380D01*
X86583333Y-135775000D01*
X86535714Y-135822619D01*
X86488095Y-135917857D01*
X86488095Y-135965476D01*
X86535714Y-136060714D01*
X86583333Y-136108333D01*
X86678571Y-136155952D01*
X86869047Y-136155952D01*
X86964285Y-136203571D01*
X87011904Y-136251190D01*
X87059523Y-136346428D01*
X87059523Y-136536904D01*
X87011904Y-136632142D01*
X86964285Y-136679761D01*
X86869047Y-136727380D01*
X86678571Y-136727380D01*
X86583333Y-136679761D01*
X86535714Y-136632142D01*
X86488095Y-136536904D01*
X86488095Y-136346428D01*
X86535714Y-136251190D01*
X86583333Y-136203571D01*
X86678571Y-136155952D01*
X88392857Y-130912380D02*
X88726190Y-130436190D01*
X88964285Y-130912380D02*
X88964285Y-129912380D01*
X88583333Y-129912380D01*
X88488095Y-129960000D01*
X88440476Y-130007619D01*
X88392857Y-130102857D01*
X88392857Y-130245714D01*
X88440476Y-130340952D01*
X88488095Y-130388571D01*
X88583333Y-130436190D01*
X88964285Y-130436190D01*
X87821428Y-130340952D02*
X87916666Y-130293333D01*
X87964285Y-130245714D01*
X88011904Y-130150476D01*
X88011904Y-130102857D01*
X87964285Y-130007619D01*
X87916666Y-129960000D01*
X87821428Y-129912380D01*
X87630952Y-129912380D01*
X87535714Y-129960000D01*
X87488095Y-130007619D01*
X87440476Y-130102857D01*
X87440476Y-130150476D01*
X87488095Y-130245714D01*
X87535714Y-130293333D01*
X87630952Y-130340952D01*
X87821428Y-130340952D01*
X87916666Y-130388571D01*
X87964285Y-130436190D01*
X88011904Y-130531428D01*
X88011904Y-130721904D01*
X87964285Y-130817142D01*
X87916666Y-130864761D01*
X87821428Y-130912380D01*
X87630952Y-130912380D01*
X87535714Y-130864761D01*
X87488095Y-130817142D01*
X87440476Y-130721904D01*
X87440476Y-130531428D01*
X87488095Y-130436190D01*
X87535714Y-130388571D01*
X87630952Y-130340952D01*
X87107142Y-129912380D02*
X86440476Y-129912380D01*
X86869047Y-130912380D01*
X92082857Y-130913142D02*
X92130476Y-130960761D01*
X92273333Y-131008380D01*
X92368571Y-131008380D01*
X92511428Y-130960761D01*
X92606666Y-130865523D01*
X92654285Y-130770285D01*
X92701904Y-130579809D01*
X92701904Y-130436952D01*
X92654285Y-130246476D01*
X92606666Y-130151238D01*
X92511428Y-130056000D01*
X92368571Y-130008380D01*
X92273333Y-130008380D01*
X92130476Y-130056000D01*
X92082857Y-130103619D01*
X91225714Y-130008380D02*
X91416190Y-130008380D01*
X91511428Y-130056000D01*
X91559047Y-130103619D01*
X91654285Y-130246476D01*
X91701904Y-130436952D01*
X91701904Y-130817904D01*
X91654285Y-130913142D01*
X91606666Y-130960761D01*
X91511428Y-131008380D01*
X91320952Y-131008380D01*
X91225714Y-130960761D01*
X91178095Y-130913142D01*
X91130476Y-130817904D01*
X91130476Y-130579809D01*
X91178095Y-130484571D01*
X91225714Y-130436952D01*
X91320952Y-130389333D01*
X91511428Y-130389333D01*
X91606666Y-130436952D01*
X91654285Y-130484571D01*
X91701904Y-130579809D01*
X90654285Y-131008380D02*
X90463809Y-131008380D01*
X90368571Y-130960761D01*
X90320952Y-130913142D01*
X90225714Y-130770285D01*
X90178095Y-130579809D01*
X90178095Y-130198857D01*
X90225714Y-130103619D01*
X90273333Y-130056000D01*
X90368571Y-130008380D01*
X90559047Y-130008380D01*
X90654285Y-130056000D01*
X90701904Y-130103619D01*
X90749523Y-130198857D01*
X90749523Y-130436952D01*
X90701904Y-130532190D01*
X90654285Y-130579809D01*
X90559047Y-130627428D01*
X90368571Y-130627428D01*
X90273333Y-130579809D01*
X90225714Y-130532190D01*
X90178095Y-130436952D01*
X126952857Y-107802380D02*
X127286190Y-107326190D01*
X127524285Y-107802380D02*
X127524285Y-106802380D01*
X127143333Y-106802380D01*
X127048095Y-106850000D01*
X127000476Y-106897619D01*
X126952857Y-106992857D01*
X126952857Y-107135714D01*
X127000476Y-107230952D01*
X127048095Y-107278571D01*
X127143333Y-107326190D01*
X127524285Y-107326190D01*
X126095714Y-106802380D02*
X126286190Y-106802380D01*
X126381428Y-106850000D01*
X126429047Y-106897619D01*
X126524285Y-107040476D01*
X126571904Y-107230952D01*
X126571904Y-107611904D01*
X126524285Y-107707142D01*
X126476666Y-107754761D01*
X126381428Y-107802380D01*
X126190952Y-107802380D01*
X126095714Y-107754761D01*
X126048095Y-107707142D01*
X126000476Y-107611904D01*
X126000476Y-107373809D01*
X126048095Y-107278571D01*
X126095714Y-107230952D01*
X126190952Y-107183333D01*
X126381428Y-107183333D01*
X126476666Y-107230952D01*
X126524285Y-107278571D01*
X126571904Y-107373809D01*
X125143333Y-106802380D02*
X125333809Y-106802380D01*
X125429047Y-106850000D01*
X125476666Y-106897619D01*
X125571904Y-107040476D01*
X125619523Y-107230952D01*
X125619523Y-107611904D01*
X125571904Y-107707142D01*
X125524285Y-107754761D01*
X125429047Y-107802380D01*
X125238571Y-107802380D01*
X125143333Y-107754761D01*
X125095714Y-107707142D01*
X125048095Y-107611904D01*
X125048095Y-107373809D01*
X125095714Y-107278571D01*
X125143333Y-107230952D01*
X125238571Y-107183333D01*
X125429047Y-107183333D01*
X125524285Y-107230952D01*
X125571904Y-107278571D01*
X125619523Y-107373809D01*
X125542857Y-104547142D02*
X125590476Y-104594761D01*
X125733333Y-104642380D01*
X125828571Y-104642380D01*
X125971428Y-104594761D01*
X126066666Y-104499523D01*
X126114285Y-104404285D01*
X126161904Y-104213809D01*
X126161904Y-104070952D01*
X126114285Y-103880476D01*
X126066666Y-103785238D01*
X125971428Y-103690000D01*
X125828571Y-103642380D01*
X125733333Y-103642380D01*
X125590476Y-103690000D01*
X125542857Y-103737619D01*
X124685714Y-103642380D02*
X124876190Y-103642380D01*
X124971428Y-103690000D01*
X125019047Y-103737619D01*
X125114285Y-103880476D01*
X125161904Y-104070952D01*
X125161904Y-104451904D01*
X125114285Y-104547142D01*
X125066666Y-104594761D01*
X124971428Y-104642380D01*
X124780952Y-104642380D01*
X124685714Y-104594761D01*
X124638095Y-104547142D01*
X124590476Y-104451904D01*
X124590476Y-104213809D01*
X124638095Y-104118571D01*
X124685714Y-104070952D01*
X124780952Y-104023333D01*
X124971428Y-104023333D01*
X125066666Y-104070952D01*
X125114285Y-104118571D01*
X125161904Y-104213809D01*
X123971428Y-103642380D02*
X123876190Y-103642380D01*
X123780952Y-103690000D01*
X123733333Y-103737619D01*
X123685714Y-103832857D01*
X123638095Y-104023333D01*
X123638095Y-104261428D01*
X123685714Y-104451904D01*
X123733333Y-104547142D01*
X123780952Y-104594761D01*
X123876190Y-104642380D01*
X123971428Y-104642380D01*
X124066666Y-104594761D01*
X124114285Y-104547142D01*
X124161904Y-104451904D01*
X124209523Y-104261428D01*
X124209523Y-104023333D01*
X124161904Y-103832857D01*
X124114285Y-103737619D01*
X124066666Y-103690000D01*
X123971428Y-103642380D01*
X128852857Y-109657142D02*
X128900476Y-109704761D01*
X129043333Y-109752380D01*
X129138571Y-109752380D01*
X129281428Y-109704761D01*
X129376666Y-109609523D01*
X129424285Y-109514285D01*
X129471904Y-109323809D01*
X129471904Y-109180952D01*
X129424285Y-108990476D01*
X129376666Y-108895238D01*
X129281428Y-108800000D01*
X129138571Y-108752380D01*
X129043333Y-108752380D01*
X128900476Y-108800000D01*
X128852857Y-108847619D01*
X127948095Y-108752380D02*
X128424285Y-108752380D01*
X128471904Y-109228571D01*
X128424285Y-109180952D01*
X128329047Y-109133333D01*
X128090952Y-109133333D01*
X127995714Y-109180952D01*
X127948095Y-109228571D01*
X127900476Y-109323809D01*
X127900476Y-109561904D01*
X127948095Y-109657142D01*
X127995714Y-109704761D01*
X128090952Y-109752380D01*
X128329047Y-109752380D01*
X128424285Y-109704761D01*
X128471904Y-109657142D01*
X127424285Y-109752380D02*
X127233809Y-109752380D01*
X127138571Y-109704761D01*
X127090952Y-109657142D01*
X126995714Y-109514285D01*
X126948095Y-109323809D01*
X126948095Y-108942857D01*
X126995714Y-108847619D01*
X127043333Y-108800000D01*
X127138571Y-108752380D01*
X127329047Y-108752380D01*
X127424285Y-108800000D01*
X127471904Y-108847619D01*
X127519523Y-108942857D01*
X127519523Y-109180952D01*
X127471904Y-109276190D01*
X127424285Y-109323809D01*
X127329047Y-109371428D01*
X127138571Y-109371428D01*
X127043333Y-109323809D01*
X126995714Y-109276190D01*
X126948095Y-109180952D01*
X104942380Y-90287142D02*
X104466190Y-89953809D01*
X104942380Y-89715714D02*
X103942380Y-89715714D01*
X103942380Y-90096666D01*
X103990000Y-90191904D01*
X104037619Y-90239523D01*
X104132857Y-90287142D01*
X104275714Y-90287142D01*
X104370952Y-90239523D01*
X104418571Y-90191904D01*
X104466190Y-90096666D01*
X104466190Y-89715714D01*
X103942380Y-91144285D02*
X103942380Y-90953809D01*
X103990000Y-90858571D01*
X104037619Y-90810952D01*
X104180476Y-90715714D01*
X104370952Y-90668095D01*
X104751904Y-90668095D01*
X104847142Y-90715714D01*
X104894761Y-90763333D01*
X104942380Y-90858571D01*
X104942380Y-91049047D01*
X104894761Y-91144285D01*
X104847142Y-91191904D01*
X104751904Y-91239523D01*
X104513809Y-91239523D01*
X104418571Y-91191904D01*
X104370952Y-91144285D01*
X104323333Y-91049047D01*
X104323333Y-90858571D01*
X104370952Y-90763333D01*
X104418571Y-90715714D01*
X104513809Y-90668095D01*
X104942380Y-91715714D02*
X104942380Y-91906190D01*
X104894761Y-92001428D01*
X104847142Y-92049047D01*
X104704285Y-92144285D01*
X104513809Y-92191904D01*
X104132857Y-92191904D01*
X104037619Y-92144285D01*
X103990000Y-92096666D01*
X103942380Y-92001428D01*
X103942380Y-91810952D01*
X103990000Y-91715714D01*
X104037619Y-91668095D01*
X104132857Y-91620476D01*
X104370952Y-91620476D01*
X104466190Y-91668095D01*
X104513809Y-91715714D01*
X104561428Y-91810952D01*
X104561428Y-92001428D01*
X104513809Y-92096666D01*
X104466190Y-92144285D01*
X104370952Y-92191904D01*
X70492857Y-149201142D02*
X70540476Y-149248761D01*
X70683333Y-149296380D01*
X70778571Y-149296380D01*
X70921428Y-149248761D01*
X71016666Y-149153523D01*
X71064285Y-149058285D01*
X71111904Y-148867809D01*
X71111904Y-148724952D01*
X71064285Y-148534476D01*
X71016666Y-148439238D01*
X70921428Y-148344000D01*
X70778571Y-148296380D01*
X70683333Y-148296380D01*
X70540476Y-148344000D01*
X70492857Y-148391619D01*
X69921428Y-148724952D02*
X70016666Y-148677333D01*
X70064285Y-148629714D01*
X70111904Y-148534476D01*
X70111904Y-148486857D01*
X70064285Y-148391619D01*
X70016666Y-148344000D01*
X69921428Y-148296380D01*
X69730952Y-148296380D01*
X69635714Y-148344000D01*
X69588095Y-148391619D01*
X69540476Y-148486857D01*
X69540476Y-148534476D01*
X69588095Y-148629714D01*
X69635714Y-148677333D01*
X69730952Y-148724952D01*
X69921428Y-148724952D01*
X70016666Y-148772571D01*
X70064285Y-148820190D01*
X70111904Y-148915428D01*
X70111904Y-149105904D01*
X70064285Y-149201142D01*
X70016666Y-149248761D01*
X69921428Y-149296380D01*
X69730952Y-149296380D01*
X69635714Y-149248761D01*
X69588095Y-149201142D01*
X69540476Y-149105904D01*
X69540476Y-148915428D01*
X69588095Y-148820190D01*
X69635714Y-148772571D01*
X69730952Y-148724952D01*
X68588095Y-149296380D02*
X69159523Y-149296380D01*
X68873809Y-149296380D02*
X68873809Y-148296380D01*
X68969047Y-148439238D01*
X69064285Y-148534476D01*
X69159523Y-148582095D01*
X77858857Y-181713142D02*
X77906476Y-181760761D01*
X78049333Y-181808380D01*
X78144571Y-181808380D01*
X78287428Y-181760761D01*
X78382666Y-181665523D01*
X78430285Y-181570285D01*
X78477904Y-181379809D01*
X78477904Y-181236952D01*
X78430285Y-181046476D01*
X78382666Y-180951238D01*
X78287428Y-180856000D01*
X78144571Y-180808380D01*
X78049333Y-180808380D01*
X77906476Y-180856000D01*
X77858857Y-180903619D01*
X77525523Y-180808380D02*
X76858857Y-180808380D01*
X77287428Y-181808380D01*
X76430285Y-181808380D02*
X76239809Y-181808380D01*
X76144571Y-181760761D01*
X76096952Y-181713142D01*
X76001714Y-181570285D01*
X75954095Y-181379809D01*
X75954095Y-180998857D01*
X76001714Y-180903619D01*
X76049333Y-180856000D01*
X76144571Y-180808380D01*
X76335047Y-180808380D01*
X76430285Y-180856000D01*
X76477904Y-180903619D01*
X76525523Y-180998857D01*
X76525523Y-181236952D01*
X76477904Y-181332190D01*
X76430285Y-181379809D01*
X76335047Y-181427428D01*
X76144571Y-181427428D01*
X76049333Y-181379809D01*
X76001714Y-181332190D01*
X75954095Y-181236952D01*
X96654857Y-93670380D02*
X96988190Y-93194190D01*
X97226285Y-93670380D02*
X97226285Y-92670380D01*
X96845333Y-92670380D01*
X96750095Y-92718000D01*
X96702476Y-92765619D01*
X96654857Y-92860857D01*
X96654857Y-93003714D01*
X96702476Y-93098952D01*
X96750095Y-93146571D01*
X96845333Y-93194190D01*
X97226285Y-93194190D01*
X96321523Y-92670380D02*
X95702476Y-92670380D01*
X96035809Y-93051333D01*
X95892952Y-93051333D01*
X95797714Y-93098952D01*
X95750095Y-93146571D01*
X95702476Y-93241809D01*
X95702476Y-93479904D01*
X95750095Y-93575142D01*
X95797714Y-93622761D01*
X95892952Y-93670380D01*
X96178666Y-93670380D01*
X96273904Y-93622761D01*
X96321523Y-93575142D01*
X95083428Y-92670380D02*
X94988190Y-92670380D01*
X94892952Y-92718000D01*
X94845333Y-92765619D01*
X94797714Y-92860857D01*
X94750095Y-93051333D01*
X94750095Y-93289428D01*
X94797714Y-93479904D01*
X94845333Y-93575142D01*
X94892952Y-93622761D01*
X94988190Y-93670380D01*
X95083428Y-93670380D01*
X95178666Y-93622761D01*
X95226285Y-93575142D01*
X95273904Y-93479904D01*
X95321523Y-93289428D01*
X95321523Y-93051333D01*
X95273904Y-92860857D01*
X95226285Y-92765619D01*
X95178666Y-92718000D01*
X95083428Y-92670380D01*
X95736666Y-69932380D02*
X96070000Y-69456190D01*
X96308095Y-69932380D02*
X96308095Y-68932380D01*
X95927142Y-68932380D01*
X95831904Y-68980000D01*
X95784285Y-69027619D01*
X95736666Y-69122857D01*
X95736666Y-69265714D01*
X95784285Y-69360952D01*
X95831904Y-69408571D01*
X95927142Y-69456190D01*
X96308095Y-69456190D01*
X94784285Y-69932380D02*
X95355714Y-69932380D01*
X95070000Y-69932380D02*
X95070000Y-68932380D01*
X95165238Y-69075238D01*
X95260476Y-69170476D01*
X95355714Y-69218095D01*
X104612857Y-62652380D02*
X104946190Y-62176190D01*
X105184285Y-62652380D02*
X105184285Y-61652380D01*
X104803333Y-61652380D01*
X104708095Y-61700000D01*
X104660476Y-61747619D01*
X104612857Y-61842857D01*
X104612857Y-61985714D01*
X104660476Y-62080952D01*
X104708095Y-62128571D01*
X104803333Y-62176190D01*
X105184285Y-62176190D01*
X103660476Y-62652380D02*
X104231904Y-62652380D01*
X103946190Y-62652380D02*
X103946190Y-61652380D01*
X104041428Y-61795238D01*
X104136666Y-61890476D01*
X104231904Y-61938095D01*
X103327142Y-61652380D02*
X102660476Y-61652380D01*
X103089047Y-62652380D01*
X97002857Y-66822380D02*
X97336190Y-66346190D01*
X97574285Y-66822380D02*
X97574285Y-65822380D01*
X97193333Y-65822380D01*
X97098095Y-65870000D01*
X97050476Y-65917619D01*
X97002857Y-66012857D01*
X97002857Y-66155714D01*
X97050476Y-66250952D01*
X97098095Y-66298571D01*
X97193333Y-66346190D01*
X97574285Y-66346190D01*
X96050476Y-66822380D02*
X96621904Y-66822380D01*
X96336190Y-66822380D02*
X96336190Y-65822380D01*
X96431428Y-65965238D01*
X96526666Y-66060476D01*
X96621904Y-66108095D01*
X95193333Y-65822380D02*
X95383809Y-65822380D01*
X95479047Y-65870000D01*
X95526666Y-65917619D01*
X95621904Y-66060476D01*
X95669523Y-66250952D01*
X95669523Y-66631904D01*
X95621904Y-66727142D01*
X95574285Y-66774761D01*
X95479047Y-66822380D01*
X95288571Y-66822380D01*
X95193333Y-66774761D01*
X95145714Y-66727142D01*
X95098095Y-66631904D01*
X95098095Y-66393809D01*
X95145714Y-66298571D01*
X95193333Y-66250952D01*
X95288571Y-66203333D01*
X95479047Y-66203333D01*
X95574285Y-66250952D01*
X95621904Y-66298571D01*
X95669523Y-66393809D01*
X100282857Y-62062380D02*
X100616190Y-61586190D01*
X100854285Y-62062380D02*
X100854285Y-61062380D01*
X100473333Y-61062380D01*
X100378095Y-61110000D01*
X100330476Y-61157619D01*
X100282857Y-61252857D01*
X100282857Y-61395714D01*
X100330476Y-61490952D01*
X100378095Y-61538571D01*
X100473333Y-61586190D01*
X100854285Y-61586190D01*
X99330476Y-62062380D02*
X99901904Y-62062380D01*
X99616190Y-62062380D02*
X99616190Y-61062380D01*
X99711428Y-61205238D01*
X99806666Y-61300476D01*
X99901904Y-61348095D01*
X98473333Y-61395714D02*
X98473333Y-62062380D01*
X98711428Y-61014761D02*
X98949523Y-61729047D01*
X98330476Y-61729047D01*
X105527380Y-55432142D02*
X105051190Y-55098809D01*
X105527380Y-54860714D02*
X104527380Y-54860714D01*
X104527380Y-55241666D01*
X104575000Y-55336904D01*
X104622619Y-55384523D01*
X104717857Y-55432142D01*
X104860714Y-55432142D01*
X104955952Y-55384523D01*
X105003571Y-55336904D01*
X105051190Y-55241666D01*
X105051190Y-54860714D01*
X105527380Y-56384523D02*
X105527380Y-55813095D01*
X105527380Y-56098809D02*
X104527380Y-56098809D01*
X104670238Y-56003571D01*
X104765476Y-55908333D01*
X104813095Y-55813095D01*
X104527380Y-56717857D02*
X104527380Y-57336904D01*
X104908333Y-57003571D01*
X104908333Y-57146428D01*
X104955952Y-57241666D01*
X105003571Y-57289285D01*
X105098809Y-57336904D01*
X105336904Y-57336904D01*
X105432142Y-57289285D01*
X105479761Y-57241666D01*
X105527380Y-57146428D01*
X105527380Y-56860714D01*
X105479761Y-56765476D01*
X105432142Y-56717857D01*
X95527380Y-55432142D02*
X95051190Y-55098809D01*
X95527380Y-54860714D02*
X94527380Y-54860714D01*
X94527380Y-55241666D01*
X94575000Y-55336904D01*
X94622619Y-55384523D01*
X94717857Y-55432142D01*
X94860714Y-55432142D01*
X94955952Y-55384523D01*
X95003571Y-55336904D01*
X95051190Y-55241666D01*
X95051190Y-54860714D01*
X95527380Y-56384523D02*
X95527380Y-55813095D01*
X95527380Y-56098809D02*
X94527380Y-56098809D01*
X94670238Y-56003571D01*
X94765476Y-55908333D01*
X94813095Y-55813095D01*
X94527380Y-57003571D02*
X94527380Y-57098809D01*
X94575000Y-57194047D01*
X94622619Y-57241666D01*
X94717857Y-57289285D01*
X94908333Y-57336904D01*
X95146428Y-57336904D01*
X95336904Y-57289285D01*
X95432142Y-57241666D01*
X95479761Y-57194047D01*
X95527380Y-57098809D01*
X95527380Y-57003571D01*
X95479761Y-56908333D01*
X95432142Y-56860714D01*
X95336904Y-56813095D01*
X95146428Y-56765476D01*
X94908333Y-56765476D01*
X94717857Y-56813095D01*
X94622619Y-56860714D01*
X94575000Y-56908333D01*
X94527380Y-57003571D01*
X97527380Y-55908333D02*
X97051190Y-55575000D01*
X97527380Y-55336904D02*
X96527380Y-55336904D01*
X96527380Y-55717857D01*
X96575000Y-55813095D01*
X96622619Y-55860714D01*
X96717857Y-55908333D01*
X96860714Y-55908333D01*
X96955952Y-55860714D01*
X97003571Y-55813095D01*
X97051190Y-55717857D01*
X97051190Y-55336904D01*
X97527380Y-56384523D02*
X97527380Y-56575000D01*
X97479761Y-56670238D01*
X97432142Y-56717857D01*
X97289285Y-56813095D01*
X97098809Y-56860714D01*
X96717857Y-56860714D01*
X96622619Y-56813095D01*
X96575000Y-56765476D01*
X96527380Y-56670238D01*
X96527380Y-56479761D01*
X96575000Y-56384523D01*
X96622619Y-56336904D01*
X96717857Y-56289285D01*
X96955952Y-56289285D01*
X97051190Y-56336904D01*
X97098809Y-56384523D01*
X97146428Y-56479761D01*
X97146428Y-56670238D01*
X97098809Y-56765476D01*
X97051190Y-56813095D01*
X96955952Y-56860714D01*
X99527380Y-56408333D02*
X99051190Y-56075000D01*
X99527380Y-55836904D02*
X98527380Y-55836904D01*
X98527380Y-56217857D01*
X98575000Y-56313095D01*
X98622619Y-56360714D01*
X98717857Y-56408333D01*
X98860714Y-56408333D01*
X98955952Y-56360714D01*
X99003571Y-56313095D01*
X99051190Y-56217857D01*
X99051190Y-55836904D01*
X98527380Y-57265476D02*
X98527380Y-57075000D01*
X98575000Y-56979761D01*
X98622619Y-56932142D01*
X98765476Y-56836904D01*
X98955952Y-56789285D01*
X99336904Y-56789285D01*
X99432142Y-56836904D01*
X99479761Y-56884523D01*
X99527380Y-56979761D01*
X99527380Y-57170238D01*
X99479761Y-57265476D01*
X99432142Y-57313095D01*
X99336904Y-57360714D01*
X99098809Y-57360714D01*
X99003571Y-57313095D01*
X98955952Y-57265476D01*
X98908333Y-57170238D01*
X98908333Y-56979761D01*
X98955952Y-56884523D01*
X99003571Y-56836904D01*
X99098809Y-56789285D01*
X101527380Y-56408333D02*
X101051190Y-56075000D01*
X101527380Y-55836904D02*
X100527380Y-55836904D01*
X100527380Y-56217857D01*
X100575000Y-56313095D01*
X100622619Y-56360714D01*
X100717857Y-56408333D01*
X100860714Y-56408333D01*
X100955952Y-56360714D01*
X101003571Y-56313095D01*
X101051190Y-56217857D01*
X101051190Y-55836904D01*
X100527380Y-57313095D02*
X100527380Y-56836904D01*
X101003571Y-56789285D01*
X100955952Y-56836904D01*
X100908333Y-56932142D01*
X100908333Y-57170238D01*
X100955952Y-57265476D01*
X101003571Y-57313095D01*
X101098809Y-57360714D01*
X101336904Y-57360714D01*
X101432142Y-57313095D01*
X101479761Y-57265476D01*
X101527380Y-57170238D01*
X101527380Y-56932142D01*
X101479761Y-56836904D01*
X101432142Y-56789285D01*
X103527380Y-56408333D02*
X103051190Y-56075000D01*
X103527380Y-55836904D02*
X102527380Y-55836904D01*
X102527380Y-56217857D01*
X102575000Y-56313095D01*
X102622619Y-56360714D01*
X102717857Y-56408333D01*
X102860714Y-56408333D01*
X102955952Y-56360714D01*
X103003571Y-56313095D01*
X103051190Y-56217857D01*
X103051190Y-55836904D01*
X102622619Y-56789285D02*
X102575000Y-56836904D01*
X102527380Y-56932142D01*
X102527380Y-57170238D01*
X102575000Y-57265476D01*
X102622619Y-57313095D01*
X102717857Y-57360714D01*
X102813095Y-57360714D01*
X102955952Y-57313095D01*
X103527380Y-56741666D01*
X103527380Y-57360714D01*
X102892857Y-68537142D02*
X102940476Y-68584761D01*
X103083333Y-68632380D01*
X103178571Y-68632380D01*
X103321428Y-68584761D01*
X103416666Y-68489523D01*
X103464285Y-68394285D01*
X103511904Y-68203809D01*
X103511904Y-68060952D01*
X103464285Y-67870476D01*
X103416666Y-67775238D01*
X103321428Y-67680000D01*
X103178571Y-67632380D01*
X103083333Y-67632380D01*
X102940476Y-67680000D01*
X102892857Y-67727619D01*
X102559523Y-67632380D02*
X101940476Y-67632380D01*
X102273809Y-68013333D01*
X102130952Y-68013333D01*
X102035714Y-68060952D01*
X101988095Y-68108571D01*
X101940476Y-68203809D01*
X101940476Y-68441904D01*
X101988095Y-68537142D01*
X102035714Y-68584761D01*
X102130952Y-68632380D01*
X102416666Y-68632380D01*
X102511904Y-68584761D01*
X102559523Y-68537142D01*
X101607142Y-67632380D02*
X100988095Y-67632380D01*
X101321428Y-68013333D01*
X101178571Y-68013333D01*
X101083333Y-68060952D01*
X101035714Y-68108571D01*
X100988095Y-68203809D01*
X100988095Y-68441904D01*
X101035714Y-68537142D01*
X101083333Y-68584761D01*
X101178571Y-68632380D01*
X101464285Y-68632380D01*
X101559523Y-68584761D01*
X101607142Y-68537142D01*
X108922857Y-63257142D02*
X108970476Y-63304761D01*
X109113333Y-63352380D01*
X109208571Y-63352380D01*
X109351428Y-63304761D01*
X109446666Y-63209523D01*
X109494285Y-63114285D01*
X109541904Y-62923809D01*
X109541904Y-62780952D01*
X109494285Y-62590476D01*
X109446666Y-62495238D01*
X109351428Y-62400000D01*
X109208571Y-62352380D01*
X109113333Y-62352380D01*
X108970476Y-62400000D01*
X108922857Y-62447619D01*
X107970476Y-63352380D02*
X108541904Y-63352380D01*
X108256190Y-63352380D02*
X108256190Y-62352380D01*
X108351428Y-62495238D01*
X108446666Y-62590476D01*
X108541904Y-62638095D01*
X107399047Y-62780952D02*
X107494285Y-62733333D01*
X107541904Y-62685714D01*
X107589523Y-62590476D01*
X107589523Y-62542857D01*
X107541904Y-62447619D01*
X107494285Y-62400000D01*
X107399047Y-62352380D01*
X107208571Y-62352380D01*
X107113333Y-62400000D01*
X107065714Y-62447619D01*
X107018095Y-62542857D01*
X107018095Y-62590476D01*
X107065714Y-62685714D01*
X107113333Y-62733333D01*
X107208571Y-62780952D01*
X107399047Y-62780952D01*
X107494285Y-62828571D01*
X107541904Y-62876190D01*
X107589523Y-62971428D01*
X107589523Y-63161904D01*
X107541904Y-63257142D01*
X107494285Y-63304761D01*
X107399047Y-63352380D01*
X107208571Y-63352380D01*
X107113333Y-63304761D01*
X107065714Y-63257142D01*
X107018095Y-63161904D01*
X107018095Y-62971428D01*
X107065714Y-62876190D01*
X107113333Y-62828571D01*
X107208571Y-62780952D01*
X101152857Y-72337142D02*
X101200476Y-72384761D01*
X101343333Y-72432380D01*
X101438571Y-72432380D01*
X101581428Y-72384761D01*
X101676666Y-72289523D01*
X101724285Y-72194285D01*
X101771904Y-72003809D01*
X101771904Y-71860952D01*
X101724285Y-71670476D01*
X101676666Y-71575238D01*
X101581428Y-71480000D01*
X101438571Y-71432380D01*
X101343333Y-71432380D01*
X101200476Y-71480000D01*
X101152857Y-71527619D01*
X100200476Y-72432380D02*
X100771904Y-72432380D01*
X100486190Y-72432380D02*
X100486190Y-71432380D01*
X100581428Y-71575238D01*
X100676666Y-71670476D01*
X100771904Y-71718095D01*
X99867142Y-71432380D02*
X99200476Y-71432380D01*
X99629047Y-72432380D01*
X104802380Y-96727142D02*
X104326190Y-96393809D01*
X104802380Y-96155714D02*
X103802380Y-96155714D01*
X103802380Y-96536666D01*
X103850000Y-96631904D01*
X103897619Y-96679523D01*
X103992857Y-96727142D01*
X104135714Y-96727142D01*
X104230952Y-96679523D01*
X104278571Y-96631904D01*
X104326190Y-96536666D01*
X104326190Y-96155714D01*
X104230952Y-97298571D02*
X104183333Y-97203333D01*
X104135714Y-97155714D01*
X104040476Y-97108095D01*
X103992857Y-97108095D01*
X103897619Y-97155714D01*
X103850000Y-97203333D01*
X103802380Y-97298571D01*
X103802380Y-97489047D01*
X103850000Y-97584285D01*
X103897619Y-97631904D01*
X103992857Y-97679523D01*
X104040476Y-97679523D01*
X104135714Y-97631904D01*
X104183333Y-97584285D01*
X104230952Y-97489047D01*
X104230952Y-97298571D01*
X104278571Y-97203333D01*
X104326190Y-97155714D01*
X104421428Y-97108095D01*
X104611904Y-97108095D01*
X104707142Y-97155714D01*
X104754761Y-97203333D01*
X104802380Y-97298571D01*
X104802380Y-97489047D01*
X104754761Y-97584285D01*
X104707142Y-97631904D01*
X104611904Y-97679523D01*
X104421428Y-97679523D01*
X104326190Y-97631904D01*
X104278571Y-97584285D01*
X104230952Y-97489047D01*
X104135714Y-98536666D02*
X104802380Y-98536666D01*
X103754761Y-98298571D02*
X104469047Y-98060476D01*
X104469047Y-98679523D01*
X127402857Y-30282380D02*
X127736190Y-29806190D01*
X127974285Y-30282380D02*
X127974285Y-29282380D01*
X127593333Y-29282380D01*
X127498095Y-29330000D01*
X127450476Y-29377619D01*
X127402857Y-29472857D01*
X127402857Y-29615714D01*
X127450476Y-29710952D01*
X127498095Y-29758571D01*
X127593333Y-29806190D01*
X127974285Y-29806190D01*
X127021904Y-29377619D02*
X126974285Y-29330000D01*
X126879047Y-29282380D01*
X126640952Y-29282380D01*
X126545714Y-29330000D01*
X126498095Y-29377619D01*
X126450476Y-29472857D01*
X126450476Y-29568095D01*
X126498095Y-29710952D01*
X127069523Y-30282380D01*
X126450476Y-30282380D01*
X126117142Y-29282380D02*
X125450476Y-29282380D01*
X125879047Y-30282380D01*
X111002380Y-96837142D02*
X110526190Y-96503809D01*
X111002380Y-96265714D02*
X110002380Y-96265714D01*
X110002380Y-96646666D01*
X110050000Y-96741904D01*
X110097619Y-96789523D01*
X110192857Y-96837142D01*
X110335714Y-96837142D01*
X110430952Y-96789523D01*
X110478571Y-96741904D01*
X110526190Y-96646666D01*
X110526190Y-96265714D01*
X110430952Y-97408571D02*
X110383333Y-97313333D01*
X110335714Y-97265714D01*
X110240476Y-97218095D01*
X110192857Y-97218095D01*
X110097619Y-97265714D01*
X110050000Y-97313333D01*
X110002380Y-97408571D01*
X110002380Y-97599047D01*
X110050000Y-97694285D01*
X110097619Y-97741904D01*
X110192857Y-97789523D01*
X110240476Y-97789523D01*
X110335714Y-97741904D01*
X110383333Y-97694285D01*
X110430952Y-97599047D01*
X110430952Y-97408571D01*
X110478571Y-97313333D01*
X110526190Y-97265714D01*
X110621428Y-97218095D01*
X110811904Y-97218095D01*
X110907142Y-97265714D01*
X110954761Y-97313333D01*
X111002380Y-97408571D01*
X111002380Y-97599047D01*
X110954761Y-97694285D01*
X110907142Y-97741904D01*
X110811904Y-97789523D01*
X110621428Y-97789523D01*
X110526190Y-97741904D01*
X110478571Y-97694285D01*
X110430952Y-97599047D01*
X110002380Y-98694285D02*
X110002380Y-98218095D01*
X110478571Y-98170476D01*
X110430952Y-98218095D01*
X110383333Y-98313333D01*
X110383333Y-98551428D01*
X110430952Y-98646666D01*
X110478571Y-98694285D01*
X110573809Y-98741904D01*
X110811904Y-98741904D01*
X110907142Y-98694285D01*
X110954761Y-98646666D01*
X111002380Y-98551428D01*
X111002380Y-98313333D01*
X110954761Y-98218095D01*
X110907142Y-98170476D01*
X79867857Y-123039142D02*
X79915476Y-123086761D01*
X80058333Y-123134380D01*
X80153571Y-123134380D01*
X80296428Y-123086761D01*
X80391666Y-122991523D01*
X80439285Y-122896285D01*
X80486904Y-122705809D01*
X80486904Y-122562952D01*
X80439285Y-122372476D01*
X80391666Y-122277238D01*
X80296428Y-122182000D01*
X80153571Y-122134380D01*
X80058333Y-122134380D01*
X79915476Y-122182000D01*
X79867857Y-122229619D01*
X79010714Y-122134380D02*
X79201190Y-122134380D01*
X79296428Y-122182000D01*
X79344047Y-122229619D01*
X79439285Y-122372476D01*
X79486904Y-122562952D01*
X79486904Y-122943904D01*
X79439285Y-123039142D01*
X79391666Y-123086761D01*
X79296428Y-123134380D01*
X79105952Y-123134380D01*
X79010714Y-123086761D01*
X78963095Y-123039142D01*
X78915476Y-122943904D01*
X78915476Y-122705809D01*
X78963095Y-122610571D01*
X79010714Y-122562952D01*
X79105952Y-122515333D01*
X79296428Y-122515333D01*
X79391666Y-122562952D01*
X79439285Y-122610571D01*
X79486904Y-122705809D01*
X78344047Y-122562952D02*
X78439285Y-122515333D01*
X78486904Y-122467714D01*
X78534523Y-122372476D01*
X78534523Y-122324857D01*
X78486904Y-122229619D01*
X78439285Y-122182000D01*
X78344047Y-122134380D01*
X78153571Y-122134380D01*
X78058333Y-122182000D01*
X78010714Y-122229619D01*
X77963095Y-122324857D01*
X77963095Y-122372476D01*
X78010714Y-122467714D01*
X78058333Y-122515333D01*
X78153571Y-122562952D01*
X78344047Y-122562952D01*
X78439285Y-122610571D01*
X78486904Y-122658190D01*
X78534523Y-122753428D01*
X78534523Y-122943904D01*
X78486904Y-123039142D01*
X78439285Y-123086761D01*
X78344047Y-123134380D01*
X78153571Y-123134380D01*
X78058333Y-123086761D01*
X78010714Y-123039142D01*
X77963095Y-122943904D01*
X77963095Y-122753428D01*
X78010714Y-122658190D01*
X78058333Y-122610571D01*
X78153571Y-122562952D01*
X124412857Y-98512380D02*
X124746190Y-98036190D01*
X124984285Y-98512380D02*
X124984285Y-97512380D01*
X124603333Y-97512380D01*
X124508095Y-97560000D01*
X124460476Y-97607619D01*
X124412857Y-97702857D01*
X124412857Y-97845714D01*
X124460476Y-97940952D01*
X124508095Y-97988571D01*
X124603333Y-98036190D01*
X124984285Y-98036190D01*
X124079523Y-97512380D02*
X123412857Y-97512380D01*
X123841428Y-98512380D01*
X122603333Y-97512380D02*
X122793809Y-97512380D01*
X122889047Y-97560000D01*
X122936666Y-97607619D01*
X123031904Y-97750476D01*
X123079523Y-97940952D01*
X123079523Y-98321904D01*
X123031904Y-98417142D01*
X122984285Y-98464761D01*
X122889047Y-98512380D01*
X122698571Y-98512380D01*
X122603333Y-98464761D01*
X122555714Y-98417142D01*
X122508095Y-98321904D01*
X122508095Y-98083809D01*
X122555714Y-97988571D01*
X122603333Y-97940952D01*
X122698571Y-97893333D01*
X122889047Y-97893333D01*
X122984285Y-97940952D01*
X123031904Y-97988571D01*
X123079523Y-98083809D01*
X127292857Y-32172380D02*
X127626190Y-31696190D01*
X127864285Y-32172380D02*
X127864285Y-31172380D01*
X127483333Y-31172380D01*
X127388095Y-31220000D01*
X127340476Y-31267619D01*
X127292857Y-31362857D01*
X127292857Y-31505714D01*
X127340476Y-31600952D01*
X127388095Y-31648571D01*
X127483333Y-31696190D01*
X127864285Y-31696190D01*
X126911904Y-31267619D02*
X126864285Y-31220000D01*
X126769047Y-31172380D01*
X126530952Y-31172380D01*
X126435714Y-31220000D01*
X126388095Y-31267619D01*
X126340476Y-31362857D01*
X126340476Y-31458095D01*
X126388095Y-31600952D01*
X126959523Y-32172380D01*
X126340476Y-32172380D01*
X125483333Y-31505714D02*
X125483333Y-32172380D01*
X125721428Y-31124761D02*
X125959523Y-31839047D01*
X125340476Y-31839047D01*
X124462857Y-95162380D02*
X124796190Y-94686190D01*
X125034285Y-95162380D02*
X125034285Y-94162380D01*
X124653333Y-94162380D01*
X124558095Y-94210000D01*
X124510476Y-94257619D01*
X124462857Y-94352857D01*
X124462857Y-94495714D01*
X124510476Y-94590952D01*
X124558095Y-94638571D01*
X124653333Y-94686190D01*
X125034285Y-94686190D01*
X124129523Y-94162380D02*
X123462857Y-94162380D01*
X123891428Y-95162380D01*
X122939047Y-94590952D02*
X123034285Y-94543333D01*
X123081904Y-94495714D01*
X123129523Y-94400476D01*
X123129523Y-94352857D01*
X123081904Y-94257619D01*
X123034285Y-94210000D01*
X122939047Y-94162380D01*
X122748571Y-94162380D01*
X122653333Y-94210000D01*
X122605714Y-94257619D01*
X122558095Y-94352857D01*
X122558095Y-94400476D01*
X122605714Y-94495714D01*
X122653333Y-94543333D01*
X122748571Y-94590952D01*
X122939047Y-94590952D01*
X123034285Y-94638571D01*
X123081904Y-94686190D01*
X123129523Y-94781428D01*
X123129523Y-94971904D01*
X123081904Y-95067142D01*
X123034285Y-95114761D01*
X122939047Y-95162380D01*
X122748571Y-95162380D01*
X122653333Y-95114761D01*
X122605714Y-95067142D01*
X122558095Y-94971904D01*
X122558095Y-94781428D01*
X122605714Y-94686190D01*
X122653333Y-94638571D01*
X122748571Y-94590952D01*
X108472380Y-85067142D02*
X107996190Y-84733809D01*
X108472380Y-84495714D02*
X107472380Y-84495714D01*
X107472380Y-84876666D01*
X107520000Y-84971904D01*
X107567619Y-85019523D01*
X107662857Y-85067142D01*
X107805714Y-85067142D01*
X107900952Y-85019523D01*
X107948571Y-84971904D01*
X107996190Y-84876666D01*
X107996190Y-84495714D01*
X107472380Y-85400476D02*
X107472380Y-86067142D01*
X108472380Y-85638571D01*
X107567619Y-86400476D02*
X107520000Y-86448095D01*
X107472380Y-86543333D01*
X107472380Y-86781428D01*
X107520000Y-86876666D01*
X107567619Y-86924285D01*
X107662857Y-86971904D01*
X107758095Y-86971904D01*
X107900952Y-86924285D01*
X108472380Y-86352857D01*
X108472380Y-86971904D01*
X113922857Y-34387142D02*
X113970476Y-34434761D01*
X114113333Y-34482380D01*
X114208571Y-34482380D01*
X114351428Y-34434761D01*
X114446666Y-34339523D01*
X114494285Y-34244285D01*
X114541904Y-34053809D01*
X114541904Y-33910952D01*
X114494285Y-33720476D01*
X114446666Y-33625238D01*
X114351428Y-33530000D01*
X114208571Y-33482380D01*
X114113333Y-33482380D01*
X113970476Y-33530000D01*
X113922857Y-33577619D01*
X113589523Y-33482380D02*
X112970476Y-33482380D01*
X113303809Y-33863333D01*
X113160952Y-33863333D01*
X113065714Y-33910952D01*
X113018095Y-33958571D01*
X112970476Y-34053809D01*
X112970476Y-34291904D01*
X113018095Y-34387142D01*
X113065714Y-34434761D01*
X113160952Y-34482380D01*
X113446666Y-34482380D01*
X113541904Y-34434761D01*
X113589523Y-34387142D01*
X112494285Y-34482380D02*
X112303809Y-34482380D01*
X112208571Y-34434761D01*
X112160952Y-34387142D01*
X112065714Y-34244285D01*
X112018095Y-34053809D01*
X112018095Y-33672857D01*
X112065714Y-33577619D01*
X112113333Y-33530000D01*
X112208571Y-33482380D01*
X112399047Y-33482380D01*
X112494285Y-33530000D01*
X112541904Y-33577619D01*
X112589523Y-33672857D01*
X112589523Y-33910952D01*
X112541904Y-34006190D01*
X112494285Y-34053809D01*
X112399047Y-34101428D01*
X112208571Y-34101428D01*
X112113333Y-34053809D01*
X112065714Y-34006190D01*
X112018095Y-33910952D01*
X106472380Y-85137142D02*
X105996190Y-84803809D01*
X106472380Y-84565714D02*
X105472380Y-84565714D01*
X105472380Y-84946666D01*
X105520000Y-85041904D01*
X105567619Y-85089523D01*
X105662857Y-85137142D01*
X105805714Y-85137142D01*
X105900952Y-85089523D01*
X105948571Y-85041904D01*
X105996190Y-84946666D01*
X105996190Y-84565714D01*
X105472380Y-85470476D02*
X105472380Y-86137142D01*
X106472380Y-85708571D01*
X106472380Y-87041904D02*
X106472380Y-86470476D01*
X106472380Y-86756190D02*
X105472380Y-86756190D01*
X105615238Y-86660952D01*
X105710476Y-86565714D01*
X105758095Y-86470476D01*
X117232857Y-94452380D02*
X117566190Y-93976190D01*
X117804285Y-94452380D02*
X117804285Y-93452380D01*
X117423333Y-93452380D01*
X117328095Y-93500000D01*
X117280476Y-93547619D01*
X117232857Y-93642857D01*
X117232857Y-93785714D01*
X117280476Y-93880952D01*
X117328095Y-93928571D01*
X117423333Y-93976190D01*
X117804285Y-93976190D01*
X116899523Y-93452380D02*
X116232857Y-93452380D01*
X116661428Y-94452380D01*
X115804285Y-94452380D02*
X115613809Y-94452380D01*
X115518571Y-94404761D01*
X115470952Y-94357142D01*
X115375714Y-94214285D01*
X115328095Y-94023809D01*
X115328095Y-93642857D01*
X115375714Y-93547619D01*
X115423333Y-93500000D01*
X115518571Y-93452380D01*
X115709047Y-93452380D01*
X115804285Y-93500000D01*
X115851904Y-93547619D01*
X115899523Y-93642857D01*
X115899523Y-93880952D01*
X115851904Y-93976190D01*
X115804285Y-94023809D01*
X115709047Y-94071428D01*
X115518571Y-94071428D01*
X115423333Y-94023809D01*
X115375714Y-93976190D01*
X115328095Y-93880952D01*
X95942857Y-120532380D02*
X96276190Y-120056190D01*
X96514285Y-120532380D02*
X96514285Y-119532380D01*
X96133333Y-119532380D01*
X96038095Y-119580000D01*
X95990476Y-119627619D01*
X95942857Y-119722857D01*
X95942857Y-119865714D01*
X95990476Y-119960952D01*
X96038095Y-120008571D01*
X96133333Y-120056190D01*
X96514285Y-120056190D01*
X95085714Y-119532380D02*
X95276190Y-119532380D01*
X95371428Y-119580000D01*
X95419047Y-119627619D01*
X95514285Y-119770476D01*
X95561904Y-119960952D01*
X95561904Y-120341904D01*
X95514285Y-120437142D01*
X95466666Y-120484761D01*
X95371428Y-120532380D01*
X95180952Y-120532380D01*
X95085714Y-120484761D01*
X95038095Y-120437142D01*
X94990476Y-120341904D01*
X94990476Y-120103809D01*
X95038095Y-120008571D01*
X95085714Y-119960952D01*
X95180952Y-119913333D01*
X95371428Y-119913333D01*
X95466666Y-119960952D01*
X95514285Y-120008571D01*
X95561904Y-120103809D01*
X94133333Y-119865714D02*
X94133333Y-120532380D01*
X94371428Y-119484761D02*
X94609523Y-120199047D01*
X93990476Y-120199047D01*
X98842857Y-115492380D02*
X99176190Y-115016190D01*
X99414285Y-115492380D02*
X99414285Y-114492380D01*
X99033333Y-114492380D01*
X98938095Y-114540000D01*
X98890476Y-114587619D01*
X98842857Y-114682857D01*
X98842857Y-114825714D01*
X98890476Y-114920952D01*
X98938095Y-114968571D01*
X99033333Y-115016190D01*
X99414285Y-115016190D01*
X97985714Y-114492380D02*
X98176190Y-114492380D01*
X98271428Y-114540000D01*
X98319047Y-114587619D01*
X98414285Y-114730476D01*
X98461904Y-114920952D01*
X98461904Y-115301904D01*
X98414285Y-115397142D01*
X98366666Y-115444761D01*
X98271428Y-115492380D01*
X98080952Y-115492380D01*
X97985714Y-115444761D01*
X97938095Y-115397142D01*
X97890476Y-115301904D01*
X97890476Y-115063809D01*
X97938095Y-114968571D01*
X97985714Y-114920952D01*
X98080952Y-114873333D01*
X98271428Y-114873333D01*
X98366666Y-114920952D01*
X98414285Y-114968571D01*
X98461904Y-115063809D01*
X97557142Y-114492380D02*
X96938095Y-114492380D01*
X97271428Y-114873333D01*
X97128571Y-114873333D01*
X97033333Y-114920952D01*
X96985714Y-114968571D01*
X96938095Y-115063809D01*
X96938095Y-115301904D01*
X96985714Y-115397142D01*
X97033333Y-115444761D01*
X97128571Y-115492380D01*
X97414285Y-115492380D01*
X97509523Y-115444761D01*
X97557142Y-115397142D01*
X76588857Y-129484380D02*
X76922190Y-129008190D01*
X77160285Y-129484380D02*
X77160285Y-128484380D01*
X76779333Y-128484380D01*
X76684095Y-128532000D01*
X76636476Y-128579619D01*
X76588857Y-128674857D01*
X76588857Y-128817714D01*
X76636476Y-128912952D01*
X76684095Y-128960571D01*
X76779333Y-129008190D01*
X77160285Y-129008190D01*
X76112666Y-129484380D02*
X75922190Y-129484380D01*
X75826952Y-129436761D01*
X75779333Y-129389142D01*
X75684095Y-129246285D01*
X75636476Y-129055809D01*
X75636476Y-128674857D01*
X75684095Y-128579619D01*
X75731714Y-128532000D01*
X75826952Y-128484380D01*
X76017428Y-128484380D01*
X76112666Y-128532000D01*
X76160285Y-128579619D01*
X76207904Y-128674857D01*
X76207904Y-128912952D01*
X76160285Y-129008190D01*
X76112666Y-129055809D01*
X76017428Y-129103428D01*
X75826952Y-129103428D01*
X75731714Y-129055809D01*
X75684095Y-129008190D01*
X75636476Y-128912952D01*
X74684095Y-129484380D02*
X75255523Y-129484380D01*
X74969809Y-129484380D02*
X74969809Y-128484380D01*
X75065047Y-128627238D01*
X75160285Y-128722476D01*
X75255523Y-128770095D01*
X110432380Y-91107142D02*
X109956190Y-90773809D01*
X110432380Y-90535714D02*
X109432380Y-90535714D01*
X109432380Y-90916666D01*
X109480000Y-91011904D01*
X109527619Y-91059523D01*
X109622857Y-91107142D01*
X109765714Y-91107142D01*
X109860952Y-91059523D01*
X109908571Y-91011904D01*
X109956190Y-90916666D01*
X109956190Y-90535714D01*
X109432380Y-91440476D02*
X109432380Y-92107142D01*
X110432380Y-91678571D01*
X109432380Y-92678571D02*
X109432380Y-92773809D01*
X109480000Y-92869047D01*
X109527619Y-92916666D01*
X109622857Y-92964285D01*
X109813333Y-93011904D01*
X110051428Y-93011904D01*
X110241904Y-92964285D01*
X110337142Y-92916666D01*
X110384761Y-92869047D01*
X110432380Y-92773809D01*
X110432380Y-92678571D01*
X110384761Y-92583333D01*
X110337142Y-92535714D01*
X110241904Y-92488095D01*
X110051428Y-92440476D01*
X109813333Y-92440476D01*
X109622857Y-92488095D01*
X109527619Y-92535714D01*
X109480000Y-92583333D01*
X109432380Y-92678571D01*
X115432857Y-28342380D02*
X115766190Y-27866190D01*
X116004285Y-28342380D02*
X116004285Y-27342380D01*
X115623333Y-27342380D01*
X115528095Y-27390000D01*
X115480476Y-27437619D01*
X115432857Y-27532857D01*
X115432857Y-27675714D01*
X115480476Y-27770952D01*
X115528095Y-27818571D01*
X115623333Y-27866190D01*
X116004285Y-27866190D01*
X115099523Y-27342380D02*
X114480476Y-27342380D01*
X114813809Y-27723333D01*
X114670952Y-27723333D01*
X114575714Y-27770952D01*
X114528095Y-27818571D01*
X114480476Y-27913809D01*
X114480476Y-28151904D01*
X114528095Y-28247142D01*
X114575714Y-28294761D01*
X114670952Y-28342380D01*
X114956666Y-28342380D01*
X115051904Y-28294761D01*
X115099523Y-28247142D01*
X114099523Y-27437619D02*
X114051904Y-27390000D01*
X113956666Y-27342380D01*
X113718571Y-27342380D01*
X113623333Y-27390000D01*
X113575714Y-27437619D01*
X113528095Y-27532857D01*
X113528095Y-27628095D01*
X113575714Y-27770952D01*
X114147142Y-28342380D01*
X113528095Y-28342380D01*
X129542857Y-86782380D02*
X129876190Y-86306190D01*
X130114285Y-86782380D02*
X130114285Y-85782380D01*
X129733333Y-85782380D01*
X129638095Y-85830000D01*
X129590476Y-85877619D01*
X129542857Y-85972857D01*
X129542857Y-86115714D01*
X129590476Y-86210952D01*
X129638095Y-86258571D01*
X129733333Y-86306190D01*
X130114285Y-86306190D01*
X128638095Y-85782380D02*
X129114285Y-85782380D01*
X129161904Y-86258571D01*
X129114285Y-86210952D01*
X129019047Y-86163333D01*
X128780952Y-86163333D01*
X128685714Y-86210952D01*
X128638095Y-86258571D01*
X128590476Y-86353809D01*
X128590476Y-86591904D01*
X128638095Y-86687142D01*
X128685714Y-86734761D01*
X128780952Y-86782380D01*
X129019047Y-86782380D01*
X129114285Y-86734761D01*
X129161904Y-86687142D01*
X127971428Y-85782380D02*
X127876190Y-85782380D01*
X127780952Y-85830000D01*
X127733333Y-85877619D01*
X127685714Y-85972857D01*
X127638095Y-86163333D01*
X127638095Y-86401428D01*
X127685714Y-86591904D01*
X127733333Y-86687142D01*
X127780952Y-86734761D01*
X127876190Y-86782380D01*
X127971428Y-86782380D01*
X128066666Y-86734761D01*
X128114285Y-86687142D01*
X128161904Y-86591904D01*
X128209523Y-86401428D01*
X128209523Y-86163333D01*
X128161904Y-85972857D01*
X128114285Y-85877619D01*
X128066666Y-85830000D01*
X127971428Y-85782380D01*
X123242380Y-91127142D02*
X122766190Y-90793809D01*
X123242380Y-90555714D02*
X122242380Y-90555714D01*
X122242380Y-90936666D01*
X122290000Y-91031904D01*
X122337619Y-91079523D01*
X122432857Y-91127142D01*
X122575714Y-91127142D01*
X122670952Y-91079523D01*
X122718571Y-91031904D01*
X122766190Y-90936666D01*
X122766190Y-90555714D01*
X122575714Y-91984285D02*
X123242380Y-91984285D01*
X122194761Y-91746190D02*
X122909047Y-91508095D01*
X122909047Y-92127142D01*
X123242380Y-92555714D02*
X123242380Y-92746190D01*
X123194761Y-92841428D01*
X123147142Y-92889047D01*
X123004285Y-92984285D01*
X122813809Y-93031904D01*
X122432857Y-93031904D01*
X122337619Y-92984285D01*
X122290000Y-92936666D01*
X122242380Y-92841428D01*
X122242380Y-92650952D01*
X122290000Y-92555714D01*
X122337619Y-92508095D01*
X122432857Y-92460476D01*
X122670952Y-92460476D01*
X122766190Y-92508095D01*
X122813809Y-92555714D01*
X122861428Y-92650952D01*
X122861428Y-92841428D01*
X122813809Y-92936666D01*
X122766190Y-92984285D01*
X122670952Y-93031904D01*
X132632857Y-81302380D02*
X132966190Y-80826190D01*
X133204285Y-81302380D02*
X133204285Y-80302380D01*
X132823333Y-80302380D01*
X132728095Y-80350000D01*
X132680476Y-80397619D01*
X132632857Y-80492857D01*
X132632857Y-80635714D01*
X132680476Y-80730952D01*
X132728095Y-80778571D01*
X132823333Y-80826190D01*
X133204285Y-80826190D01*
X131775714Y-80635714D02*
X131775714Y-81302380D01*
X132013809Y-80254761D02*
X132251904Y-80969047D01*
X131632857Y-80969047D01*
X131347142Y-80302380D02*
X130680476Y-80302380D01*
X131109047Y-81302380D01*
X132627380Y-88089642D02*
X132151190Y-87756309D01*
X132627380Y-87518214D02*
X131627380Y-87518214D01*
X131627380Y-87899166D01*
X131675000Y-87994404D01*
X131722619Y-88042023D01*
X131817857Y-88089642D01*
X131960714Y-88089642D01*
X132055952Y-88042023D01*
X132103571Y-87994404D01*
X132151190Y-87899166D01*
X132151190Y-87518214D01*
X131960714Y-88946785D02*
X132627380Y-88946785D01*
X131579761Y-88708690D02*
X132294047Y-88470595D01*
X132294047Y-89089642D01*
X131960714Y-89899166D02*
X132627380Y-89899166D01*
X131579761Y-89661071D02*
X132294047Y-89422976D01*
X132294047Y-90042023D01*
X129042380Y-91327142D02*
X128566190Y-90993809D01*
X129042380Y-90755714D02*
X128042380Y-90755714D01*
X128042380Y-91136666D01*
X128090000Y-91231904D01*
X128137619Y-91279523D01*
X128232857Y-91327142D01*
X128375714Y-91327142D01*
X128470952Y-91279523D01*
X128518571Y-91231904D01*
X128566190Y-91136666D01*
X128566190Y-90755714D01*
X128375714Y-92184285D02*
X129042380Y-92184285D01*
X127994761Y-91946190D02*
X128709047Y-91708095D01*
X128709047Y-92327142D01*
X128042380Y-92612857D02*
X128042380Y-93231904D01*
X128423333Y-92898571D01*
X128423333Y-93041428D01*
X128470952Y-93136666D01*
X128518571Y-93184285D01*
X128613809Y-93231904D01*
X128851904Y-93231904D01*
X128947142Y-93184285D01*
X128994761Y-93136666D01*
X129042380Y-93041428D01*
X129042380Y-92755714D01*
X128994761Y-92660476D01*
X128947142Y-92612857D01*
X111062857Y-28512380D02*
X111396190Y-28036190D01*
X111634285Y-28512380D02*
X111634285Y-27512380D01*
X111253333Y-27512380D01*
X111158095Y-27560000D01*
X111110476Y-27607619D01*
X111062857Y-27702857D01*
X111062857Y-27845714D01*
X111110476Y-27940952D01*
X111158095Y-27988571D01*
X111253333Y-28036190D01*
X111634285Y-28036190D01*
X110681904Y-27607619D02*
X110634285Y-27560000D01*
X110539047Y-27512380D01*
X110300952Y-27512380D01*
X110205714Y-27560000D01*
X110158095Y-27607619D01*
X110110476Y-27702857D01*
X110110476Y-27798095D01*
X110158095Y-27940952D01*
X110729523Y-28512380D01*
X110110476Y-28512380D01*
X109491428Y-27512380D02*
X109396190Y-27512380D01*
X109300952Y-27560000D01*
X109253333Y-27607619D01*
X109205714Y-27702857D01*
X109158095Y-27893333D01*
X109158095Y-28131428D01*
X109205714Y-28321904D01*
X109253333Y-28417142D01*
X109300952Y-28464761D01*
X109396190Y-28512380D01*
X109491428Y-28512380D01*
X109586666Y-28464761D01*
X109634285Y-28417142D01*
X109681904Y-28321904D01*
X109729523Y-28131428D01*
X109729523Y-27893333D01*
X109681904Y-27702857D01*
X109634285Y-27607619D01*
X109586666Y-27560000D01*
X109491428Y-27512380D01*
X70238857Y-116530380D02*
X70572190Y-116054190D01*
X70810285Y-116530380D02*
X70810285Y-115530380D01*
X70429333Y-115530380D01*
X70334095Y-115578000D01*
X70286476Y-115625619D01*
X70238857Y-115720857D01*
X70238857Y-115863714D01*
X70286476Y-115958952D01*
X70334095Y-116006571D01*
X70429333Y-116054190D01*
X70810285Y-116054190D01*
X69286476Y-116530380D02*
X69857904Y-116530380D01*
X69572190Y-116530380D02*
X69572190Y-115530380D01*
X69667428Y-115673238D01*
X69762666Y-115768476D01*
X69857904Y-115816095D01*
X68715047Y-115958952D02*
X68810285Y-115911333D01*
X68857904Y-115863714D01*
X68905523Y-115768476D01*
X68905523Y-115720857D01*
X68857904Y-115625619D01*
X68810285Y-115578000D01*
X68715047Y-115530380D01*
X68524571Y-115530380D01*
X68429333Y-115578000D01*
X68381714Y-115625619D01*
X68334095Y-115720857D01*
X68334095Y-115768476D01*
X68381714Y-115863714D01*
X68429333Y-115911333D01*
X68524571Y-115958952D01*
X68715047Y-115958952D01*
X68810285Y-116006571D01*
X68857904Y-116054190D01*
X68905523Y-116149428D01*
X68905523Y-116339904D01*
X68857904Y-116435142D01*
X68810285Y-116482761D01*
X68715047Y-116530380D01*
X68524571Y-116530380D01*
X68429333Y-116482761D01*
X68381714Y-116435142D01*
X68334095Y-116339904D01*
X68334095Y-116149428D01*
X68381714Y-116054190D01*
X68429333Y-116006571D01*
X68524571Y-115958952D01*
X117242857Y-31357142D02*
X117290476Y-31404761D01*
X117433333Y-31452380D01*
X117528571Y-31452380D01*
X117671428Y-31404761D01*
X117766666Y-31309523D01*
X117814285Y-31214285D01*
X117861904Y-31023809D01*
X117861904Y-30880952D01*
X117814285Y-30690476D01*
X117766666Y-30595238D01*
X117671428Y-30500000D01*
X117528571Y-30452380D01*
X117433333Y-30452380D01*
X117290476Y-30500000D01*
X117242857Y-30547619D01*
X116385714Y-30785714D02*
X116385714Y-31452380D01*
X116623809Y-30404761D02*
X116861904Y-31119047D01*
X116242857Y-31119047D01*
X115338095Y-31452380D02*
X115909523Y-31452380D01*
X115623809Y-31452380D02*
X115623809Y-30452380D01*
X115719047Y-30595238D01*
X115814285Y-30690476D01*
X115909523Y-30738095D01*
X101282857Y-107137142D02*
X101330476Y-107184761D01*
X101473333Y-107232380D01*
X101568571Y-107232380D01*
X101711428Y-107184761D01*
X101806666Y-107089523D01*
X101854285Y-106994285D01*
X101901904Y-106803809D01*
X101901904Y-106660952D01*
X101854285Y-106470476D01*
X101806666Y-106375238D01*
X101711428Y-106280000D01*
X101568571Y-106232380D01*
X101473333Y-106232380D01*
X101330476Y-106280000D01*
X101282857Y-106327619D01*
X100425714Y-106232380D02*
X100616190Y-106232380D01*
X100711428Y-106280000D01*
X100759047Y-106327619D01*
X100854285Y-106470476D01*
X100901904Y-106660952D01*
X100901904Y-107041904D01*
X100854285Y-107137142D01*
X100806666Y-107184761D01*
X100711428Y-107232380D01*
X100520952Y-107232380D01*
X100425714Y-107184761D01*
X100378095Y-107137142D01*
X100330476Y-107041904D01*
X100330476Y-106803809D01*
X100378095Y-106708571D01*
X100425714Y-106660952D01*
X100520952Y-106613333D01*
X100711428Y-106613333D01*
X100806666Y-106660952D01*
X100854285Y-106708571D01*
X100901904Y-106803809D01*
X99949523Y-106327619D02*
X99901904Y-106280000D01*
X99806666Y-106232380D01*
X99568571Y-106232380D01*
X99473333Y-106280000D01*
X99425714Y-106327619D01*
X99378095Y-106422857D01*
X99378095Y-106518095D01*
X99425714Y-106660952D01*
X99997142Y-107232380D01*
X99378095Y-107232380D01*
X122937142Y-84447142D02*
X122984761Y-84399523D01*
X123032380Y-84256666D01*
X123032380Y-84161428D01*
X122984761Y-84018571D01*
X122889523Y-83923333D01*
X122794285Y-83875714D01*
X122603809Y-83828095D01*
X122460952Y-83828095D01*
X122270476Y-83875714D01*
X122175238Y-83923333D01*
X122080000Y-84018571D01*
X122032380Y-84161428D01*
X122032380Y-84256666D01*
X122080000Y-84399523D01*
X122127619Y-84447142D01*
X122365714Y-85304285D02*
X123032380Y-85304285D01*
X121984761Y-85066190D02*
X122699047Y-84828095D01*
X122699047Y-85447142D01*
X123032380Y-85875714D02*
X123032380Y-86066190D01*
X122984761Y-86161428D01*
X122937142Y-86209047D01*
X122794285Y-86304285D01*
X122603809Y-86351904D01*
X122222857Y-86351904D01*
X122127619Y-86304285D01*
X122080000Y-86256666D01*
X122032380Y-86161428D01*
X122032380Y-85970952D01*
X122080000Y-85875714D01*
X122127619Y-85828095D01*
X122222857Y-85780476D01*
X122460952Y-85780476D01*
X122556190Y-85828095D01*
X122603809Y-85875714D01*
X122651428Y-85970952D01*
X122651428Y-86161428D01*
X122603809Y-86256666D01*
X122556190Y-86304285D01*
X122460952Y-86351904D01*
X120922857Y-91507142D02*
X120970476Y-91554761D01*
X121113333Y-91602380D01*
X121208571Y-91602380D01*
X121351428Y-91554761D01*
X121446666Y-91459523D01*
X121494285Y-91364285D01*
X121541904Y-91173809D01*
X121541904Y-91030952D01*
X121494285Y-90840476D01*
X121446666Y-90745238D01*
X121351428Y-90650000D01*
X121208571Y-90602380D01*
X121113333Y-90602380D01*
X120970476Y-90650000D01*
X120922857Y-90697619D01*
X120065714Y-90935714D02*
X120065714Y-91602380D01*
X120303809Y-90554761D02*
X120541904Y-91269047D01*
X119922857Y-91269047D01*
X119399047Y-91030952D02*
X119494285Y-90983333D01*
X119541904Y-90935714D01*
X119589523Y-90840476D01*
X119589523Y-90792857D01*
X119541904Y-90697619D01*
X119494285Y-90650000D01*
X119399047Y-90602380D01*
X119208571Y-90602380D01*
X119113333Y-90650000D01*
X119065714Y-90697619D01*
X119018095Y-90792857D01*
X119018095Y-90840476D01*
X119065714Y-90935714D01*
X119113333Y-90983333D01*
X119208571Y-91030952D01*
X119399047Y-91030952D01*
X119494285Y-91078571D01*
X119541904Y-91126190D01*
X119589523Y-91221428D01*
X119589523Y-91411904D01*
X119541904Y-91507142D01*
X119494285Y-91554761D01*
X119399047Y-91602380D01*
X119208571Y-91602380D01*
X119113333Y-91554761D01*
X119065714Y-91507142D01*
X119018095Y-91411904D01*
X119018095Y-91221428D01*
X119065714Y-91126190D01*
X119113333Y-91078571D01*
X119208571Y-91030952D01*
X135002857Y-83917142D02*
X135050476Y-83964761D01*
X135193333Y-84012380D01*
X135288571Y-84012380D01*
X135431428Y-83964761D01*
X135526666Y-83869523D01*
X135574285Y-83774285D01*
X135621904Y-83583809D01*
X135621904Y-83440952D01*
X135574285Y-83250476D01*
X135526666Y-83155238D01*
X135431428Y-83060000D01*
X135288571Y-83012380D01*
X135193333Y-83012380D01*
X135050476Y-83060000D01*
X135002857Y-83107619D01*
X134145714Y-83345714D02*
X134145714Y-84012380D01*
X134383809Y-82964761D02*
X134621904Y-83679047D01*
X134002857Y-83679047D01*
X133193333Y-83345714D02*
X133193333Y-84012380D01*
X133431428Y-82964761D02*
X133669523Y-83679047D01*
X133050476Y-83679047D01*
X129312857Y-79217142D02*
X129360476Y-79264761D01*
X129503333Y-79312380D01*
X129598571Y-79312380D01*
X129741428Y-79264761D01*
X129836666Y-79169523D01*
X129884285Y-79074285D01*
X129931904Y-78883809D01*
X129931904Y-78740952D01*
X129884285Y-78550476D01*
X129836666Y-78455238D01*
X129741428Y-78360000D01*
X129598571Y-78312380D01*
X129503333Y-78312380D01*
X129360476Y-78360000D01*
X129312857Y-78407619D01*
X128455714Y-78645714D02*
X128455714Y-79312380D01*
X128693809Y-78264761D02*
X128931904Y-78979047D01*
X128312857Y-78979047D01*
X127979523Y-78407619D02*
X127931904Y-78360000D01*
X127836666Y-78312380D01*
X127598571Y-78312380D01*
X127503333Y-78360000D01*
X127455714Y-78407619D01*
X127408095Y-78502857D01*
X127408095Y-78598095D01*
X127455714Y-78740952D01*
X128027142Y-79312380D01*
X127408095Y-79312380D01*
X124482857Y-37987142D02*
X124530476Y-38034761D01*
X124673333Y-38082380D01*
X124768571Y-38082380D01*
X124911428Y-38034761D01*
X125006666Y-37939523D01*
X125054285Y-37844285D01*
X125101904Y-37653809D01*
X125101904Y-37510952D01*
X125054285Y-37320476D01*
X125006666Y-37225238D01*
X124911428Y-37130000D01*
X124768571Y-37082380D01*
X124673333Y-37082380D01*
X124530476Y-37130000D01*
X124482857Y-37177619D01*
X123625714Y-37415714D02*
X123625714Y-38082380D01*
X123863809Y-37034761D02*
X124101904Y-37749047D01*
X123482857Y-37749047D01*
X122911428Y-37082380D02*
X122816190Y-37082380D01*
X122720952Y-37130000D01*
X122673333Y-37177619D01*
X122625714Y-37272857D01*
X122578095Y-37463333D01*
X122578095Y-37701428D01*
X122625714Y-37891904D01*
X122673333Y-37987142D01*
X122720952Y-38034761D01*
X122816190Y-38082380D01*
X122911428Y-38082380D01*
X123006666Y-38034761D01*
X123054285Y-37987142D01*
X123101904Y-37891904D01*
X123149523Y-37701428D01*
X123149523Y-37463333D01*
X123101904Y-37272857D01*
X123054285Y-37177619D01*
X123006666Y-37130000D01*
X122911428Y-37082380D01*
X71254857Y-121261142D02*
X71302476Y-121308761D01*
X71445333Y-121356380D01*
X71540571Y-121356380D01*
X71683428Y-121308761D01*
X71778666Y-121213523D01*
X71826285Y-121118285D01*
X71873904Y-120927809D01*
X71873904Y-120784952D01*
X71826285Y-120594476D01*
X71778666Y-120499238D01*
X71683428Y-120404000D01*
X71540571Y-120356380D01*
X71445333Y-120356380D01*
X71302476Y-120404000D01*
X71254857Y-120451619D01*
X70873904Y-120451619D02*
X70826285Y-120404000D01*
X70731047Y-120356380D01*
X70492952Y-120356380D01*
X70397714Y-120404000D01*
X70350095Y-120451619D01*
X70302476Y-120546857D01*
X70302476Y-120642095D01*
X70350095Y-120784952D01*
X70921523Y-121356380D01*
X70302476Y-121356380D01*
X69826285Y-121356380D02*
X69635809Y-121356380D01*
X69540571Y-121308761D01*
X69492952Y-121261142D01*
X69397714Y-121118285D01*
X69350095Y-120927809D01*
X69350095Y-120546857D01*
X69397714Y-120451619D01*
X69445333Y-120404000D01*
X69540571Y-120356380D01*
X69731047Y-120356380D01*
X69826285Y-120404000D01*
X69873904Y-120451619D01*
X69921523Y-120546857D01*
X69921523Y-120784952D01*
X69873904Y-120880190D01*
X69826285Y-120927809D01*
X69731047Y-120975428D01*
X69540571Y-120975428D01*
X69445333Y-120927809D01*
X69397714Y-120880190D01*
X69350095Y-120784952D01*
X78366857Y-120169642D02*
X78414476Y-120217261D01*
X78557333Y-120264880D01*
X78652571Y-120264880D01*
X78795428Y-120217261D01*
X78890666Y-120122023D01*
X78938285Y-120026785D01*
X78985904Y-119836309D01*
X78985904Y-119693452D01*
X78938285Y-119502976D01*
X78890666Y-119407738D01*
X78795428Y-119312500D01*
X78652571Y-119264880D01*
X78557333Y-119264880D01*
X78414476Y-119312500D01*
X78366857Y-119360119D01*
X77985904Y-119360119D02*
X77938285Y-119312500D01*
X77843047Y-119264880D01*
X77604952Y-119264880D01*
X77509714Y-119312500D01*
X77462095Y-119360119D01*
X77414476Y-119455357D01*
X77414476Y-119550595D01*
X77462095Y-119693452D01*
X78033523Y-120264880D01*
X77414476Y-120264880D01*
X76843047Y-119693452D02*
X76938285Y-119645833D01*
X76985904Y-119598214D01*
X77033523Y-119502976D01*
X77033523Y-119455357D01*
X76985904Y-119360119D01*
X76938285Y-119312500D01*
X76843047Y-119264880D01*
X76652571Y-119264880D01*
X76557333Y-119312500D01*
X76509714Y-119360119D01*
X76462095Y-119455357D01*
X76462095Y-119502976D01*
X76509714Y-119598214D01*
X76557333Y-119645833D01*
X76652571Y-119693452D01*
X76843047Y-119693452D01*
X76938285Y-119741071D01*
X76985904Y-119788690D01*
X77033523Y-119883928D01*
X77033523Y-120074404D01*
X76985904Y-120169642D01*
X76938285Y-120217261D01*
X76843047Y-120264880D01*
X76652571Y-120264880D01*
X76557333Y-120217261D01*
X76509714Y-120169642D01*
X76462095Y-120074404D01*
X76462095Y-119883928D01*
X76509714Y-119788690D01*
X76557333Y-119741071D01*
X76652571Y-119693452D01*
X127362857Y-28412380D02*
X127696190Y-27936190D01*
X127934285Y-28412380D02*
X127934285Y-27412380D01*
X127553333Y-27412380D01*
X127458095Y-27460000D01*
X127410476Y-27507619D01*
X127362857Y-27602857D01*
X127362857Y-27745714D01*
X127410476Y-27840952D01*
X127458095Y-27888571D01*
X127553333Y-27936190D01*
X127934285Y-27936190D01*
X126981904Y-27507619D02*
X126934285Y-27460000D01*
X126839047Y-27412380D01*
X126600952Y-27412380D01*
X126505714Y-27460000D01*
X126458095Y-27507619D01*
X126410476Y-27602857D01*
X126410476Y-27698095D01*
X126458095Y-27840952D01*
X127029523Y-28412380D01*
X126410476Y-28412380D01*
X125839047Y-27840952D02*
X125934285Y-27793333D01*
X125981904Y-27745714D01*
X126029523Y-27650476D01*
X126029523Y-27602857D01*
X125981904Y-27507619D01*
X125934285Y-27460000D01*
X125839047Y-27412380D01*
X125648571Y-27412380D01*
X125553333Y-27460000D01*
X125505714Y-27507619D01*
X125458095Y-27602857D01*
X125458095Y-27650476D01*
X125505714Y-27745714D01*
X125553333Y-27793333D01*
X125648571Y-27840952D01*
X125839047Y-27840952D01*
X125934285Y-27888571D01*
X125981904Y-27936190D01*
X126029523Y-28031428D01*
X126029523Y-28221904D01*
X125981904Y-28317142D01*
X125934285Y-28364761D01*
X125839047Y-28412380D01*
X125648571Y-28412380D01*
X125553333Y-28364761D01*
X125505714Y-28317142D01*
X125458095Y-28221904D01*
X125458095Y-28031428D01*
X125505714Y-27936190D01*
X125553333Y-27888571D01*
X125648571Y-27840952D01*
X93162380Y-138041142D02*
X92686190Y-137707809D01*
X93162380Y-137469714D02*
X92162380Y-137469714D01*
X92162380Y-137850666D01*
X92210000Y-137945904D01*
X92257619Y-137993523D01*
X92352857Y-138041142D01*
X92495714Y-138041142D01*
X92590952Y-137993523D01*
X92638571Y-137945904D01*
X92686190Y-137850666D01*
X92686190Y-137469714D01*
X92590952Y-138612571D02*
X92543333Y-138517333D01*
X92495714Y-138469714D01*
X92400476Y-138422095D01*
X92352857Y-138422095D01*
X92257619Y-138469714D01*
X92210000Y-138517333D01*
X92162380Y-138612571D01*
X92162380Y-138803047D01*
X92210000Y-138898285D01*
X92257619Y-138945904D01*
X92352857Y-138993523D01*
X92400476Y-138993523D01*
X92495714Y-138945904D01*
X92543333Y-138898285D01*
X92590952Y-138803047D01*
X92590952Y-138612571D01*
X92638571Y-138517333D01*
X92686190Y-138469714D01*
X92781428Y-138422095D01*
X92971904Y-138422095D01*
X93067142Y-138469714D01*
X93114761Y-138517333D01*
X93162380Y-138612571D01*
X93162380Y-138803047D01*
X93114761Y-138898285D01*
X93067142Y-138945904D01*
X92971904Y-138993523D01*
X92781428Y-138993523D01*
X92686190Y-138945904D01*
X92638571Y-138898285D01*
X92590952Y-138803047D01*
X92162380Y-139850666D02*
X92162380Y-139660190D01*
X92210000Y-139564952D01*
X92257619Y-139517333D01*
X92400476Y-139422095D01*
X92590952Y-139374476D01*
X92971904Y-139374476D01*
X93067142Y-139422095D01*
X93114761Y-139469714D01*
X93162380Y-139564952D01*
X93162380Y-139755428D01*
X93114761Y-139850666D01*
X93067142Y-139898285D01*
X92971904Y-139945904D01*
X92733809Y-139945904D01*
X92638571Y-139898285D01*
X92590952Y-139850666D01*
X92543333Y-139755428D01*
X92543333Y-139564952D01*
X92590952Y-139469714D01*
X92638571Y-139422095D01*
X92733809Y-139374476D01*
X95917857Y-112677380D02*
X96251190Y-112201190D01*
X96489285Y-112677380D02*
X96489285Y-111677380D01*
X96108333Y-111677380D01*
X96013095Y-111725000D01*
X95965476Y-111772619D01*
X95917857Y-111867857D01*
X95917857Y-112010714D01*
X95965476Y-112105952D01*
X96013095Y-112153571D01*
X96108333Y-112201190D01*
X96489285Y-112201190D01*
X95584523Y-111677380D02*
X94917857Y-111677380D01*
X95346428Y-112677380D01*
X94060714Y-111677380D02*
X94536904Y-111677380D01*
X94584523Y-112153571D01*
X94536904Y-112105952D01*
X94441666Y-112058333D01*
X94203571Y-112058333D01*
X94108333Y-112105952D01*
X94060714Y-112153571D01*
X94013095Y-112248809D01*
X94013095Y-112486904D01*
X94060714Y-112582142D01*
X94108333Y-112629761D01*
X94203571Y-112677380D01*
X94441666Y-112677380D01*
X94536904Y-112629761D01*
X94584523Y-112582142D01*
X120202857Y-101632380D02*
X120536190Y-101156190D01*
X120774285Y-101632380D02*
X120774285Y-100632380D01*
X120393333Y-100632380D01*
X120298095Y-100680000D01*
X120250476Y-100727619D01*
X120202857Y-100822857D01*
X120202857Y-100965714D01*
X120250476Y-101060952D01*
X120298095Y-101108571D01*
X120393333Y-101156190D01*
X120774285Y-101156190D01*
X119869523Y-100632380D02*
X119202857Y-100632380D01*
X119631428Y-101632380D01*
X118917142Y-100632380D02*
X118250476Y-100632380D01*
X118679047Y-101632380D01*
X111202380Y-101127142D02*
X110726190Y-100793809D01*
X111202380Y-100555714D02*
X110202380Y-100555714D01*
X110202380Y-100936666D01*
X110250000Y-101031904D01*
X110297619Y-101079523D01*
X110392857Y-101127142D01*
X110535714Y-101127142D01*
X110630952Y-101079523D01*
X110678571Y-101031904D01*
X110726190Y-100936666D01*
X110726190Y-100555714D01*
X110630952Y-101698571D02*
X110583333Y-101603333D01*
X110535714Y-101555714D01*
X110440476Y-101508095D01*
X110392857Y-101508095D01*
X110297619Y-101555714D01*
X110250000Y-101603333D01*
X110202380Y-101698571D01*
X110202380Y-101889047D01*
X110250000Y-101984285D01*
X110297619Y-102031904D01*
X110392857Y-102079523D01*
X110440476Y-102079523D01*
X110535714Y-102031904D01*
X110583333Y-101984285D01*
X110630952Y-101889047D01*
X110630952Y-101698571D01*
X110678571Y-101603333D01*
X110726190Y-101555714D01*
X110821428Y-101508095D01*
X111011904Y-101508095D01*
X111107142Y-101555714D01*
X111154761Y-101603333D01*
X111202380Y-101698571D01*
X111202380Y-101889047D01*
X111154761Y-101984285D01*
X111107142Y-102031904D01*
X111011904Y-102079523D01*
X110821428Y-102079523D01*
X110726190Y-102031904D01*
X110678571Y-101984285D01*
X110630952Y-101889047D01*
X110202380Y-102412857D02*
X110202380Y-103031904D01*
X110583333Y-102698571D01*
X110583333Y-102841428D01*
X110630952Y-102936666D01*
X110678571Y-102984285D01*
X110773809Y-103031904D01*
X111011904Y-103031904D01*
X111107142Y-102984285D01*
X111154761Y-102936666D01*
X111202380Y-102841428D01*
X111202380Y-102555714D01*
X111154761Y-102460476D01*
X111107142Y-102412857D01*
X122682857Y-79617142D02*
X122730476Y-79664761D01*
X122873333Y-79712380D01*
X122968571Y-79712380D01*
X123111428Y-79664761D01*
X123206666Y-79569523D01*
X123254285Y-79474285D01*
X123301904Y-79283809D01*
X123301904Y-79140952D01*
X123254285Y-78950476D01*
X123206666Y-78855238D01*
X123111428Y-78760000D01*
X122968571Y-78712380D01*
X122873333Y-78712380D01*
X122730476Y-78760000D01*
X122682857Y-78807619D01*
X121825714Y-79045714D02*
X121825714Y-79712380D01*
X122063809Y-78664761D02*
X122301904Y-79379047D01*
X121682857Y-79379047D01*
X120825714Y-78712380D02*
X121301904Y-78712380D01*
X121349523Y-79188571D01*
X121301904Y-79140952D01*
X121206666Y-79093333D01*
X120968571Y-79093333D01*
X120873333Y-79140952D01*
X120825714Y-79188571D01*
X120778095Y-79283809D01*
X120778095Y-79521904D01*
X120825714Y-79617142D01*
X120873333Y-79664761D01*
X120968571Y-79712380D01*
X121206666Y-79712380D01*
X121301904Y-79664761D01*
X121349523Y-79617142D01*
X121552380Y-84527142D02*
X121076190Y-84193809D01*
X121552380Y-83955714D02*
X120552380Y-83955714D01*
X120552380Y-84336666D01*
X120600000Y-84431904D01*
X120647619Y-84479523D01*
X120742857Y-84527142D01*
X120885714Y-84527142D01*
X120980952Y-84479523D01*
X121028571Y-84431904D01*
X121076190Y-84336666D01*
X121076190Y-83955714D01*
X120552380Y-85431904D02*
X120552380Y-84955714D01*
X121028571Y-84908095D01*
X120980952Y-84955714D01*
X120933333Y-85050952D01*
X120933333Y-85289047D01*
X120980952Y-85384285D01*
X121028571Y-85431904D01*
X121123809Y-85479523D01*
X121361904Y-85479523D01*
X121457142Y-85431904D01*
X121504761Y-85384285D01*
X121552380Y-85289047D01*
X121552380Y-85050952D01*
X121504761Y-84955714D01*
X121457142Y-84908095D01*
X121552380Y-86431904D02*
X121552380Y-85860476D01*
X121552380Y-86146190D02*
X120552380Y-86146190D01*
X120695238Y-86050952D01*
X120790476Y-85955714D01*
X120838095Y-85860476D01*
X126438095Y-78012380D02*
X126438095Y-78821904D01*
X126390476Y-78917142D01*
X126342857Y-78964761D01*
X126247619Y-79012380D01*
X126057142Y-79012380D01*
X125961904Y-78964761D01*
X125914285Y-78917142D01*
X125866666Y-78821904D01*
X125866666Y-78012380D01*
X124866666Y-79012380D02*
X125438095Y-79012380D01*
X125152380Y-79012380D02*
X125152380Y-78012380D01*
X125247619Y-78155238D01*
X125342857Y-78250476D01*
X125438095Y-78298095D01*
X124247619Y-78012380D02*
X124152380Y-78012380D01*
X124057142Y-78060000D01*
X124009523Y-78107619D01*
X123961904Y-78202857D01*
X123914285Y-78393333D01*
X123914285Y-78631428D01*
X123961904Y-78821904D01*
X124009523Y-78917142D01*
X124057142Y-78964761D01*
X124152380Y-79012380D01*
X124247619Y-79012380D01*
X124342857Y-78964761D01*
X124390476Y-78917142D01*
X124438095Y-78821904D01*
X124485714Y-78631428D01*
X124485714Y-78393333D01*
X124438095Y-78202857D01*
X124390476Y-78107619D01*
X124342857Y-78060000D01*
X124247619Y-78012380D01*
X127032380Y-91347142D02*
X126556190Y-91013809D01*
X127032380Y-90775714D02*
X126032380Y-90775714D01*
X126032380Y-91156666D01*
X126080000Y-91251904D01*
X126127619Y-91299523D01*
X126222857Y-91347142D01*
X126365714Y-91347142D01*
X126460952Y-91299523D01*
X126508571Y-91251904D01*
X126556190Y-91156666D01*
X126556190Y-90775714D01*
X126365714Y-92204285D02*
X127032380Y-92204285D01*
X125984761Y-91966190D02*
X126699047Y-91728095D01*
X126699047Y-92347142D01*
X126032380Y-92918571D02*
X126032380Y-93013809D01*
X126080000Y-93109047D01*
X126127619Y-93156666D01*
X126222857Y-93204285D01*
X126413333Y-93251904D01*
X126651428Y-93251904D01*
X126841904Y-93204285D01*
X126937142Y-93156666D01*
X126984761Y-93109047D01*
X127032380Y-93013809D01*
X127032380Y-92918571D01*
X126984761Y-92823333D01*
X126937142Y-92775714D01*
X126841904Y-92728095D01*
X126651428Y-92680476D01*
X126413333Y-92680476D01*
X126222857Y-92728095D01*
X126127619Y-92775714D01*
X126080000Y-92823333D01*
X126032380Y-92918571D01*
X125172380Y-91287142D02*
X124696190Y-90953809D01*
X125172380Y-90715714D02*
X124172380Y-90715714D01*
X124172380Y-91096666D01*
X124220000Y-91191904D01*
X124267619Y-91239523D01*
X124362857Y-91287142D01*
X124505714Y-91287142D01*
X124600952Y-91239523D01*
X124648571Y-91191904D01*
X124696190Y-91096666D01*
X124696190Y-90715714D01*
X124172380Y-91620476D02*
X124172380Y-92239523D01*
X124553333Y-91906190D01*
X124553333Y-92049047D01*
X124600952Y-92144285D01*
X124648571Y-92191904D01*
X124743809Y-92239523D01*
X124981904Y-92239523D01*
X125077142Y-92191904D01*
X125124761Y-92144285D01*
X125172380Y-92049047D01*
X125172380Y-91763333D01*
X125124761Y-91668095D01*
X125077142Y-91620476D01*
X125172380Y-92715714D02*
X125172380Y-92906190D01*
X125124761Y-93001428D01*
X125077142Y-93049047D01*
X124934285Y-93144285D01*
X124743809Y-93191904D01*
X124362857Y-93191904D01*
X124267619Y-93144285D01*
X124220000Y-93096666D01*
X124172380Y-93001428D01*
X124172380Y-92810952D01*
X124220000Y-92715714D01*
X124267619Y-92668095D01*
X124362857Y-92620476D01*
X124600952Y-92620476D01*
X124696190Y-92668095D01*
X124743809Y-92715714D01*
X124791428Y-92810952D01*
X124791428Y-93001428D01*
X124743809Y-93096666D01*
X124696190Y-93144285D01*
X124600952Y-93191904D01*
X127372857Y-34112380D02*
X127706190Y-33636190D01*
X127944285Y-34112380D02*
X127944285Y-33112380D01*
X127563333Y-33112380D01*
X127468095Y-33160000D01*
X127420476Y-33207619D01*
X127372857Y-33302857D01*
X127372857Y-33445714D01*
X127420476Y-33540952D01*
X127468095Y-33588571D01*
X127563333Y-33636190D01*
X127944285Y-33636190D01*
X126991904Y-33207619D02*
X126944285Y-33160000D01*
X126849047Y-33112380D01*
X126610952Y-33112380D01*
X126515714Y-33160000D01*
X126468095Y-33207619D01*
X126420476Y-33302857D01*
X126420476Y-33398095D01*
X126468095Y-33540952D01*
X127039523Y-34112380D01*
X126420476Y-34112380D01*
X126087142Y-33112380D02*
X125468095Y-33112380D01*
X125801428Y-33493333D01*
X125658571Y-33493333D01*
X125563333Y-33540952D01*
X125515714Y-33588571D01*
X125468095Y-33683809D01*
X125468095Y-33921904D01*
X125515714Y-34017142D01*
X125563333Y-34064761D01*
X125658571Y-34112380D01*
X125944285Y-34112380D01*
X126039523Y-34064761D01*
X126087142Y-34017142D01*
X120282857Y-34472380D02*
X120616190Y-33996190D01*
X120854285Y-34472380D02*
X120854285Y-33472380D01*
X120473333Y-33472380D01*
X120378095Y-33520000D01*
X120330476Y-33567619D01*
X120282857Y-33662857D01*
X120282857Y-33805714D01*
X120330476Y-33900952D01*
X120378095Y-33948571D01*
X120473333Y-33996190D01*
X120854285Y-33996190D01*
X119949523Y-33472380D02*
X119330476Y-33472380D01*
X119663809Y-33853333D01*
X119520952Y-33853333D01*
X119425714Y-33900952D01*
X119378095Y-33948571D01*
X119330476Y-34043809D01*
X119330476Y-34281904D01*
X119378095Y-34377142D01*
X119425714Y-34424761D01*
X119520952Y-34472380D01*
X119806666Y-34472380D01*
X119901904Y-34424761D01*
X119949523Y-34377142D01*
X118425714Y-33472380D02*
X118901904Y-33472380D01*
X118949523Y-33948571D01*
X118901904Y-33900952D01*
X118806666Y-33853333D01*
X118568571Y-33853333D01*
X118473333Y-33900952D01*
X118425714Y-33948571D01*
X118378095Y-34043809D01*
X118378095Y-34281904D01*
X118425714Y-34377142D01*
X118473333Y-34424761D01*
X118568571Y-34472380D01*
X118806666Y-34472380D01*
X118901904Y-34424761D01*
X118949523Y-34377142D01*
X120772857Y-25572380D02*
X121106190Y-25096190D01*
X121344285Y-25572380D02*
X121344285Y-24572380D01*
X120963333Y-24572380D01*
X120868095Y-24620000D01*
X120820476Y-24667619D01*
X120772857Y-24762857D01*
X120772857Y-24905714D01*
X120820476Y-25000952D01*
X120868095Y-25048571D01*
X120963333Y-25096190D01*
X121344285Y-25096190D01*
X120439523Y-24572380D02*
X119820476Y-24572380D01*
X120153809Y-24953333D01*
X120010952Y-24953333D01*
X119915714Y-25000952D01*
X119868095Y-25048571D01*
X119820476Y-25143809D01*
X119820476Y-25381904D01*
X119868095Y-25477142D01*
X119915714Y-25524761D01*
X120010952Y-25572380D01*
X120296666Y-25572380D01*
X120391904Y-25524761D01*
X120439523Y-25477142D01*
X118963333Y-24905714D02*
X118963333Y-25572380D01*
X119201428Y-24524761D02*
X119439523Y-25239047D01*
X118820476Y-25239047D01*
X91035142Y-138041142D02*
X91082761Y-137993523D01*
X91130380Y-137850666D01*
X91130380Y-137755428D01*
X91082761Y-137612571D01*
X90987523Y-137517333D01*
X90892285Y-137469714D01*
X90701809Y-137422095D01*
X90558952Y-137422095D01*
X90368476Y-137469714D01*
X90273238Y-137517333D01*
X90178000Y-137612571D01*
X90130380Y-137755428D01*
X90130380Y-137850666D01*
X90178000Y-137993523D01*
X90225619Y-138041142D01*
X90130380Y-138898285D02*
X90130380Y-138707809D01*
X90178000Y-138612571D01*
X90225619Y-138564952D01*
X90368476Y-138469714D01*
X90558952Y-138422095D01*
X90939904Y-138422095D01*
X91035142Y-138469714D01*
X91082761Y-138517333D01*
X91130380Y-138612571D01*
X91130380Y-138803047D01*
X91082761Y-138898285D01*
X91035142Y-138945904D01*
X90939904Y-138993523D01*
X90701809Y-138993523D01*
X90606571Y-138945904D01*
X90558952Y-138898285D01*
X90511333Y-138803047D01*
X90511333Y-138612571D01*
X90558952Y-138517333D01*
X90606571Y-138469714D01*
X90701809Y-138422095D01*
X90130380Y-139850666D02*
X90130380Y-139660190D01*
X90178000Y-139564952D01*
X90225619Y-139517333D01*
X90368476Y-139422095D01*
X90558952Y-139374476D01*
X90939904Y-139374476D01*
X91035142Y-139422095D01*
X91082761Y-139469714D01*
X91130380Y-139564952D01*
X91130380Y-139755428D01*
X91082761Y-139850666D01*
X91035142Y-139898285D01*
X90939904Y-139945904D01*
X90701809Y-139945904D01*
X90606571Y-139898285D01*
X90558952Y-139850666D01*
X90511333Y-139755428D01*
X90511333Y-139564952D01*
X90558952Y-139469714D01*
X90606571Y-139422095D01*
X90701809Y-139374476D01*
X83446857Y-127857142D02*
X83494476Y-127904761D01*
X83637333Y-127952380D01*
X83732571Y-127952380D01*
X83875428Y-127904761D01*
X83970666Y-127809523D01*
X84018285Y-127714285D01*
X84065904Y-127523809D01*
X84065904Y-127380952D01*
X84018285Y-127190476D01*
X83970666Y-127095238D01*
X83875428Y-127000000D01*
X83732571Y-126952380D01*
X83637333Y-126952380D01*
X83494476Y-127000000D01*
X83446857Y-127047619D01*
X83113523Y-126952380D02*
X82446857Y-126952380D01*
X82875428Y-127952380D01*
X81923047Y-127380952D02*
X82018285Y-127333333D01*
X82065904Y-127285714D01*
X82113523Y-127190476D01*
X82113523Y-127142857D01*
X82065904Y-127047619D01*
X82018285Y-127000000D01*
X81923047Y-126952380D01*
X81732571Y-126952380D01*
X81637333Y-127000000D01*
X81589714Y-127047619D01*
X81542095Y-127142857D01*
X81542095Y-127190476D01*
X81589714Y-127285714D01*
X81637333Y-127333333D01*
X81732571Y-127380952D01*
X81923047Y-127380952D01*
X82018285Y-127428571D01*
X82065904Y-127476190D01*
X82113523Y-127571428D01*
X82113523Y-127761904D01*
X82065904Y-127857142D01*
X82018285Y-127904761D01*
X81923047Y-127952380D01*
X81732571Y-127952380D01*
X81637333Y-127904761D01*
X81589714Y-127857142D01*
X81542095Y-127761904D01*
X81542095Y-127571428D01*
X81589714Y-127476190D01*
X81637333Y-127428571D01*
X81732571Y-127380952D01*
X76398380Y-75557142D02*
X75922190Y-75223809D01*
X76398380Y-74985714D02*
X75398380Y-74985714D01*
X75398380Y-75366666D01*
X75446000Y-75461904D01*
X75493619Y-75509523D01*
X75588857Y-75557142D01*
X75731714Y-75557142D01*
X75826952Y-75509523D01*
X75874571Y-75461904D01*
X75922190Y-75366666D01*
X75922190Y-74985714D01*
X76398380Y-76033333D02*
X76398380Y-76223809D01*
X76350761Y-76319047D01*
X76303142Y-76366666D01*
X76160285Y-76461904D01*
X75969809Y-76509523D01*
X75588857Y-76509523D01*
X75493619Y-76461904D01*
X75446000Y-76414285D01*
X75398380Y-76319047D01*
X75398380Y-76128571D01*
X75446000Y-76033333D01*
X75493619Y-75985714D01*
X75588857Y-75938095D01*
X75826952Y-75938095D01*
X75922190Y-75985714D01*
X75969809Y-76033333D01*
X76017428Y-76128571D01*
X76017428Y-76319047D01*
X75969809Y-76414285D01*
X75922190Y-76461904D01*
X75826952Y-76509523D01*
X75398380Y-77128571D02*
X75398380Y-77223809D01*
X75446000Y-77319047D01*
X75493619Y-77366666D01*
X75588857Y-77414285D01*
X75779333Y-77461904D01*
X76017428Y-77461904D01*
X76207904Y-77414285D01*
X76303142Y-77366666D01*
X76350761Y-77319047D01*
X76398380Y-77223809D01*
X76398380Y-77128571D01*
X76350761Y-77033333D01*
X76303142Y-76985714D01*
X76207904Y-76938095D01*
X76017428Y-76890476D01*
X75779333Y-76890476D01*
X75588857Y-76938095D01*
X75493619Y-76985714D01*
X75446000Y-77033333D01*
X75398380Y-77128571D01*
X97924857Y-135834380D02*
X98258190Y-135358190D01*
X98496285Y-135834380D02*
X98496285Y-134834380D01*
X98115333Y-134834380D01*
X98020095Y-134882000D01*
X97972476Y-134929619D01*
X97924857Y-135024857D01*
X97924857Y-135167714D01*
X97972476Y-135262952D01*
X98020095Y-135310571D01*
X98115333Y-135358190D01*
X98496285Y-135358190D01*
X97353428Y-135262952D02*
X97448666Y-135215333D01*
X97496285Y-135167714D01*
X97543904Y-135072476D01*
X97543904Y-135024857D01*
X97496285Y-134929619D01*
X97448666Y-134882000D01*
X97353428Y-134834380D01*
X97162952Y-134834380D01*
X97067714Y-134882000D01*
X97020095Y-134929619D01*
X96972476Y-135024857D01*
X96972476Y-135072476D01*
X97020095Y-135167714D01*
X97067714Y-135215333D01*
X97162952Y-135262952D01*
X97353428Y-135262952D01*
X97448666Y-135310571D01*
X97496285Y-135358190D01*
X97543904Y-135453428D01*
X97543904Y-135643904D01*
X97496285Y-135739142D01*
X97448666Y-135786761D01*
X97353428Y-135834380D01*
X97162952Y-135834380D01*
X97067714Y-135786761D01*
X97020095Y-135739142D01*
X96972476Y-135643904D01*
X96972476Y-135453428D01*
X97020095Y-135358190D01*
X97067714Y-135310571D01*
X97162952Y-135262952D01*
X96020095Y-135834380D02*
X96591523Y-135834380D01*
X96305809Y-135834380D02*
X96305809Y-134834380D01*
X96401047Y-134977238D01*
X96496285Y-135072476D01*
X96591523Y-135120095D01*
X77102857Y-62062380D02*
X77436190Y-61586190D01*
X77674285Y-62062380D02*
X77674285Y-61062380D01*
X77293333Y-61062380D01*
X77198095Y-61110000D01*
X77150476Y-61157619D01*
X77102857Y-61252857D01*
X77102857Y-61395714D01*
X77150476Y-61490952D01*
X77198095Y-61538571D01*
X77293333Y-61586190D01*
X77674285Y-61586190D01*
X76531428Y-61490952D02*
X76626666Y-61443333D01*
X76674285Y-61395714D01*
X76721904Y-61300476D01*
X76721904Y-61252857D01*
X76674285Y-61157619D01*
X76626666Y-61110000D01*
X76531428Y-61062380D01*
X76340952Y-61062380D01*
X76245714Y-61110000D01*
X76198095Y-61157619D01*
X76150476Y-61252857D01*
X76150476Y-61300476D01*
X76198095Y-61395714D01*
X76245714Y-61443333D01*
X76340952Y-61490952D01*
X76531428Y-61490952D01*
X76626666Y-61538571D01*
X76674285Y-61586190D01*
X76721904Y-61681428D01*
X76721904Y-61871904D01*
X76674285Y-61967142D01*
X76626666Y-62014761D01*
X76531428Y-62062380D01*
X76340952Y-62062380D01*
X76245714Y-62014761D01*
X76198095Y-61967142D01*
X76150476Y-61871904D01*
X76150476Y-61681428D01*
X76198095Y-61586190D01*
X76245714Y-61538571D01*
X76340952Y-61490952D01*
X75674285Y-62062380D02*
X75483809Y-62062380D01*
X75388571Y-62014761D01*
X75340952Y-61967142D01*
X75245714Y-61824285D01*
X75198095Y-61633809D01*
X75198095Y-61252857D01*
X75245714Y-61157619D01*
X75293333Y-61110000D01*
X75388571Y-61062380D01*
X75579047Y-61062380D01*
X75674285Y-61110000D01*
X75721904Y-61157619D01*
X75769523Y-61252857D01*
X75769523Y-61490952D01*
X75721904Y-61586190D01*
X75674285Y-61633809D01*
X75579047Y-61681428D01*
X75388571Y-61681428D01*
X75293333Y-61633809D01*
X75245714Y-61586190D01*
X75198095Y-61490952D01*
X104777380Y-100332142D02*
X104301190Y-99998809D01*
X104777380Y-99760714D02*
X103777380Y-99760714D01*
X103777380Y-100141666D01*
X103825000Y-100236904D01*
X103872619Y-100284523D01*
X103967857Y-100332142D01*
X104110714Y-100332142D01*
X104205952Y-100284523D01*
X104253571Y-100236904D01*
X104301190Y-100141666D01*
X104301190Y-99760714D01*
X104205952Y-100903571D02*
X104158333Y-100808333D01*
X104110714Y-100760714D01*
X104015476Y-100713095D01*
X103967857Y-100713095D01*
X103872619Y-100760714D01*
X103825000Y-100808333D01*
X103777380Y-100903571D01*
X103777380Y-101094047D01*
X103825000Y-101189285D01*
X103872619Y-101236904D01*
X103967857Y-101284523D01*
X104015476Y-101284523D01*
X104110714Y-101236904D01*
X104158333Y-101189285D01*
X104205952Y-101094047D01*
X104205952Y-100903571D01*
X104253571Y-100808333D01*
X104301190Y-100760714D01*
X104396428Y-100713095D01*
X104586904Y-100713095D01*
X104682142Y-100760714D01*
X104729761Y-100808333D01*
X104777380Y-100903571D01*
X104777380Y-101094047D01*
X104729761Y-101189285D01*
X104682142Y-101236904D01*
X104586904Y-101284523D01*
X104396428Y-101284523D01*
X104301190Y-101236904D01*
X104253571Y-101189285D01*
X104205952Y-101094047D01*
X103872619Y-101665476D02*
X103825000Y-101713095D01*
X103777380Y-101808333D01*
X103777380Y-102046428D01*
X103825000Y-102141666D01*
X103872619Y-102189285D01*
X103967857Y-102236904D01*
X104063095Y-102236904D01*
X104205952Y-102189285D01*
X104777380Y-101617857D01*
X104777380Y-102236904D01*
X121892857Y-149002380D02*
X122226190Y-148526190D01*
X122464285Y-149002380D02*
X122464285Y-148002380D01*
X122083333Y-148002380D01*
X121988095Y-148050000D01*
X121940476Y-148097619D01*
X121892857Y-148192857D01*
X121892857Y-148335714D01*
X121940476Y-148430952D01*
X121988095Y-148478571D01*
X122083333Y-148526190D01*
X122464285Y-148526190D01*
X121559523Y-148002380D02*
X120892857Y-148002380D01*
X121321428Y-149002380D01*
X120607142Y-148002380D02*
X119988095Y-148002380D01*
X120321428Y-148383333D01*
X120178571Y-148383333D01*
X120083333Y-148430952D01*
X120035714Y-148478571D01*
X119988095Y-148573809D01*
X119988095Y-148811904D01*
X120035714Y-148907142D01*
X120083333Y-148954761D01*
X120178571Y-149002380D01*
X120464285Y-149002380D01*
X120559523Y-148954761D01*
X120607142Y-148907142D01*
X115514380Y-153281142D02*
X115038190Y-152947809D01*
X115514380Y-152709714D02*
X114514380Y-152709714D01*
X114514380Y-153090666D01*
X114562000Y-153185904D01*
X114609619Y-153233523D01*
X114704857Y-153281142D01*
X114847714Y-153281142D01*
X114942952Y-153233523D01*
X114990571Y-153185904D01*
X115038190Y-153090666D01*
X115038190Y-152709714D01*
X114514380Y-154185904D02*
X114514380Y-153709714D01*
X114990571Y-153662095D01*
X114942952Y-153709714D01*
X114895333Y-153804952D01*
X114895333Y-154043047D01*
X114942952Y-154138285D01*
X114990571Y-154185904D01*
X115085809Y-154233523D01*
X115323904Y-154233523D01*
X115419142Y-154185904D01*
X115466761Y-154138285D01*
X115514380Y-154043047D01*
X115514380Y-153804952D01*
X115466761Y-153709714D01*
X115419142Y-153662095D01*
X114514380Y-154566857D02*
X114514380Y-155185904D01*
X114895333Y-154852571D01*
X114895333Y-154995428D01*
X114942952Y-155090666D01*
X114990571Y-155138285D01*
X115085809Y-155185904D01*
X115323904Y-155185904D01*
X115419142Y-155138285D01*
X115466761Y-155090666D01*
X115514380Y-154995428D01*
X115514380Y-154709714D01*
X115466761Y-154614476D01*
X115419142Y-154566857D01*
X132214857Y-154122380D02*
X132548190Y-153646190D01*
X132786285Y-154122380D02*
X132786285Y-153122380D01*
X132405333Y-153122380D01*
X132310095Y-153170000D01*
X132262476Y-153217619D01*
X132214857Y-153312857D01*
X132214857Y-153455714D01*
X132262476Y-153550952D01*
X132310095Y-153598571D01*
X132405333Y-153646190D01*
X132786285Y-153646190D01*
X131357714Y-153122380D02*
X131548190Y-153122380D01*
X131643428Y-153170000D01*
X131691047Y-153217619D01*
X131786285Y-153360476D01*
X131833904Y-153550952D01*
X131833904Y-153931904D01*
X131786285Y-154027142D01*
X131738666Y-154074761D01*
X131643428Y-154122380D01*
X131452952Y-154122380D01*
X131357714Y-154074761D01*
X131310095Y-154027142D01*
X131262476Y-153931904D01*
X131262476Y-153693809D01*
X131310095Y-153598571D01*
X131357714Y-153550952D01*
X131452952Y-153503333D01*
X131643428Y-153503333D01*
X131738666Y-153550952D01*
X131786285Y-153598571D01*
X131833904Y-153693809D01*
X130310095Y-154122380D02*
X130881523Y-154122380D01*
X130595809Y-154122380D02*
X130595809Y-153122380D01*
X130691047Y-153265238D01*
X130786285Y-153360476D01*
X130881523Y-153408095D01*
X132214857Y-152090380D02*
X132548190Y-151614190D01*
X132786285Y-152090380D02*
X132786285Y-151090380D01*
X132405333Y-151090380D01*
X132310095Y-151138000D01*
X132262476Y-151185619D01*
X132214857Y-151280857D01*
X132214857Y-151423714D01*
X132262476Y-151518952D01*
X132310095Y-151566571D01*
X132405333Y-151614190D01*
X132786285Y-151614190D01*
X131357714Y-151090380D02*
X131548190Y-151090380D01*
X131643428Y-151138000D01*
X131691047Y-151185619D01*
X131786285Y-151328476D01*
X131833904Y-151518952D01*
X131833904Y-151899904D01*
X131786285Y-151995142D01*
X131738666Y-152042761D01*
X131643428Y-152090380D01*
X131452952Y-152090380D01*
X131357714Y-152042761D01*
X131310095Y-151995142D01*
X131262476Y-151899904D01*
X131262476Y-151661809D01*
X131310095Y-151566571D01*
X131357714Y-151518952D01*
X131452952Y-151471333D01*
X131643428Y-151471333D01*
X131738666Y-151518952D01*
X131786285Y-151566571D01*
X131833904Y-151661809D01*
X130643428Y-151090380D02*
X130548190Y-151090380D01*
X130452952Y-151138000D01*
X130405333Y-151185619D01*
X130357714Y-151280857D01*
X130310095Y-151471333D01*
X130310095Y-151709428D01*
X130357714Y-151899904D01*
X130405333Y-151995142D01*
X130452952Y-152042761D01*
X130548190Y-152090380D01*
X130643428Y-152090380D01*
X130738666Y-152042761D01*
X130786285Y-151995142D01*
X130833904Y-151899904D01*
X130881523Y-151709428D01*
X130881523Y-151471333D01*
X130833904Y-151280857D01*
X130786285Y-151185619D01*
X130738666Y-151138000D01*
X130643428Y-151090380D01*
X124658380Y-155567142D02*
X124182190Y-155233809D01*
X124658380Y-154995714D02*
X123658380Y-154995714D01*
X123658380Y-155376666D01*
X123706000Y-155471904D01*
X123753619Y-155519523D01*
X123848857Y-155567142D01*
X123991714Y-155567142D01*
X124086952Y-155519523D01*
X124134571Y-155471904D01*
X124182190Y-155376666D01*
X124182190Y-154995714D01*
X123658380Y-156424285D02*
X123658380Y-156233809D01*
X123706000Y-156138571D01*
X123753619Y-156090952D01*
X123896476Y-155995714D01*
X124086952Y-155948095D01*
X124467904Y-155948095D01*
X124563142Y-155995714D01*
X124610761Y-156043333D01*
X124658380Y-156138571D01*
X124658380Y-156329047D01*
X124610761Y-156424285D01*
X124563142Y-156471904D01*
X124467904Y-156519523D01*
X124229809Y-156519523D01*
X124134571Y-156471904D01*
X124086952Y-156424285D01*
X124039333Y-156329047D01*
X124039333Y-156138571D01*
X124086952Y-156043333D01*
X124134571Y-155995714D01*
X124229809Y-155948095D01*
X123658380Y-157424285D02*
X123658380Y-156948095D01*
X124134571Y-156900476D01*
X124086952Y-156948095D01*
X124039333Y-157043333D01*
X124039333Y-157281428D01*
X124086952Y-157376666D01*
X124134571Y-157424285D01*
X124229809Y-157471904D01*
X124467904Y-157471904D01*
X124563142Y-157424285D01*
X124610761Y-157376666D01*
X124658380Y-157281428D01*
X124658380Y-157043333D01*
X124610761Y-156948095D01*
X124563142Y-156900476D01*
X122880380Y-155567142D02*
X122404190Y-155233809D01*
X122880380Y-154995714D02*
X121880380Y-154995714D01*
X121880380Y-155376666D01*
X121928000Y-155471904D01*
X121975619Y-155519523D01*
X122070857Y-155567142D01*
X122213714Y-155567142D01*
X122308952Y-155519523D01*
X122356571Y-155471904D01*
X122404190Y-155376666D01*
X122404190Y-154995714D01*
X121880380Y-156424285D02*
X121880380Y-156233809D01*
X121928000Y-156138571D01*
X121975619Y-156090952D01*
X122118476Y-155995714D01*
X122308952Y-155948095D01*
X122689904Y-155948095D01*
X122785142Y-155995714D01*
X122832761Y-156043333D01*
X122880380Y-156138571D01*
X122880380Y-156329047D01*
X122832761Y-156424285D01*
X122785142Y-156471904D01*
X122689904Y-156519523D01*
X122451809Y-156519523D01*
X122356571Y-156471904D01*
X122308952Y-156424285D01*
X122261333Y-156329047D01*
X122261333Y-156138571D01*
X122308952Y-156043333D01*
X122356571Y-155995714D01*
X122451809Y-155948095D01*
X122308952Y-157090952D02*
X122261333Y-156995714D01*
X122213714Y-156948095D01*
X122118476Y-156900476D01*
X122070857Y-156900476D01*
X121975619Y-156948095D01*
X121928000Y-156995714D01*
X121880380Y-157090952D01*
X121880380Y-157281428D01*
X121928000Y-157376666D01*
X121975619Y-157424285D01*
X122070857Y-157471904D01*
X122118476Y-157471904D01*
X122213714Y-157424285D01*
X122261333Y-157376666D01*
X122308952Y-157281428D01*
X122308952Y-157090952D01*
X122356571Y-156995714D01*
X122404190Y-156948095D01*
X122499428Y-156900476D01*
X122689904Y-156900476D01*
X122785142Y-156948095D01*
X122832761Y-156995714D01*
X122880380Y-157090952D01*
X122880380Y-157281428D01*
X122832761Y-157376666D01*
X122785142Y-157424285D01*
X122689904Y-157471904D01*
X122499428Y-157471904D01*
X122404190Y-157424285D01*
X122356571Y-157376666D01*
X122308952Y-157281428D01*
X132214857Y-148280380D02*
X132548190Y-147804190D01*
X132786285Y-148280380D02*
X132786285Y-147280380D01*
X132405333Y-147280380D01*
X132310095Y-147328000D01*
X132262476Y-147375619D01*
X132214857Y-147470857D01*
X132214857Y-147613714D01*
X132262476Y-147708952D01*
X132310095Y-147756571D01*
X132405333Y-147804190D01*
X132786285Y-147804190D01*
X131310095Y-147280380D02*
X131786285Y-147280380D01*
X131833904Y-147756571D01*
X131786285Y-147708952D01*
X131691047Y-147661333D01*
X131452952Y-147661333D01*
X131357714Y-147708952D01*
X131310095Y-147756571D01*
X131262476Y-147851809D01*
X131262476Y-148089904D01*
X131310095Y-148185142D01*
X131357714Y-148232761D01*
X131452952Y-148280380D01*
X131691047Y-148280380D01*
X131786285Y-148232761D01*
X131833904Y-148185142D01*
X130405333Y-147280380D02*
X130595809Y-147280380D01*
X130691047Y-147328000D01*
X130738666Y-147375619D01*
X130833904Y-147518476D01*
X130881523Y-147708952D01*
X130881523Y-148089904D01*
X130833904Y-148185142D01*
X130786285Y-148232761D01*
X130691047Y-148280380D01*
X130500571Y-148280380D01*
X130405333Y-148232761D01*
X130357714Y-148185142D01*
X130310095Y-148089904D01*
X130310095Y-147851809D01*
X130357714Y-147756571D01*
X130405333Y-147708952D01*
X130500571Y-147661333D01*
X130691047Y-147661333D01*
X130786285Y-147708952D01*
X130833904Y-147756571D01*
X130881523Y-147851809D01*
X132214857Y-150312380D02*
X132548190Y-149836190D01*
X132786285Y-150312380D02*
X132786285Y-149312380D01*
X132405333Y-149312380D01*
X132310095Y-149360000D01*
X132262476Y-149407619D01*
X132214857Y-149502857D01*
X132214857Y-149645714D01*
X132262476Y-149740952D01*
X132310095Y-149788571D01*
X132405333Y-149836190D01*
X132786285Y-149836190D01*
X131310095Y-149312380D02*
X131786285Y-149312380D01*
X131833904Y-149788571D01*
X131786285Y-149740952D01*
X131691047Y-149693333D01*
X131452952Y-149693333D01*
X131357714Y-149740952D01*
X131310095Y-149788571D01*
X131262476Y-149883809D01*
X131262476Y-150121904D01*
X131310095Y-150217142D01*
X131357714Y-150264761D01*
X131452952Y-150312380D01*
X131691047Y-150312380D01*
X131786285Y-150264761D01*
X131833904Y-150217142D01*
X130929142Y-149312380D02*
X130262476Y-149312380D01*
X130691047Y-150312380D01*
X120499142Y-155567142D02*
X120546761Y-155519523D01*
X120594380Y-155376666D01*
X120594380Y-155281428D01*
X120546761Y-155138571D01*
X120451523Y-155043333D01*
X120356285Y-154995714D01*
X120165809Y-154948095D01*
X120022952Y-154948095D01*
X119832476Y-154995714D01*
X119737238Y-155043333D01*
X119642000Y-155138571D01*
X119594380Y-155281428D01*
X119594380Y-155376666D01*
X119642000Y-155519523D01*
X119689619Y-155567142D01*
X119594380Y-156424285D02*
X119594380Y-156233809D01*
X119642000Y-156138571D01*
X119689619Y-156090952D01*
X119832476Y-155995714D01*
X120022952Y-155948095D01*
X120403904Y-155948095D01*
X120499142Y-155995714D01*
X120546761Y-156043333D01*
X120594380Y-156138571D01*
X120594380Y-156329047D01*
X120546761Y-156424285D01*
X120499142Y-156471904D01*
X120403904Y-156519523D01*
X120165809Y-156519523D01*
X120070571Y-156471904D01*
X120022952Y-156424285D01*
X119975333Y-156329047D01*
X119975333Y-156138571D01*
X120022952Y-156043333D01*
X120070571Y-155995714D01*
X120165809Y-155948095D01*
X120594380Y-157471904D02*
X120594380Y-156900476D01*
X120594380Y-157186190D02*
X119594380Y-157186190D01*
X119737238Y-157090952D01*
X119832476Y-156995714D01*
X119880095Y-156900476D01*
X132214857Y-144121142D02*
X132262476Y-144168761D01*
X132405333Y-144216380D01*
X132500571Y-144216380D01*
X132643428Y-144168761D01*
X132738666Y-144073523D01*
X132786285Y-143978285D01*
X132833904Y-143787809D01*
X132833904Y-143644952D01*
X132786285Y-143454476D01*
X132738666Y-143359238D01*
X132643428Y-143264000D01*
X132500571Y-143216380D01*
X132405333Y-143216380D01*
X132262476Y-143264000D01*
X132214857Y-143311619D01*
X131310095Y-143216380D02*
X131786285Y-143216380D01*
X131833904Y-143692571D01*
X131786285Y-143644952D01*
X131691047Y-143597333D01*
X131452952Y-143597333D01*
X131357714Y-143644952D01*
X131310095Y-143692571D01*
X131262476Y-143787809D01*
X131262476Y-144025904D01*
X131310095Y-144121142D01*
X131357714Y-144168761D01*
X131452952Y-144216380D01*
X131691047Y-144216380D01*
X131786285Y-144168761D01*
X131833904Y-144121142D01*
X130691047Y-143644952D02*
X130786285Y-143597333D01*
X130833904Y-143549714D01*
X130881523Y-143454476D01*
X130881523Y-143406857D01*
X130833904Y-143311619D01*
X130786285Y-143264000D01*
X130691047Y-143216380D01*
X130500571Y-143216380D01*
X130405333Y-143264000D01*
X130357714Y-143311619D01*
X130310095Y-143406857D01*
X130310095Y-143454476D01*
X130357714Y-143549714D01*
X130405333Y-143597333D01*
X130500571Y-143644952D01*
X130691047Y-143644952D01*
X130786285Y-143692571D01*
X130833904Y-143740190D01*
X130881523Y-143835428D01*
X130881523Y-144025904D01*
X130833904Y-144121142D01*
X130786285Y-144168761D01*
X130691047Y-144216380D01*
X130500571Y-144216380D01*
X130405333Y-144168761D01*
X130357714Y-144121142D01*
X130310095Y-144025904D01*
X130310095Y-143835428D01*
X130357714Y-143740190D01*
X130405333Y-143692571D01*
X130500571Y-143644952D01*
X117451142Y-153281142D02*
X117498761Y-153233523D01*
X117546380Y-153090666D01*
X117546380Y-152995428D01*
X117498761Y-152852571D01*
X117403523Y-152757333D01*
X117308285Y-152709714D01*
X117117809Y-152662095D01*
X116974952Y-152662095D01*
X116784476Y-152709714D01*
X116689238Y-152757333D01*
X116594000Y-152852571D01*
X116546380Y-152995428D01*
X116546380Y-153090666D01*
X116594000Y-153233523D01*
X116641619Y-153281142D01*
X116546380Y-154185904D02*
X116546380Y-153709714D01*
X117022571Y-153662095D01*
X116974952Y-153709714D01*
X116927333Y-153804952D01*
X116927333Y-154043047D01*
X116974952Y-154138285D01*
X117022571Y-154185904D01*
X117117809Y-154233523D01*
X117355904Y-154233523D01*
X117451142Y-154185904D01*
X117498761Y-154138285D01*
X117546380Y-154043047D01*
X117546380Y-153804952D01*
X117498761Y-153709714D01*
X117451142Y-153662095D01*
X116641619Y-154614476D02*
X116594000Y-154662095D01*
X116546380Y-154757333D01*
X116546380Y-154995428D01*
X116594000Y-155090666D01*
X116641619Y-155138285D01*
X116736857Y-155185904D01*
X116832095Y-155185904D01*
X116974952Y-155138285D01*
X117546380Y-154566857D01*
X117546380Y-155185904D01*
X69984857Y-140057142D02*
X70032476Y-140104761D01*
X70175333Y-140152380D01*
X70270571Y-140152380D01*
X70413428Y-140104761D01*
X70508666Y-140009523D01*
X70556285Y-139914285D01*
X70603904Y-139723809D01*
X70603904Y-139580952D01*
X70556285Y-139390476D01*
X70508666Y-139295238D01*
X70413428Y-139200000D01*
X70270571Y-139152380D01*
X70175333Y-139152380D01*
X70032476Y-139200000D01*
X69984857Y-139247619D01*
X69651523Y-139152380D02*
X68984857Y-139152380D01*
X69413428Y-140152380D01*
X68175333Y-139152380D02*
X68365809Y-139152380D01*
X68461047Y-139200000D01*
X68508666Y-139247619D01*
X68603904Y-139390476D01*
X68651523Y-139580952D01*
X68651523Y-139961904D01*
X68603904Y-140057142D01*
X68556285Y-140104761D01*
X68461047Y-140152380D01*
X68270571Y-140152380D01*
X68175333Y-140104761D01*
X68127714Y-140057142D01*
X68080095Y-139961904D01*
X68080095Y-139723809D01*
X68127714Y-139628571D01*
X68175333Y-139580952D01*
X68270571Y-139533333D01*
X68461047Y-139533333D01*
X68556285Y-139580952D01*
X68603904Y-139628571D01*
X68651523Y-139723809D01*
X71254857Y-144375142D02*
X71302476Y-144422761D01*
X71445333Y-144470380D01*
X71540571Y-144470380D01*
X71683428Y-144422761D01*
X71778666Y-144327523D01*
X71826285Y-144232285D01*
X71873904Y-144041809D01*
X71873904Y-143898952D01*
X71826285Y-143708476D01*
X71778666Y-143613238D01*
X71683428Y-143518000D01*
X71540571Y-143470380D01*
X71445333Y-143470380D01*
X71302476Y-143518000D01*
X71254857Y-143565619D01*
X70921523Y-143470380D02*
X70254857Y-143470380D01*
X70683428Y-144470380D01*
X69445333Y-143803714D02*
X69445333Y-144470380D01*
X69683428Y-143422761D02*
X69921523Y-144137047D01*
X69302476Y-144137047D01*
X108592857Y-137517142D02*
X108640476Y-137564761D01*
X108783333Y-137612380D01*
X108878571Y-137612380D01*
X109021428Y-137564761D01*
X109116666Y-137469523D01*
X109164285Y-137374285D01*
X109211904Y-137183809D01*
X109211904Y-137040952D01*
X109164285Y-136850476D01*
X109116666Y-136755238D01*
X109021428Y-136660000D01*
X108878571Y-136612380D01*
X108783333Y-136612380D01*
X108640476Y-136660000D01*
X108592857Y-136707619D01*
X108259523Y-136612380D02*
X107592857Y-136612380D01*
X108021428Y-137612380D01*
X106688095Y-137612380D02*
X107259523Y-137612380D01*
X106973809Y-137612380D02*
X106973809Y-136612380D01*
X107069047Y-136755238D01*
X107164285Y-136850476D01*
X107259523Y-136898095D01*
X86252857Y-62612380D02*
X86586190Y-62136190D01*
X86824285Y-62612380D02*
X86824285Y-61612380D01*
X86443333Y-61612380D01*
X86348095Y-61660000D01*
X86300476Y-61707619D01*
X86252857Y-61802857D01*
X86252857Y-61945714D01*
X86300476Y-62040952D01*
X86348095Y-62088571D01*
X86443333Y-62136190D01*
X86824285Y-62136190D01*
X85395714Y-61945714D02*
X85395714Y-62612380D01*
X85633809Y-61564761D02*
X85871904Y-62279047D01*
X85252857Y-62279047D01*
X84443333Y-61612380D02*
X84633809Y-61612380D01*
X84729047Y-61660000D01*
X84776666Y-61707619D01*
X84871904Y-61850476D01*
X84919523Y-62040952D01*
X84919523Y-62421904D01*
X84871904Y-62517142D01*
X84824285Y-62564761D01*
X84729047Y-62612380D01*
X84538571Y-62612380D01*
X84443333Y-62564761D01*
X84395714Y-62517142D01*
X84348095Y-62421904D01*
X84348095Y-62183809D01*
X84395714Y-62088571D01*
X84443333Y-62040952D01*
X84538571Y-61993333D01*
X84729047Y-61993333D01*
X84824285Y-62040952D01*
X84871904Y-62088571D01*
X84919523Y-62183809D01*
X128912857Y-171553142D02*
X128960476Y-171600761D01*
X129103333Y-171648380D01*
X129198571Y-171648380D01*
X129341428Y-171600761D01*
X129436666Y-171505523D01*
X129484285Y-171410285D01*
X129531904Y-171219809D01*
X129531904Y-171076952D01*
X129484285Y-170886476D01*
X129436666Y-170791238D01*
X129341428Y-170696000D01*
X129198571Y-170648380D01*
X129103333Y-170648380D01*
X128960476Y-170696000D01*
X128912857Y-170743619D01*
X128055714Y-170648380D02*
X128246190Y-170648380D01*
X128341428Y-170696000D01*
X128389047Y-170743619D01*
X128484285Y-170886476D01*
X128531904Y-171076952D01*
X128531904Y-171457904D01*
X128484285Y-171553142D01*
X128436666Y-171600761D01*
X128341428Y-171648380D01*
X128150952Y-171648380D01*
X128055714Y-171600761D01*
X128008095Y-171553142D01*
X127960476Y-171457904D01*
X127960476Y-171219809D01*
X128008095Y-171124571D01*
X128055714Y-171076952D01*
X128150952Y-171029333D01*
X128341428Y-171029333D01*
X128436666Y-171076952D01*
X128484285Y-171124571D01*
X128531904Y-171219809D01*
X127103333Y-170981714D02*
X127103333Y-171648380D01*
X127341428Y-170600761D02*
X127579523Y-171315047D01*
X126960476Y-171315047D01*
X127134857Y-169616380D02*
X127468190Y-169140190D01*
X127706285Y-169616380D02*
X127706285Y-168616380D01*
X127325333Y-168616380D01*
X127230095Y-168664000D01*
X127182476Y-168711619D01*
X127134857Y-168806857D01*
X127134857Y-168949714D01*
X127182476Y-169044952D01*
X127230095Y-169092571D01*
X127325333Y-169140190D01*
X127706285Y-169140190D01*
X126563428Y-169044952D02*
X126658666Y-168997333D01*
X126706285Y-168949714D01*
X126753904Y-168854476D01*
X126753904Y-168806857D01*
X126706285Y-168711619D01*
X126658666Y-168664000D01*
X126563428Y-168616380D01*
X126372952Y-168616380D01*
X126277714Y-168664000D01*
X126230095Y-168711619D01*
X126182476Y-168806857D01*
X126182476Y-168854476D01*
X126230095Y-168949714D01*
X126277714Y-168997333D01*
X126372952Y-169044952D01*
X126563428Y-169044952D01*
X126658666Y-169092571D01*
X126706285Y-169140190D01*
X126753904Y-169235428D01*
X126753904Y-169425904D01*
X126706285Y-169521142D01*
X126658666Y-169568761D01*
X126563428Y-169616380D01*
X126372952Y-169616380D01*
X126277714Y-169568761D01*
X126230095Y-169521142D01*
X126182476Y-169425904D01*
X126182476Y-169235428D01*
X126230095Y-169140190D01*
X126277714Y-169092571D01*
X126372952Y-169044952D01*
X125563428Y-168616380D02*
X125468190Y-168616380D01*
X125372952Y-168664000D01*
X125325333Y-168711619D01*
X125277714Y-168806857D01*
X125230095Y-168997333D01*
X125230095Y-169235428D01*
X125277714Y-169425904D01*
X125325333Y-169521142D01*
X125372952Y-169568761D01*
X125468190Y-169616380D01*
X125563428Y-169616380D01*
X125658666Y-169568761D01*
X125706285Y-169521142D01*
X125753904Y-169425904D01*
X125801523Y-169235428D01*
X125801523Y-168997333D01*
X125753904Y-168806857D01*
X125706285Y-168711619D01*
X125658666Y-168664000D01*
X125563428Y-168616380D01*
X125452857Y-42687142D02*
X125500476Y-42734761D01*
X125643333Y-42782380D01*
X125738571Y-42782380D01*
X125881428Y-42734761D01*
X125976666Y-42639523D01*
X126024285Y-42544285D01*
X126071904Y-42353809D01*
X126071904Y-42210952D01*
X126024285Y-42020476D01*
X125976666Y-41925238D01*
X125881428Y-41830000D01*
X125738571Y-41782380D01*
X125643333Y-41782380D01*
X125500476Y-41830000D01*
X125452857Y-41877619D01*
X124548095Y-41782380D02*
X125024285Y-41782380D01*
X125071904Y-42258571D01*
X125024285Y-42210952D01*
X124929047Y-42163333D01*
X124690952Y-42163333D01*
X124595714Y-42210952D01*
X124548095Y-42258571D01*
X124500476Y-42353809D01*
X124500476Y-42591904D01*
X124548095Y-42687142D01*
X124595714Y-42734761D01*
X124690952Y-42782380D01*
X124929047Y-42782380D01*
X125024285Y-42734761D01*
X125071904Y-42687142D01*
X123548095Y-42782380D02*
X124119523Y-42782380D01*
X123833809Y-42782380D02*
X123833809Y-41782380D01*
X123929047Y-41925238D01*
X124024285Y-42020476D01*
X124119523Y-42068095D01*
X126842857Y-45832380D02*
X127176190Y-45356190D01*
X127414285Y-45832380D02*
X127414285Y-44832380D01*
X127033333Y-44832380D01*
X126938095Y-44880000D01*
X126890476Y-44927619D01*
X126842857Y-45022857D01*
X126842857Y-45165714D01*
X126890476Y-45260952D01*
X126938095Y-45308571D01*
X127033333Y-45356190D01*
X127414285Y-45356190D01*
X125938095Y-44832380D02*
X126414285Y-44832380D01*
X126461904Y-45308571D01*
X126414285Y-45260952D01*
X126319047Y-45213333D01*
X126080952Y-45213333D01*
X125985714Y-45260952D01*
X125938095Y-45308571D01*
X125890476Y-45403809D01*
X125890476Y-45641904D01*
X125938095Y-45737142D01*
X125985714Y-45784761D01*
X126080952Y-45832380D01*
X126319047Y-45832380D01*
X126414285Y-45784761D01*
X126461904Y-45737142D01*
X125509523Y-44927619D02*
X125461904Y-44880000D01*
X125366666Y-44832380D01*
X125128571Y-44832380D01*
X125033333Y-44880000D01*
X124985714Y-44927619D01*
X124938095Y-45022857D01*
X124938095Y-45118095D01*
X124985714Y-45260952D01*
X125557142Y-45832380D01*
X124938095Y-45832380D01*
X108259523Y-104412380D02*
X108259523Y-105126666D01*
X108307142Y-105269523D01*
X108402380Y-105364761D01*
X108545238Y-105412380D01*
X108640476Y-105412380D01*
X107259523Y-105412380D02*
X107830952Y-105412380D01*
X107545238Y-105412380D02*
X107545238Y-104412380D01*
X107640476Y-104555238D01*
X107735714Y-104650476D01*
X107830952Y-104698095D01*
X106307142Y-105412380D02*
X106878571Y-105412380D01*
X106592857Y-105412380D02*
X106592857Y-104412380D01*
X106688095Y-104555238D01*
X106783333Y-104650476D01*
X106878571Y-104698095D01*
X125610857Y-166727142D02*
X125658476Y-166774761D01*
X125801333Y-166822380D01*
X125896571Y-166822380D01*
X126039428Y-166774761D01*
X126134666Y-166679523D01*
X126182285Y-166584285D01*
X126229904Y-166393809D01*
X126229904Y-166250952D01*
X126182285Y-166060476D01*
X126134666Y-165965238D01*
X126039428Y-165870000D01*
X125896571Y-165822380D01*
X125801333Y-165822380D01*
X125658476Y-165870000D01*
X125610857Y-165917619D01*
X124753714Y-165822380D02*
X124944190Y-165822380D01*
X125039428Y-165870000D01*
X125087047Y-165917619D01*
X125182285Y-166060476D01*
X125229904Y-166250952D01*
X125229904Y-166631904D01*
X125182285Y-166727142D01*
X125134666Y-166774761D01*
X125039428Y-166822380D01*
X124848952Y-166822380D01*
X124753714Y-166774761D01*
X124706095Y-166727142D01*
X124658476Y-166631904D01*
X124658476Y-166393809D01*
X124706095Y-166298571D01*
X124753714Y-166250952D01*
X124848952Y-166203333D01*
X125039428Y-166203333D01*
X125134666Y-166250952D01*
X125182285Y-166298571D01*
X125229904Y-166393809D01*
X123753714Y-165822380D02*
X124229904Y-165822380D01*
X124277523Y-166298571D01*
X124229904Y-166250952D01*
X124134666Y-166203333D01*
X123896571Y-166203333D01*
X123801333Y-166250952D01*
X123753714Y-166298571D01*
X123706095Y-166393809D01*
X123706095Y-166631904D01*
X123753714Y-166727142D01*
X123801333Y-166774761D01*
X123896571Y-166822380D01*
X124134666Y-166822380D01*
X124229904Y-166774761D01*
X124277523Y-166727142D01*
X128652857Y-47737142D02*
X128700476Y-47784761D01*
X128843333Y-47832380D01*
X128938571Y-47832380D01*
X129081428Y-47784761D01*
X129176666Y-47689523D01*
X129224285Y-47594285D01*
X129271904Y-47403809D01*
X129271904Y-47260952D01*
X129224285Y-47070476D01*
X129176666Y-46975238D01*
X129081428Y-46880000D01*
X128938571Y-46832380D01*
X128843333Y-46832380D01*
X128700476Y-46880000D01*
X128652857Y-46927619D01*
X127748095Y-46832380D02*
X128224285Y-46832380D01*
X128271904Y-47308571D01*
X128224285Y-47260952D01*
X128129047Y-47213333D01*
X127890952Y-47213333D01*
X127795714Y-47260952D01*
X127748095Y-47308571D01*
X127700476Y-47403809D01*
X127700476Y-47641904D01*
X127748095Y-47737142D01*
X127795714Y-47784761D01*
X127890952Y-47832380D01*
X128129047Y-47832380D01*
X128224285Y-47784761D01*
X128271904Y-47737142D01*
X127081428Y-46832380D02*
X126986190Y-46832380D01*
X126890952Y-46880000D01*
X126843333Y-46927619D01*
X126795714Y-47022857D01*
X126748095Y-47213333D01*
X126748095Y-47451428D01*
X126795714Y-47641904D01*
X126843333Y-47737142D01*
X126890952Y-47784761D01*
X126986190Y-47832380D01*
X127081428Y-47832380D01*
X127176666Y-47784761D01*
X127224285Y-47737142D01*
X127271904Y-47641904D01*
X127319523Y-47451428D01*
X127319523Y-47213333D01*
X127271904Y-47022857D01*
X127224285Y-46927619D01*
X127176666Y-46880000D01*
X127081428Y-46832380D01*
M02*
